<?xml version="1.0" encoding="UTF-8"?>
<svg width="68px" height="59px" viewBox="0 0 68 59" version="1.1" xmlns="http://www.w3.org/2000/svg" xmlns:xlink="http://www.w3.org/1999/xlink">
    <title>blooksy</title>
    <defs>
        <filter id="filter-1">
            <feColorMatrix in="SourceGraphic" type="matrix" values="0 0 0 0 1.000000 0 0 0 0 1.000000 0 0 0 0 1.000000 0 0 0 1.000000 0"></feColorMatrix>
        </filter>
    </defs>
    <g id="Page-1" stroke="none" stroke-width="1" fill="none" fill-rule="evenodd">
        <g id="001-copy-5" transform="translate(-122.000000, -20.000000)">
            <g id="blooksy" transform="translate(122.910616, 20.000000)">
                <g filter="url(#filter-1)" id="Group-11">
                    <g transform="translate(0.055865, 48.022997)">
                        <path d="M0.166401274,10.1457165 C-0.0542064756,9.97301219 0.0113455414,9.72593152 0.0113455414,9.50406315 C0.0113455414,6.60464701 0.0189092357,3.70523088 -3.94117388e-14,0.805814742 C-3.94117388e-14,0.247361982 0.148752654,0.0242330014 0.756369427,0.0380997742 C2.39516985,0.0746576298 4.03397028,0.0481846999 5.6727707,0.051966547 C6.82875531,0.051966547 7.62420382,0.566297757 8.02634023,1.59496018 C8.44486465,2.66522292 8.31754246,3.67749733 7.50948779,4.51202493 C7.13760616,4.89651273 7.06449045,5.06039277 7.58008227,5.37050423 C8.54319268,5.95038746 8.74867304,6.91097663 8.64782378,7.95098459 C8.55579883,8.9065313 7.96457006,9.50280253 7.10987261,9.84947185 C6.71403928,10.0095701 6.29425425,10.1129405 5.88581476,10.242784 L5.50763004,10.242784 C5.42730673,10.1433875 5.29953117,10.0951703 5.17356688,10.1167224 L0.166401274,10.1457165 Z M4.05540074,7.85013534 C4.3491242,7.85013534 4.64284766,7.85013534 4.93783174,7.85013534 C5.4559448,7.84257164 5.79378981,7.59801219 5.79505406,7.06225052 C5.79631104,6.52648884 5.46981157,6.25293523 4.96934713,6.20881368 C4.55334395,6.17225583 4.1322983,6.19494691 3.70873142,6.19368629 C2.85025212,6.19368629 2.85025212,6.19368629 2.85025212,7.03829882 C2.85025212,7.85139595 2.85025212,7.85139595 3.67721603,7.85139595 L4.05540074,7.85013534 Z M3.97472134,3.9636571 C4.2041534,3.9636571 4.43484607,3.9560934 4.66427813,3.9636571 C5.18869427,3.9876088 5.45216295,3.71153396 5.45720541,3.21863321 C5.46224788,2.72573247 5.17482749,2.45470009 4.67184183,2.44965763 C4.21171709,2.44965763 3.75285297,2.44965763 3.29272824,2.44965763 C3.09607219,2.44965763 2.92967091,2.48621549 2.85781582,2.71564754 C2.60569268,3.54009022 2.89059183,3.9636571 3.72385881,3.9636571 L3.97472134,3.9636571 Z" id="Shape" fill="#01286A" fill-rule="nonzero"></path>
                        <path d="M21.3825637,10.2465658 C20.2770037,9.78391984 19.239517,9.23807323 18.5108811,8.22958067 C17.1809315,6.3865605 17.1582404,3.91701432 18.4907113,2.11937631 C19.8477929,0.288855117 22.235606,-0.449585916 24.3891322,0.295265379 C26.4527601,1.00877387 27.8949045,3.15434181 27.8054007,5.37680731 C27.7052666,7.62961737 26.1513781,9.55537667 23.9706077,10.1293285 C23.8899283,10.1520196 23.8079883,10.1558015 23.7777335,10.2553901 L21.3825637,10.2465658 Z M24.9324575,5.04274415 C24.9334622,4.89223356 24.9237731,4.74184174 24.9034634,4.59270434 C24.7509289,3.71027334 24.3538349,2.99046177 23.477707,2.67404723 C22.7352044,2.40553608 21.9838774,2.42948778 21.3346603,2.93625529 C20.0425292,3.93466294 20.02362,6.31092355 21.2905387,7.33832536 C21.5308696,7.53856346 21.8164878,7.677045 22.1225451,7.74172239 C23.733612,8.07074309 24.9236332,6.98535296 24.9324575,5.04274415 Z" id="Shape" fill="#01286A" fill-rule="nonzero"></path>
                        <path d="M32.2238588,10.2465658 C31.3754644,9.812914 30.4993365,9.4435536 29.8198646,8.71869956 C28.2313652,7.02658514 27.9518663,4.48848841 29.1340897,2.49125795 C30.3001592,0.534782364 32.7243232,-0.42202496 34.9732617,0.186852428 C37.1062235,0.764214424 38.6630839,2.83414542 38.6745017,5.10955678 C38.6857749,7.36479829 37.3608678,9.24941878 35.2367304,10.0259581 C35.0728503,10.0864676 34.8522426,10.0499098 34.7450902,10.2465658 L32.2238588,10.2465658 Z M33.5701964,2.5353795 C32.1633493,2.52655519 31.2342755,3.57160561 31.2367916,5.16124202 C31.2367916,6.68532642 32.1898222,7.79466825 33.5172505,7.82240179 C34.8446789,7.85013534 35.8430865,6.7155812 35.8582139,5.15619956 C35.8796444,3.63211517 34.9240977,2.54546442 33.5701964,2.5353795 Z" id="Shape" fill="#01286A" fill-rule="nonzero"></path>
                        <path d="M39.9400876,10.1104193 C39.7938562,9.92636941 39.846802,9.7082829 39.8455414,9.50406315 C39.8455414,6.60464701 39.8594082,3.71153396 39.8316746,0.815899668 C39.8316746,0.201979817 40.0220276,-0.01358547 40.6283838,0.0444028527 C41.1097801,0.0778140526 41.5929136,0.0778140526 42.07431,0.0444028527 C42.5041799,0.0254936171 42.6857086,0.18937366 42.6743631,0.630589158 C42.6529326,1.38695859 42.6655387,2.14332801 42.6743631,2.89969744 C42.6743631,3.06105625 42.625199,3.26023353 42.8256369,3.33965232 C43.0563296,3.43167727 43.1622213,3.23754245 43.2769374,3.08752918 C43.9727972,2.21896495 44.6736996,1.35670381 45.3544321,0.478054657 C45.5557489,0.178188583 45.9033206,0.010428586 46.263336,0.0393603899 C46.8495223,0.0658333198 47.4369692,0.0469240842 48.028198,0.0393603899 C48.218551,0.0393603899 48.4215101,0.0305360799 48.5147956,0.241058904 C48.6080812,0.451581727 48.4631104,0.592770687 48.3433519,0.745305188 C47.4609209,1.83573778 46.5910961,2.94381899 45.6784103,4.0115605 C45.3191348,4.43260614 45.2649283,4.74019638 45.6128583,5.21040604 C46.6465632,6.60968948 47.6298434,8.04427016 48.6244692,9.47254776 C48.7505308,9.6528158 49.0291269,9.83812631 48.7505308,10.1116799 L45.9532245,10.1230255 C45.7313562,10.0499098 45.6595011,9.83812631 45.544785,9.67046442 C44.9560775,8.83719744 44.390061,7.99384553 43.8215234,7.14292992 C43.4269506,6.55800423 43.2693737,6.56430731 42.8268976,7.11897822 C42.6478901,7.34588905 42.684448,7.58414542 42.6693206,7.82870487 C42.6214172,8.63423831 42.7815154,9.44859606 42.5634289,10.2465658 L42.3113057,10.2465658 C41.5322452,9.97049096 40.7267118,10.2024443 39.9400876,10.1104193 Z" id="Path" fill="#01286A" fill-rule="nonzero"></path>
                        <path d="M51.6373408,10.2465658 C50.9402203,9.98435774 50.2506635,9.71710721 49.5472399,9.46498406 C49.0757696,9.29480094 49.0013933,9.02250795 49.2396497,8.59263799 C49.4830034,8.15258178 49.7034842,7.70025957 49.9002123,7.2374761 C50.0893047,6.79752122 50.3351247,6.75844213 50.7360005,6.98535296 C51.49237,7.41018045 52.2865579,7.72407377 53.1626858,7.78710455 C53.2644113,7.80978987 53.3686607,7.81911299 53.4727972,7.8148381 C53.7488721,7.75937101 54.1308386,7.82492302 54.2001725,7.45052016 C54.2695064,7.07611729 53.9354432,6.91349786 53.6366773,6.80886676 C52.984939,6.5794347 52.3180732,6.39412419 51.6713774,6.15208597 C49.8182723,5.45370487 49.2333466,4.54227971 49.4804273,2.78624202 C49.6896895,1.29871549 50.9931661,0.167943192 52.6319666,0.0242330014 C54.0388137,-0.10182857 55.3296842,0.276356144 56.5789544,0.870106144 C56.8701566,1.00877387 57.0126062,1.16256899 56.8172107,1.500414 C56.5449177,1.97062366 56.2953158,2.45722132 56.0671444,2.95138268 C55.8868763,3.34217355 55.6574443,3.34217355 55.3107749,3.16316612 C54.6212182,2.79884818 53.9089703,2.48369425 53.1059581,2.50260349 C52.8021497,2.51016718 52.4227044,2.47739118 52.358413,2.90347929 C52.2966428,3.3056157 52.6307059,3.44302281 52.92569,3.54765391 C53.6354167,3.79977706 54.3665738,3.99391188 55.0687367,4.26494425 C56.727707,4.90785827 57.2975053,5.72977971 57.2445594,7.31941612 C57.1966561,8.77038481 56.4743232,9.62382164 54.8493896,10.1520196 C54.8191348,10.1621046 54.8027468,10.2125292 54.7800557,10.2453052 L51.6373408,10.2465658 Z" id="Path" fill="#01286A" fill-rule="nonzero"></path>
                        <path d="M60.802017,10.1469772 C60.5082935,9.86838109 60.6204883,9.50154192 60.6570462,9.1952123 C60.8612659,7.51481156 60.3708864,6.03736994 59.5300557,4.6053105 C58.8203291,3.39764064 58.2328822,2.1181157 57.5975318,0.867584912 C57.2647293,0.214585974 57.3605361,0.060790857 58.089172,0.0544877784 C60.2385218,0.0330573113 60.2385218,0.0330573113 61.0705281,2.03491506 C61.287354,2.55807058 61.5029193,3.07996549 61.7159634,3.60438162 C61.7789942,3.76069797 61.8231157,3.94979033 62.0210324,3.9636571 C62.2605494,3.98130572 62.310974,3.76826166 62.3840897,3.59555731 C62.8000929,2.61227706 63.2337447,1.6365605 63.6245356,0.643195316 C63.7972399,0.204501048 64.0531449,0.0204511542 64.5246152,0.0469240842 C65.089371,0.0784394769 65.6591693,0.0582696256 66.2239252,0.0469240842 C66.7445594,0.0469240842 66.854233,0.258707524 66.6197585,0.71252918 C65.6553875,2.57319797 64.7086651,4.4452123 63.7392516,6.29705678 C63.5584064,6.64783345 63.4645833,7.0369617 63.465698,7.43161092 C63.4430069,8.36824839 63.5841959,9.31244956 63.36737,10.242784 L63.1152468,10.242784 C62.3525743,9.98561835 61.5709926,10.1684076 60.802017,10.1469772 Z" id="Path" fill="#01286A" fill-rule="nonzero"></path>
                        <path d="M17.1216826,10.1368922 C17.1153795,10.1734501 17.1065552,10.2112686 17.0964703,10.2478264 L10.0370223,10.2478264 C10.0088064,10.2223328 9.99470822,10.1847376 9.99920382,10.1469772 L17.1216826,10.1368922 Z" id="Path" fill="#01286A" fill-rule="nonzero"></path>
                        <path d="M0.166401274,10.1457165 L5.16474257,10.1217648 C5.29070686,10.1002127 5.41848242,10.1484299 5.49880573,10.2478264 L0.204219745,10.2478264 C0.175795851,10.2219399 0.161696909,10.1838728 0.166401274,10.1457165 Z" id="Path" fill="#01286A" fill-rule="nonzero"></path>
                        <path d="M45.9645701,10.2465658 C45.964848,10.2078315 45.9580114,10.1693755 45.9444002,10.1331104 L48.7417065,10.1217648 C48.7352831,10.1635399 48.7352831,10.2060514 48.7417065,10.2478264 L45.9645701,10.2465658 Z" id="Path" fill="#01286A" fill-rule="nonzero"></path>
                        <path d="M39.9400876,10.1104193 C40.7267118,10.2024443 41.5322452,9.97049096 42.3087845,10.2465658 L39.9136146,10.2465658 L39.9400876,10.1104193 Z" id="Path" fill="#01286A" fill-rule="nonzero"></path>
                        <path d="M60.802017,10.1469772 C61.5709926,10.1684076 62.3500531,9.98561835 63.1089437,10.2465658 L60.8398355,10.2465658 C60.8118274,10.2214653 60.7977298,10.1843417 60.802017,10.1469772 Z" id="Path" fill="#01286A" fill-rule="nonzero"></path>
                        <path d="M17.1216826,10.1368922 L9.99920382,10.1469772 C9.78237792,10.0007457 9.84288747,9.77509553 9.84288747,9.57339701 C9.84288747,6.63742302 9.85171178,3.70144903 9.83154193,0.76547504 C9.83154193,0.214585974 10.0067675,0.000281302843 10.5601778,0.0469240842 C10.9992648,0.0860046447 11.4409554,0.0860046447 11.8800425,0.0469240842 C12.4750531,-0.00728239142 12.6906184,0.18937366 12.6792728,0.817160284 C12.6439756,2.91482483 12.6792728,5.01248937 12.6565817,7.1088933 C12.6565817,7.59927281 12.7826433,7.77197716 13.2969745,7.75558916 C14.407577,7.72029192 15.51944,7.75558916 16.6313031,7.73794054 C17.0901672,7.72911623 17.30069,7.88417196 17.2464835,8.35564224 C17.1784103,8.94561039 17.38263,9.55700901 17.1216826,10.1368922 Z" id="Path" fill="#01286A" fill-rule="nonzero"></path>
                    </g>
                </g>
                <g id="Group-13" transform="translate(15.000000, 0.000000)" fill-rule="nonzero">
                    <path d="M28.3890658,20.7943102 C29.9547505,21.3250294 31.3237792,21.9818102 32.5301884,22.9587874 C35.1510085,25.0804036 36.0863854,27.9344376 36.2048832,31.17422 C36.4179273,36.7612688 33.1579751,40.0817306 28.2340101,41.6133787 C25.9808224,42.2968479 23.6374944,42.6368302 21.2829751,42.6218713 C14.7908041,42.6382593 8.29863323,42.6281743 1.80772293,42.6218713 C0.520634289,42.6218713 -2.14973121e-14,42.1113219 -2.14973121e-14,40.8456637 C-2.14973121e-14,27.8394712 -2.14973121e-14,14.8345393 -2.14973121e-14,1.83086808 C-2.14973121e-14,0.577816066 0.542064756,0.0382725416 1.80394108,0.0344906944 C2.95992569,0.0344906944 4.11717091,0.0723091658 5.26937367,0.0181026902 C5.85051752,-0.00837023974 5.84547505,0.270225832 5.84547505,0.690010864 C5.83791136,7.58137675 5.83581033,14.4727426 5.83917197,21.3641085 C5.83917197,21.4901701 5.83917197,21.6162317 5.83917197,21.7422932 C5.83917197,21.9515555 5.80009289,22.1885512 6.02700372,22.3020066 C6.25391454,22.415462 6.42031582,22.2238484 6.56780786,22.0788776 C7.7746373,20.9409619 8.97936571,19.8013653 10.1819931,18.6600878 C10.7707006,18.1028957 10.828689,18.1091988 11.4035297,18.6600878 C12.5733811,19.7753125 13.7461739,20.8867554 14.9219082,21.9944164 C15.0971338,22.159557 15.247147,22.4507593 15.5446523,22.3020066 C15.8421576,22.153254 15.7110536,21.8532274 15.7110536,21.6174923 C15.7169365,16.0279222 15.7169365,10.4391926 15.7110536,4.85130333 L15.7110536,0.565209909 C15.7110536,0.2916563 15.660629,0.0256663845 16.1031051,0.0344906944 C19.2949841,0.0924790172 22.4956874,-0.138213658 25.6762208,0.142903646 C29.0319798,0.439148338 31.3414278,2.401927 32.9335855,5.24713666 C35.3464039,9.55592116 34.7740844,14.8971499 31.567078,18.5113352 C30.7098593,19.4832699 29.6370754,20.1753479 28.3890658,20.7943102 Z" id="Path" fill="#FFFFFF"></path>
                    <path d="M14.663482,9.79291692 C14.663482,12.7948631 14.663482,15.7963891 14.663482,18.7974949 C14.663482,19.0496181 14.7706343,19.3786388 14.440353,19.5210884 C14.1100717,19.6635379 13.9411492,19.38116 13.7482749,19.1983707 C12.9074443,18.4104859 12.0615711,17.6251223 11.2446921,16.815807 C10.9232351,16.4993925 10.6938031,16.4767014 10.3622611,16.815807 C9.57689756,17.6024312 8.76253981,18.3600613 7.9431396,19.1126489 C7.72631369,19.3118262 7.52335456,19.6660592 7.16155786,19.5147853 C6.79976115,19.3635114 6.87791932,18.9891085 6.87791932,18.6802577 C6.87791932,12.6772057 6.87413747,6.67415365 6.86657378,0.671101629 C6.86657378,0.17694027 7.00398089,0.0218845373 7.50696656,0.0268085769 C9.71052282,0.0533999301 11.9191215,0.049618083 14.118896,0.0268085769 C14.5676752,0.0268085769 14.6823912,0.169376576 14.67987,0.600507149 C14.6559183,3.66254271 14.663482,6.72709951 14.663482,9.79291692 Z" id="Path" fill="#001436"></path>
                </g>
            </g>
        </g>
    </g>
</svg>