<?xml version="1.0" encoding="UTF-8"?>
<svg width="54px" height="47px" viewBox="0 0 54 47" version="1.1" xmlns="http://www.w3.org/2000/svg" xmlns:xlink="http://www.w3.org/1999/xlink">
    <title>blooksy-color</title>
    <g id="Page-1" stroke="none" stroke-width="1" fill="none" fill-rule="evenodd">
        <g id="001-copy-5" transform="translate(-120.000000, -4427.000000)" fill-rule="nonzero">
            <g id="blooksy-color" transform="translate(120.000000, 4427.000000)">
                <g id="Group-11" transform="translate(0.044692, 38.418398)" fill="#01286A">
                    <path d="M0.133121021,8.11657336 C-0.0433651811,7.97840987 0.00907643326,7.78074533 0.00907643326,7.60325063 C0.00907643326,5.28371769 0.0151273888,2.96418475 0,0.644651803 C0,0.197889589 0.119002125,0.0193864014 0.60509555,0.0304798198 C1.91613591,0.0597261047 3.22717627,0.0385477605 4.53821663,0.0415732382 C5.46300433,0.0415732382 6.09936315,0.453038213 6.42107228,1.27596816 C6.75589182,2.13217836 6.65403407,2.94199791 6.00759032,3.60962 C5.71008501,3.91721024 5.65159244,4.04831427 6.06406591,4.29640345 C6.83455424,4.76031004 6.99893853,5.52878139 6.91825913,6.36078777 C6.84463917,7.12522515 6.37165615,7.60224214 5.68789817,7.8795776 C5.3712315,8.00765616 5.03540347,8.09035255 4.70865187,8.19422729 L4.4061041,8.19422729 C4.34184545,8.1147101 4.239625,8.07613634 4.13885356,8.09337803 L0.133121021,8.11657336 Z M3.24432064,6.28010836 C3.47929941,6.28010836 3.71427819,6.28010836 3.95026545,6.28010836 C4.3647559,6.27405741 4.63503192,6.07840985 4.63604332,5.6498005 C4.6370489,5.22119115 4.37584932,5.00234826 3.97547777,4.96705102 C3.64267521,4.93780473 3.30583869,4.9559576 2.96698518,4.95494911 C2.28020173,4.95494911 2.28020173,4.95494911 2.28020173,5.63063914 C2.28020173,6.28111686 2.28020173,6.28111686 2.94177287,6.28111686 L3.24432064,6.28010836 Z M3.17977712,3.17092573 C3.36332277,3.17092573 3.54787691,3.16487477 3.73142256,3.17092573 C4.15095548,3.19008709 4.36173043,2.96922721 4.3657644,2.57490661 C4.36979837,2.18058601 4.13986206,1.9637601 3.73747352,1.95972613 C3.36937372,1.95972613 3.00228242,1.95972613 2.63418263,1.95972613 C2.47685779,1.95972613 2.34373677,1.98897242 2.28625269,2.17251807 C2.08455417,2.83207222 2.3124735,3.17092573 2.97908709,3.17092573 L3.17977712,3.17092573 Z" id="Shape"></path>
                    <path d="M17.1060512,8.19725277 C16.2216032,7.82713599 15.3916138,7.3904587 14.8087051,6.58366463 C13.7447454,5.10924847 13.7265926,3.1336115 14.7925692,1.69550108 C15.8782345,0.231084097 17.7884851,-0.359668739 19.511306,0.236212307 C21.1622084,0.80701911 22.3159239,2.52347349 22.2443209,4.30144591 C22.1642136,6.10369398 20.9211028,7.64430145 19.1764865,8.10346295 C19.111943,8.12161582 19.0463909,8.1246413 19.0221871,8.20431221 L17.1060512,8.19725277 Z M19.9459663,4.03419538 C19.94677,3.9137869 19.9390188,3.79347345 19.922771,3.67416353 C19.8007434,2.96821872 19.4830682,2.39236945 18.7821659,2.13923781 C18.1881638,1.92442889 17.5871022,1.94359025 17.0677285,2.34900427 C16.0340236,3.1477304 16.0188962,5.04873892 17.0324313,5.87066037 C17.224696,6.03085086 17.4531905,6.14163609 17.6980364,6.193378 C18.9868899,6.45659457 19.9389069,5.58828245 19.9459663,4.03419538 Z" id="Shape"></path>
                    <path d="M25.7790874,8.19725277 C25.1003719,7.85033132 24.3994696,7.55484299 23.8558921,6.97495975 C22.5850925,5.62126819 22.3614934,3.59079078 23.3072721,1.99300639 C24.2401277,0.427825898 26.179459,-0.337619973 27.9786098,0.149481945 C29.6849792,0.611371548 30.9304676,2.26731637 30.9396018,4.08764549 C30.9486204,5.89183872 29.8886947,7.39953513 28.1893847,8.02076656 C28.0582807,8.06917421 27.8817945,8.03992792 27.7960726,8.19725277 L25.7790874,8.19725277 Z M26.8561575,2.02830363 C25.7306798,2.02124418 24.9874208,2.85728453 24.9894336,4.12899368 C24.9894336,5.34826122 25.7518581,6.23573469 26.8138008,6.25792153 C27.8757435,6.28010836 28.6744696,5.37246504 28.6865716,4.12495971 C28.7037159,2.90569218 27.9392785,2.03637157 26.8561575,2.02830363 Z" id="Shape"></path>
                    <path d="M31.9520705,8.08833557 C31.8350854,7.94109565 31.8774421,7.76662643 31.8764336,7.60325063 C31.8764336,5.28371769 31.887527,2.96922721 31.8653402,0.652719744 C31.8653402,0.161583856 32.0176226,-0.0108683761 32.5027075,0.0355222827 C32.8878246,0.062251243 33.2743314,0.062251243 33.6594485,0.0355222827 C34.0033445,0.020394894 34.1485674,0.15149893 34.139491,0.504471334 C34.1223466,1.10956688 34.1324315,1.71466244 34.139491,2.31975799 C34.139491,2.44884504 34.1001597,2.60818686 34.2605101,2.6717219 C34.4450642,2.74534186 34.5297776,2.590034 34.6215504,2.47002338 C35.1782383,1.77517199 35.7389602,1.08536306 36.2835462,0.382443732 C36.4445997,0.142550869 36.722657,0.00834286895 37.0106693,0.0314883124 C37.4796184,0.0526666566 37.9495759,0.0375392679 38.422559,0.0314883124 C38.5748413,0.0314883124 38.7372086,0.0244288643 38.8118371,0.192847126 C38.8864655,0.361265387 38.7704889,0.474216557 38.6746821,0.596244159 C37.9687373,1.46859024 37.2728774,2.35505523 36.5427288,3.20924844 C36.2553084,3.54608497 36.2119432,3.79215716 36.4902872,4.16832489 C37.3172511,5.28775166 38.1038753,6.43541622 38.899576,7.57803832 C39.0004252,7.72225276 39.2233021,7.87050117 39.0004252,8.08934406 L36.7625802,8.09842049 C36.5850855,8.03992792 36.5276014,7.87050117 36.4358286,7.73637165 C35.9648625,7.06975806 35.5120494,6.39507652 35.0572192,5.71434402 C34.741561,5.24640346 34.6154995,5.25144593 34.2615186,5.69518266 C34.1183126,5.87671133 34.1475589,6.06731643 34.135457,6.26296399 C34.0971343,6.90739075 34.2252128,7.55887696 34.0507436,8.19725277 L33.8490451,8.19725277 C33.2257967,7.97639289 32.5813699,8.16195552 31.9520705,8.08833557 Z" id="Path"></path>
                    <path d="M41.3098732,8.19725277 C40.7521768,7.98748631 40.2005314,7.77368588 39.6377925,7.57198736 C39.2606163,7.43584086 39.2011152,7.21800647 39.3917203,6.8741105 C39.5864033,6.52206552 39.7627879,6.16020775 39.9201704,5.78998097 C40.0714443,5.43801706 40.2681004,5.40675379 40.588801,5.58828245 C41.1938966,5.92814445 41.8292469,6.1792591 42.5301493,6.22968373 C42.6115296,6.24783199 42.6949292,6.25529049 42.7782384,6.25187057 C42.9990983,6.2074969 43.3046716,6.25993851 43.3601387,5.96041621 C43.4156057,5.66089392 43.1483552,5.53079837 42.9093425,5.44709349 C42.3879518,5.26354784 41.8544592,5.11529943 41.3371025,4.92166885 C39.8546184,4.36296396 39.3866779,3.63382382 39.5843424,2.22899365 C39.7517522,1.0389724 40.7945335,0.134354556 42.1055739,0.0193864014 C43.2310516,-0.081462857 44.263748,0.221084918 45.2631642,0.696084925 C45.4961259,0.80701911 45.6100856,0.930055205 45.4537693,1.20033122 C45.2359349,1.57649895 45.0362533,1.96577709 44.8537162,2.36110618 C44.7095017,2.67373888 44.5259561,2.67373888 44.2486206,2.53053294 C43.6969752,2.23907858 43.1271769,1.98695543 42.4847671,2.00208282 C42.2417204,2.00813378 41.9381641,1.98191297 41.886731,2.32278346 C41.8373148,2.6444926 42.1045654,2.75441829 42.3405526,2.83812317 C42.908334,3.03982169 43.4932597,3.19512955 44.05499,3.41195545 C45.3821663,3.92628667 45.8380049,4.58382384 45.7956482,5.85553299 C45.7573255,7.01630795 45.1794593,7.69905743 43.8795123,8.12161582 C43.8553085,8.12968376 43.8421981,8.17002347 43.8240452,8.19624427 L41.3098732,8.19725277 Z" id="Path"></path>
                    <path d="M48.6416143,8.11758185 C48.4066355,7.89470499 48.4963914,7.60123365 48.5256377,7.35616995 C48.6890135,6.01184934 48.2967098,4.82989603 47.6240453,3.68424845 C47.056264,2.71811256 46.5863064,1.69449258 46.0780262,0.69406794 C45.8117841,0.171668782 45.8884296,0.0486326863 46.4713383,0.0435902234 C48.1908181,0.0264458495 48.1908181,0.0264458495 48.8564232,1.62793207 C49.029884,2.0464565 49.2023362,2.46397243 49.3727714,2.88350534 C49.4231961,3.00855842 49.4584933,3.15983231 49.6168266,3.17092573 C49.8084402,3.18504462 49.8487799,3.01460938 49.9072725,2.87644589 C50.2400751,2.08982168 50.5869965,1.30924842 50.8996292,0.51455626 C51.0377927,0.163600841 51.2425167,0.0163609236 51.6196929,0.0375392679 C52.0714976,0.0627515825 52.5273362,0.0466157011 52.9791409,0.0375392679 C53.3956484,0.0375392679 53.4833872,0.206966022 53.2958076,0.570023352 C52.5243108,2.05855841 51.7669328,3.55616989 50.991402,5.0376455 C50.8467259,5.31826684 50.7716674,5.62956944 50.7725591,5.94528883 C50.7544063,6.69459882 50.8673574,7.44995976 50.6938967,8.19422729 L50.4921982,8.19422729 C49.8820602,7.9884948 49.2567948,8.13472623 48.6416143,8.11758185 Z" id="Path"></path>
                    <path d="M13.6973463,8.10951391 C13.6923038,8.1387602 13.6852444,8.16901497 13.6771764,8.19826126 L8.02961795,8.19826126 C8.00704528,8.17786638 7.99576669,8.14779016 7.99936318,8.11758185 L13.6973463,8.10951391 Z" id="Path"></path>
                    <path d="M0.133121021,8.11657336 L4.13179412,8.097412 C4.23256555,8.08017031 4.334786,8.11874407 4.39904465,8.19826126 L0.163375799,8.19826126 C0.140636683,8.17755206 0.129357529,8.14709834 0.133121021,8.11657336 Z" id="Path"></path>
                    <path d="M36.7716566,8.19725277 C36.771879,8.16626536 36.7664097,8.13550049 36.7555207,8.10648843 L38.9933658,8.097412 C38.988227,8.13083204 38.988227,8.16484122 38.9933658,8.19826126 L36.7716566,8.19725277 Z" id="Path"></path>
                    <path d="M31.9520705,8.08833557 C32.5813699,8.16195552 33.2257967,7.97639289 33.8470281,8.19725277 L31.9308922,8.19725277 L31.9520705,8.08833557 Z" id="Path"></path>
                    <path d="M48.6416143,8.11758185 C49.2567948,8.13472623 49.8800432,7.9884948 50.4871557,8.19725277 L48.6718691,8.19725277 C48.6494626,8.17717235 48.6381846,8.1474735 48.6416143,8.11758185 Z" id="Path"></path>
                    <path d="M13.6973463,8.10951391 L7.99936318,8.11758185 C7.82590245,8.00059671 7.8743101,7.82007654 7.8743101,7.65871773 C7.8743101,5.3099385 7.88136954,2.96115927 7.86523366,0.612380041 C7.86523366,0.171668782 8.00541413,0.000225042278 8.44814238,0.0375392679 C8.79941199,0.0688037168 9.15276449,0.0688037168 9.50403411,0.0375392679 C9.98004261,-0.00582591323 10.1524948,0.15149893 10.1434184,0.653728237 C10.1151806,2.3318599 10.1434184,4.00999156 10.1252655,5.68711472 C10.1252655,6.07941834 10.2261148,6.21758182 10.6375798,6.20447142 C11.5260617,6.17623363 12.4155522,6.20447142 13.3050427,6.19035252 C13.672134,6.18329307 13.8405522,6.30733766 13.797187,6.68451389 C13.7427284,7.15648842 13.9061042,7.64560732 13.6973463,8.10951391 Z" id="Path"></path>
                </g>
                <g id="Group-13" transform="translate(12.000000, 0.000000)">
                    <path d="M22.711253,16.6354484 C23.9638008,17.0600238 25.0590237,17.5854484 26.0241511,18.3670302 C28.1208072,20.0643232 28.8691087,22.3475504 28.963907,24.9393764 C29.1343423,29.4090155 26.5263804,32.065385 22.5872084,33.2907035 C20.7846582,33.8374788 18.9099958,34.1094647 17.0263803,34.0974975 C11.8326435,34.1106079 6.63890668,34.10254 1.44617837,34.0974975 C0.416507437,34.0974975 -1.71978499e-14,33.689058 -1.71978499e-14,32.6765315 C-1.71978499e-14,22.2715773 -1.71978499e-14,11.8676317 -1.71978499e-14,1.46469449 C-1.71978499e-14,0.46225286 0.433651811,0.0306180337 1.44315289,0.027592556 C2.36794059,0.027592556 3.29373678,0.0578473335 4.215499,0.0144821524 C4.68041408,-0.0066961919 4.67638011,0.216180669 4.67638011,0.5520087 C4.67032916,6.06510149 4.66864834,11.5781943 4.67133765,17.0912871 C4.67133765,17.1921363 4.67133765,17.2929856 4.67133765,17.3938349 C4.67133765,17.5612446 4.64007438,17.7508412 4.82160304,17.8416056 C5.00313171,17.9323699 5.13625273,17.779079 5.25424636,17.6631024 C6.21970993,16.7527697 7.18349268,15.8410924 8.1455946,14.9280705 C8.61656064,14.4823168 8.6629513,14.4873592 9.12282392,14.9280705 C10.058705,15.8202503 10.9969393,16.7094046 11.9375267,17.5955334 C12.0777072,17.7276459 12.1977178,17.9606077 12.4357221,17.8416056 C12.6737263,17.7226034 12.5688431,17.4825822 12.5688431,17.2939941 C12.5735494,12.822338 12.5735494,8.35135418 12.5688431,3.88104272 L12.5688431,0.452167934 C12.5688431,0.233325043 12.5285034,0.0205331079 12.8824843,0.027592556 C15.4359875,0.0739832148 17.9965502,-0.110570928 20.540977,0.114322918 C23.2255842,0.351318675 25.0731426,1.92154163 26.3468688,4.19770939 C28.2771236,7.64473704 27.8192679,11.9177201 25.2536628,14.8090684 C24.5678878,15.5866161 23.7096607,16.1402786 22.711253,16.6354484 Z" id="Path" fill="#01286A"></path>
                    <path d="M11.7307857,7.83433365 C11.7307857,10.2358907 11.7307857,12.6371115 11.7307857,15.0379962 C11.7307857,15.2396947 11.8165076,15.5029113 11.5522826,15.6168709 C11.2880575,15.7308306 11.1529195,15.5049282 10.9986201,15.3586968 C10.3259556,14.728389 9.64925704,14.1000981 8.99575385,13.4526458 C8.73858824,13.1995142 8.55504259,13.1813613 8.28980904,13.4526458 C7.66151816,14.0819452 7.01003195,14.6880493 6.35451177,15.2901193 C6.18105105,15.4494612 6.01868374,15.7328476 5.72924637,15.6118285 C5.439809,15.4908093 5.50233554,15.191287 5.50233554,14.9442064 C5.50233554,10.1417647 5.49931006,5.339323 5.49325911,0.536881311 C5.49325911,0.141552218 5.6031848,0.0175076301 6.00557334,0.0214468619 C7.76841837,0.0427199447 9.53529738,0.039694467 11.2951169,0.0214468619 C11.6541403,0.0214468619 11.7459131,0.135501262 11.7438961,0.480405726 C11.7247348,2.93003421 11.7307857,5.38167968 11.7307857,7.83433365 Z" id="Path" fill="#FFD001"></path>
                </g>
            </g>
        </g>
    </g>
</svg>