<?xml version="1.0" encoding="UTF-8"?>
<svg width="396px" height="132px" viewBox="0 0 396 132" version="1.1" xmlns="http://www.w3.org/2000/svg" xmlns:xlink="http://www.w3.org/1999/xlink">
    <title>editor-image</title>
    <defs>
        <path d="M381.597871,0.416974361 C382.924533,0.416974361 384.000006,1.48657791 384.000006,2.81519274 L384.000006,111.586105 C384.000006,112.910604 382.932243,113.984323 381.597871,113.984323 L113.985,113.983974 L107.246318,120.769646 L100.507,113.983974 L2.40213502,113.984323 C1.07547248,113.984323 0,112.914719 0,111.586105 L0,2.81519274 C0,1.4906933 1.06776248,0.416974361 2.40213502,0.416974361 L381.597871,0.416974361 Z" id="path-1"></path>
        <filter x="-2.2%" y="-6.2%" width="105.5%" height="117.4%" filterUnits="objectBoundingBox" id="filter-2">
            <feOffset dx="2" dy="3" in="SourceAlpha" result="shadowOffsetOuter1"></feOffset>
            <feGaussianBlur stdDeviation="3" in="shadowOffsetOuter1" result="shadowBlurOuter1"></feGaussianBlur>
            <feComposite in="shadowBlurOuter1" in2="SourceAlpha" operator="out" result="shadowBlurOuter1"></feComposite>
            <feColorMatrix values="0 0 0 0 0   0 0 0 0 0   0 0 0 0 0  0 0 0 0.0877490942 0" type="matrix" in="shadowBlurOuter1"></feColorMatrix>
        </filter>
        <filter id="filter-3">
            <feColorMatrix in="SourceGraphic" type="matrix" values="0 0 0 0 0.000000 0 0 0 0 0.078431 0 0 0 0 0.211765 0 0 0 1.000000 0"></feColorMatrix>
        </filter>
        <filter id="filter-4">
            <feColorMatrix in="SourceGraphic" type="matrix" values="0 0 0 0 0.000000 0 0 0 0 0.078431 0 0 0 0 0.211765 0 0 0 1.000000 0"></feColorMatrix>
        </filter>
        <filter id="filter-5">
            <feColorMatrix in="SourceGraphic" type="matrix" values="0 0 0 0 0.000000 0 0 0 0 0.078431 0 0 0 0 0.211765 0 0 0 1.000000 0"></feColorMatrix>
        </filter>
        <filter id="filter-6">
            <feColorMatrix in="SourceGraphic" type="matrix" values="0 0 0 0 0.000000 0 0 0 0 0.078431 0 0 0 0 0.211765 0 0 0 1.000000 0"></feColorMatrix>
        </filter>
        <filter id="filter-7">
            <feColorMatrix in="SourceGraphic" type="matrix" values="0 0 0 0 0.000000 0 0 0 0 0.078431 0 0 0 0 0.211765 0 0 0 1.000000 0"></feColorMatrix>
        </filter>
        <filter id="filter-8">
            <feColorMatrix in="SourceGraphic" type="matrix" values="0 0 0 0 0.000000 0 0 0 0 0.078431 0 0 0 0 0.211765 0 0 0 1.000000 0"></feColorMatrix>
        </filter>
        <filter id="filter-9">
            <feColorMatrix in="SourceGraphic" type="matrix" values="0 0 0 0 0.000000 0 0 0 0 0.078431 0 0 0 0 0.211765 0 0 0 1.000000 0"></feColorMatrix>
        </filter>
        <filter id="filter-10">
            <feColorMatrix in="SourceGraphic" type="matrix" values="0 0 0 0 0.000000 0 0 0 0 0.078431 0 0 0 0 0.211765 0 0 0 1.000000 0"></feColorMatrix>
        </filter>
        <filter id="filter-11">
            <feColorMatrix in="SourceGraphic" type="matrix" values="0 0 0 0 0.000000 0 0 0 0 0.078431 0 0 0 0 0.211765 0 0 0 1.000000 0"></feColorMatrix>
        </filter>
        <filter id="filter-12">
            <feColorMatrix in="SourceGraphic" type="matrix" values="0 0 0 0 0.000000 0 0 0 0 0.078431 0 0 0 0 0.211765 0 0 0 1.000000 0"></feColorMatrix>
        </filter>
        <filter id="filter-13">
            <feColorMatrix in="SourceGraphic" type="matrix" values="0 0 0 0 0.000000 0 0 0 0 0.078431 0 0 0 0 0.211765 0 0 0 1.000000 0"></feColorMatrix>
        </filter>
        <filter id="filter-14">
            <feColorMatrix in="SourceGraphic" type="matrix" values="0 0 0 0 0.000000 0 0 0 0 0.078431 0 0 0 0 0.211765 0 0 0 1.000000 0"></feColorMatrix>
        </filter>
        <filter id="filter-15">
            <feColorMatrix in="SourceGraphic" type="matrix" values="0 0 0 0 0.000000 0 0 0 0 0.078431 0 0 0 0 0.211765 0 0 0 1.000000 0"></feColorMatrix>
        </filter>
        <filter id="filter-16">
            <feColorMatrix in="SourceGraphic" type="matrix" values="0 0 0 0 0.000000 0 0 0 0 0.078431 0 0 0 0 0.211765 0 0 0 1.000000 0"></feColorMatrix>
        </filter>
        <filter id="filter-17">
            <feColorMatrix in="SourceGraphic" type="matrix" values="0 0 0 0 0.000000 0 0 0 0 0.078431 0 0 0 0 0.211765 0 0 0 1.000000 0"></feColorMatrix>
        </filter>
        <filter id="filter-18">
            <feColorMatrix in="SourceGraphic" type="matrix" values="0 0 0 0 0.000000 0 0 0 0 0.078431 0 0 0 0 0.211765 0 0 0 1.000000 0"></feColorMatrix>
        </filter>
        <filter id="filter-19">
            <feColorMatrix in="SourceGraphic" type="matrix" values="0 0 0 0 0.000000 0 0 0 0 0.078431 0 0 0 0 0.211765 0 0 0 1.000000 0"></feColorMatrix>
        </filter>
        <filter id="filter-20">
            <feColorMatrix in="SourceGraphic" type="matrix" values="0 0 0 0 0.000000 0 0 0 0 0.078431 0 0 0 0 0.211765 0 0 0 1.000000 0"></feColorMatrix>
        </filter>
        <filter id="filter-21">
            <feColorMatrix in="SourceGraphic" type="matrix" values="0 0 0 0 0.000000 0 0 0 0 0.078431 0 0 0 0 0.211765 0 0 0 1.000000 0"></feColorMatrix>
        </filter>
        <filter id="filter-22">
            <feColorMatrix in="SourceGraphic" type="matrix" values="0 0 0 0 0.000000 0 0 0 0 0.078431 0 0 0 0 0.211765 0 0 0 1.000000 0"></feColorMatrix>
        </filter>
        <filter id="filter-23">
            <feColorMatrix in="SourceGraphic" type="matrix" values="0 0 0 0 0.000000 0 0 0 0 0.078431 0 0 0 0 0.211765 0 0 0 1.000000 0"></feColorMatrix>
        </filter>
        <filter id="filter-24">
            <feColorMatrix in="SourceGraphic" type="matrix" values="0 0 0 0 0.000000 0 0 0 0 0.078431 0 0 0 0 0.211765 0 0 0 1.000000 0"></feColorMatrix>
        </filter>
    </defs>
    <g id="Page-2" stroke="none" stroke-width="1" fill="none" fill-rule="evenodd">
        <g id="Desktop-HD" transform="translate(-159.000000, -19.000000)">
            <g id="editor-image" transform="translate(163.000000, 22.000000)">
                <g id="Combined-Shape">
                    <use fill="black" fill-opacity="1" filter="url(#filter-2)" xlink:href="#path-1"></use>
                    <path stroke="#1D5AC0" stroke-width="0.800000012" d="M381.597871,0.816974367 C382.151271,0.816974367 382.652352,1.0400426 383.014836,1.40193527 C383.376502,1.76301119 383.600006,2.26221159 383.600006,2.81519274 L383.600006,2.81519274 L383.600006,111.586105 C383.600006,112.138663 383.377172,112.638962 383.01483,113.000713 C382.653338,113.361615 382.153187,113.584323 381.597871,113.584323 L381.597871,113.584323 L113.8185,113.583974 L107.246304,120.201998 L100.673488,113.583974 L2.40213502,113.584323 C1.84873511,113.584323 1.34765347,113.361255 0.985169775,112.999362 C0.623504166,112.638286 0.400000006,112.139086 0.400000006,111.586105 L0.400000006,111.586105 L0.400000006,2.81519274 C0.400000006,2.26263479 0.622833725,1.76233578 0.98517574,1.40058456 C1.34666757,1.03968214 1.84681866,0.816974367 2.40213502,0.816974367 L2.40213502,0.816974367 Z" stroke-linejoin="square" fill-opacity="0" fill="#FFFFFF" fill-rule="evenodd"></path>
                </g>
                <path d="M17.6238284,30.2013609 L18.7558597,27.0794859 L23.066016,27.0794859 L24.2683597,30.2013609 L25.822266,30.2013609 L21.6035159,19.8935483 L20.1339847,19.8935483 L16.1753909,30.2013609 L17.6238284,30.2013609 Z M22.644141,25.9685483 L19.1496097,25.9685483 L20.2816409,22.9451108 C20.5207034,22.2935483 20.7058597,21.6372983 20.8371097,20.9763608 C20.9964847,21.5341733 21.2402347,22.2466733 21.5683597,23.1138608 L21.5683597,23.1138608 L22.644141,25.9685483 Z M27.9219535,30.2013609 L27.9219535,26.2919858 C27.9219535,25.7576108 27.992266,25.2654233 28.132891,24.8154233 C28.226641,24.5201108 28.3836723,24.2892514 28.6039848,24.1228452 C28.8242973,23.9564389 29.0727348,23.8732358 29.3492973,23.8732358 C29.6586723,23.8732358 29.9680473,23.9646421 30.2774223,24.1474546 L30.2774223,24.1474546 L30.7133598,22.9732358 C30.2727348,22.7013608 29.8391411,22.5654233 29.4125786,22.5654233 C29.1172661,22.5654233 28.8465629,22.6497983 28.6004692,22.8185483 C28.3543754,22.9872983 28.086016,23.3365171 27.795391,23.8662046 L27.795391,23.8662046 L27.795391,22.7341733 L26.6563285,22.7341733 L26.6563285,30.2013609 L27.9219535,30.2013609 Z M32.6583599,21.349017 L32.6583599,19.8935483 L31.3927348,19.8935483 L31.3927348,21.349017 L32.6583599,21.349017 Z M32.6583599,30.2013609 L32.6583599,22.7341733 L31.3927348,22.7341733 L31.3927348,30.2013609 L32.6583599,30.2013609 Z M36.6283599,30.3701109 C37.1252349,30.3701109 37.5904693,30.2880797 38.0240631,30.1240172 C38.4576568,29.9599547 38.9088287,29.6787046 39.3775787,29.2802671 C39.4150787,29.6318296 39.4994537,29.9388609 39.6307037,30.2013609 L39.6307037,30.2013609 L40.9525787,30.2013609 C40.7932037,29.9154234 40.6865631,29.6165953 40.6326569,29.3048765 C40.5787506,28.9931578 40.5517975,28.2490171 40.5517975,27.0724546 L40.5517975,27.0724546 L40.5517975,25.3849546 C40.5517975,24.8224546 40.5307037,24.4333921 40.4885162,24.2177671 C40.4135162,23.8708921 40.2822662,23.5837827 40.0947662,23.3564389 C39.9072662,23.1290952 39.6142975,22.9404233 39.21586,22.7904233 C38.8174225,22.6404233 38.2994537,22.5654233 37.6619537,22.5654233 C37.0197662,22.5654233 36.4549224,22.6533139 35.9674224,22.8290952 C35.4799224,23.0048764 35.1072661,23.2556577 34.8494536,23.5814389 C34.5916411,23.9072202 34.4064849,24.3349546 34.2939849,24.8646421 L34.2939849,24.8646421 L35.5314849,25.0333921 C35.6674224,24.5037046 35.877188,24.1345639 36.1607818,23.9259702 C36.4443755,23.7173764 36.8838287,23.6130796 37.4791412,23.6130796 C38.1166412,23.6130796 38.5971099,23.7560483 38.9205475,24.0419858 C39.15961,24.2529233 39.2791412,24.6162046 39.2791412,25.1318296 C39.2791412,25.1787046 39.2767975,25.2888608 39.27211,25.4622983 C38.7892975,25.6310483 38.0369537,25.7763608 37.0150787,25.8982358 C36.5135162,25.9591733 36.1385162,26.0224546 35.8900787,26.0880796 C35.5525787,26.1818296 35.249063,26.3201108 34.9795318,26.5029233 C34.7100005,26.6857359 34.4920318,26.928314 34.3256255,27.2306577 C34.1592193,27.5330015 34.0760161,27.8669859 34.0760161,28.2326109 C34.0760161,28.8560484 34.2963286,29.3681578 34.7369536,29.768939 C35.1775786,30.1697203 35.8080474,30.3701109 36.6283599,30.3701109 Z M36.9307037,29.3787046 C36.4385162,29.3787046 36.064688,29.2662046 35.8092193,29.0412046 C35.5537505,28.8162046 35.4260162,28.5349546 35.4260162,28.1974546 C35.4260162,27.9771421 35.4846099,27.7767515 35.6017974,27.5962827 C35.7189849,27.415814 35.8853912,27.2787046 36.1010162,27.1849546 C36.3166412,27.0912046 36.6846099,27.0068296 37.2049224,26.9318296 C38.1236724,26.8005796 38.812735,26.6412046 39.27211,26.4537046 L39.27211,26.4537046 L39.27211,26.9177671 C39.27211,27.4755796 39.2041412,27.8974546 39.0682037,28.1833921 C38.8900787,28.5537046 38.6111724,28.8455015 38.2314849,29.0587828 C37.8517974,29.272064 37.4182037,29.3787046 36.9307037,29.3787046 Z M43.6710163,30.2013609 L43.6710163,19.8935483 L42.4053913,19.8935483 L42.4053913,30.2013609 L43.6710163,30.2013609 Z" id="Arial" fill="#242424" fill-rule="nonzero"></path>
                <path d="M277.970629,30.2013609 L277.970629,19.8513608 L277.155004,19.8513608 C276.934692,20.2966733 276.559692,20.7560483 276.030004,21.2294858 C275.500317,21.7029233 274.881567,22.1060483 274.173754,22.4388608 L274.173754,22.4388608 L274.173754,23.6622983 C274.567504,23.5169858 275.011645,23.2990171 275.506176,23.008392 C276.000707,22.717767 276.400317,22.427142 276.705004,22.136517 L276.705004,22.136517 L276.705004,30.2013609 L277.970629,30.2013609 Z M284.830473,30.2013609 L284.830473,19.8513608 L284.014848,19.8513608 C283.794535,20.2966733 283.419535,20.7560483 282.889848,21.2294858 C282.36016,21.7029233 281.74141,22.1060483 281.033598,22.4388608 L281.033598,22.4388608 L281.033598,23.6622983 C281.427348,23.5169858 281.871489,23.2990171 282.36602,23.008392 C282.860551,22.717767 283.26016,22.427142 283.564848,22.136517 L283.564848,22.136517 L283.564848,30.2013609 L284.830473,30.2013609 Z" id="11" fill="#242424" fill-rule="nonzero"></path>
                <line x1="0" y1="49.3646267" x2="257.600004" y2="49.3646267" id="Path-2" stroke="#D0D4DA" stroke-width="0.800000012"></line>
                <line x1="256.000004" y1="49.3646267" x2="256.000004" y2="0.232653169" id="Path-3" stroke="#1D5AC0" stroke-width="0.800000012"></line>
                <g id="Group" transform="translate(230.800003, 17.146939)" fill="#001436" fill-rule="nonzero">
                    <path d="M2.38639459,2.41632651 L6.41360554,6.41632651 L6.41360554,-1.58367349 L2.38639459,2.41632651 Z" id="arrow-/-caret_up" transform="translate(4.400000, 2.416327) rotate(90.000003) translate(-4.400000, -2.416327) "></path>
                    <path d="M2.3863946,12.8870753 L6.41360554,16.8870753 L6.41360554,8.88707531 L2.3863946,12.8870753 Z" id="arrow-/-caret_up" transform="translate(4.400000, 12.887075) scale(1, -1) rotate(90.000003) translate(-4.400000, -12.887075) "></path>
                </g>
                <g filter="url(#filter-3)" id="Group-Copy">
                    <g transform="translate(326.800005, 17.146939)">
                        <path d="M2.38639459,2.41632651 L6.41360554,6.41632651 L6.41360554,-1.58367349 L2.38639459,2.41632651 Z" id="arrow-/-caret_up" fill="#01286A" fill-rule="nonzero" transform="translate(4.400000, 2.416327) rotate(90.000003) translate(-4.400000, -2.416327) "></path>
                        <path d="M2.3863946,12.8870753 L6.41360554,16.8870753 L6.41360554,8.88707531 L2.3863946,12.8870753 Z" id="arrow-/-caret_up" fill="#01286A" fill-rule="nonzero" transform="translate(4.400000, 12.887075) scale(1, -1) rotate(90.000003) translate(-4.400000, -12.887075) "></path>
                    </g>
                </g>
                <rect id="Rectangle" stroke="#1D5AC0" stroke-width="0.800000012" x="0" y="49.3646267" width="32.0000005" height="32.2176876"></rect>
                <rect id="Rectangle-Copy-12" stroke="#1D5AC0" stroke-width="0.800000012" x="0" y="81.5823142" width="128.000002" height="32.2176876"></rect>
                <rect id="Rectangle-Copy" stroke="#1D5AC0" stroke-width="0.800000012" x="32.0000005" y="49.3646267" width="128.000002" height="32.2176876"></rect>
                <g id="Icon-/-1-Copy-19" transform="translate(11.400000, 59.808164)" opacity="0.8">
                    <g filter="url(#filter-4)" id="font">
                        <g transform="translate(0.117882, 0.832653)">
                            <polygon id="Path" fill="#000000" fill-rule="nonzero" points="4.19999621 1.20817103 5.99999752 1.20817103 5.99999752 1.81224622 7.20000524 1.81224622 7.20000524 0 0 0 0 1.81224622 1.20000771 1.81224622 1.20000771 1.20817103 3.00000902 1.20817103 3.00000902 8.4571559 1.80000131 8.4571559 1.80000131 9.66532693 5.40000393 9.66532693 5.40000393 8.4571559 4.19999621 8.4571559"></polygon>
                            <polygon id="Path" fill="#000000" fill-rule="nonzero" points="8.39999243 4.8326428 9.60000014 4.8326428 7.79999883 3.02039659 5.99999752 4.8326428 7.20000524 4.8326428 7.20000524 7.2489642 5.99999752 7.2489642 7.79999883 9.06121042 9.60000014 7.2489642 8.39999243 7.2489642"></polygon>
                        </g>
                    </g>
                </g>
                <g id="Icon-/-1-Copy-31" transform="translate(10.400000, 92.025852)" opacity="0.8">
                    <g filter="url(#filter-5)" id="Group">
                        <g transform="translate(0.000000, 0.832653)">
                            <polygon id="Path" fill="#000000" fill-rule="nonzero" points="0.0879000013 0.692579602 0.512100008 1.11966532 1.02420002 0.604081642 1.20000002 0.604081642 1.20000002 2.41632657 1.80000003 2.41632657 1.80000003 0 0.775800012 0"></polygon>
                            <polygon id="Path" fill="#000000" fill-rule="nonzero" points="0 4.22857149 1.20000002 4.22857149 1.20000002 4.53061231 0 4.53061231 0 6.04081642 1.80000003 6.04081642 1.80000003 5.43673477 0.600000009 5.43673477 0.600000009 5.13469395 1.80000003 5.13469395 1.80000003 3.62448985 0 3.62448985"></polygon>
                            <polygon id="Path" fill="#000000" fill-rule="nonzero" points="0 7.85306134 1.20000002 7.85306134 1.20000002 8.15510216 0.600000009 8.15510216 0.600000009 8.7591838 1.20000002 8.7591838 1.20000002 9.06122462 0 9.06122462 0 9.66530627 1.80000003 9.66530627 1.80000003 7.2489797 0 7.2489797"></polygon>
                            <polygon id="path-1_337_" fill="#000000" fill-rule="nonzero" points="2.58658776 4.05015892 11.1307055 4.05015892 11.1307055 5.61421489 2.58658776 5.61421489"></polygon>
                            <polygon id="path-1_336_" fill="#000000" fill-rule="nonzero" points="2.58658776 8.09400501 11.1307055 8.09400501 11.1307055 9.65806098 2.58658776 9.65806098"></polygon>
                            <polygon id="path-1_335_" fill="#000000" fill-rule="nonzero" points="2.58658776 0.00628607604 11.1307055 0.00628607604 11.1307055 1.57034204 2.58658776 1.57034204"></polygon>
                        </g>
                    </g>
                </g>
                <g id="Icon-/-1-Copy-20" transform="translate(43.400001, 59.808164)" opacity="0.8">
                    <g filter="url(#filter-6)" id="bold">
                        <g transform="translate(0.746011, 0.832653)">
                            <path d="M6.2050646,4.8326428 C6.81737207,4.33386494 7.20967163,3.57138919 7.20967163,2.71834866 C7.20967163,1.21937024 5.99851986,0 4.50964914,0 L0.00966639246,0 L0.00966639246,1.20817103 L0.609659988,1.20817103 L0.609659988,8.4571559 L0.00966639246,8.4571559 L0.00966639246,9.66532693 L4.50966639,9.66532693 C5.99854038,9.66532693 7.20967163,8.44595669 7.20967163,6.9469576 C7.20967163,6.09389641 6.81737207,5.33142067 6.2050646,4.8326428 Z M4.50964914,8.45713523 L1.80964718,8.45713523 L1.80964718,5.43673865 L4.50964914,5.43673865 C5.33671061,5.43673865 6.00964339,6.11426987 6.00964339,6.94693694 C6.00964339,7.77960401 5.33671061,8.45713523 4.50964914,8.45713523 Z M4.50964914,4.22856762 L1.80964718,4.22856762 L1.80964718,1.20817103 L4.50964914,1.20817103 C5.33671061,1.20817103 6.00964339,1.88570225 6.00964339,2.71836932 C6.00964339,3.55103639 5.33671061,4.22856762 4.50964914,4.22856762 Z" id="Shape" fill="#000000" fill-rule="nonzero"></path>
                        </g>
                    </g>
                </g>
                <g id="Icon-/-1-Copy-32" transform="translate(42.400001, 92.025852)" opacity="0.8">
                    <g filter="url(#filter-7)" id="Group">
                        <g transform="translate(0.494546, 0.838939)">
                            <polygon id="path-1_337_" fill="#000000" fill-rule="nonzero" points="2.40992431 4.04387284 10.954042 4.04387284 10.954042 5.60792881 2.40992431 5.60792881"></polygon>
                            <polygon id="path-1_336_" fill="#000000" fill-rule="nonzero" points="2.40992431 8.08771894 10.954042 8.08771894 10.954042 9.6517749 2.40992431 9.6517749"></polygon>
                            <polygon id="path-1_335_" fill="#000000" fill-rule="nonzero" points="2.40992431 7.24318575e-15 10.954042 7.24318575e-15 10.954042 1.56405597 2.40992431 1.56405597"></polygon>
                            <polygon id="path-2_23_" fill="#000000" fill-rule="nonzero" points="-3.83693083e-14 7.24318575e-15 1.55348802 7.24318575e-15 1.55348802 1.56405597 -3.83693083e-14 1.56405597"></polygon>
                            <polygon id="path-2_22_" fill="#000000" fill-rule="nonzero" points="-3.83693083e-14 4.04387284 1.55348802 4.04387284 1.55348802 5.60792881 -3.83693083e-14 5.60792881"></polygon>
                            <polygon id="path-2_21_" fill="#000000" fill-rule="nonzero" points="-3.83693083e-14 8.08771894 1.55348802 8.08771894 1.55348802 9.6517749 -3.83693083e-14 9.6517749"></polygon>
                        </g>
                    </g>
                </g>
                <g id="Icon-/-1-Copy-21" transform="translate(76.400001, 59.808164)" opacity="0.8">
                    <g filter="url(#filter-8)" id="italic">
                        <g transform="translate(0.124136, 0.832653)">
                            <polygon id="Path" fill="#000000" fill-rule="nonzero" points="7.20965111 1.20817103 7.20965111 0 3.60964849 0 3.60964849 1.20817103 4.49979804 1.20817103 1.41410497 8.45713523 0.00966639246 8.45713523 0.00966639246 9.66530627 3.60966901 9.66530627 3.60966901 8.45713523 2.71951946 8.45713523 5.80519201 1.20817103"></polygon>
                        </g>
                    </g>
                </g>
                <g id="Icon-/-1-Copy-33" transform="translate(74.400001, 92.025852)" opacity="0.8">
                    <g filter="url(#filter-9)" id="indent">
                        <g transform="translate(0.000613, 0.832653)">
                            <polygon id="path-1_292_" fill="#000000" fill-rule="nonzero" points="4.12607875 2.77480517 10.7754267 2.77480517 10.7754267 4.11373064 4.12607875 4.11373064"></polygon>
                            <polygon id="path-1_291_" fill="#000000" fill-rule="nonzero" points="4.12607875 5.54425198 10.7754267 5.54425198 10.7754267 6.88317745 4.12607875 6.88317745"></polygon>
                            <polygon id="path-2_18_" fill="#000000" fill-rule="nonzero" points="0 8.31367589 10.6389612 8.31367589 10.6389612 9.65260137 0 9.65260137"></polygon>
                            <polygon id="path-2_17_" fill="#000000" fill-rule="nonzero" points="0 0.00538125714 10.6389612 0.00538125714 10.6389612 1.34430673 0 1.34430673"></polygon>
                            <polygon id="Path" fill="#000000" fill-rule="nonzero" points="0 4.6686871 2.65973461 1.99085905 2.65973461 7.34651514"></polygon>
                        </g>
                    </g>
                </g>
                <g id="Icon-/-1-Copy-22" transform="translate(108.400002, 59.808164)" opacity="0.8">
                    <g filter="url(#filter-10)" id="underline">
                        <g transform="translate(0.080386, 0.832653)">
                            <polygon id="Path" fill="#000000" fill-rule="nonzero" points="0.00966639246 8.45713523 7.20967163 8.45713523 7.20967163 9.66530627 0.00966639246 9.66530627"></polygon>
                            <path d="M4.8096562,-5.36532278e-16 L4.8096562,1.20817103 L5.4096498,1.20817103 L5.4096498,4.83266346 C5.4096498,5.83199619 4.60222897,6.64490968 3.60964849,6.64490968 C2.61706801,6.64490968 1.80964718,5.83199619 1.80964718,4.83266346 L1.80964718,1.20817103 L2.40964077,1.20817103 L2.40964077,-5.36532278e-16 L0.00966639246,-5.36532278e-16 L0.00966639246,1.20817103 L0.609659988,1.20817103 L0.609659988,4.83266346 C0.609659988,6.49801827 1.95554608,7.85306005 3.60964849,7.85306005 C5.26375089,7.85306005 6.60963699,6.49801827 6.60963699,4.83266346 L6.60963699,1.20817103 L7.20963058,1.20817103 L7.20963058,-5.36532278e-16 L4.8096562,-5.36532278e-16 Z" id="Path" fill="#000000" fill-rule="nonzero"></path>
                        </g>
                    </g>
                </g>
                <g id="Icon-/-1-Copy-34" transform="translate(106.400002, 92.025852)" opacity="0.8">
                    <g filter="url(#filter-11)" id="indent-(1)">
                        <g transform="translate(0.582432, 0.832653)">
                            <polygon id="path-1_82_" fill="#000000" fill-rule="nonzero" points="4.12607875 2.77480517 10.7754267 2.77480517 10.7754267 4.11373064 4.12607875 4.11373064"></polygon>
                            <polygon id="path-1_81_" fill="#000000" fill-rule="nonzero" points="4.12607875 5.54425198 10.7754267 5.54425198 10.7754267 6.88317745 4.12607875 6.88317745"></polygon>
                            <polygon id="path-2_14_" fill="#000000" fill-rule="nonzero" points="0 8.31367589 10.6389612 8.31367589 10.6389612 9.65260137 0 9.65260137"></polygon>
                            <polygon id="path-2_13_" fill="#000000" fill-rule="nonzero" points="0 0.00538125714 10.6389612 0.00538125714 10.6389612 1.34430673 0 1.34430673"></polygon>
                            <polygon id="Path" fill="#000000" fill-rule="nonzero" points="0 7.34653804 0 1.99085905 2.65973461 4.6686871"></polygon>
                        </g>
                    </g>
                </g>
                <rect id="Rectangle-Copy-16" stroke="#1D5AC0" stroke-width="0.800000012" x="128.000002" y="81.5823142" width="128.000002" height="32.2176876"></rect>
                <g id="Icon-/-1-Copy-23" transform="translate(139.400002, 59.808164)" opacity="0.8">
                    <g filter="url(#filter-12)" id="strikethrough">
                        <g transform="translate(0.702261, 0.832653)">
                            <path d="M2.20545619,3.62449243 C1.95983542,3.36521638 1.80964718,3.01820634 1.80964718,2.63931368 C1.80964718,1.85028632 2.44744437,1.20815037 3.23114047,1.20815037 L6.60965999,1.20815037 L6.60965999,0 L3.23114047,0 C1.78563512,0 0.609659988,1.18397496 0.609659988,2.63931368 C0.609659988,2.98663367 0.683091734,3.31746479 0.805984213,3.62449243 L2.20545619,3.62449243 Z" id="Path" fill="#000000" fill-rule="nonzero"></path>
                            <path d="M5.01386131,6.04081383 C5.25948208,6.30008989 5.40967032,6.64709993 5.40967032,7.02599258 C5.40967032,7.81501995 4.77187313,8.4571559 3.98819755,8.4571559 L0.609659988,8.4571559 L0.609659988,9.66532693 L3.98817703,9.66532693 C5.43368238,9.66532693 6.60965999,8.48135197 6.60965999,7.02601325 C6.60965999,6.67869326 6.53626681,6.34782081 6.41337433,6.04081383 C6.41335381,6.04081383 5.01386131,6.04081383 5.01386131,6.04081383 L5.01386131,6.04081383 Z" id="Path" fill="#000000" fill-rule="nonzero"></path>
                            <polygon id="Path" fill="#000000" fill-rule="nonzero" points="0.00966639246 4.22856762 7.20967163 4.22856762 7.20967163 5.43673865 0.00966639246 5.43673865"></polygon>
                        </g>
                    </g>
                </g>
                <g id="Icon-/-1-Copy-35" transform="translate(138.400002, 92.025852)" opacity="0.8">
                    <g filter="url(#filter-13)" id="align-left">
                        <g transform="translate(0.591523, 0.832653)">
                            <polygon id="path-1_357_" fill="#000000" fill-rule="nonzero" points="0 2.76942645 6.649354 2.76942645 6.649354 4.10835315 0 4.10835315"></polygon>
                            <polygon id="path-2_27_" fill="#000000" fill-rule="nonzero" points="0 5.5388529 9.30909105 5.5388529 9.30909105 6.8777796 0 6.8777796"></polygon>
                            <polygon id="path-1_356_" fill="#000000" fill-rule="nonzero" points="0 8.30830225 6.649354 8.30830225 6.649354 9.64722895 0 9.64722895"></polygon>
                            <polygon id="path-2_26_" fill="#000000" fill-rule="nonzero" points="0 0 9.30909105 0 9.30909105 1.3389267 0 1.3389267"></polygon>
                        </g>
                    </g>
                </g>
                <rect id="Rectangle-Copy-5" stroke="#1D5AC0" stroke-width="0.800000012" x="160.000002" y="49.3646267" width="96.0000014" height="32.2176876"></rect>
                <g id="Icon-/-1-Copy-24" transform="translate(169.400002, 59.808164)" opacity="0.8">
                    <g filter="url(#filter-14)" id="Group">
                        <g transform="translate(0.200000, 0.027211)">
                            <polygon id="H" fill="#242424" fill-rule="nonzero" points="3.25973674 8.28454823 3.25973674 7.25104122 2.25238754 7.25104122 2.25238754 4.40889693 5.95920622 4.40889693 5.95920622 7.25104122 4.96317555 7.25104122 4.96317555 8.28454823 8.22857155 8.28454823 8.22857155 7.25104122 7.24385941 7.25104122 7.24385941 1.03350701 8.22857155 1.03350701 8.22857155 0 4.96317555 0 4.96317555 1.03350701 5.95920622 1.03350701 5.95920622 3.37538992 2.25238754 3.37538992 2.25238754 1.03350701 3.25973674 1.03350701 3.25973674 0 0 0 0 1.03350701 0.962075078 1.03350701 0.962075078 7.25104122 0 7.25104122 0 8.28454823"></polygon>
                            <polygon id="1" fill="#242424" fill-rule="nonzero" points="12.8000002 11.0460643 12.8000002 10.0332026 11.6289938 10.0332026 11.6289938 2.76151608 9.14285728 2.76151608 9.14285728 3.75235905 10.3859256 3.75235905 10.3859256 10.0332026 9.14285728 10.0332026 9.14285728 11.0460643"></polygon>
                        </g>
                    </g>
                </g>
                <g id="Icon-/-1-Copy-36" transform="translate(170.400002, 92.025852)" opacity="0.8">
                    <g filter="url(#filter-15)" id="align-center">
                        <g transform="translate(0.930917, 0.832653)">
                            <polygon id="path-1" fill="#000000" fill-rule="nonzero" points="1.37536843 2.76942645 8.02472242 2.76942645 8.02472242 4.10835315 1.37536843 4.10835315"></polygon>
                            <polygon id="path-2" fill="#000000" fill-rule="nonzero" points="0 5.5388529 9.30909105 5.5388529 9.30909105 6.8777796 0 6.8777796"></polygon>
                            <polygon id="path-1_1_" fill="#000000" fill-rule="nonzero" points="1.37536843 8.30830225 8.02472242 8.30830225 8.02472242 9.64722895 1.37536843 9.64722895"></polygon>
                            <polygon id="path-2_1_" fill="#000000" fill-rule="nonzero" points="0 0 9.30909105 0 9.30909105 1.3389267 0 1.3389267"></polygon>
                        </g>
                    </g>
                </g>
                <g id="Icon-/-1-Copy-25" transform="translate(201.400003, 59.808164)" opacity="0.8">
                    <g filter="url(#filter-16)" id="Group-3">
                        <g transform="translate(0.200000, 0.832653)">
                            <polygon id="H" fill="#242424" fill-rule="nonzero" points="2.85226964 7.2489797 2.85226964 6.34466106 1.97083909 6.34466106 1.97083909 3.85778482 5.21430544 3.85778482 5.21430544 6.34466106 4.34277861 6.34466106 4.34277861 7.2489797 7.20000011 7.2489797 7.20000011 6.34466106 6.33837699 6.34466106 6.33837699 0.904318635 7.20000011 0.904318635 7.20000011 0 4.34277861 0 4.34277861 0.904318635 5.21430544 0.904318635 5.21430544 2.95346618 1.97083909 2.95346618 1.97083909 0.904318635 2.85226964 0.904318635 2.85226964 0 0 0 0 0.904318635 0.841815693 0.904318635 0.841815693 6.34466106 0 6.34466106 0 7.2489797"></polygon>
                            <path d="M12.7410442,9.66530627 L12.8000002,7.11491458 L11.9058344,7.11491458 L11.8616174,8.76628137 L9.07594691,8.76628137 C9.13162757,8.50130561 9.23480055,8.26156564 9.38546585,8.04706145 C9.53613116,7.83255726 9.71709329,7.63697992 9.92835225,7.46032941 C10.1396112,7.28367891 10.440123,7.05340235 10.8298876,6.76949975 L10.8298876,6.76949975 L11.3015355,6.42881664 C11.83869,6.04712536 12.2128968,5.70644224 12.4241558,5.40676728 C12.6354147,5.10709231 12.7410442,4.75694577 12.7410442,4.35632766 C12.7410442,4.01249007 12.6583421,3.69388826 12.4929378,3.40052224 C12.3275334,3.10715622 12.0777893,2.86978211 11.7437054,2.68839989 C11.4096215,2.50701767 10.9936542,2.41632657 10.4958036,2.41632657 C10.0929377,2.41632657 9.74739011,2.47468432 9.45916084,2.59139984 C9.17093156,2.70811535 8.92200627,2.88949757 8.71238498,3.13554648 C8.36519972,3.56140038 8.19160708,4.15444137 8.19160708,4.91466944 L8.19160708,4.91466944 L8.19160708,5.18910862 L9.16929389,5.18910862 L9.16929389,4.94779141 C9.16929389,4.37052279 9.26427854,3.94466889 9.45424784,3.67022971 C9.64421713,3.39579053 9.9815764,3.25857094 10.4663256,3.25857094 C10.8429889,3.25857094 11.1385877,3.35872547 11.353122,3.55903453 C11.5676563,3.75934358 11.6749234,4.03772586 11.6749234,4.39418134 C11.6749234,4.64653921 11.6077791,4.87129543 11.4734904,5.06845001 C11.3392018,5.2656046 11.1033779,5.48247464 10.7660186,5.71906014 L10.7660186,5.71906014 L10.0339817,6.25374337 C9.64421713,6.53764597 9.3101332,6.81839409 9.03172992,7.09598774 C8.75332664,7.3735814 8.51340852,7.72609379 8.31197556,8.15352493 C8.1105426,8.58095606 8.00655078,9.08488317 8.00000012,9.66530627 L8.00000012,9.66530627 L12.7410442,9.66530627 Z" id="2" fill="#242424" fill-rule="nonzero"></path>
                        </g>
                    </g>
                </g>
                <g id="Icon-/-1-Copy-37" transform="translate(203.400003, 92.025852)" opacity="0.8">
                    <g filter="url(#filter-17)" id="align-right">
                        <g transform="translate(0.164250, 0.832653)">
                            <polygon id="path-1_5_" fill="#000000" fill-rule="nonzero" points="2.75071411 2.76942645 9.40006811 2.76942645 9.40006811 4.10835315 2.75071411 4.10835315"></polygon>
                            <polygon id="path-2_5_" fill="#000000" fill-rule="nonzero" points="0 5.5388529 9.30909105 5.5388529 9.30909105 6.8777796 0 6.8777796"></polygon>
                            <polygon id="path-1_4_" fill="#000000" fill-rule="nonzero" points="2.75071411 8.30830225 9.40006811 8.30830225 9.40006811 9.64722895 2.75071411 9.64722895"></polygon>
                            <polygon id="path-2_4_" fill="#000000" fill-rule="nonzero" points="0 0 9.30909105 0 9.30909105 1.3389267 0 1.3389267"></polygon>
                        </g>
                    </g>
                </g>
                <g id="Icon-/-1-Copy-26" transform="translate(233.400003, 59.808164)" opacity="0.8">
                    <g filter="url(#filter-18)" id="quote">
                        <g transform="translate(0.767886, 0.832653)">
                            <path d="M6.38336892,0.00645751448 L6.38336892,4.82656615 L9.57505338,4.82656615 C9.57505338,6.59839821 8.14322914,8.03996275 6.38336892,8.03996275 L6.38336892,9.64667479 C9.0233776,9.64667479 11.1709093,7.48453407 11.1709093,4.82656615 L11.1709093,0.00645751448 L6.38336892,0.00645751448 Z" id="Path" fill="#000000" fill-rule="nonzero"></path>
                            <path d="M0,4.82656615 L3.19168446,4.82656615 C3.19168446,6.59839821 1.75986022,8.03996275 0,8.03996275 L0,9.64667479 C2.64000868,9.64667479 4.78754034,7.48453407 4.78754034,4.82656615 L4.78754034,0.00645751448 L0,0.00645751448 L0,4.82656615 Z" id="Path" fill="#000000" fill-rule="nonzero"></path>
                        </g>
                    </g>
                </g>
                <g id="Icon-/-1-Copy-38" transform="translate(235.400003, 92.025852)" opacity="0.8">
                    <g filter="url(#filter-19)" id="align">
                        <g transform="translate(0.052129, 0.832653)">
                            <polygon id="path-1_97_" fill="#000000" fill-rule="nonzero" points="0.0235009231 2.86156001 9.64228776 2.86156001 9.64228776 4.24503026 0.0235009231 4.24503026"></polygon>
                            <polygon id="path-1_96_" fill="#000000" fill-rule="nonzero" points="0.0235009231 5.72312002 9.64228776 5.72312002 9.64228776 7.10659027 0.0235009231 7.10659027"></polygon>
                            <polygon id="Path" fill="#000000" fill-rule="nonzero" points="0 8.27711338 6.87056538 8.27711338 6.87056538 9.66058363 0 9.66058363"></polygon>
                            <polygon id="path-1_95_" fill="#000000" fill-rule="nonzero" points="0.0235009231 0 9.64228776 0 9.64228776 1.38347025 0.0235009231 1.38347025"></polygon>
                        </g>
                    </g>
                </g>
                <rect id="Rectangle-Copy-8" stroke="#1D5AC0" stroke-width="0.800000012" x="256.000004" y="49.3646267" width="64.000001" height="32.2176876"></rect>
                <rect id="Rectangle-Copy-20" stroke="#1D5AC0" stroke-width="0.800000012" x="256.000004" y="81.5823142" width="64.000001" height="32.2176876"></rect>
                <g id="Icon-/-1-Copy-27" transform="translate(266.400004, 59.808164)" opacity="0.8">
                    <g filter="url(#filter-20)" id="type">
                        <g transform="translate(0.800000, 0.832653)">
                            <path d="M2.742244,6.21342129 L6.85653648,6.21342129 L7.52537991,7.59418945 L9.03604757,7.59418945 L5.55459507,-2.28920439e-14 L4.0441385,-2.28920439e-14 L0.562709454,7.59418945 L2.07337711,7.59418945 L2.742244,6.21342129 Z M4.79936679,1.64740039 L6.25948887,4.83265313 L3.33926816,4.83265313 L4.79936679,1.64740039 Z" id="Shape" fill="#000000" fill-rule="nonzero"></path>
                            <polygon id="Path" fill="#000000" fill-rule="nonzero" points="0 8.28456172 9.60000014 8.28456172 9.60000014 9.66532988 0 9.66532988"></polygon>
                        </g>
                    </g>
                </g>
                <g id="Icon-/-1-Copy-39" transform="translate(267.400004, 92.025852)" opacity="0.8">
                    <g filter="url(#filter-21)" id="link">
                        <g transform="translate(0.117882, 0.832653)">
                            <path d="M7.30282347,0 C6.68934675,0 6.11247827,0.240697164 5.67859795,0.677529053 L3.88976567,2.47853026 C4.02647866,2.45931423 4.1630613,2.43844843 4.30280946,2.43844843 C4.68812706,2.43844843 5.06569847,2.51381276 5.41280645,2.65355547 L6.52704895,1.53173309 C6.73446464,1.32318762 7.00986441,1.20815391 7.30282347,1.20815391 C7.90780916,1.20815391 8.39999081,1.70368374 8.39999081,2.31278498 C8.39999081,2.60775571 8.28573436,2.88501019 8.07859798,3.09383687 L6.0729652,5.11315091 C5.65811521,5.5302231 4.93624754,5.53052306 4.52139755,5.11345087 L3.67354241,5.96825482 C4.10714342,6.40450554 4.68399327,6.64490275 5.29717206,6.64490275 C5.91064879,6.64490275 6.48749864,6.40420558 6.92139758,5.96737369 L8.92706761,3.94805965 C9.36094793,3.51122776 9.60001876,2.93043501 9.60001876,2.31278498 C9.60001876,1.03738434 8.56962515,0 7.30282347,0 Z" id="Path" fill="#000000" fill-rule="nonzero"></path>
                            <path d="M4.17667301,7.02234304 L3.07295119,8.13357318 C2.8655355,8.34211865 2.59013574,8.45715236 2.29717667,8.45715236 C1.69219098,8.45715236 1.20000933,7.96162253 1.20000933,7.35252129 C1.20000933,7.05756931 1.31426578,6.78029607 1.52140216,6.57146939 L3.52707218,4.55215536 C3.94192218,4.13508317 4.66378984,4.13478321 5.07863984,4.5518554 L5.92649498,3.69705145 C5.05901365,2.82455001 3.54641906,2.8242688 2.6786398,3.69793257 L0.672951154,5.71724661 C0.239052211,6.1540785 5.3290706e-16,6.73485251 5.3290706e-16,7.35250254 C5.3290706e-16,8.62792192 1.03037499,9.66528752 2.29715805,9.66528752 C2.91063478,9.66528752 3.48748463,9.42459035 3.92138357,8.98775847 L5.68647449,7.21066013 C5.55760081,7.22809516 5.42939747,7.24896095 5.29715344,7.24896095 C4.90589584,7.2489797 4.52694651,7.1702221 4.17667301,7.02234304 Z" id="Path" fill="#000000" fill-rule="nonzero"></path>
                        </g>
                    </g>
                </g>
                <g id="Icon-/-1-Copy-28" transform="translate(298.400004, 59.808164)">
                    <rect id="Rectangle" fill="#001436" opacity="0.8" x="0.800000072" y="0.832653133" width="10.4000002" height="10.4707485"></rect>
                    <path d="M4.25200326,8.37451475 L7.74801697,8.37451475 L8.3163494,9.69251721 L9.6000002,9.69251721 L6.6417259,2.44353751 L5.35825447,2.44353751 L2.4000001,9.69251721 L3.6836509,9.69251721 L4.25200326,8.37451475 Z M5.99999018,4.01605188 L7.2406912,7.0565123 L4.7593091,7.0565123 L5.99999018,4.01605188 Z" id="Shape-Copy" fill="#FFFFFF" fill-rule="nonzero" opacity="0.317708333"></path>
                </g>
                <g id="Icon-/-1-Copy-40" transform="translate(297.400004, 92.025852)" opacity="0.8">
                    <g filter="url(#filter-22)" id="image-(1)">
                        <g transform="translate(0.200000, 0.832653)">
                            <path d="M11.9688166,0.00155252313 L0.797910655,0.00155252313 C0.35728123,0.00155252313 0,0.361264237 0,0.804891142 L0,8.83838259 C0,9.28203581 0.35728123,9.64172121 0.797910655,9.64172121 L11.9688166,9.64172121 C12.4094722,9.64172121 12.7667273,9.28200949 12.7667273,8.83838259 L12.7667273,0.804891142 C12.7667273,0.361264237 12.4094722,0.00155252313 11.9688166,0.00155252313 Z M1.59584745,1.60825607 L11.170906,1.60825607 L11.170906,7.23170535 L7.9792111,4.01829825 L3.98960555,8.03504397 L1.59584745,8.03504397 L1.59584745,1.60825607 Z" id="Shape" fill="#000000" fill-rule="nonzero"></path>
                            <path d="M5.23488876,2.76454372 C5.70230774,3.23514243 5.70230774,3.99811544 5.23488876,4.46871415 C4.76746977,4.93931285 4.00965198,4.93931285 3.542233,4.46871415 C3.07481401,3.99811544 3.07481401,3.23514243 3.542233,2.76454372 C4.00965198,2.29394502 4.76746977,2.29394502 5.23488876,2.76454372" id="Path" fill="#000000" fill-rule="nonzero"></path>
                        </g>
                    </g>
                </g>
                <rect id="Rectangle-Copy-10" stroke="#1D5AC0" stroke-width="0.800000012" x="320.000005" y="49.3646267" width="64.000001" height="32.2176876"></rect>
                <rect id="Rectangle-Copy-13" stroke="#1D5AC0" stroke-width="0.800000012" x="320.000005" y="81.5823142" width="32.0000005" height="32.2176876"></rect>
                <g id="Icon-/-1-Copy-29" transform="translate(329.400005, 60.808164)" fill="#242424" fill-rule="nonzero" opacity="0.8">
                    <g id="Group-4" transform="translate(0.641194, 0.182281)">
                        <polygon id="X" points="3.04687505 7.70479391 3.04687505 6.74361192 2.11250003 6.74361192 3.51406255 4.63719182 4.93085945 6.74361192 4.03710944 6.74361192 4.03710944 7.70479391 7.17539073 7.70479391 7.17539073 6.74361192 6.19023447 6.74361192 4.12851569 3.78848858 6.02265634 0.961181987 6.97734385 0.961181987 6.97734385 0 4.03710944 0 4.03710944 0.961181987 4.9207032 0.961181987 3.59023443 2.98068669 2.24453128 0.961181987 3.1179688 0.961181987 3.1179688 0 0.0406250006 0 0.0406250006 0.961181987 1.02070314 0.961181987 2.97578129 3.8191646 1.01054689 6.74361192 0 6.74361192 0 7.70479391"></polygon>
                        <path d="M10.4102996,9.31567829 L10.4431121,7.8318241 L9.94545588,7.8318241 L9.9208465,8.7926128 L8.37045585,8.7926128 C8.40144544,8.63844613 8.45886731,8.498962 8.54272148,8.37416041 C8.62657565,8.24935882 8.7272918,8.13556914 8.84486992,8.03279136 C8.96244805,7.93001358 9.12970066,7.79603541 9.34662774,7.63085683 L9.34662774,7.63085683 L9.60912775,7.43264254 C9.90808609,7.21056913 10.1163543,7.01235484 10.2339324,6.83799968 C10.3515106,6.66364452 10.4102996,6.45992427 10.4102996,6.22683895 C10.4102996,6.02678935 10.364271,5.84142228 10.2722137,5.67073775 C10.1801564,5.50005323 10.041159,5.36194559 9.8552215,5.25641483 C9.669284,5.15088408 9.43777358,5.0981187 9.16069024,5.0981187 C8.93647149,5.0981187 8.74415378,5.13207207 8.58373711,5.19997882 C8.42332044,5.26788557 8.28477877,5.37341632 8.1681121,5.51657109 C7.97488293,5.76433895 7.87826835,6.10937863 7.87826835,6.55169015 L7.87826835,6.55169015 L7.87826835,6.71136277 L8.42240898,6.71136277 L8.42240898,6.57096098 C8.42240898,6.23509788 8.47527356,5.98733002 8.58100273,5.8276574 C8.6867319,5.66798478 8.87449232,5.58814847 9.14428399,5.58814847 C9.35391941,5.58814847 9.51843764,5.6464198 9.63783869,5.76296246 C9.75723973,5.87950512 9.81694025,6.04147189 9.81694025,6.24886276 C9.81694025,6.39568816 9.77957046,6.52645453 9.70483087,6.64116188 C9.63009129,6.75586922 9.49884129,6.8820473 9.31108087,7.01969611 L9.31108087,7.01969611 L8.90365899,7.33078242 C8.6867319,7.495961 8.5007944,7.65930425 8.34584648,7.82081219 C8.19089856,7.98232013 8.05736991,8.18741686 7.94526054,8.43610238 C7.83315116,8.6847879 7.77527355,8.97797987 7.77162772,9.31567829 L7.77162772,9.31567829 L10.4102996,9.31567829 Z" id="2"></path>
                    </g>
                </g>
                <g id="Icon-/-1-Copy-41" transform="translate(332.400005, 92.025852)" opacity="0.8">
                    <g filter="url(#filter-23)" id="Group">
                        <g transform="translate(0.300642, 0.107755)">
                            <polygon id="T" fill="#01286A" fill-rule="nonzero" points="5.02578132 10.3902042 5.02578132 9.35508517 3.95390631 9.35508517 3.95390631 3.12785294 5.65468758 3.12785294 5.65468758 5.12651368 6.6718751 5.12651368 6.6718751 2.09273387 0 2.09273387 0 5.12651368 1.01718752 5.12651368 1.01718752 3.12785294 2.70703129 3.12785294 2.70703129 9.35508517 1.65703127 9.35508517 1.65703127 10.3902042"></polygon>
                            <path d="M9.16697657,-0.352814052 L7.00899579,2.76324728 L9.3187623,5.48192542 L8.11518287,5.93121496 L6.12388193,3.76038506 L4.43899081,5.7409416 L2.97463799,5.98307239 L5.26204928,2.78282184 L3.06281053,0.156514189 L4.25358114,-0.294083035 L6.14760168,1.79407764 L7.72477514,-0.0930272528 L9.16697657,-0.352814052 Z" id="X" stroke="#FFFFFF" stroke-width="0.5" fill="#01286A" fill-rule="nonzero"></path>
                        </g>
                    </g>
                </g>
                <g id="Icon-/-1-Copy-30" transform="translate(361.400005, 59.808164)" fill="#242424" fill-rule="nonzero" opacity="0.8">
                    <g id="Group-5" transform="translate(0.641194, 0.642304)">
                        <polygon id="X" points="3.04687505 9.85565491 3.04687505 8.89447292 2.11250003 8.89447292 3.51406255 6.78805282 4.93085945 8.89447292 4.03710944 8.89447292 4.03710944 9.85565491 7.17539073 9.85565491 7.17539073 8.89447292 6.19023447 8.89447292 4.12851569 5.93934958 6.02265634 3.11204299 6.97734385 3.11204299 6.97734385 2.150861 4.03710944 2.150861 4.03710944 3.11204299 4.9207032 3.11204299 3.59023443 5.1315477 2.24453128 3.11204299 3.1179688 3.11204299 3.1179688 2.150861 0.0406250006 2.150861 0.0406250006 3.11204299 1.02070314 3.11204299 2.97578129 5.9700256 1.01054689 8.89447292 9.09494715e-14 8.89447292 9.09494715e-14 9.85565491"></polygon>
                        <path d="M10.4102996,4.21755959 L10.4431121,2.7337054 L9.94545588,2.7337054 L9.9208465,3.6944941 L8.37045585,3.6944941 C8.40144544,3.54032743 8.45886731,3.4008433 8.54272148,3.27604172 C8.62657565,3.15124013 8.7272918,3.03745044 8.84486992,2.93467266 C8.96244805,2.83189488 9.12970066,2.69791671 9.34662774,2.53273813 L9.34662774,2.53273813 L9.60912775,2.33452384 C9.90808609,2.11245043 10.1163543,1.91423614 10.2339324,1.73988098 C10.3515106,1.56552582 10.4102996,1.36180558 10.4102996,1.12872025 C10.4102996,0.928670649 10.364271,0.743303583 10.2722137,0.572619056 C10.1801564,0.40193453 10.041159,0.263826889 9.8552215,0.158296133 C9.669284,0.0527653778 9.43777358,0 9.16069024,0 C8.93647149,0 8.74415378,0.0339533735 8.58373711,0.101860121 C8.42332044,0.169766868 8.28477877,0.275297623 8.1681121,0.418452387 C7.97488293,0.666220248 7.87826835,1.01125994 7.87826835,1.45357145 L7.87826835,1.45357145 L7.87826835,1.61324407 L8.42240898,1.61324407 L8.42240898,1.47284228 C8.42240898,1.13697918 8.47527356,0.889211323 8.58100273,0.729538701 C8.6867319,0.56986608 8.87449232,0.490029769 9.14428399,0.490029769 C9.35391941,0.490029769 9.51843764,0.548301099 9.63783869,0.66484376 C9.75723973,0.78138642 9.81694025,0.943353189 9.81694025,1.15074406 C9.81694025,1.29756946 9.77957046,1.42833583 9.70483087,1.54304318 C9.63009129,1.65775052 9.49884129,1.7839286 9.31108087,1.92157741 L9.31108087,1.92157741 L8.90365899,2.23266372 C8.6867319,2.3978423 8.5007944,2.56118555 8.34584648,2.72269349 C8.19089856,2.88420143 8.05736991,3.08929816 7.94526054,3.33798368 C7.83315116,3.5866692 7.77527355,3.87986117 7.77162772,4.21755959 L7.77162772,4.21755959 L10.4102996,4.21755959 Z" id="2"></path>
                    </g>
                </g>
                <rect id="Rectangle-Copy-11" stroke="#1D5AC0" stroke-width="0.800000012" x="352.000005" y="81.5823142" width="32.0000005" height="32.2176876"></rect>
                <g id="share" transform="translate(362.400005, 92.025852)" filter="url(#filter-24)">
                    <g transform="translate(0.000000, 0.832653)">
                        <path d="M9.23997126,6.39878921 C8.61041947,6.39878921 8.05531245,6.71424859 7.69644981,7.19503171 L3.90496411,5.68023222 C3.90879659,5.6285055 3.91997906,5.57896019 3.91997906,5.52625183 C3.91997906,5.42838825 3.9050691,5.33469662 3.89215415,5.24051418 L7.77737831,3.37758866 C8.13681844,3.79988268 8.65604183,4.07198652 9.23994501,4.07198652 C10.3205754,4.07198652 11.2000002,3.1585204 11.2000002,2.03599326 C11.2000002,0.913466111 10.3205754,0 9.23994501,0 C8.15931462,0 7.27996861,0.913438844 7.27996861,2.03596599 C7.27996861,2.13382957 7.29487856,2.2275212 7.30779352,2.32170364 L3.42256936,4.18462916 C3.06312922,3.76233514 2.54390584,3.49023131 1.96000265,3.49023131 C0.879372265,3.49023131 1.81898943e-13,4.40369742 1.81898943e-13,5.52622456 C1.81898943e-13,6.64875171 0.879372265,7.56221782 1.96000265,7.56221782 C2.58955445,7.56221782 3.14466147,7.24675844 3.5035241,6.76597532 L7.29500981,8.28077481 C7.29117732,8.33250153 7.27999486,8.38204684 7.27999486,8.4347552 C7.27999486,9.55728234 8.15936712,10.4707485 9.23999751,10.4707485 C10.3206279,10.4707485 11.2000002,9.55728234 11.2000002,8.4347552 C11.2000002,7.31225532 10.3206017,6.39878921 9.23997126,6.39878921 Z" id="Path" fill="#000000" fill-rule="nonzero"></path>
                    </g>
                </g>
            </g>
        </g>
    </g>
</svg>