<?xml version="1.0" encoding="UTF-8"?>
<svg width="35px" height="42px" viewBox="0 0 35 42" version="1.1" xmlns="http://www.w3.org/2000/svg" xmlns:xlink="http://www.w3.org/1999/xlink">
    <title>logo-white-icon</title>
    <g id="Symbols" stroke="none" stroke-width="1" fill="none" fill-rule="evenodd">
        <g id="Left/Story" transform="translate(-40.000000, -30.000000)" fill-rule="nonzero">
            <g id="Group" transform="translate(40.000000, 30.000000)">
                <path d="M27.4101325,20.077265 C28.9218281,20.5896836 30.2436489,21.2238168 31.4084578,22.1671051 C33.9389048,24.2155621 34.8420272,26.9711811 34.956439,30.0992469 C35.1621367,35.4936389 32.0145966,38.699602 27.2604235,40.1784346 C25.084932,40.8383359 22.8224084,41.1665947 20.5490794,41.1521516 C14.2807764,41.1679745 8.01247346,41.1582373 1.74538766,41.1521516 C0.502681382,41.1521516 -2.78704263e-13,40.6592074 -2.78704263e-13,39.4371926 C-2.78704263e-13,26.8794895 -2.78704263e-13,14.3230035 -2.78704263e-13,1.7677347 C-2.78704263e-13,0.557891374 0.523372868,0.0369527988 1.74173622,0.0333013601 C2.85785929,0.0333013601 3.9751995,0.0698157463 5.08767113,0.0174784595 C5.64877553,-0.00808161079 5.64390695,0.2609077 5.64390695,0.666217386 C5.63660407,7.31994997 5.63457549,13.9736825 5.63782122,20.6274151 C5.63782122,20.7491298 5.63782122,20.8708444 5.63782122,20.992559 C5.63782122,21.1946053 5.60008968,21.4234287 5.819176,21.5329719 C6.03826232,21.6425151 6.19892562,21.4575088 6.34133172,21.317537 C7.50654636,20.2188597 8.66973241,19.1185596 9.83088989,18.0166365 C10.3992972,17.4786579 10.4552859,17.4847436 11.0103046,18.0166365 C12.1398162,19.0934052 13.2721679,20.1665224 14.4073596,21.2359882 C14.5765429,21.3954344 14.7213833,21.6765952 15.0086298,21.5329719 C15.2958763,21.3893487 15.1692931,21.0996679 15.1692931,20.8720615 C15.1749732,15.4752352 15.1749732,10.0792204 15.1692931,4.68401701 L15.1692931,0.545719912 C15.1692931,0.281599186 15.1206073,0.0247813367 15.5478256,0.0333013601 C18.6296398,0.0892900855 21.719974,-0.13344767 24.7908339,0.137975934 C28.0308771,0.424005292 30.2606889,2.31910193 31.7979446,5.06620091 C34.1275624,9.22640664 33.574978,14.3834551 30.4785581,17.8730133 C29.6508987,18.811433 28.6151073,19.4796463 27.4101325,20.077265 Z" id="Path-Copy" fill="#FFFFFF"></path>
                <path d="M14.1578446,9.45523013 C14.1578446,12.353661 14.1578446,15.2516861 14.1578446,18.1493055 C14.1578446,18.3927347 14.2613021,18.7104099 13.9424098,18.8479474 C13.6235175,18.9854849 13.4604199,18.7128442 13.2741965,18.536358 C12.46236,17.7756416 11.6456549,17.0173595 10.8569441,16.2359516 C10.5465719,15.9304479 10.3250512,15.9085393 10.0049418,16.2359516 C9.24665971,16.9954509 8.46038326,17.7269557 7.66923823,18.453592 C7.45988908,18.6459011 7.26392855,18.9879192 6.91460758,18.8418617 C6.56528662,18.6958041 6.64074969,18.3343117 6.64074969,18.0361109 C6.64074969,12.2400606 6.63709825,6.44401042 6.62979537,0.647960193 C6.62979537,0.170838881 6.76246431,0.0211298981 7.24810564,0.0258841432 C9.37567721,0.0515585532 11.5081174,0.0479071146 13.6320375,0.0258841432 C14.0653415,0.0258841432 14.1761018,0.163536004 14.1736675,0.579800006 C14.1505418,3.53624814 14.1578446,6.49513056 14.1578446,9.45523013 Z" id="Path-Copy-2" fill="#001436"></path>
            </g>
        </g>
    </g>
</svg>