<?xml version="1.0" encoding="UTF-8"?>
<svg width="107px" height="95px" viewBox="0 0 107 95" version="1.1" xmlns="http://www.w3.org/2000/svg" xmlns:xlink="http://www.w3.org/1999/xlink">
    <title>logo</title>
    <g id="Page-1" stroke="none" stroke-width="1" fill="none" fill-rule="evenodd">
        <g id="logo" fill-rule="nonzero">
            <g id="Group-11" transform="translate(0.089384, 78.436794)" fill="#01286A">
                <path d="M0.266242038,16.2331465 C-0.0867303609,15.9568195 0.0181528662,15.5614904 0.0181528662,15.206501 C0.0181528662,10.5674352 0.0302547771,5.92836941 -6.30587821e-14,1.28930359 C-6.30587821e-14,0.395779172 0.238004246,0.0387728022 1.21019108,0.0609596387 C3.83227176,0.119452208 6.45435244,0.0770955198 9.07643312,0.0831464752 C10.9260085,0.0831464752 12.1987261,0.906076412 12.8421444,2.55193628 C13.5117834,4.26435667 13.3080679,5.88399573 12.0151805,7.21923989 C11.4201699,7.83442036 11.3031847,8.09662843 12.1281316,8.59280677 C13.6691083,9.52061994 13.9978769,11.0575626 13.836518,12.7215753 C13.6892781,14.2504501 12.7433121,15.2044841 11.3757962,15.759155 C10.7424628,16.0153121 10.0708068,16.1807049 9.41730361,16.3884543 L8.81220807,16.3884543 C8.68369077,16.22942 8.47924987,16.1522724 8.27770701,16.1867558 L0.266242038,16.2331465 Z M6.48864119,12.5602165 C6.95859873,12.5602165 7.42855626,12.5602165 7.90053079,12.5602165 C8.72951168,12.5481146 9.27006369,12.1568195 9.2720865,11.2996008 C9.27409766,10.4423821 8.75169851,10.0046964 7.95095541,9.93410189 C7.28535032,9.87560932 6.61167728,9.91191505 5.93397028,9.90989807 C4.5604034,9.90989807 4.5604034,9.90989807 4.5604034,11.2612781 C4.5604034,12.5622335 4.5604034,12.5622335 5.88354565,12.5622335 L6.48864119,12.5602165 Z M6.35955414,6.34185136 C6.72664544,6.34185136 7.09575372,6.32974945 7.46284501,6.34185136 C8.30191083,6.38017408 8.72346072,5.93845433 8.73152866,5.14981314 C8.7395966,4.36117195 8.27972399,3.92752015 7.47494692,3.91945221 C6.73874735,3.91945221 6.00456476,3.91945221 5.26836518,3.91945221 C4.9537155,3.91945221 4.68747346,3.97794478 4.57250531,4.34503607 C4.16910828,5.66414435 4.62494692,6.34185136 5.9581741,6.34185136 L6.35955414,6.34185136 Z" id="Shape"></path>
                <path d="M34.2121019,16.3945053 C32.4432059,15.6542717 30.7832272,14.7809172 29.6174098,13.1673291 C27.4894904,10.2184968 27.4531847,6.26722291 29.585138,3.3910021 C31.7564686,0.462168187 35.5769696,-0.719337466 39.0226115,0.472424607 C42.3244161,1.61403819 44.6318471,5.0469469 44.4886412,8.6028917 C44.3284266,12.2073878 41.8422049,15.2886027 38.3529724,16.2069257 C38.2238854,16.2432314 38.0927813,16.2492824 38.0443737,16.4086242 L34.2121019,16.3945053 Z M39.8919321,8.06839064 C39.8935395,7.82757369 39.8780369,7.58694678 39.8455414,7.34832694 C39.6014862,5.93643735 38.9661359,4.78473883 37.5643312,4.27847556 C36.376327,3.84885773 35.1742038,3.88718045 34.1354565,4.69800847 C32.0680467,6.2954607 32.0377919,10.0974777 34.064862,11.7413206 C34.4493914,12.0617015 34.9063805,12.283272 35.3960722,12.3867558 C37.9737792,12.9131889 39.8778132,11.1765647 39.8919321,8.06839064 Z" id="Shape"></path>
                <path d="M51.5581741,16.3945053 C50.2007431,15.7006624 48.7989384,15.1096858 47.7117834,13.9499193 C45.1701843,11.2425362 44.7229861,7.18158146 46.6145435,3.98601272 C48.4802548,0.855651783 52.3589172,-0.675239937 55.9572187,0.298963885 C59.3699575,1.22274308 61.8609342,4.53463267 61.8792027,8.17529085 C61.8972399,11.7836773 59.7773885,14.79907 56.3787686,16.0415329 C56.1165605,16.1383482 55.7635881,16.0798556 55.5921444,16.3945053 L51.5581741,16.3945053 Z M53.7123142,4.0566072 C51.4613588,4.0424883 49.9748408,5.71456898 49.9788665,8.25798724 C49.9788665,10.6965223 51.5037155,12.4714692 53.6276008,12.5158429 C55.7514862,12.5602165 57.3489384,10.7449299 57.3731423,8.2499193 C57.407431,5.81138427 55.8785563,4.07274308 53.7123142,4.0566072 Z" id="Shape"></path>
                <path d="M63.9041401,16.1766709 C63.6701699,15.8821911 63.7548832,15.5332526 63.7528662,15.206501 C63.7528662,10.5674352 63.7750531,5.93845433 63.7306794,1.30543947 C63.7306794,0.323167707 64.0352442,-0.021736752 65.005414,0.0710445644 C65.7756482,0.124502484 66.5486618,0.124502484 67.318896,0.0710445644 C68.0066879,0.0407897873 68.2971338,0.302997855 68.2789809,1.00894265 C68.2446921,2.21913374 68.264862,3.42932482 68.2789809,4.6395159 C68.2789809,4.89769 68.2003185,5.21637365 68.5210191,5.34344372 C68.8901274,5.49068363 69.0595541,5.18006792 69.2430998,4.94004669 C70.3564756,3.55034393 71.4779193,2.17072609 72.5670913,0.764887452 C72.8891982,0.285101733 73.445313,0.0166857377 74.0213376,0.0629766238 C74.9592357,0.105333312 75.8991507,0.0750785347 76.8451168,0.0629766238 C77.1496815,0.0629766238 77.4744161,0.0488577279 77.623673,0.385694246 C77.7729299,0.722530764 77.5409766,0.948433099 77.3493631,1.1924883 C75.9374735,2.93718045 74.5457537,4.71011038 73.0854565,6.41849679 C72.5106157,7.09216983 72.4238854,7.5843142 72.9805732,8.33664966 C74.6345011,10.5755032 76.2077495,12.8708323 77.7991507,15.1560764 C78.0008493,15.4445053 78.446603,15.7410021 78.0008493,16.1786879 L73.5251592,16.1968407 C73.1701699,16.0798556 73.0552017,15.7410021 72.8716561,15.4727431 C71.929724,14.1395159 71.0240977,12.7901528 70.1144374,11.4286879 C69.483121,10.4928068 69.2309979,10.5028917 68.5230361,11.3903652 C68.2366242,11.7534225 68.2951168,12.1346327 68.270913,12.5259278 C68.1942675,13.8147813 68.4504246,15.1177537 68.1014862,16.3945053 L67.6980892,16.3945053 C66.4515924,15.9527855 65.1627389,16.3239108 63.9041401,16.1766709 Z" id="Path"></path>
                <path d="M82.6197452,16.3945053 C81.5043524,15.9749724 80.4010616,15.5473715 79.2755839,15.1439745 C78.5212314,14.8716815 78.4022293,14.4360127 78.7834395,13.7482208 C79.1728054,13.0441308 79.5255747,12.3204153 79.8403397,11.5799618 C80.1428875,10.8760339 80.5361996,10.8135074 81.1776008,11.1765647 C82.3877919,11.8562887 83.6584926,12.358518 85.0602972,12.4593673 C85.223058,12.4956638 85.3898571,12.5105808 85.5564756,12.503741 C85.9981953,12.4149936 86.6093418,12.5198768 86.720276,11.9208323 C86.8312102,11.3217877 86.2967091,11.0615966 85.8186837,10.8941868 C84.7759023,10.5270955 83.7089172,10.2305987 82.6742038,9.84333756 C79.7092357,8.72592779 78.7733546,7.26764754 79.1686837,4.45798724 C79.5035032,2.07794478 81.5890658,0.268709108 84.2111465,0.0387728022 C86.4621019,-0.162925712 88.5274947,0.44216983 90.526327,1.39216983 C90.9922505,1.61403819 91.2201699,1.86011038 90.9075372,2.4006624 C90.4718684,3.15299786 90.0725029,3.93155412 89.707431,4.72221229 C89.4190021,5.34747769 89.0519108,5.34747769 88.4972399,5.0610658 C87.393949,4.47815709 86.2543524,3.97391081 84.9695329,4.00416558 C84.4834395,4.01626749 83.876327,3.96382588 83.7734607,4.64556686 C83.6746285,5.28898512 84.2091295,5.5088365 84.681104,5.67624626 C85.8166667,6.07964329 86.986518,6.390259 88.1099788,6.82391081 C90.7643312,7.85257323 91.6760085,9.16764754 91.5912951,11.7110658 C91.5146497,14.0326157 90.3589172,15.3981146 87.7590234,16.2432314 C87.7106157,16.2593673 87.6843949,16.3400467 87.6480892,16.3924883 L82.6197452,16.3945053 Z" id="Path"></path>
                <path d="M97.2832272,16.2351635 C96.8132696,15.7894097 96.9927813,15.2024671 97.0512739,14.7123397 C97.3780255,12.0236985 96.5934183,9.65979191 95.2480892,7.36849679 C94.1125265,5.43622503 93.1726115,3.38898512 92.156051,1.38813586 C91.6235669,0.343337558 91.7768577,0.0972653712 92.9426752,0.0871804455 C96.3816348,0.0528916981 96.3816348,0.0528916981 97.712845,3.2558641 C98.0597665,4.09291293 98.4046709,4.92794478 98.7455414,5.76701059 C98.8463907,6.01711675 98.9169851,6.31966452 99.2336518,6.34185136 C99.616879,6.37008915 99.6975584,6.02921866 99.8145435,5.7528917 C100.480149,4.17964329 101.173992,2.61849679 101.799257,1.0291125 C102.075584,0.327201677 102.485032,0.0327218468 103.239384,0.0750785347 C104.142994,0.125503163 105.054671,0.0932314009 105.95828,0.0750785347 C106.791295,0.0750785347 106.966773,0.413932038 106.591614,1.14004669 C105.04862,4.11711675 103.533864,7.11233968 101.982803,10.0752908 C101.69345,10.6365335 101.543333,11.2591387 101.545117,11.8905775 C101.508811,13.3891974 101.734713,14.8999193 101.387792,16.3884543 L100.984395,16.3884543 C99.7641189,15.9769894 98.5135881,16.2694522 97.2832272,16.2351635 Z" id="Path"></path>
                <path d="M27.3946921,16.2190276 C27.3846072,16.2775201 27.3704883,16.3380297 27.3543524,16.3965223 L16.0592357,16.3965223 C16.0140903,16.3557325 15.9915331,16.2955801 15.9987261,16.2351635 L27.3946921,16.2190276 Z" id="Path"></path>
                <path d="M0.266242038,16.2331465 L8.26358811,16.1948238 C8.46513097,16.1603404 8.66957188,16.2374879 8.79808917,16.3965223 L0.326751592,16.3965223 C0.281273361,16.3551039 0.258715055,16.2941964 0.266242038,16.2331465 Z" id="Path"></path>
                <path d="M73.5433121,16.3945053 C73.5437568,16.3325305 73.5328182,16.2710007 73.5110403,16.2129766 L77.9867304,16.1948238 C77.9764529,16.2616638 77.9764529,16.3296822 77.9867304,16.3965223 L73.5433121,16.3945053 Z" id="Path"></path>
                <path d="M63.9041401,16.1766709 C65.1627389,16.3239108 66.4515924,15.9527855 67.6940552,16.3945053 L63.8617834,16.3945053 L63.9041401,16.1766709 Z" id="Path"></path>
                <path d="M97.2832272,16.2351635 C98.5135881,16.2694522 99.7600849,15.9769894 100.97431,16.3945053 L97.3437367,16.3945053 C97.2989238,16.3543445 97.2763677,16.2949467 97.2832272,16.2351635 Z" id="Path"></path>
                <path d="M27.3946921,16.2190276 L15.9987261,16.2351635 C15.6518047,16.0011932 15.74862,15.6401528 15.74862,15.3174352 C15.74862,10.6198768 15.7627389,5.92231845 15.7304671,1.22476006 C15.7304671,0.343337558 16.010828,0.000450084549 16.8962845,0.0750785347 C17.5988237,0.137607432 18.3055287,0.137607432 19.0080679,0.0750785347 C19.9600849,-0.0116518263 20.3049894,0.302997855 20.2868365,1.30745645 C20.2303609,4.66371972 20.2868365,8.01998299 20.2505308,11.3742293 C20.2505308,12.1588365 20.4522293,12.4351635 21.2751592,12.4089427 C23.0521231,12.3524671 24.831104,12.4089427 26.6100849,12.3807049 C27.3442675,12.366586 27.681104,12.6146751 27.5943737,13.3690276 C27.4854565,14.3129766 27.8122081,15.2912144 27.3946921,16.2190276 Z" id="Path"></path>
            </g>
            <g id="Group-13">
                <path d="M45.4225053,33.2708964 C47.9276008,34.1200471 50.1180467,35.1708964 52.0483015,36.7340598 C56.2416136,40.1286458 57.7382166,44.6951002 57.9278132,49.878752 C58.2686837,58.8180301 53.0527601,64.130769 45.1744161,66.5814059 C41.5693158,67.6749567 37.819991,68.2189284 34.0527601,68.194994 C23.6652866,68.2212148 13.2778132,68.205079 2.89235669,68.194994 C0.833014862,68.194994 -3.43956993e-14,67.378115 -3.43956993e-14,65.353062 C-3.43956993e-14,44.543154 -3.43956993e-14,23.735263 -3.43956993e-14,2.92938893 C-3.43956993e-14,0.924505706 0.867303609,0.0612360665 2.88630573,0.0551851111 C4.7358811,0.0551851111 6.58747346,0.115694665 8.43099788,0.0289643043 C9.36082803,-0.0133923836 9.35276008,0.432361332 9.35276008,1.10401738 C9.34065817,12.1302028 9.33729653,23.1563882 9.34267516,34.1825736 C9.34267516,34.3842722 9.34267516,34.5859707 9.34267516,34.7876692 C9.34267516,35.1224887 9.28014862,35.5016819 9.64320594,35.6832106 C10.0062633,35.8647393 10.2725053,35.5581575 10.5084926,35.3262042 C12.4394197,33.505539 14.3669851,31.6821844 16.291189,29.8561405 C17.233121,28.9646331 17.3259023,28.974718 18.2456476,29.8561405 C20.1174098,31.6405 21.9938783,33.4188086 23.8750531,35.1910662 C24.155414,35.4552913 24.3954352,35.9212148 24.8714437,35.6832106 C25.3474522,35.4452063 25.1376858,34.9651639 25.1376858,34.5879877 C25.1470984,25.6446756 25.1470984,16.7027081 25.1376858,7.76208532 L25.1376858,0.904335854 C25.1376858,0.466650079 25.0570064,0.0410662151 25.7649682,0.0551851111 C30.8719745,0.147966427 35.9930998,-0.221141853 41.0819533,0.228645833 C46.4511677,0.70263734 50.1462845,3.8430832 52.6937367,8.39541866 C56.5542463,15.2894739 55.638535,23.8354399 50.5073248,29.6181363 C49.1357749,31.1732318 47.4193206,32.2805567 45.4225053,33.2708964 Z" id="Path" fill="#01286A"></path>
                <path d="M23.4615711,15.6686671 C23.4615711,20.471781 23.4615711,25.2742226 23.4615711,30.0759919 C23.4615711,30.4793889 23.6330149,31.0058221 23.1045648,31.2337414 C22.5761146,31.4616607 22.3058386,31.009856 21.9972399,30.7173932 C20.6519108,29.4567775 19.2985138,28.2001957 17.9915074,26.9052913 C17.4771762,26.399028 17.1100849,26.3627223 16.5796178,26.9052913 C15.3230361,28.16389 14.0200637,29.3760981 12.7090234,30.5802382 C12.3621019,30.8989218 12.0373673,31.4656947 11.4584926,31.2236564 C10.8796178,30.9816182 11.0046709,30.3825736 11.0046709,29.8884123 C11.0046709,20.2835291 10.99862,10.6786458 10.986518,1.07376261 C10.986518,0.283104432 11.2063694,0.0350152597 12.0111465,0.0428937231 C15.5368365,0.0854398882 19.0705945,0.0793889328 22.5902335,0.0428937231 C23.3082803,0.0428937231 23.4918259,0.271002521 23.4877919,0.960811438 C23.4494692,5.86006834 23.4615711,10.7633592 23.4615711,15.6686671 Z" id="Path" fill="#FFD001"></path>
            </g>
        </g>
    </g>
</svg>