<?xml version="1.0" encoding="UTF-8"?>
<svg width="43px" height="50px" viewBox="0 0 43 50" version="1.1" xmlns="http://www.w3.org/2000/svg" xmlns:xlink="http://www.w3.org/1999/xlink">
    <title>logo-icon</title>
    <g id="Page-1" stroke="none" stroke-width="1" fill="none" fill-rule="evenodd">
        <g id="006" transform="translate(-164.000000, -120.000000)" fill-rule="nonzero">
            <g id="Group-5" transform="translate(120.000000, 80.000000)">
                <g id="logo-icon" transform="translate(44.910616, 40.000000)">
                    <path d="M32.9148589,24.1093452 C34.7301455,24.7246718 36.3174252,25.4861568 37.7161605,26.6188839 C40.7547925,29.0787289 41.8392874,32.3877538 41.9766762,36.1440232 C42.2236838,42.621761 38.444029,46.4715717 32.7350842,48.2473956 C30.1226926,49.0398237 27.4057906,49.4340061 24.6759131,49.4166623 C17.1487584,49.4356629 9.62160374,49.4239703 2.09591064,49.4166623 C0.603633958,49.4166623 -3.34675926e-13,48.824721 -3.34675926e-13,47.3572913 C-3.34675926e-13,32.2776478 -3.34675926e-13,17.1994659 -3.34675926e-13,2.1227456 C-3.34675926e-13,0.669931671 0.628480876,0.0443739612 2.09152589,0.0399892109 C3.4317979,0.0399892109 4.77353149,0.0838367139 6.10941875,0.0209886263 C6.78320871,-0.00970462579 6.77736238,0.313305313 6.77736238,0.800012596 C6.76859288,8.79000203 6.76615691,16.7799915 6.77005446,24.7699809 C6.77005446,24.9161392 6.77005446,25.0622976 6.77005446,25.2084559 C6.77005446,25.4510788 6.72474538,25.7258565 6.98783039,25.857399 C7.25091541,25.9889415 7.44384443,25.7667808 7.61484969,25.5986987 C9.01407223,24.2793761 10.4108588,22.9581046 11.8052094,21.6348844 C12.4877689,20.9888646 12.5550017,20.9961725 13.2214837,21.6348844 C14.5778332,22.9278986 15.937593,24.216528 17.3007631,25.5007726 C17.5039232,25.69224 17.6778516,26.0298658 18.0227853,25.857399 C18.367719,25.6849321 18.2157143,25.3370753 18.2157143,25.0637592 C18.2225351,18.5830982 18.2225351,12.1034117 18.2157143,5.62469951 L18.2157143,0.655315836 C18.2157143,0.338152231 18.157251,0.0297581269 18.6702668,0.0399892109 C22.370996,0.107222049 26.0819564,-0.160247719 29.7695314,0.165685386 C33.6602665,0.509157493 36.3378873,2.7848429 38.1838672,6.08363671 C40.9813379,11.0793289 40.317779,17.2720579 36.5995108,21.4624176 C35.605634,22.5892984 34.3618265,23.3917077 32.9148589,24.1093452 Z" id="Path-Copy" fill="#01286A"></path>
                    <path d="M17.0011385,11.3541066 C17.0011385,14.8346239 17.0011385,18.3146541 17.0011385,21.794197 C17.0011385,22.0865137 17.1253731,22.467987 16.7424382,22.6331459 C16.3595034,22.7983049 16.1636512,22.4709102 15.9400289,22.2589806 C14.9651528,21.3454909 13.9844303,20.4349244 13.0373242,19.4965879 C12.6646204,19.1297304 12.3986123,19.1034219 12.0142158,19.4965879 C11.1036493,20.4086159 10.1594664,21.2870276 9.20943721,22.1595929 C8.95804486,22.3905231 8.72272993,22.801228 8.30325548,22.625838 C7.88378104,22.450448 7.97439921,22.0163577 7.97439921,21.6582698 C7.97439921,14.6982095 7.97001446,7.73814915 7.96124496,0.778088845 C7.96124496,0.205148139 8.12055756,0.0253733766 8.70372935,0.031082408 C11.2585772,0.0619129624 13.8192714,0.0575282121 16.3697345,0.031082408 C16.8900582,0.031082408 17.0230622,0.196378638 17.0201391,0.696240173 C16.992369,4.24642633 17.0011385,7.79953566 17.0011385,11.3541066 Z" id="Path-Copy-2" fill="#FFD001"></path>
                </g>
            </g>
        </g>
    </g>
</svg>