<?xml version="1.0" encoding="UTF-8"?>
<svg width="264px" height="172px" viewBox="0 0 264 172" version="1.1" xmlns="http://www.w3.org/2000/svg" xmlns:xlink="http://www.w3.org/1999/xlink">
    <title>pattern-plan-01</title>
    <defs>
        <path d="M264.423094,9.26337765 L264.423094,163.390661 C264.428107,164.15164 264.335605,164.910158 264.14743,165.647525 C263.110496,169.767601 259.407851,172.657155 255.159293,172.661889 L9.25550398,172.661889 C6.79870675,172.659804 4.44336177,171.681845 2.70761851,169.943153 C0.971875253,168.20446 -1.98951966e-13,165.847458 -1.98951966e-13,163.390661 L-1.98951966e-13,9.26337765 C-1.98951966e-13,6.80730408 0.972125639,4.45111059 2.70809493,2.71366638 C4.44406422,0.97622218 6.79942952,-1.33016893e-05 9.25550398,-1.33016893e-05 L255.15143,-1.33016893e-05 C257.610228,-0.00416558646 259.969637,0.970199587 261.70901,2.7080973" id="path-1"></path>
    </defs>
    <g id="Page-2" stroke="none" stroke-width="1" fill="none" fill-rule="evenodd">
        <g id="pattern-plan-01" transform="translate(-1.000000, 0.000000)">
            <mask id="mask-2" fill="white">
                <use xlink:href="#path-1"></use>
            </mask>
            <g id="Mask" fill-rule="nonzero"></g>
            <path d="M264.422661,9.26337765 L264.422661,139.178523 C248.034838,137.20475 231.820019,131.802431 219.277518,121.178658 C205.398199,109.430384 196.79538,90.5104741 200.514881,72.7386547 C191.078516,97.7764746 160.646242,110.845839 134.460331,105.41993 C108.27442,99.9940202 87.0819184,79.4699279 75.1055994,55.5172899 C68.767508,42.8646981 59.2682347,20.0444238 57.9235527,4.68958206e-13 L255.15143,4.68958206e-13 C257.610228,-0.00416558646 259.969637,0.970199587 261.70901,2.7080973 C263.448383,4.44599502 264.42475,6.80457661 264.422661,9.26337765 Z" id="Path-Copy-2" fill="#05245A" fill-rule="nonzero" mask="url(#mask-2)"></path>
            <path d="M265.139567,164.663252 C264.102633,168.783328 260.399987,171.672882 256.15143,171.677616 L10.255504,171.677616 C7.79870675,171.675531 5.44336177,170.697573 3.70761851,168.95888 C1.97187525,167.220187 1,164.863185 1,162.406388 L1,143.116887 C2.62531306,145.525242 4.55178643,147.715977 6.73259464,149.635842 C16.4363226,158.152161 29.8595508,161.336934 42.7795062,161.274024 C55.6994616,161.211115 68.3756443,158.21507 81.0439633,155.769479 C121.682972,147.942772 163.193319,145.644137 204.448017,148.935978 C225.270928,150.634524 247.375611,154.542751 265.139567,164.663252 Z" id="Path-Copy-3" fill="#05245A" fill-rule="nonzero" mask="url(#mask-2)"></path>
        </g>
    </g>
</svg>