<?xml version="1.0" encoding="UTF-8"?>
<svg width="1440px" height="2554px" viewBox="0 0 1440 2554" version="1.1" xmlns="http://www.w3.org/2000/svg" xmlns:xlink="http://www.w3.org/1999/xlink">
    <title>background-pattern</title>
    <g id="background-pattern" stroke="none" stroke-width="1" fill="none" fill-rule="evenodd" stroke-linecap="round">
        <path d="M247.505476,449.220302 C282.2805,703.21191 452.774715,863.043131 758.98812,928.713965 C1218.30823,1027.22022 1301.13407,1142.41656 1273.36868,1411.10487 C1245.60329,1679.79319 631.479699,1836.99954 182.302306,1230.0272 C-266.875088,623.054863 -146.611463,434.734089 -84.3062118,304.358168 C-22.0009604,173.982247 325.74928,-43.3109534 414.135799,266.694013 C502.522318,576.69898 747.396446,733.150084 980.678899,725.906978 C1213.96135,718.663871 1369,515.856884 1369,410.107526 C1369,304.358168 756.090202,195.711568 627.132821,449.220302" id="Path-2-Copy" stroke="#D0D4DA" opacity="0.279110863" transform="translate(611.000000, 878.500000) scale(-1, -1) translate(-611.000000, -878.500000) "></path>
        <path d="M30.5054756,-873.779698 C65.2804997,-619.78809 235.774715,-459.956869 541.98812,-394.286035 C1001.30823,-295.779784 1084.13407,-180.583444 1056.36868,88.1048711 C1028.60329,356.793187 414.479699,513.999545 -34.6976944,-92.9727963 C-483.875088,-699.945137 -363.611463,-888.265911 -301.306212,-1018.64183 C-239.00096,-1149.01775 108.74928,-1366.31095 197.135799,-1056.30599 C285.522318,-746.30102 530.396446,-589.849916 763.678899,-597.093022 C996.961351,-604.336129 1152,-807.143116 1152,-912.892474 C1152,-1018.64183 539.090202,-1127.28843 410.132821,-873.779698" id="Path-2" stroke="#D0D4DA" opacity="0.256533668"></path>
        <path d="M343.505476,1832.2203 C378.2805,2086.21191 548.774715,2246.04313 854.98812,2311.71397 C1314.30823,2410.22022 1397.13407,2525.41656 1369.36868,2794.10487 C1341.60329,3062.79319 727.479699,3219.99954 278.302306,2613.0272 C-170.875088,2006.05486 -50.6114631,1817.73409 11.6937882,1687.35817 C73.9990396,1556.98225 421.74928,1339.68905 510.135799,1649.69401 C598.522318,1959.69898 843.396446,2116.15008 1076.6789,2108.90698 C1309.96135,2101.66387 1465,1898.85688 1465,1793.10753 C1465,1687.35817 852.090202,1578.71157 723.132821,1832.2203" id="Path-2-Copy-2" stroke-opacity="0.124945367" stroke="#001436" opacity="0.334635417"></path>
    </g>
</svg>