<!--?xml version="1.0" encoding="UTF-8"?-->
<svg width="100%" height="100%" viewBox="0 0 1440 800" version="1.1" xmlns="http://www.w3.org/2000/svg" xmlns:xlink="http://www.w3.org/1999/xlink">
  <title>main-pattern-block-home-banner</title>
  <g id="main-pattern-block-home-banner" stroke="none" stroke-width="1" fill="none" fill-rule="evenodd">
    <rect id="Rectangle" x="0" y="0" width="1440" height="800" class="svg-elem-1"></rect>
    <path d="M276.882471,-156.415077 C301.289216,21.9229634 420.950064,134.147091 635.865013,180.257307 C958.237438,249.422631 1016.36851,330.306757 996.881451,518.963965 C977.394396,707.621173 546.373615,818.002276 231.119824,391.821826 C-84.1339667,-34.3586234 0.272693414,-166.586448 44.001445,-258.128788 C87.7301966,-349.671128 331.797647,-502.241695 393.831458,-284.574353 C455.865268,-66.907011 627.729432,42.9437971 791.458013,37.8581115 C955.186595,32.772426 1064,-109.62677 1064,-183.877779 C1064,-258.128788 633.831118,-334.414071 543.322772,-156.415077" id="Path-2-Copy" stroke="#D0D4DA" opacity="0.131161644" stroke-linecap="round" transform="translate(532.000000, 145.000000) scale(-1, -1) translate(-532.000000, -145.000000) " class="svg-elem-2"></path>
    <path d="M276.882471,-156.415077 C301.289216,21.9229634 420.950064,134.147091 635.865013,180.257307 C958.237438,249.422631 1016.36851,330.306757 996.881451,518.963965 C977.394396,707.621173 546.373615,818.002276 231.119824,391.821826 C-84.1339667,-34.3586234 0.272693414,-166.586448 44.001445,-258.128788 C87.7301966,-349.671128 331.797647,-502.241695 393.831458,-284.574353 C455.865268,-66.907011 627.729432,42.9437971 791.458013,37.8581115 C955.186595,32.772426 1064,-109.62677 1064,-183.877779 C1064,-258.128788 633.831118,-334.414071 543.322772,-156.415077" id="Path-2-Copy" stroke="#D0D4DA" opacity="0.131161644" stroke-linecap="round" class="svg-elem-3"></path>
    <path d="M30.5054756,-73.7796981 C65.2804997,180.21191 235.774715,340.043131 541.98812,405.713965 C1001.30823,504.220216 1084.13407,619.416556 1056.36868,888.104871 C1028.60329,1156.79319 414.479699,1313.99954 -34.6976944,707.027204 C-483.875088,100.054863 -363.611463,-88.2659115 -301.306212,-218.641832 C-239.00096,-349.017753 108.74928,-566.310953 197.135799,-256.305987 C285.522318,53.6989798 530.396446,210.150084 763.678899,202.906978 C996.961351,195.663871 1152,-7.14311648 1152,-112.892474 C1152,-218.641832 539.090202,-327.288432 410.132821,-73.7796981" id="Path-2" stroke="#D0D4DA" opacity="0.256533668" stroke-linecap="round" class="svg-elem-4"></path>
  </g>

  <style>
    svg .svg-elem-1{stroke-dashoffset:4482px;stroke-dasharray:4482px;transition:stroke-dashoffset 2s cubic-bezier(0.55,0.085,0.68,0.53) 0s}svg.active .svg-elem-1{stroke-dashoffset:0}svg .svg-elem-2{stroke-dashoffset:4726.30419921875px;stroke-dasharray:4726.30419921875px;transition:stroke-dashoffset 2s cubic-bezier(0.55,0.085,0.68,0.53) 0.12s}svg.active .svg-elem-2{stroke-dashoffset:0}svg .svg-elem-3{stroke-dashoffset:4726.30419921875px;stroke-dasharray:4726.30419921875px;transition:stroke-dashoffset 2s cubic-bezier(0.55,0.085,0.68,0.53) 0.24s}svg.active .svg-elem-3{stroke-dashoffset:0}svg .svg-elem-4{stroke-dashoffset:6732.02099609375px;stroke-dasharray:6732.02099609375px;transition:stroke-dashoffset 2s cubic-bezier(0.55,0.085,0.68,0.53) 0.36s}svg.active .svg-elem-4{stroke-dashoffset:0}
    @-webkit-keyframes animate-svg-stroke-1{0%{stroke-dashoffset:4482px;stroke-dasharray:4482px}100%{stroke-dashoffset:0}}@keyframes animate-svg-stroke-1{0%{stroke-dashoffset:4482px;stroke-dasharray:4482px}100%{stroke-dashoffset:0}}.svg-elem-1{-webkit-animation:animate-svg-stroke-1 2s linear 0s both;animation:animate-svg-stroke-1 2s linear 0s both}@-webkit-keyframes animate-svg-stroke-2{0%{stroke-dashoffset:4726.30419921875px;stroke-dasharray:4726.30419921875px}100%{stroke-dashoffset:0}}@keyframes animate-svg-stroke-2{0%{stroke-dashoffset:4726.30419921875px;stroke-dasharray:4726.30419921875px}100%{stroke-dashoffset:0}}.svg-elem-2{-webkit-animation:animate-svg-stroke-2 2s linear 0.32s both;animation:animate-svg-stroke-2 2s linear 0.32s both}@-webkit-keyframes animate-svg-stroke-3{0%{stroke-dashoffset:4726.30419921875px;stroke-dasharray:4726.30419921875px}100%{stroke-dashoffset:0}}@keyframes animate-svg-stroke-3{0%{stroke-dashoffset:4726.30419921875px;stroke-dasharray:4726.30419921875px}100%{stroke-dashoffset:0}}.svg-elem-3{-webkit-animation:animate-svg-stroke-3 2s linear 0.64s both;animation:animate-svg-stroke-3 2s linear 0.64s both}@-webkit-keyframes animate-svg-stroke-4{0%{stroke-dashoffset:6732.02099609375px;stroke-dasharray:6732.02099609375px}100%{stroke-dashoffset:0}}@keyframes animate-svg-stroke-4{0%{stroke-dashoffset:6732.02099609375px;stroke-dasharray:6732.02099609375px}100%{stroke-dashoffset:0}}.svg-elem-4{-webkit-animation:animate-svg-stroke-4 2s linear 0.96s both;animation:animate-svg-stroke-4 2s linear 0.96s both}
  </style>
</svg>