<?xml version="1.0" encoding="UTF-8"?>
<svg width="1444px" height="245px" viewBox="0 0 1444 245" version="1.1" xmlns="http://www.w3.org/2000/svg" xmlns:xlink="http://www.w3.org/1999/xlink">
    <title>wave</title>
    <defs>
        <rect id="path-1" x="0" y="0" width="1443" height="260"></rect>
        <filter id="filter-3">
            <feColorMatrix in="SourceGraphic" type="matrix" values="0 0 0 0 1.000000 0 0 0 0 1.000000 0 0 0 0 1.000000 0 0 0 0.036786 0"></feColorMatrix>
        </filter>
    </defs>
    <g id="Page-2" stroke="none" stroke-width="1" fill="none" fill-rule="evenodd">
        <g id="Group-23-Copy" transform="translate(0.000000, -15.000000)">
            <g id="wave" transform="translate(0.350000, 0.000000)">
                <mask id="mask-2" fill="white">
                    <use xlink:href="#path-1"></use>
                </mask>
                <g id="Mask"></g>
                <g filter="url(#filter-3)">
                    <g mask="url(#mask-2)">
                        <g transform="translate(-6.000000, 15.000000)" fill="#FF5500" fill-rule="nonzero" id="Path">
                            <path d="M0.65,214 C25.9833333,206.666667 46.7666667,194.233333 63,176.7 C87.35,150.4 100,113 119,80.7 C137.2,49 156,27 174,22 C192.6,17 211,27 230,32.7 C248,38 266,38 285,38 C303.4,38 322,38 340,59.3 C358.8,81 377,123 396,134 C414.2,145 433,123 451,91.3 C469.5,59 488,17 506,27.3 C524.9,38 543,102 562,128.7 C580.3,155 599,145 617,118 C635.7,91 654,49 673,43.3 C691.1,38 710,70 728,96.7 C746.5,123 765,145 783,134 C801.8,123 820,81 839,64.7 C857.2,49 876,59 894,75.3 C912.6,91 931,113 950,128.7 C968,145 986,155 1005,171.3 C1023.4,187 1042,209 1060,214 C1078.8,219 1097,209 1116,182 C1134.2,155 1153,113 1171,102 C1189.5,91 1208,113 1226,91.3 C1244.9,70 1263,6 1282,0.7 C1300.3,-5 1319,49 1337,102 C1355.7,155 1373.35,204.6 1393,219.3 C1406.1,229.1 1425.98333,227 1452.65,213 L1454.65,260 L1438.8,262 C1429.5,262 1411,262 1393,262 C1374.2,262 1356,262 1337,262 C1318.8,262 1300,262 1282,262 C1263.4,262 1245,262 1226,262 C1208,262 1190,262 1171,262 C1152.6,262 1134,262 1116,262 C1097.2,262 1079,262 1060,262 C1041.8,262 1023,262 1005,262 C986.5,262 968,262 950,262 C931.1,262 913,262 894,262 C875.7,262 857,262 839,262 C820.3,262 802,262 783,262 C764.9,262 746,262 728,262 C709.5,262 691,262 673,262 C654.2,262 636,262 617,262 C598.8,262 580,262 562,262 C543.4,262 525,262 506,262 C488,262 470,262 451,262 C432.6,262 414,262 396,262 C377.2,262 359,262 340,262 C321.8,262 303,262 285,262 C266.5,262 248,262 230,262 C211.1,262 193,262 174,262 C155.7,262 137,262 119,262 C100.3,262 82,262 63,262 C44.9,262 26,262 17,262 L3.65,245 L0.65,214 Z"></path>
                        </g>
                    </g>
                </g>
            </g>
        </g>
    </g>
</svg>