<?xml version="1.0" encoding="UTF-8"?>
<svg width="863px" height="295px" viewBox="0 0 863 295" version="1.1" xmlns="http://www.w3.org/2000/svg" xmlns:xlink="http://www.w3.org/1999/xlink">
    <title>auth-bottom-img-01</title>
    <g id="Page-2" stroke="none" stroke-width="1" fill="none" fill-rule="evenodd">
        <g id="auth-bg-pattern" transform="translate(-298.000000, -585.000000)">
            <g id="auth-bottom-img-01" transform="translate(298.250000, 585.073373)">
                <g id="Group-16-Copy" transform="translate(141.000000, 145.500000) scale(-1, 1) rotate(30.000000) translate(-141.000000, -145.500000) translate(42.000000, 35.000000)">
                    <g id="Group-18-Copy" transform="translate(0.000000, 73.333333)">
                        <path d="M31.2394326,146.154641 C31.2394326,146.154641 -7.50311566,121.021842 1.30183394,91.0880935 C10.1067835,61.1504949 31.2394326,69.9554445 31.2394326,40.0216958 C31.2394326,10.0840972 41.8038321,-14.5713017 66.455381,10.0840972 C91.1107799,34.7356461 55.8909815,69.9554445 77.0236305,91.0880935 C98.1524295,112.216893 64.2185311,146.154641 64.2185311,146.154641 L31.2394326,146.154641" id="Fill-20" fill="#8B6002"></path>
                        <g id="Group-17" transform="translate(15.881783, 19.116197)" fill="#FFFFFE">
                            <polygon id="Fill-21" points="32.0204485 127.038444 33.6528485 127.038444 33.6528485 5.57864975 32.0204485 5.57864975"></polygon>
                            <polyline id="Fill-22" points="-6.0182967e-13 78.7016964 32.2668485 110.387195 33.4064485 109.224495 1.14344995 77.5389965"></polyline>
                            <polyline id="Fill-23" points="52.2714476 77.5428465 31.7316986 98.0864455 32.8866985 99.2375955 53.4225976 78.6978464"></polyline>
                            <polyline id="Fill-24" points="16.1276493 54.5390975 32.2591485 70.6705968 33.4141485 69.5155968 17.2826492 53.3840976"></polyline>
                            <polyline id="Fill-25" points="47.2702979 26.6804988 31.7316986 42.2190981 32.8866985 43.370248 48.4214478 27.8354987"></polyline>
                            <polyline id="Fill-26" points="23.3271489 17.8293492 32.7942985 27.3003488 33.9492985 26.1491988 24.4782989 16.6781992"></polyline>
                            <polyline id="Fill-27" points="47.2702979 1.20365934e-12 31.4275486 15.8427493 32.5786985 16.9938992 48.4214478 1.15114995"></polyline>
                        </g>
                    </g>
                    <g id="Group-20-Copy" transform="translate(59.888889, 0.000000)">
                        <path d="M25.2576511,219.893259 C25.2576511,219.893259 -10.6358972,193.205061 5.01050206,157.315362 C20.6569014,121.421814 9.99625184,116.967364 1.06040224,81.9246656 C-7.87159735,46.8781172 42.7443503,68.0454162 36.2994506,38.5967675 C29.8584009,9.14811889 49.64355,-7.88043034 61.1473495,3.62336914 C72.654999,15.1271686 60.2310496,56.0834668 79.5541987,67.1252663 C98.8811978,78.1670658 100.617548,94.029065 87.7854983,130.731113 C74.9534489,167.437012 124.649247,163.756412 83.2386485,219.893259 C50.10555,219.893259 25.2576511,219.893259 25.2576511,219.893259" id="Fill-28" fill="#FFD001"></path>
                        <g id="Group-19" transform="translate(14.708652, 29.768718)" fill="#FFFFFE">
                            <polygon id="Fill-29" points="34.5075484 189.262141 36.1360984 189.262141 36.1360984 -6.56541458e-13 34.5075484 -6.56541458e-13"></polygon>
                            <polyline id="Fill-30" points="0.958649956 41.8764481 35.1158484 76.0297965 36.2669984 74.8786466 2.1097999 40.7252982"></polyline>
                            <polyline id="Fill-31" points="67.6637469 62.6972472 34.7462484 95.6147457 35.8973984 96.7658956 68.8148969 63.8483971"></polyline>
                            <polyline id="Fill-32" points="-7.65965034e-13 131.512144 34.7462484 166.254542 35.8973984 165.103393 1.15499995 130.357144"></polyline>
                            <polyline id="Fill-33" points="59.3246473 125.352144 34.6345984 150.046043 35.7857484 151.197193 60.4796473 126.507144"></polyline>
                        </g>
                    </g>
                    <g id="Group-22-Copy" transform="translate(110.000000, 45.833333)">
                        <path d="M79.0051414,113.093069 C58.0919423,92.1837198 75.3245416,14.6216233 66.119192,5.42012375 C56.9176924,-3.78137583 32.9899435,-5.62552574 32.9899435,35.8620724 C32.9899435,77.3458205 20.1078441,63.3972711 3.54129482,104.492169 C-13.0252544,145.587067 33.9100934,173.834516 33.9100934,173.834516 L59.6781423,173.834516 C79.9252913,163.709017 99.9183404,134.006268 79.0051414,113.093069" id="Fill-35" fill="#01286A"></path>
                        <g id="Group-21" transform="translate(16.997044, 21.255173)" fill="#FFFFFE">
                            <polygon id="Fill-37" points="30.6151986 152.579343 32.2437485 152.579343 32.2437485 -1.09423576e-12 30.6151986 -1.09423576e-12"></polygon>
                            <polyline id="Fill-38" points="-4.92406094e-13 94.2749457 30.7268486 124.997944 31.8779986 123.846794 1.15499995 93.1237958"></polyline>
                            <polyline id="Fill-39" points="12.5086494 58.2581974 30.7268486 76.4725465 31.8779986 75.3213966 13.6597994 57.1031974"></polyline>
                            <polyline id="Fill-40" points="46.6927979 93.1237958 30.7268486 109.089745 31.8779986 110.240895 47.8477978 94.2749457"></polyline>
                        </g>
                    </g>
                </g>
                <g id="Group-16" transform="translate(720.500000, 147.500000) rotate(30.000000) translate(-720.500000, -147.500000) translate(621.500000, 37.000000)">
                    <g id="Group-18-Copy" transform="translate(0.000000, 73.333333)">
                        <path d="M31.2394326,146.154641 C31.2394326,146.154641 -7.50311566,121.021842 1.30183394,91.0880935 C10.1067835,61.1504949 31.2394326,69.9554445 31.2394326,40.0216958 C31.2394326,10.0840972 41.8038321,-14.5713017 66.455381,10.0840972 C91.1107799,34.7356461 55.8909815,69.9554445 77.0236305,91.0880935 C98.1524295,112.216893 64.2185311,146.154641 64.2185311,146.154641 L31.2394326,146.154641" id="Fill-20" fill="#8B6002"></path>
                        <g id="Group-17" transform="translate(15.881783, 19.116197)" fill="#FFFFFE">
                            <polygon id="Fill-21" points="32.0204485 127.038444 33.6528485 127.038444 33.6528485 5.57864975 32.0204485 5.57864975"></polygon>
                            <polyline id="Fill-22" points="-6.0182967e-13 78.7016964 32.2668485 110.387195 33.4064485 109.224495 1.14344995 77.5389965"></polyline>
                            <polyline id="Fill-23" points="52.2714476 77.5428465 31.7316986 98.0864455 32.8866985 99.2375955 53.4225976 78.6978464"></polyline>
                            <polyline id="Fill-24" points="16.1276493 54.5390975 32.2591485 70.6705968 33.4141485 69.5155968 17.2826492 53.3840976"></polyline>
                            <polyline id="Fill-25" points="47.2702979 26.6804988 31.7316986 42.2190981 32.8866985 43.370248 48.4214478 27.8354987"></polyline>
                            <polyline id="Fill-26" points="23.3271489 17.8293492 32.7942985 27.3003488 33.9492985 26.1491988 24.4782989 16.6781992"></polyline>
                            <polyline id="Fill-27" points="47.2702979 1.20365934e-12 31.4275486 15.8427493 32.5786985 16.9938992 48.4214478 1.15114995"></polyline>
                        </g>
                    </g>
                    <g id="Group-20-Copy" transform="translate(59.888889, 0.000000)">
                        <path d="M25.2576511,219.893259 C25.2576511,219.893259 -10.6358972,193.205061 5.01050206,157.315362 C20.6569014,121.421814 9.99625184,116.967364 1.06040224,81.9246656 C-7.87159735,46.8781172 42.7443503,68.0454162 36.2994506,38.5967675 C29.8584009,9.14811889 49.64355,-7.88043034 61.1473495,3.62336914 C72.654999,15.1271686 60.2310496,56.0834668 79.5541987,67.1252663 C98.8811978,78.1670658 100.617548,94.029065 87.7854983,130.731113 C74.9534489,167.437012 124.649247,163.756412 83.2386485,219.893259 C50.10555,219.893259 25.2576511,219.893259 25.2576511,219.893259" id="Fill-28" fill="#FFD001"></path>
                        <g id="Group-19" transform="translate(14.708652, 29.768718)" fill="#FFFFFE">
                            <polygon id="Fill-29" points="34.5075484 189.262141 36.1360984 189.262141 36.1360984 -6.56541458e-13 34.5075484 -6.56541458e-13"></polygon>
                            <polyline id="Fill-30" points="0.958649956 41.8764481 35.1158484 76.0297965 36.2669984 74.8786466 2.1097999 40.7252982"></polyline>
                            <polyline id="Fill-31" points="67.6637469 62.6972472 34.7462484 95.6147457 35.8973984 96.7658956 68.8148969 63.8483971"></polyline>
                            <polyline id="Fill-32" points="-7.65965034e-13 131.512144 34.7462484 166.254542 35.8973984 165.103393 1.15499995 130.357144"></polyline>
                            <polyline id="Fill-33" points="59.3246473 125.352144 34.6345984 150.046043 35.7857484 151.197193 60.4796473 126.507144"></polyline>
                        </g>
                    </g>
                    <g id="Group-22-Copy" transform="translate(110.000000, 45.833333)">
                        <path d="M79.0051414,113.093069 C58.0919423,92.1837198 75.3245416,14.6216233 66.119192,5.42012375 C56.9176924,-3.78137583 32.9899435,-5.62552574 32.9899435,35.8620724 C32.9899435,77.3458205 20.1078441,63.3972711 3.54129482,104.492169 C-13.0252544,145.587067 33.9100934,173.834516 33.9100934,173.834516 L59.6781423,173.834516 C79.9252913,163.709017 99.9183404,134.006268 79.0051414,113.093069" id="Fill-35" fill="#01286A"></path>
                        <g id="Group-21" transform="translate(16.997044, 21.255173)" fill="#FFFFFE">
                            <polygon id="Fill-37" points="30.6151986 152.579343 32.2437485 152.579343 32.2437485 -1.09423576e-12 30.6151986 -1.09423576e-12"></polygon>
                            <polyline id="Fill-38" points="-4.92406094e-13 94.2749457 30.7268486 124.997944 31.8779986 123.846794 1.15499995 93.1237958"></polyline>
                            <polyline id="Fill-39" points="12.5086494 58.2581974 30.7268486 76.4725465 31.8779986 75.3213966 13.6597994 57.1031974"></polyline>
                            <polyline id="Fill-40" points="46.6927979 93.1237958 30.7268486 109.089745 31.8779986 110.240895 47.8477978 94.2749457"></polyline>
                        </g>
                    </g>
                </g>
            </g>
        </g>
    </g>
</svg>