<?xml version="1.0" encoding="UTF-8"?>
<svg width="129px" height="158px" viewBox="0 0 129 158" version="1.1" xmlns="http://www.w3.org/2000/svg" xmlns:xlink="http://www.w3.org/1999/xlink">
    <title>subscription-charather03</title>
    <defs>
        <circle id="path-1" cx="64.2272727" cy="64.2272727" r="64.2272727"></circle>
    </defs>
    <g id="Page-1" stroke="none" stroke-width="1" fill="none" fill-rule="evenodd">
        <g id="025-subscribe" transform="translate(-656.000000, -134.000000)">
            <g id="subscription-charather03" transform="translate(656.000000, 134.000000)">
                <g id="Group-20" transform="translate(0.000000, 28.545455)">
                    <mask id="mask-2" fill="white">
                        <use xlink:href="#path-1"></use>
                    </mask>
                    <use id="Mask" fill="#E6EFFF" xlink:href="#path-1"></use>
                    <g mask="url(#mask-2)">
                        <g transform="translate(17.631016, -28.545455)">
                            <path d="M3.67039553,43.4746113 C0.788144198,47.8916006 0.224791257,53.2455525 1.53368431,58.3535097 C2.12390356,60.6564562 3.39417628,62.7192851 4.69971104,64.7048733 C6.00608537,66.6904616 7.37878591,68.6659749 8.21499981,70.8908412 C9.05205329,73.1157076 9.30476452,75.6671675 8.34597308,77.842499 C7.38718163,80.0178306 5.00951318,81.6474402 2.66710676,81.2402477 C3.88952388,84.4767985 5.67277521,87.1592316 8.84383939,88.5436862 C12.014064,89.9281407 15.7442832,89.9759963 18.9489303,88.6721407 C20.3728447,91.6736113 22.5221495,94.4626701 25.5916255,95.7337824 C28.6611014,97.0048947 32.2024169,97.0947289 35.3323421,95.9789375 C38.6436148,98.2575364 42.8960479,99.3540177 46.8890533,98.8964509 C50.8820586,98.438884 53.6450907,98.7461675 56.3543902,95.7774402 C60.2332137,97.188761 65.5938822,96.4365043 69.8362405,93.0488306 C73.86031,89.8357878 75.2153795,85.2970605 75.279187,81.1705632 C78.2025774,83.1485953 82.4743207,83.8597129 85.7041549,82.436638 C88.9339891,81.0144027 91.3376843,77.8592904 91.8515025,74.3683493 C89.7315827,74.7125739 87.5680052,73.2861407 86.6788982,71.3307771 C85.7897913,69.3754134 85.7906308,67.1480284 85.8082618,65.0004027 C85.8619945,58.2754295 85.9165667,51.5496166 85.9711389,44.8246434 C86.0072405,40.3715525 86.0408233,35.894114 85.3339036,31.4972744 C84.6261442,27.1004348 83.1342244,22.7480926 80.3955399,19.2361621 C77.6568554,15.7242316 73.5672993,13.1299535 69.1251228,12.8159535 C66.0296201,6.87178242 60.038433,2.790622 53.4712993,1.45738135 C46.9041656,0.124140713 38.360679,1.1450605 31.9916843,3.22887868 C21.4584116,6.6761621 12.9023314,12.2761086 8.60372174,22.4920231 C5.53256666,29.7895846 7.99587147,36.8445097 3.67039553,43.4746113 Z" id="Path" fill="#B0B0B0" fill-rule="nonzero"></path>
                            <path d="M91.7146522,74.9971888 C89.1472405,75.9223974 86.2112565,75.8602691 83.7361977,74.6949429 C80.1361121,72.9998466 77.7147859,69.0656113 77.8222511,65.0885578 C79.896834,63.3884241 81.4273741,60.8587931 81.9076094,58.2200177 C82.3886843,55.5812423 82.1947431,53.3236327 80.8531068,51.001376 C83.2794704,45.4173814 81.2754116,35.5608038 76.2849945,29.7484455 C77.4133795,35.9302156 75.3984062,41.4436862 71.4557752,46.3375525 C67.5131442,51.2314188 61.8090907,54.5368145 55.7490586,56.2008466 C48.1500907,58.2880231 39.6494223,57.7985525 32.8631602,53.792114 C24.4926255,48.850392 19.5131228,39.0903653 11.9729249,32.9556113 C7.9345827,39.481606 7.08577521,48.5355525 9.70524045,56.3796755 C9.9243688,57.0362209 10.2660747,57.6692584 10.281187,58.3619054 C10.292941,58.8916755 10.1384597,59.4105311 10.0704544,59.9361033 C9.81354527,61.9250498 10.8034009,63.8569054 11.9317859,65.5150605 C13.0593314,67.1732156 14.3824971,68.765884 14.9399731,70.6918626 C16.0196629,74.4220819 13.72931,78.6056701 10.2677538,80.366253 C7.94717628,81.5466915 5.26222441,81.761622 2.68473778,81.2797076 C3.90631532,84.4977878 5.68788751,87.1651086 8.84467896,88.5436862 C12.0149036,89.9281407 15.7451228,89.9759963 18.9497699,88.6729803 C20.3736843,91.6744509 22.5229891,94.4635097 25.5924651,95.734622 C28.661941,97.0057343 32.2032565,97.0955685 35.3331816,95.9797771 C38.6444544,98.258376 42.8960479,99.3548573 46.8898929,98.8972904 C50.8828982,98.4397236 53.6459303,98.747007 56.3552298,95.7782798 C60.2340533,97.1896006 65.5947217,96.4373439 69.83708,93.0496701 C73.8611495,89.8366273 75.2162191,85.2979001 75.2800266,81.1714027 C78.2025774,83.1494348 82.4751602,83.8605525 85.7049945,82.4374776 C88.7366897,81.1017183 91.0194864,78.2329001 91.7146522,74.9971888 Z" id="Path" fill="#888888" fill-rule="nonzero"></path>
                            <path d="M45.0571068,99.8644776 C41.6106629,99.8644776 38.12308,98.8360017 35.2047271,96.9335311 C31.9849677,97.9670445 28.3857217,97.8259963 25.260834,96.531376 C22.5666469,95.414745 20.2477485,93.0790552 18.521588,89.7526701 C15.2674062,90.8567076 11.6589249,90.7148199 8.49877521,89.3345632 C5.47799447,88.0155953 3.36898912,85.5396969 1.86027789,81.5441728 C1.7511335,81.2545204 1.8057057,80.9279268 2.00300516,80.6894883 C2.20030463,80.4502102 2.51010676,80.3360284 2.81655062,80.3889215 C4.6165934,80.7046006 6.70209072,79.4309696 7.55677521,77.493237 C8.32918163,75.7410498 8.27628858,73.5044295 7.40817094,71.1939268 C6.68613885,69.2738252 5.50234206,67.4838573 4.35800516,65.7518199 L3.9793581,65.178392 C2.66374848,63.1776915 1.32630997,61.0191514 0.698309973,58.566761 C-0.739877192,52.9559001 0.059395535,47.4281568 2.94836345,43.0010926 L3.67123511,43.4729322 L2.94836345,43.0010926 C5.22192495,39.516868 5.52333136,35.8848787 5.84320837,32.0404776 C6.10851318,28.8459054 6.38305329,25.5430284 7.8078073,22.1561942 C11.7764651,12.7236006 19.375433,6.44863804 31.7230212,2.40777708 C38.8803741,0.0653706594 47.4859891,-0.639869982 53.642572,0.610253012 C60.5480533,2.01233857 66.5006201,6.25301772 69.6658073,11.9965311 C73.9526629,12.4482209 78.0883955,14.8720658 81.076433,18.7047129 C83.6463634,21.9991942 85.3649677,26.2575043 86.1869089,31.358745 C86.9072618,35.8403814 86.8703207,40.4110124 86.8342191,44.8305204 L86.6721816,65.0062798 C86.6562298,66.9507289 86.6385987,69.154606 87.4655774,70.9722798 C88.2463795,72.6883653 90.0741282,73.7823279 91.7146522,73.5153439 C91.985834,73.4733653 92.2628929,73.5598412 92.4593528,73.7529429 C92.6549731,73.9460445 92.747326,74.2214241 92.7070266,74.4934455 C92.1512298,78.2631247 89.5401602,81.6910979 86.0534169,83.2266755 C83.1510159,84.5045043 79.2302137,84.2366808 76.070064,82.6330979 C75.7661389,86.1231995 74.4530479,90.4671461 70.3760854,93.723007 C66.3251495,96.9587183 60.9829517,98.124884 56.5995453,96.7689749 C54.2327913,99.1046648 51.735064,99.3229535 48.8687645,99.5723065 C48.2726683,99.6235204 47.6480266,99.6780926 46.989802,99.7536541 C46.3475292,99.828376 45.7027378,99.8644776 45.0571068,99.8644776 Z M35.3315025,95.1166969 C35.5044544,95.1166969 35.6748875,95.1687503 35.8209731,95.2686594 C39.0096683,97.4633011 43.0093902,98.4741461 46.7899838,98.0392477 C47.4649998,97.962007 48.1047538,97.9057557 48.7159624,97.8528626 C51.7081977,97.5917557 53.6853902,97.4196434 55.7154757,95.1956166 C55.9513955,94.9370284 56.3199677,94.845515 56.6482405,94.9664134 C60.5732405,96.3945257 65.5359517,95.3761247 69.295556,92.3746541 C73.4346469,89.0700979 74.3632137,84.4507717 74.413588,81.1579696 C74.4186255,80.8406113 74.5966148,80.5517985 74.8778715,80.4057129 C75.1591282,80.2596273 75.4983153,80.2789375 75.7602618,80.4560872 C78.6156469,82.3879429 82.5616362,82.8765739 85.3540533,81.6474402 C87.9928287,80.4854723 90.0405453,78.0448359 90.7844062,75.2608145 C88.7727913,75.0777878 86.8006362,73.6891354 85.8905399,71.6884348 C84.9057217,69.5240177 84.9250319,67.1169642 84.9426629,64.9936862 L85.1047003,44.8179268 C85.1399624,40.4697824 85.176064,35.9730338 84.4783795,31.6349642 C83.7042939,26.823376 82.100711,22.8312102 79.7121282,19.7676113 C76.9541335,16.2313332 72.9728822,13.9544134 69.0621549,13.6781942 C68.7624276,13.6572049 68.4954437,13.4817343 68.3569143,13.2155899 C65.4931335,7.71639205 59.8629624,3.63775034 53.2966683,2.30367012 C47.409588,1.10811932 39.151556,1.7940498 32.2569891,4.04998029 C20.4207003,7.92292681 13.1575613,13.8897664 9.39711746,22.8270124 C8.07814955,25.9611354 7.81536345,29.1246434 7.56097308,32.184884 C7.23773778,36.074622 6.90358805,40.0961728 4.39158805,43.9464509 C1.77044366,47.9629642 1.05176987,53.0029161 2.36821906,58.1394188 C2.93073243,60.3340605 4.18421372,62.352392 5.42006398,64.2313546 L5.79619233,64.8005846 C6.99342227,66.6115418 8.23179126,68.4846273 9.02266826,70.5877557 C10.0503046,73.3230819 10.0906041,76.0231461 9.13433136,78.191761 C8.1730212,80.37213 6.10431532,81.889237 3.96760409,82.1310338 C5.24711211,84.9645899 6.9262565,86.7654723 9.18806398,87.7536487 C12.1265667,89.0356755 15.6536094,89.0810124 18.6223367,87.8737076 C19.0471602,87.7007557 19.5315934,87.890499 19.7272137,88.3035685 C20.8228554,90.6132316 22.7866148,93.6390498 25.9198982,94.937868 C28.7903955,96.1267022 32.1134223,96.2098199 35.0401709,95.1670712 C35.1358822,95.1326487 35.2341121,95.1166969 35.3315025,95.1166969 Z" id="Shape" fill="#3A3A3A" fill-rule="nonzero"></path>
                            <polyline id="Path" fill="#FFE4A3" fill-rule="nonzero" points="83.7152084 156.502857 80.5827645 136.222151 8.54998912 136.222151 5.41754527 156.502857"></polyline>
                            <path d="M10.6472405,156.502857 L18.0220426,156.502857 L18.9371763,136.222151 L8.9580212,135.526146 C8.83964152,136.212916 8.49793564,137.714071 8.38375382,138.389927 L13.2801389,139.700499 C12.1844971,146.261756 11.2836362,152.168986 10.6472405,156.502857 Z" id="Path" fill-opacity="0.1" fill="#001436" fill-rule="nonzero"></path>
                            <path d="M78.4871923,156.502857 L71.1123902,156.502857 L70.1972565,136.222151 L80.1764116,135.526146 C80.2947913,136.212916 80.6364971,137.714071 80.750679,138.389927 L75.8542939,139.700499 C76.9499356,146.261756 77.8516362,152.168986 78.4871923,156.502857 Z" id="Path" fill-opacity="0.1" fill="#001436" fill-rule="nonzero"></path>
                            <path d="M83.7143688,156.527205 C83.2954223,156.527205 82.9285292,156.221601 82.862203,155.795098 L79.8431014,136.245659 L9.29049179,136.245659 L6.27139019,155.795098 C6.19918698,156.266098 5.76009072,156.591012 5.28573243,156.51629 C4.81473243,156.443248 4.49149714,156.002472 4.56453992,155.530633 L7.69698377,135.249927 C7.7624704,134.829301 8.12432602,134.518659 8.55082869,134.518659 L80.5836041,134.518659 C81.0092672,134.518659 81.3719624,134.829301 81.437449,135.249927 L84.5698929,155.530633 C84.6420961,156.002472 84.3197003,156.443248 83.8487003,156.51629 C83.8025239,156.523847 83.7580266,156.527205 83.7143688,156.527205 Z" id="Path" fill="#3A3A3A" fill-rule="nonzero"></path>
                            <path d="M1.59161479,132.944462 L17.6190479,138.5612 L71.511187,138.5612 L87.5386201,132.944462 L79.2604383,109.637938 C78.093433,106.346815 75.6670693,103.660183 72.5270693,102.132162 C71.1837538,101.477296 69.8152511,100.856012 68.4383528,100.259916 C65.894449,99.1600765 63.358941,98.1693814 61.033326,97.3130177 C55.4585667,95.2728573 51.1515613,94.0218947 51.1515613,94.0218947 L37.9870693,94.0218947 C37.9870693,94.0218947 33.6968554,95.2644616 28.1472832,97.2962263 C25.8132725,98.1525899 23.2525774,99.1516808 20.7002779,100.259916 C19.3233795,100.856012 17.9548768,101.477296 16.6115613,102.132162 C13.4631656,103.660183 11.0451977,106.346815 9.87819233,109.637938 L1.59161479,132.944462 Z" id="Path" fill="#FADF4C" fill-rule="nonzero"></path>
                            <g id="Group" stroke-width="1" fill="none" fill-rule="evenodd" transform="translate(1.058486, 104.197510)">
                                <path d="M16.5647594,34.3636898 L17.7737433,34.3636898 L19.3126791,0.270342246 C16.8040374,10.0228128 14.4842995,22.2016471 12.6456364,32.9901497 L16.5647594,34.3636898 Z" id="Path" fill-opacity="0.1" fill="#001436" fill-rule="nonzero"></path>
                                <polygon id="Path" fill="#FFFFFF" fill-rule="nonzero" points="1.94109091 24.7841711 0.533128342 28.7461123 16.5605615 34.3636898 17.4001337 30.2027701"></polygon>
                                <path d="M16.5605615,34.3636898 L17.4001337,30.2027701 L13.3735455,28.7914492 C13.1233529,30.2086471 12.879877,31.6115722 12.6447968,32.9918289 L16.5605615,34.3636898 Z" id="Path" fill="#E3E3E3" fill-rule="nonzero"></path>
                            </g>
                            <g id="Group" stroke-width="1" fill="none" fill-rule="evenodd" transform="translate(68.224262, 104.197510)">
                                <path d="M3.28692513,34.3636898 L2.07794118,34.3636898 L0.539005348,0.270342246 C3.04764706,10.0228128 5.36738503,22.2016471 7.20604813,32.9901497 L3.28692513,34.3636898 Z" id="Path" fill-opacity="0.1" fill="#001436" fill-rule="nonzero"></path>
                                <polygon id="Path" fill="#FFFFFF" fill-rule="nonzero" points="17.9105936 24.7841711 19.3185561 28.7461123 3.29112299 34.3636898 2.4515508 30.2027701"></polygon>
                                <path d="M3.29112299,34.3636898 L2.4515508,30.2027701 L6.47813904,28.7914492 C6.72833155,30.2086471 6.97180749,31.6115722 7.2068877,32.9918289 L3.29112299,34.3636898 Z" id="Path" fill="#E3E3E3" fill-rule="nonzero"></path>
                            </g>
                            <polygon id="Path" fill="#FFFFFF" fill-rule="nonzero" points="86.1331763 128.981681 87.5411389 132.943622 71.5137057 138.5612 70.6741335 134.40028"></polygon>
                            <path d="M44.565957,101.612467 C38.925711,101.612467 34.6858715,98.7486862 32.1226576,96.3466701 C31.7742351,96.0209161 31.7566041,95.4743546 32.0831977,95.1259322 C32.4106308,94.7775097 32.9563528,94.7598787 33.3039356,95.0864723 C35.6404651,97.2760765 39.4907431,99.8854669 44.5667966,99.8854669 C49.607588,99.8854669 53.4393955,97.3071407 55.7658501,95.1452423 C56.1151121,94.8203279 56.6616736,94.8404776 56.986588,95.1897396 C57.3115025,95.5390017 57.2913528,96.0855632 56.9420907,96.4104776 C54.3881121,98.7839482 50.1684223,101.612467 44.565957,101.612467 Z" id="Path" fill="#FFFFFF" fill-rule="nonzero"></path>
                            <path d="M71.5128661,139.42428 L17.6190479,139.42428 C17.5216576,139.42428 17.4251068,139.407488 17.3335934,139.375585 L1.30616024,133.758007 C1.08955062,133.682446 0.91156131,133.522927 0.813331364,133.315552 C0.714261845,133.108178 0.701668262,132.870579 0.778908904,132.65397 L9.05960944,109.352483 C10.3080533,105.838034 12.8544757,102.997761 16.2287164,101.353879 C25.9198982,96.6338038 37.6252137,93.228499 37.7419143,93.1940765 C37.8199945,93.1714081 37.9005934,93.1604937 37.9820319,93.1604937 L51.1524009,93.1604937 C51.2338394,93.1604937 51.3144383,93.1714081 51.3925185,93.1940765 C51.5100586,93.2276594 63.2145346,96.6338038 72.9057164,101.353879 C76.279957,102.996921 78.8255399,105.837194 80.0748233,109.352483 L88.3555239,132.65397 C88.4319249,132.870579 88.4201709,133.108178 88.3202618,133.315552 C88.2211923,133.522927 88.0440426,133.681606 87.827433,133.758007 L71.7999998,139.375585 C71.7068073,139.408328 71.6102565,139.42428 71.5128661,139.42428 Z M17.7659731,137.698119 L71.365941,137.698119 L86.4362618,132.415531 L78.4460533,109.930948 C77.349572,106.84552 75.1129517,104.351151 72.1484223,102.907087 C63.1070693,98.5035311 52.264834,95.2527076 51.0273046,94.8874937 L38.1046094,94.8874937 C36.86708,95.2527076 26.0248447,98.5035311 16.9834918,102.907087 C14.0189624,104.351151 11.7823421,106.84552 10.6858608,109.930948 L2.69565222,132.415531 L17.7659731,137.698119 Z" id="Shape" fill="#3A3A3A" fill-rule="nonzero"></path>
                            <path d="M71.2215346,156.502857 L17.9170961,156.502857 C17.9170961,156.502857 17.858326,148.577296 18.1185934,138.5612 C18.4040479,127.495638 19.0924971,112.861895 20.69608,100.259916 C23.2399838,99.1600765 25.7754918,98.1693814 28.1011068,97.3130177 C27.4546362,104.776815 27.3622832,113.424408 27.2615346,120.879809 L61.8687003,120.879809 C61.7763474,113.416012 61.6336201,104.760023 60.9871495,97.2962263 C63.3211602,98.1525899 65.8818554,99.1516808 68.4341549,100.259916 C70.0461335,112.861895 70.7345827,127.495638 71.0200372,138.5612 C71.2803046,148.577296 71.2215346,156.502857 71.2215346,156.502857 Z" id="Path" fill="#12276A" fill-rule="nonzero"></path>
                            <path d="M71.2215346,156.527205 C71.2190159,156.527205 71.2173367,156.527205 71.214818,156.527205 C70.737941,156.523847 70.3542565,156.133446 70.3584544,155.656569 C70.3584544,155.585205 70.4138661,148.468151 70.156957,138.583868 C69.8950105,128.400697 69.2443421,113.646055 67.63908,100.857692 C65.8659036,100.097039 63.9617538,99.3330284 61.9585346,98.5790926 C62.5034169,105.603793 62.6402672,113.426087 62.7317806,120.869734 C62.7342993,121.100617 62.6444651,121.323103 62.4832672,121.48682 C62.3212298,121.651376 62.0995827,121.743729 61.8687003,121.743729 L27.2615346,121.743729 C27.0306522,121.743729 26.8090052,121.651376 26.6469677,121.48682 C26.4849303,121.322264 26.3950961,121.099777 26.3984544,120.868895 L26.4110479,119.938649 C26.5025613,113.121323 26.6049891,105.451831 27.1305613,98.5975632 C25.1466522,99.3464616 23.2559356,100.104595 21.4919945,100.858531 C19.893449,113.659488 19.2452993,128.407413 18.9833528,138.583868 C18.7264437,148.468151 18.7810159,155.586044 18.7818554,155.657408 C18.7860533,156.134285 18.4023688,156.523847 17.9254918,156.528079 C17.4704437,156.532242 17.0582137,156.148558 17.0548554,155.671681 C17.0540159,155.601157 16.9994437,148.456397 17.2563528,138.54021 C17.5233367,128.195002 18.1882779,113.137274 19.840556,100.152451 C19.8791763,99.8502049 20.0747966,99.5899375 20.3543741,99.4690391 C22.6438875,98.4791835 25.1500105,97.4817717 27.8038982,96.5045097 C28.0817966,96.4029215 28.3924383,96.4490979 28.626679,96.6287664 C28.8617592,96.8075953 28.9885346,97.0955685 28.9633474,97.3894188 C28.3462618,104.513189 28.2362779,112.720847 28.1388875,119.962996 L28.1380479,120.018408 L60.9955453,120.018408 C60.8973153,112.386697 60.736957,104.409921 60.1274276,97.3726273 C60.1022405,97.0787771 60.2290159,96.7916434 60.4632565,96.6119749 C60.6966576,96.4323065 61.0081389,96.3852904 61.2851977,96.4868787 C63.9609143,97.4683386 66.48131,98.4716273 68.7792191,99.4690391 C69.057957,99.5907771 69.2527378,99.8493653 69.2913581,100.151611 C70.9511923,113.123841 71.6169731,128.187446 71.883957,138.54021 C72.1417057,148.456397 72.0862939,155.600317 72.0854544,155.671681 C72.0812565,156.1452 71.6950533,156.527205 71.2215346,156.527205 Z" id="Path" fill="#3A3A3A" fill-rule="nonzero"></path>
                            <path d="M28.9566308,127.362986 C28.9566308,129.243627 27.4319677,130.767451 25.5521656,130.767451 C23.6715239,130.767451 22.1477003,129.242788 22.1477003,127.362986 C22.1477003,125.482344 23.6723634,123.95852 25.5521656,123.95852 C27.4319677,123.95852 28.9566308,125.482344 28.9566308,127.362986 Z" id="Path" fill="#FFFFFF" fill-rule="nonzero"></path>
                            <path d="M60.1761228,127.362986 C60.1761228,129.243627 61.7007859,130.767451 63.580588,130.767451 C65.4612298,130.767451 66.9850533,129.242788 66.9850533,127.362986 C66.9850533,125.482344 65.4603902,123.95852 63.580588,123.95852 C61.7007859,123.95852 60.1761228,125.482344 60.1761228,127.362986 Z" id="Path" fill="#FFFFFF" fill-rule="nonzero"></path>
                            <path d="M61.7192565,156.527255 C61.2919143,156.527255 60.9199838,156.209847 60.8637324,155.774109 L60.0333955,149.349702 C56.8253902,149.023948 54.1505132,146.673146 53.4158875,143.532306 L35.7160266,143.532306 C34.9822405,146.673146 32.3065239,149.023948 29.0985185,149.349702 L28.2681816,155.774109 C28.2068929,156.247627 27.7745132,156.582617 27.3009945,156.519649 C26.8274757,156.45836 26.4941656,156.02598 26.5554544,155.552462 L27.4781442,148.413579 C27.533556,147.982879 27.900449,147.661323 28.3345078,147.661323 C31.2679731,147.661323 33.7631816,145.46752 34.13931,142.558403 C34.1947217,142.127702 34.5616148,141.806146 34.9956736,141.806146 L54.1362405,141.806146 C54.5702993,141.806146 54.9371923,142.128542 54.9926041,142.558403 C55.3687324,145.46752 57.863941,147.661323 60.7974062,147.661323 C61.2314651,147.661323 61.5983581,147.983718 61.6537699,148.413579 L62.5764597,155.552462 C62.6377485,156.025141 62.3035987,156.45836 61.8309196,156.519649 C61.7931389,156.524686 61.7561977,156.527255 61.7192565,156.527255 Z" id="Path" fill="#001436" fill-rule="nonzero"></path>
                            <g id="Group" stroke-width="1" fill="none" fill-rule="evenodd" transform="translate(5.256347, 46.267028)">
                                <path d="M70.3368396,1.2198984 C70.3368396,1.2198984 76.761246,0.544042781 77.0500588,7.77863636 C77.3388717,15.0140695 71.3376096,16.3582246 68.7634813,15.8653957 L70.3368396,1.2198984 Z" id="Path" fill="#EAEAEA" fill-rule="nonzero"></path>
                                <path d="M74.7991658,14.0695508 C72.8958556,15.809984 70.2562406,16.1516898 68.7634813,15.8662353 L70.3368396,1.2198984 C70.3368396,1.2198984 71.9269893,1.05282353 73.5599572,1.77569519 C72.638107,5.86273262 73.0881176,10.246139 74.7991658,14.0695508 Z" id="Path" fill="#CFCFCF" fill-rule="nonzero"></path>
                                <path d="M69.7927968,16.8199893 C69.3620963,16.8199893 68.9591016,16.7830481 68.6006043,16.7150428 C68.1589893,16.630246 67.8567433,16.2213743 67.9045989,15.7747219 L69.4779572,1.12838503 C69.521615,0.72371123 69.841492,0.404673797 70.2461658,0.361855615 C70.3687433,0.34842246 73.2828984,0.0671657754 75.511123,1.99398396 C77.0038824,3.28524599 77.8123904,5.22045989 77.913139,7.74505348 C78.0667807,11.5810588 76.5345615,13.7328824 75.2223102,14.8629465 C73.6010963,16.2591551 71.4794973,16.8199893 69.7927968,16.8199893 Z M69.7155561,15.0913102 C70.9614813,15.1064225 72.720385,14.7395294 74.0956043,13.554893 C75.5841658,12.2728663 76.2885668,10.3410107 76.1869786,7.81473797 C76.1063797,5.79304813 75.5035668,4.27845989 74.3936524,3.3121123 C73.2996898,2.35919786 71.9244706,2.12663636 71.1126043,2.07962032 L69.7155561,15.0913102 Z" id="Shape" fill="#3A3A3A" fill-rule="nonzero"></path>
                                <path d="M8.28321925,1.2198984 C8.28321925,1.2198984 1.85881283,0.544042781 1.57,7.77863636 C1.28118717,15.0140695 7.2824492,16.3582246 9.85657754,15.8653957 L8.28321925,1.2198984 Z" id="Path" fill="#EAEAEA" fill-rule="nonzero"></path>
                                <path d="M3.82089305,14.0695508 C5.72420321,15.809984 8.36381818,16.1516898 9.85657754,15.8662353 L8.28321925,1.2198984 C8.28321925,1.2198984 6.69306952,1.05282353 5.0601016,1.77569519 C5.98195187,5.86273262 5.53194118,10.246139 3.82089305,14.0695508 Z" id="Path" fill="#CFCFCF" fill-rule="nonzero"></path>
                                <path d="M8.82726203,16.8199893 C7.1405615,16.8199893 5.01980214,16.2591551 3.39858824,14.8637861 C2.0863369,13.7337219 0.554117647,11.5818984 0.706919786,7.74505348 C0.807668449,5.21962032 1.61617647,3.28524599 3.10893583,1.99398396 C5.338,0.0671657754 8.25131551,0.34842246 8.37389305,0.361855615 C8.77856684,0.404673797 9.09844385,0.72371123 9.1421016,1.12838503 L10.7154599,15.7747219 C10.7633155,16.2213743 10.4610695,16.6310856 10.0194545,16.7150428 C9.66011765,16.7830481 9.25712299,16.8199893 8.82726203,16.8199893 Z M7.50661497,2.07878075 C6.69558824,2.12579679 5.32036898,2.35751872 4.22640642,3.31127273 C3.11733155,4.27762032 2.51367914,5.79304813 2.43308021,7.8138984 C2.33149198,10.3410107 3.03589305,12.2720267 4.52529412,13.5540535 C5.90135294,14.7395294 7.68292513,15.0988663 8.90534225,15.0904706 L7.50661497,2.07878075 Z" id="Shape" fill="#3A3A3A" fill-rule="nonzero"></path>
                            </g>
                            <path d="M37.9811923,86.1408306 L37.9811923,94.0244134 C37.9811923,94.0244134 40.4201495,95.9126113 44.565957,95.9126113 C48.7126041,95.9126113 51.1515613,94.0244134 51.1515613,94.0244134 L51.1515613,86.1408306 L37.9811923,86.1408306 Z" id="Path" fill="#EAEAEA" fill-rule="nonzero"></path>
                            <path d="M49.9912725,87.0198626 C46.9276736,87.2658573 43.8439249,87.3540124 40.7660533,87.2834883 C40.2295667,87.5848947 39.1826201,87.6033653 38.5965987,87.8392851 C38.2523741,87.9778145 38.0693474,88.2481568 37.9820319,88.5495632 L37.9820319,89.4000498 C38.134834,90.0565953 38.5269143,90.7601568 39.1171335,91.2194027 C42.8876522,91.61736 46.6976308,90.4167717 49.7427592,88.6200872 C50.0836255,88.4185899 50.4345667,88.1910658 50.5655399,87.8720284 C50.6965132,87.552991 50.4152565,86.9854402 49.9912725,87.0198626 Z" id="Path" fill="#CFCFCF" fill-rule="nonzero"></path>
                            <path d="M44.565957,96.7756915 C40.1749945,96.7756915 37.5614062,94.7917824 37.4522618,94.7078252 C37.2406897,94.5441086 37.1172725,94.292237 37.1172725,94.025253 L37.1172725,86.1408306 C37.1172725,85.6639535 37.5034757,85.2777503 37.9803528,85.2777503 L51.1507217,85.2777503 C51.6275987,85.2777503 52.013802,85.6639535 52.013802,86.1408306 L52.013802,94.025253 C52.013802,94.292237 51.8903848,94.5449482 51.6788126,94.7078252 C51.5713474,94.7917824 48.9577592,96.7756915 44.565957,96.7756915 Z M38.8442725,93.5609696 C39.6057645,94.0218947 41.6299731,95.0486915 44.565957,95.0486915 C47.5002618,95.0486915 49.5244704,94.0235739 50.2876415,93.5609696 L50.2876415,87.0030712 L38.8442725,87.0030712 L38.8442725,93.5609696 Z" id="Shape" fill="#3A3A3A" fill-rule="nonzero"></path>
                            <path d="M76.5385453,46.6456755 C76.5385453,65.6577878 67.6080159,88.640237 44.821187,88.640237 C22.0343581,88.640237 13.1038287,65.6586273 13.1038287,46.6456755 C13.1038287,46.6456755 23.4439998,10.5415525 38.8241228,10.5415525 C54.2034062,10.5415525 76.5385453,46.6456755 76.5385453,46.6456755 Z" id="Path" fill="#EAEAEA" fill-rule="nonzero"></path>
                            <path d="M43.7952298,88.879515 C42.2478982,88.879515 40.9482405,88.7921995 39.7358982,88.6083332 C20.5659463,85.6941781 11.984679,65.1616006 11.984679,46.1058306 C11.984679,45.6289535 12.3708822,45.2427503 12.8477592,45.2427503 C13.3246362,45.2427503 13.7108394,45.6289535 13.7108394,46.1058306 C13.7108394,64.4227771 21.8378982,84.1409696 39.9944864,86.9006434 C41.2252993,87.087868 42.5627378,87.1651086 44.2150159,87.1499963 L45.3677485,87.1382423 C47.460802,87.1164134 49.2734383,86.930868 50.9106041,86.5715311 C67.8405774,82.8522263 75.4193955,63.567253 75.4193955,46.1058306 C75.4193955,45.6289535 75.8055987,45.2427503 76.2824757,45.2427503 C76.7593528,45.2427503 77.145556,45.6289535 77.145556,46.1058306 C77.145556,64.2590605 69.1477913,84.3332316 51.2800159,88.2582316 C49.52531,88.6435953 47.5968126,88.8425739 45.3837003,88.8652423 L44.2309677,88.8769963 C44.0848822,88.8786755 43.9396362,88.879515 43.7952298,88.879515 Z" id="Path" fill="#3A3A3A" fill-rule="nonzero"></path>
                            <path d="M25.9098233,41.8416434 C24.9913314,40.5495418 28.0851549,38.6957664 30.9984704,38.0677664 C32.3736897,37.7713974 35.8705078,37.2592584 35.6899998,39.3825364 C35.5388768,41.1599108 33.342556,41.9919268 31.633187,42.3646969 C30.1051656,42.6988466 26.9257057,43.2705953 25.9098233,41.8416434 Z" id="Path" fill="#3A3A3A" fill-rule="nonzero"></path>
                            <path d="M63.2229303,41.8416434 C64.1414223,40.5495418 61.0475987,38.6957664 58.1342832,38.0677664 C56.759064,37.7713974 53.2622458,37.2592584 53.4427538,39.3825364 C53.5938768,41.1599108 55.7901977,41.9919268 57.4995667,42.3646969 C59.027588,42.6988466 62.2070479,43.2705953 63.2229303,41.8416434 Z" id="Path" fill="#3A3A3A" fill-rule="nonzero"></path>
                            <path d="M44.7372298,54.4746862 C43.9404757,53.8122637 41.6627164,59.345884 42.1723367,60.3827557 C42.4594704,60.9670979 44.9916201,62.1685257 45.664957,61.5967771 C46.135957,61.1963011 44.2351656,60.1501942 44.036187,59.520515 C43.6525025,58.3064937 45.3643902,54.9969001 44.7372298,54.4746862 Z" id="Path" fill="#3A3A3A" fill-rule="nonzero"></path>
                            <path d="M51.7031602,66.3235685 C50.787187,65.7963172 48.6252886,67.666884 44.5667966,67.666884 C40.5083046,67.666884 38.3464062,65.7954776 37.430433,66.3235685 C36.5152993,66.8508199 38.6360586,69.2645899 41.9456522,70.0924081 C41.9540479,70.0949268 41.9632832,70.096606 41.971679,70.0991247 C43.6718126,70.5205899 45.4626201,70.5205899 47.1627538,70.0991247 C47.1711495,70.096606 47.1803848,70.0949268 47.1887806,70.0924081 C50.4975346,69.2645899 52.6182939,66.8508199 51.7031602,66.3235685 Z" id="Path" fill="#3A3A3A" fill-rule="nonzero"></path>
                            <path d="M12.4254544,31.1018359 C11.2391389,36.6253814 10.4449036,50.9854241 14.4748501,58.8622904 C14.3623474,55.3184562 14.7451923,53.205253 16.8306897,50.338114 C17.87008,48.9091621 19.3544437,47.8538199 20.4097859,46.436622 C22.5011602,43.6274134 22.7009784,39.6948573 24.9804169,37.0359322 C26.8702939,34.8320552 29.8667271,33.9076862 32.7514971,33.5903279 C35.6371068,33.2729696 38.5714116,33.4551568 41.4326736,32.9614883 C44.6297645,32.4107289 47.6748929,31.0061247 50.1692618,28.9323814 C52.0070854,27.40436 53.5384651,25.5329535 55.3846843,24.015007 C56.3082137,23.2560338 57.3476041,22.5810177 58.4533207,22.1259696 C59.0065987,21.8984455 59.5758287,21.7254937 60.1559731,21.6239054 C60.7361175,21.5231568 61.3263367,21.4929322 61.9207538,21.5525418 C60.7638233,30.2966862 63.9281709,39.8711675 70.1712298,46.1016327 C70.1712298,46.1016327 73.9644169,48.7983386 76.0457164,54.420114 C76.0457164,54.420114 82.8596843,38.3809268 75.9911442,25.5984402 C69.1226041,12.8167931 53.5930372,-0.552554474 36.331433,6.25385729 C19.0706683,13.0602691 12.4254544,31.1018359 12.4254544,31.1018359 Z" id="Path" fill="#B0B0B0" fill-rule="nonzero"></path>
                            <path d="M14.1952725,59.7950552 C13.8770747,59.7950552 13.5765078,59.618745 13.4262244,59.3240552 C9.24011746,51.1399054 10.4062832,36.3911407 11.5808447,30.9196487 C11.6807538,30.4528466 12.1383207,30.1547985 12.6059624,30.2563867 C13.0727645,30.3562958 13.3691335,30.8155418 13.2683848,31.2815043 C12.1853367,36.3264937 11.4431549,47.3702263 13.625203,55.0430765 C14.0172832,53.2413546 14.8081602,51.6478466 16.131326,49.8293332 C16.7022351,49.0434937 17.3831282,48.3777129 18.0413528,47.7329215 C18.6559196,47.1309482 19.2369036,46.5625578 19.7154597,45.9202851 C20.631433,44.6894723 21.1603634,43.2084669 21.7203581,41.6393065 C22.3601121,39.8451407 23.0225346,37.9896862 24.3238715,36.4725792 C26.0987271,34.4021942 28.9020586,33.1436755 32.6566255,32.730606 C33.9143046,32.5920765 35.1862565,32.5467396 36.4162298,32.5022423 C38.1037699,32.4409535 39.6972779,32.3838626 41.2849089,32.1101621 C44.3459891,31.5829108 47.2274009,30.253868 49.6159838,28.2674402 C50.490818,27.5403707 51.3211549,26.7041568 52.1246255,25.8956487 C52.9809891,25.0342477 53.8650586,24.1443011 54.8356041,23.3467076 C55.9136148,22.4609589 57.0201709,21.7809054 58.1233688,21.3258573 C58.7522084,21.0664295 59.3852458,20.8800445 60.0065292,20.7717396 C60.6823848,20.65336 61.3548822,20.6273332 62.0063902,20.6919803 C62.2389517,20.7154883 62.452203,20.8313493 62.597449,21.0152156 C62.742695,21.1982423 62.8073421,21.4333225 62.7762779,21.6650445 C61.6520907,30.1623546 64.7937699,39.5143493 70.7815987,45.4895846 C71.1191068,45.826253 71.1199463,46.3728145 70.7824383,46.7111621 C70.4466094,47.0478306 69.8992084,47.0495097 69.5617003,46.7128412 C63.4311442,40.5948787 60.1106362,31.1471728 60.9552458,22.3971514 C60.7403153,22.4105846 60.5220266,22.4366113 60.3037378,22.474392 C59.806711,22.5617076 59.294572,22.7128306 58.782433,22.9235632 C57.8370747,23.3131247 56.8782832,23.9050231 55.9329249,24.6816273 C55.0303848,25.4238092 54.2143207,26.2449108 53.3504009,27.113868 C52.5183848,27.9509215 51.6586629,28.8165204 50.7208608,29.596483 C48.0997164,31.7760124 44.9378875,33.2335097 41.5787592,33.8128145 C39.8761068,34.1066648 38.1491068,34.1687931 36.4783581,34.2292423 C35.279449,34.2729001 34.0402405,34.3173974 32.8446897,34.4492102 C29.5401335,34.812745 27.1146094,35.8722851 25.6344437,37.5984455 C24.5413207,38.8737557 23.9611763,40.500007 23.3466094,42.22113 C22.7689838,43.8406648 22.1712084,45.5147717 21.1007538,46.9529589 C20.5415987,47.7035364 19.8850533,48.3466487 19.2494971,48.9679322 C18.613941,49.5900552 18.0136469,50.1777557 17.5275346,50.8460552 C15.5495025,53.5654295 14.9492084,55.5233118 15.0566736,58.9042691 C15.0701068,59.3081033 14.8006041,59.6674402 14.4093634,59.7681888 C14.3388394,59.7858199 14.2666362,59.7950552 14.1952725,59.7950552 Z" id="Path" fill="#3A3A3A" fill-rule="nonzero"></path>
                            <path d="M18.6097431,40.1238787 C18.5602084,40.1238787 18.5089945,40.1196808 18.4586201,40.1104455 C17.9892993,40.0273279 17.6752993,39.5798359 17.7592565,39.1096755 C18.800326,33.2217557 23.8579089,28.3732263 29.7836094,27.5815097 C31.0975399,27.4060391 32.4366576,27.4152744 33.7312779,27.4236701 C35.9620212,27.4387824 38.0651495,27.4530552 39.9088501,26.5740231 C42.0321282,25.5631781 43.4216201,23.5641568 44.8933902,21.4475953 C45.7220479,20.2562423 46.5792511,19.0229108 47.5934544,17.9490979 C51.5100586,13.8007717 57.9730854,12.3088519 63.3127645,14.3238252 C63.7585774,14.4925792 63.9835827,14.9904455 63.8156683,15.4370979 C63.6460747,15.8829108 63.1482084,16.1079161 62.7023955,15.9400017 C57.997433,14.1634669 52.3000961,15.4790765 48.8486148,19.1345739 C47.9225667,20.1151942 47.1031442,21.2939535 46.310588,22.433253 C44.7750105,24.6413279 43.1882191,26.9249642 40.6510319,28.1331086 C38.448834,29.1817343 36.0451389,29.1657824 33.7186843,29.1498306 C32.4836736,29.143114 31.2058447,29.1330391 30.0111335,29.2925578 C24.893941,29.9759696 20.3577324,34.3257931 19.4585506,39.4094027 C19.3855078,39.8291888 19.0211335,40.1238787 18.6097431,40.1238787 Z" id="Path" fill="#3A3A3A" fill-rule="nonzero"></path>
                            <path d="M72.2575667,19.467884 C71.9889036,19.467884 71.7244383,19.3427878 71.5556843,19.1085471 C70.865556,18.1489161 69.8589089,17.444515 68.7212886,17.124638 C68.2620426,16.9953439 67.9942191,16.5184669 68.1235132,16.0592209 C68.2528073,15.5999749 68.7288447,15.3346701 69.1889303,15.4614455 C70.7018394,15.8871086 72.0401175,16.8240712 72.9577699,18.1002209 C73.2356683,18.4872637 73.1483528,19.0271086 72.76131,19.3058466 C72.6085078,19.414991 72.4321977,19.467884 72.2575667,19.467884 Z" id="Path" fill="#3A3A3A" fill-rule="nonzero"></path>
                            <path d="M63.824064,12.791606 C63.6141709,12.791606 63.4034383,12.7152049 63.237203,12.5615632 C60.7109303,10.2191568 57.2896736,8.93377173 53.8432298,9.04963269 C53.3739089,9.08237601 52.967556,8.69113537 52.9524437,8.21425836 C52.9364918,7.73738135 53.310941,7.33858456 53.787818,7.32347226 C57.6901495,7.18326371 61.5547003,8.64579847 64.4117645,11.2954883 C64.7618661,11.6195632 64.7820159,12.1661247 64.457941,12.5153867 C64.2866683,12.699253 64.0557859,12.791606 63.824064,12.791606 Z" id="Path" fill="#3A3A3A" fill-rule="nonzero"></path>
                            <path d="M76.0473955,55.2831942 C76.0163314,55.2831942 75.9861068,55.281515 75.9550426,55.2781568 C75.6024223,55.240376 75.308572,54.9910231 75.2145399,54.6484776 C75.2053046,54.6165739 74.3094811,51.4278787 71.9754704,48.4390017 C71.6816201,48.0628733 71.7487859,47.5205097 72.1240747,47.2266594 C72.4985239,46.9328092 73.0425667,46.9999749 73.3364169,47.3752637 C74.6906469,49.1098199 75.5940266,50.879638 76.1498233,52.1826541 C79.1067966,45.2234402 79.262957,36.5439429 76.4562672,29.5058092 C76.279957,29.0633546 76.4957271,28.5604509 76.9390212,28.3841407 C77.3831549,28.206991 77.8843795,28.4244402 78.0606897,28.8668947 C81.2997592,36.987237 80.809449,47.174606 76.8130854,54.8205899 C76.6619624,55.106884 76.3655934,55.2831942 76.0473955,55.2831942 Z" id="Path" fill="#3A3A3A" fill-rule="nonzero"></path>
                            <path d="M57.9957538,49.8058252 C58.0117057,49.9502316 58.0310159,50.0937985 58.0310159,50.2432423 C58.0310159,52.0298519 56.8740854,53.478114 55.4459731,53.478114 C54.0178608,53.478114 52.8609303,52.0298519 52.8609303,50.2432423 C52.8609303,48.4566327 54.0178608,47.0083707 55.4459731,47.0083707 C56.3191282,47.0083707 57.0881763,47.5540926 57.5566576,48.3844295 C58.3475346,47.9747183 58.9780533,47.4155632 59.2551121,47.733761 C59.5489624,48.0695899 58.8873795,49.215606 57.9957538,49.8058252 Z M34.1938822,47.0083707 C33.3207271,47.0083707 32.551679,47.5540926 32.0831977,48.3844295 C31.2923207,47.9747183 30.6626415,47.4155632 30.3847431,47.733761 C30.0908929,48.0704295 30.7524757,49.215606 31.6432618,49.8058252 C31.62731,49.9502316 31.6079998,50.0937985 31.6079998,50.2432423 C31.6079998,52.0298519 32.7657699,53.478114 34.1930426,53.478114 C35.6203153,53.478114 36.7780858,52.0298519 36.7780858,50.2432423 C36.7789249,48.4566327 35.6219945,47.0083707 34.1938822,47.0083707 Z" id="Shape" fill="#3A3A3A" fill-rule="nonzero"></path>
                        </g>
                    </g>
                </g>
                <path d="M21.3014116,43.4746113 C18.4191602,47.8916006 17.8558073,53.2455525 19.1647003,58.3535097 C19.7549196,60.6564562 21.0251923,62.7192851 22.3307271,64.7048733 C23.6371014,66.6904616 25.009802,68.6659749 25.8460159,70.8908412 C26.6830693,73.1157076 26.9357806,75.6671675 25.9769891,77.842499 C25.0181977,80.0178306 22.6405292,81.6474402 20.2981228,81.2402477 C21.5205399,84.4767985 23.3037913,87.1592316 26.4748554,88.5436862 C29.64508,89.9281407 33.3752993,89.9759963 36.5799463,88.6721407 C38.0038608,91.6736113 40.1531656,94.4626701 43.2226415,95.7337824 C46.2921175,97.0048947 49.833433,97.0947289 52.9633581,95.9789375 C56.2746308,98.2575364 60.527064,99.3540177 64.5200693,98.8964509 C68.5130747,98.438884 71.2761068,98.7461675 73.9854062,95.7774402 C77.8642298,97.188761 83.2248982,96.4365043 87.4672565,93.0488306 C91.491326,89.8357878 92.8463955,85.2970605 92.910203,81.1705632 C95.8335934,83.1485953 100.105337,83.8597129 103.335171,82.436638 C106.565005,81.0144027 108.9687,77.8592904 109.482519,74.3683493 C107.362599,74.7125739 105.199021,73.2861407 104.309914,71.3307771 C103.420807,69.3754134 103.421647,67.1480284 103.439278,65.0004027 C103.493011,58.2754295 103.547583,51.5496166 103.602155,44.8246434 C103.638256,40.3715525 103.671839,35.894114 102.96492,31.4972744 C102.25716,27.1004348 100.76524,22.7480926 98.026556,19.2361621 C95.2878715,15.7242316 91.1983153,13.1299535 86.7561389,12.8159535 C83.6606362,6.87178242 77.669449,2.790622 71.1023153,1.45738135 C64.5351816,0.124140713 55.991695,1.1450605 49.6227003,3.22887868 C39.0894276,6.6761621 30.5333474,12.2761086 26.2347378,22.4920231 C23.1635827,29.7895846 25.6268875,36.8445097 21.3014116,43.4746113 Z" id="Path" fill="#8B6002" fill-rule="nonzero"></path>
                <path d="M109.345668,74.9971888 C106.778256,75.9223974 103.842273,75.8602691 101.367214,74.6949429 C97.7671282,72.9998466 95.345802,69.0656113 95.4532672,65.0885578 C97.5278501,63.3884241 99.0583902,60.8587931 99.5386255,58.2200177 C100.0197,55.5812423 99.8257592,53.3236327 98.4841228,51.001376 C100.910486,45.4173814 98.9064276,35.5608038 93.9160105,29.7484455 C95.0443955,35.9302156 93.0294223,41.4436862 89.0867913,46.3375525 C85.1441602,51.2314188 79.4401068,54.5368145 73.3800747,56.2008466 C65.7811068,58.2880231 57.2804383,57.7985525 50.4941763,53.792114 C42.1236415,48.850392 37.1441389,39.0903653 29.603941,32.9556113 C25.5655987,39.481606 24.7167913,48.5355525 27.3362565,56.3796755 C27.5553848,57.0362209 27.8970907,57.6692584 27.912203,58.3619054 C27.923957,58.8916755 27.7694757,59.4105311 27.7014704,59.9361033 C27.4445613,61.9250498 28.4344169,63.8569054 29.562802,65.5150605 C30.6903474,67.1732156 32.0135132,68.765884 32.5709891,70.6918626 C33.650679,74.4220819 31.360326,78.6056701 27.8987699,80.366253 C25.5781923,81.5466915 22.8932405,81.761622 20.3157538,81.2797076 C21.5373314,84.4977878 23.3189036,87.1651086 26.475695,88.5436862 C29.6459196,89.9281407 33.3761389,89.9759963 36.5807859,88.6729803 C38.0047003,91.6744509 40.1540052,94.4635097 43.2234811,95.734622 C46.292957,97.0057343 49.8342725,97.0955685 52.9641977,95.9797771 C56.2754704,98.258376 60.527064,99.3548573 64.5209089,98.8972904 C68.5139143,98.4397236 71.2769463,98.747007 73.9862458,95.7782798 C77.8650693,97.1896006 83.2257378,96.4373439 87.4680961,93.0496701 C91.4921656,89.8366273 92.8472351,85.2979001 92.9110426,81.1714027 C95.8335934,83.1494348 100.106176,83.8605525 103.336011,82.4374776 C106.367706,81.1017183 108.650502,78.2329001 109.345668,74.9971888 Z" id="Path" fill="#593F02" fill-rule="nonzero"></path>
                <path d="M62.6881228,99.8644776 C59.241679,99.8644776 55.7540961,98.8360017 52.8357431,96.9335311 C49.6159838,97.9670445 46.0167378,97.8259963 42.8918501,96.531376 C40.1976629,95.414745 37.8787645,93.0790552 36.1526041,89.7526701 C32.8984223,90.8567076 29.289941,90.7148199 26.1297913,89.3345632 C23.1090105,88.0155953 21.0000052,85.5396969 19.4912939,81.5441728 C19.3821495,81.2545204 19.4367217,80.9279268 19.6340212,80.6894883 C19.8313207,80.4502102 20.1411228,80.3360284 20.4475667,80.3889215 C22.2476094,80.7046006 24.3331068,79.4309696 25.1877913,77.493237 C25.9601977,75.7410498 25.9073046,73.5044295 25.039187,71.1939268 C24.3171549,69.2738252 23.1333581,67.4838573 21.9890212,65.7518199 L21.6103741,65.178392 C20.2947645,63.1776915 18.957326,61.0191514 18.329326,58.566761 C16.8911389,52.9559001 17.6904116,47.4281568 20.5793795,43.0010926 L21.3022511,43.4729322 L20.5793795,43.0010926 C22.852941,39.516868 23.1543474,35.8848787 23.4742244,32.0404776 C23.7395292,28.8459054 24.0140693,25.5430284 25.4388233,22.1561942 C29.4074811,12.7236006 37.006449,6.44863804 49.3540372,2.40777708 C56.5113902,0.0653706594 65.1170052,-0.639869982 71.273588,0.610253012 C78.1790693,2.01233857 84.1316362,6.25301772 87.2968233,11.9965311 C91.583679,12.4482209 95.7194116,14.8720658 98.707449,18.7047129 C101.277379,21.9991942 102.995984,26.2575043 103.817925,31.358745 C104.538278,35.8403814 104.501337,40.4110124 104.465235,44.8305204 L104.303198,65.0062798 C104.287246,66.9507289 104.269615,69.154606 105.096593,70.9722798 C105.877396,72.6883653 107.705144,73.7823279 109.345668,73.5153439 C109.61685,73.4733653 109.893909,73.5598412 110.090369,73.7529429 C110.285989,73.9460445 110.378342,74.2214241 110.338043,74.4934455 C109.782246,78.2631247 107.171176,81.6910979 103.684433,83.2266755 C100.782032,84.5045043 96.8612298,84.2366808 93.70108,82.6330979 C93.3971549,86.1231995 92.084064,90.4671461 88.0071014,93.723007 C83.9561656,96.9587183 78.6139677,98.124884 74.2305613,96.7689749 C71.8638073,99.1046648 69.36608,99.3229535 66.4997806,99.5723065 C65.9036843,99.6235204 65.2790426,99.6780926 64.620818,99.7536541 C63.9785453,99.828376 63.3337538,99.8644776 62.6881228,99.8644776 Z M52.9625185,95.1166969 C53.1354704,95.1166969 53.3059036,95.1687503 53.4519891,95.2686594 C56.6406843,97.4633011 60.6404062,98.4741461 64.4209998,98.0392477 C65.0960159,97.962007 65.7357699,97.9057557 66.3469784,97.8528626 C69.3392137,97.5917557 71.3164062,97.4196434 73.3464918,95.1956166 C73.5824116,94.9370284 73.9509838,94.845515 74.2792565,94.9664134 C78.2042565,96.3945257 83.1669677,95.3761247 86.926572,92.3746541 C91.0656629,89.0700979 91.9942298,84.4507717 92.0446041,81.1579696 C92.0496415,80.8406113 92.2276308,80.5517985 92.5088875,80.4057129 C92.7901442,80.2596273 93.1293314,80.2789375 93.3912779,80.4560872 C96.2466629,82.3879429 100.192652,82.8765739 102.985069,81.6474402 C105.623845,80.4854723 107.671561,78.0448359 108.415422,75.2608145 C106.403807,75.0777878 104.431652,73.6891354 103.521556,71.6884348 C102.536738,69.5240177 102.556048,67.1169642 102.573679,64.9936862 L102.735716,44.8179268 C102.770978,40.4697824 102.80708,35.9730338 102.109396,31.6349642 C101.33531,26.823376 99.7317271,22.8312102 97.3431442,19.7676113 C94.5851495,16.2313332 90.6038982,13.9544134 86.6931709,13.6781942 C86.3934437,13.6572049 86.1264597,13.4817343 85.9879303,13.2155899 C83.1241495,7.71639205 77.4939784,3.63775034 70.9276843,2.30367012 C65.0406041,1.10811932 56.782572,1.7940498 49.8880052,4.04998029 C38.0517164,7.92292681 30.7885774,13.8897664 27.0281335,22.8270124 C25.7091656,25.9611354 25.4463795,29.1246434 25.1919891,32.184884 C24.8687538,36.074622 24.5346041,40.0961728 22.0226041,43.9464509 C19.4014597,47.9629642 18.6827859,53.0029161 19.9992351,58.1394188 C20.5617485,60.3340605 21.8152298,62.352392 23.05108,64.2313546 L23.4272084,64.8005846 C24.6244383,66.6115418 25.8628073,68.4846273 26.6536843,70.5877557 C27.6813207,73.3230819 27.7216201,76.0231461 26.7653474,78.191761 C25.8040372,80.37213 23.7353314,81.889237 21.5986201,82.1310338 C22.8781282,84.9645899 24.5572725,86.7654723 26.81908,87.7536487 C29.7575827,89.0356755 33.2846255,89.0810124 36.2533528,87.8737076 C36.6781763,87.7007557 37.1626094,87.890499 37.3582298,88.3035685 C38.4538715,90.6132316 40.4176308,93.6390498 43.5509143,94.937868 C46.4214116,96.1267022 49.7444383,96.2098199 52.671187,95.1670712 C52.7668982,95.1326487 52.8651282,95.1166969 52.9625185,95.1166969 Z" id="Shape" fill="#3A3A3A" fill-rule="nonzero"></path>
                <path d="M62.1969731,101.612467 C56.5567271,101.612467 52.3168875,98.7486862 49.7536736,96.3466701 C49.4052511,96.0209161 49.3876201,95.4743546 49.7142137,95.1259322 C50.0416469,94.7775097 50.5873688,94.7598787 50.9349517,95.0864723 C53.2714811,97.2760765 57.1217592,99.8854669 62.1978126,99.8854669 C67.2386041,99.8854669 71.0704116,97.3071407 73.3968661,95.1452423 C73.7461282,94.8203279 74.2926897,94.8404776 74.6176041,95.1897396 C74.9425185,95.5390017 74.9223688,96.0855632 74.5731068,96.4104776 C72.0191282,98.7839482 67.7994383,101.612467 62.1969731,101.612467 Z" id="Path" fill="#FFFFFF" fill-rule="nonzero"></path>
                <g id="Group" transform="translate(22.887363, 46.267028)" fill-rule="nonzero">
                    <path d="M70.3368396,1.2198984 C70.3368396,1.2198984 76.761246,0.544042781 77.0500588,7.77863636 C77.3388717,15.0140695 71.3376096,16.3582246 68.7634813,15.8653957 L70.3368396,1.2198984 Z" id="Path" fill="#FFE4A3"></path>
                    <path d="M74.7991658,14.0695508 C72.8958556,15.809984 70.2562406,16.1516898 68.7634813,15.8662353 L70.3368396,1.2198984 C70.3368396,1.2198984 71.9269893,1.05282353 73.5599572,1.77569519 C72.638107,5.86273262 73.0881176,10.246139 74.7991658,14.0695508 Z" id="Path" fill-opacity="0.1" fill="#001436"></path>
                    <path d="M69.7927968,16.8199893 C69.3620963,16.8199893 68.9591016,16.7830481 68.6006043,16.7150428 C68.1589893,16.630246 67.8567433,16.2213743 67.9045989,15.7747219 L69.4779572,1.12838503 C69.521615,0.72371123 69.841492,0.404673797 70.2461658,0.361855615 C70.3687433,0.34842246 73.2828984,0.0671657754 75.511123,1.99398396 C77.0038824,3.28524599 77.8123904,5.22045989 77.913139,7.74505348 C78.0667807,11.5810588 76.5345615,13.7328824 75.2223102,14.8629465 C73.6010963,16.2591551 71.4794973,16.8199893 69.7927968,16.8199893 Z M69.7155561,15.0913102 C70.9614813,15.1064225 72.720385,14.7395294 74.0956043,13.554893 C75.5841658,12.2728663 76.2885668,10.3410107 76.1869786,7.81473797 C76.1063797,5.79304813 75.5035668,4.27845989 74.3936524,3.3121123 C73.2996898,2.35919786 71.9244706,2.12663636 71.1126043,2.07962032 L69.7155561,15.0913102 Z" id="Shape" fill="#3A3A3A"></path>
                    <path d="M8.28321925,1.2198984 C8.28321925,1.2198984 1.85881283,0.544042781 1.57,7.77863636 C1.28118717,15.0140695 7.2824492,16.3582246 9.85657754,15.8653957 L8.28321925,1.2198984 Z" id="Path" fill="#FFE4A3"></path>
                    <path d="M3.82089305,14.0695508 C5.72420321,15.809984 8.36381818,16.1516898 9.85657754,15.8662353 L8.28321925,1.2198984 C8.28321925,1.2198984 6.69306952,1.05282353 5.0601016,1.77569519 C5.98195187,5.86273262 5.53194118,10.246139 3.82089305,14.0695508 Z" id="Path" fill-opacity="0.1" fill="#001436"></path>
                    <path d="M8.82726203,16.8199893 C7.1405615,16.8199893 5.01980214,16.2591551 3.39858824,14.8637861 C2.0863369,13.7337219 0.554117647,11.5818984 0.706919786,7.74505348 C0.807668449,5.21962032 1.61617647,3.28524599 3.10893583,1.99398396 C5.338,0.0671657754 8.25131551,0.34842246 8.37389305,0.361855615 C8.77856684,0.404673797 9.09844385,0.72371123 9.1421016,1.12838503 L10.7154599,15.7747219 C10.7633155,16.2213743 10.4610695,16.6310856 10.0194545,16.7150428 C9.66011765,16.7830481 9.25712299,16.8199893 8.82726203,16.8199893 Z M7.50661497,2.07878075 C6.69558824,2.12579679 5.32036898,2.35751872 4.22640642,3.31127273 C3.11733155,4.27762032 2.51367914,5.79304813 2.43308021,7.8138984 C2.33149198,10.3410107 3.03589305,12.2720267 4.52529412,13.5540535 C5.90135294,14.7395294 7.68292513,15.0988663 8.90534225,15.0904706 L7.50661497,2.07878075 Z" id="Shape" fill="#3A3A3A"></path>
                </g>
                <path d="M55.6122084,86.1408306 L55.6122084,94.0244134 C55.6122084,94.0244134 58.0511656,95.9126113 62.1969731,95.9126113 C66.3436201,95.9126113 68.7825774,94.0244134 68.7825774,94.0244134 L68.7825774,86.1408306 L55.6122084,86.1408306 Z" id="Path" fill="#FFE4A3" fill-rule="nonzero"></path>
                <path d="M52,96 C50,96 51.2040695,97.1109741 55.6122084,99.3329223 C55.6122084,99.3329223 58.0511656,99.9126113 62.1969731,99.9126113 C66.3436201,99.9126113 68.7825774,99.3329223 68.7825774,99.3329223 L74,96 C61.3333333,96 54,96 52,96 Z" id="Path-Copy-10" fill="#FADF4C" fill-rule="nonzero"></path>
                <path d="M67.6222886,87.0198626 C64.5586897,87.2658573 61.474941,87.3540124 58.3970693,87.2834883 C57.8605827,87.5848947 56.8136362,87.6033653 56.2276148,87.8392851 C55.8833902,87.9778145 55.7003634,88.2481568 55.6130479,88.5495632 L55.6130479,89.4000498 C55.7658501,90.0565953 56.1579303,90.7601568 56.7481495,91.2194027 C60.5186683,91.61736 64.3286469,90.4167717 67.3737752,88.6200872 C67.7146415,88.4185899 68.0655827,88.1910658 68.196556,87.8720284 C68.3275292,87.552991 68.0462725,86.9854402 67.6222886,87.0198626 Z" id="Path" fill-opacity="0.1" fill="#001436" fill-rule="nonzero"></path>
                <path d="M62.1969731,96.7756915 C57.8060105,96.7756915 55.1924223,94.7917824 55.0832779,94.7078252 C54.8717057,94.5441086 54.7482886,94.292237 54.7482886,94.025253 L54.7482886,86.1408306 C54.7482886,85.6639535 55.1344918,85.2777503 55.6113688,85.2777503 L68.7817378,85.2777503 C69.2586148,85.2777503 69.644818,85.6639535 69.644818,86.1408306 L69.644818,94.025253 C69.644818,94.292237 69.5214009,94.5449482 69.3098287,94.7078252 C69.2023634,94.7917824 66.5887752,96.7756915 62.1969731,96.7756915 Z M56.4752886,93.5609696 C57.2367806,94.0218947 59.2609891,95.0486915 62.1969731,95.0486915 C65.1312779,95.0486915 67.1554864,94.0235739 67.9186576,93.5609696 L67.9186576,87.0030712 L56.4752886,87.0030712 L56.4752886,93.5609696 Z" id="Shape" fill="#3A3A3A" fill-rule="nonzero"></path>
                <path d="M94.1695613,46.6456755 C94.1695613,65.6577878 85.2390319,88.640237 62.452203,88.640237 C39.6653741,88.640237 30.7348447,65.6586273 30.7348447,46.6456755 C30.7348447,46.6456755 41.0750159,10.5415525 56.4551389,10.5415525 C71.8344223,10.5415525 94.1695613,46.6456755 94.1695613,46.6456755 Z" id="Path" fill="#FFE4A3" fill-rule="nonzero"></path>
                <path d="M61.4262458,88.879515 C59.8789143,88.879515 58.5792565,88.7921995 57.3669143,88.6083332 C38.1969624,85.6941781 29.615695,65.1616006 29.615695,46.1058306 C29.615695,45.6289535 30.0018982,45.2427503 30.4787752,45.2427503 C30.9556522,45.2427503 31.3418554,45.6289535 31.3418554,46.1058306 C31.3418554,64.4227771 39.4689143,84.1409696 57.6255025,86.9006434 C58.8563153,87.087868 60.1937538,87.1651086 61.8460319,87.1499963 L62.9987645,87.1382423 C65.091818,87.1164134 66.9044544,86.930868 68.5416201,86.5715311 C85.4715934,82.8522263 93.0504116,63.567253 93.0504116,46.1058306 C93.0504116,45.6289535 93.4366148,45.2427503 93.9134918,45.2427503 C94.3903688,45.2427503 94.776572,45.6289535 94.776572,46.1058306 C94.776572,64.2590605 86.7788073,84.3332316 68.9110319,88.2582316 C67.156326,88.6435953 65.2278287,88.8425739 63.0147164,88.8652423 L61.8619838,88.8769963 C61.7158982,88.8786755 61.5706522,88.879515 61.4262458,88.879515 Z" id="Path" fill="#3A3A3A" fill-rule="nonzero"></path>
                <path d="M30.0564704,31.1018359 C28.8701549,36.6253814 28.0759196,50.9854241 32.1058661,58.8622904 C31.9933634,55.3184562 32.3762084,53.205253 34.4617057,50.338114 C35.5010961,48.9091621 36.9854597,47.8538199 38.040802,46.436622 C40.1321763,43.6274134 40.3319945,39.6948573 42.611433,37.0359322 C44.50131,34.8320552 47.4977431,33.9076862 50.3825132,33.5903279 C53.2681228,33.2729696 56.2024276,33.4551568 59.0636897,32.9614883 C62.2607806,32.4107289 65.3059089,31.0061247 67.8002779,28.9323814 C69.6381014,27.40436 71.1694811,25.5329535 73.0157003,24.015007 C73.9392298,23.2560338 74.9786201,22.5810177 76.0843367,22.1259696 C76.6376148,21.8984455 77.2068447,21.7254937 77.7869891,21.6239054 C78.3671335,21.5231568 78.9573528,21.4929322 79.5517699,21.5525418 C78.3948394,30.2966862 81.559187,39.8711675 87.8022458,46.1016327 C87.8022458,46.1016327 91.595433,48.7983386 93.6767324,54.420114 C93.6767324,54.420114 100.4907,38.3809268 93.6221602,25.5984402 C86.7536201,12.8167931 71.2240533,-0.552554474 53.962449,6.25385729 C36.7016843,13.0602691 30.0564704,31.1018359 30.0564704,31.1018359 Z" id="Path" fill="#8B6002" fill-rule="nonzero"></path>
                <path d="M31.8262886,59.7950552 C31.5080907,59.7950552 31.2075239,59.618745 31.0572405,59.3240552 C26.8711335,51.1399054 28.0372993,36.3911407 29.2118608,30.9196487 C29.3117699,30.4528466 29.7693367,30.1547985 30.2369784,30.2563867 C30.7037806,30.3562958 31.0001495,30.8155418 30.8994009,31.2815043 C29.8163528,36.3264937 29.0741709,47.3702263 31.2562191,55.0430765 C31.6482993,53.2413546 32.4391763,51.6478466 33.7623421,49.8293332 C34.3332511,49.0434937 35.0141442,48.3777129 35.6723688,47.7329215 C36.2869356,47.1309482 36.8679196,46.5625578 37.3464757,45.9202851 C38.262449,44.6894723 38.7913795,43.2084669 39.3513741,41.6393065 C39.9911282,39.8451407 40.6535506,37.9896862 41.9548875,36.4725792 C43.7297431,34.4021942 46.5330747,33.1436755 50.2876415,32.730606 C51.5453207,32.5920765 52.8172725,32.5467396 54.0472458,32.5022423 C55.7347859,32.4409535 57.3282939,32.3838626 58.9159249,32.1101621 C61.9770052,31.5829108 64.8584169,30.253868 67.2469998,28.2674402 C68.121834,27.5403707 68.9521709,26.7041568 69.7556415,25.8956487 C70.6120052,25.0342477 71.4960747,24.1443011 72.4666201,23.3467076 C73.5446308,22.4609589 74.651187,21.7809054 75.7543848,21.3258573 C76.3832244,21.0664295 77.0162618,20.8800445 77.6375453,20.7717396 C78.3134009,20.65336 78.9858982,20.6273332 79.6374062,20.6919803 C79.8699677,20.7154883 80.0832191,20.8313493 80.2284651,21.0152156 C80.373711,21.1982423 80.4383581,21.4333225 80.4072939,21.6650445 C79.2831068,30.1623546 82.4247859,39.5143493 88.4126148,45.4895846 C88.7501228,45.826253 88.7509624,46.3728145 88.4134544,46.7111621 C88.0776255,47.0478306 87.5302244,47.0495097 87.1927164,46.7128412 C81.0621602,40.5948787 77.7416522,31.1471728 78.5862618,22.3971514 C78.3713314,22.4105846 78.1530426,22.4366113 77.9347538,22.474392 C77.4377271,22.5617076 76.925588,22.7128306 76.413449,22.9235632 C75.4680907,23.3131247 74.5092993,23.9050231 73.563941,24.6816273 C72.6614009,25.4238092 71.8453367,26.2449108 70.9814169,27.113868 C70.1494009,27.9509215 69.289679,28.8165204 68.3518768,29.596483 C65.7307324,31.7760124 62.5689036,33.2335097 59.2097752,33.8128145 C57.5071228,34.1066648 55.7801228,34.1687931 54.1093741,34.2292423 C52.9104651,34.2729001 51.6712565,34.3173974 50.4757057,34.4492102 C47.1711495,34.812745 44.7456255,35.8722851 43.2654597,37.5984455 C42.1723367,38.8737557 41.5921923,40.500007 40.9776255,42.22113 C40.3999998,43.8406648 39.8022244,45.5147717 38.7317699,46.9529589 C38.1726148,47.7035364 37.5160693,48.3466487 36.8805132,48.9679322 C36.244957,49.5900552 35.6446629,50.1777557 35.1585506,50.8460552 C33.1805185,53.5654295 32.5802244,55.5233118 32.6876897,58.9042691 C32.7011228,59.3081033 32.4316201,59.6674402 32.0403795,59.7681888 C31.9698554,59.7858199 31.8976522,59.7950552 31.8262886,59.7950552 Z" id="Path" fill="#3A3A3A" fill-rule="nonzero"></path>
                <path d="M36.2407592,40.1238787 C36.1912244,40.1238787 36.1400105,40.1196808 36.0896362,40.1104455 C35.6203153,40.0273279 35.3063153,39.5798359 35.3902725,39.1096755 C36.4313421,33.2217557 41.4889249,28.3732263 47.4146255,27.5815097 C48.728556,27.4060391 50.0676736,27.4152744 51.3622939,27.4236701 C53.5930372,27.4387824 55.6961656,27.4530552 57.5398661,26.5740231 C59.6631442,25.5631781 61.0526362,23.5641568 62.5244062,21.4475953 C63.353064,20.2562423 64.2102672,19.0229108 65.2244704,17.9490979 C69.1410747,13.8007717 75.6041014,12.3088519 80.9437806,14.3238252 C81.3895934,14.4925792 81.6145987,14.9904455 81.4466843,15.4370979 C81.2770907,15.8829108 80.7792244,16.1079161 80.3334116,15.9400017 C75.628449,14.1634669 69.9311121,15.4790765 66.4796308,19.1345739 C65.5535827,20.1151942 64.7341602,21.2939535 63.9416041,22.433253 C62.4060266,24.6413279 60.8192351,26.9249642 58.2820479,28.1331086 C56.0798501,29.1817343 53.6761549,29.1657824 51.3497003,29.1498306 C50.1146897,29.143114 48.8368608,29.1330391 47.6421495,29.2925578 C42.524957,29.9759696 37.9887485,34.3257931 37.0895667,39.4094027 C37.0165239,39.8291888 36.6521495,40.1238787 36.2407592,40.1238787 Z" id="Path" fill="#3A3A3A" fill-rule="nonzero"></path>
                <path d="M89.8885827,19.467884 C89.6199196,19.467884 89.3554544,19.3427878 89.1867003,19.1085471 C88.496572,18.1489161 87.4899249,17.444515 86.3523046,17.124638 C85.8930586,16.9953439 85.6252351,16.5184669 85.7545292,16.0592209 C85.8838233,15.5999749 86.3598608,15.3346701 86.8199463,15.4614455 C88.3328554,15.8871086 89.6711335,16.8240712 90.5887859,18.1002209 C90.8666843,18.4872637 90.7793688,19.0271086 90.392326,19.3058466 C90.2395239,19.414991 90.0632137,19.467884 89.8885827,19.467884 Z" id="Path" fill="#3A3A3A" fill-rule="nonzero"></path>
                <path d="M81.45508,12.791606 C81.245187,12.791606 81.0344544,12.7152049 80.8682191,12.5615632 C78.3419463,10.2191568 74.9206897,8.93377173 71.4742458,9.04963269 C71.0049249,9.08237601 70.598572,8.69113537 70.5834597,8.21425836 C70.5675078,7.73738135 70.941957,7.33858456 71.418834,7.32347226 C75.3211656,7.18326371 79.1857164,8.64579847 82.0427806,11.2954883 C82.3928822,11.6195632 82.4130319,12.1661247 82.088957,12.5153867 C81.9176843,12.699253 81.686802,12.791606 81.45508,12.791606 Z" id="Path" fill="#3A3A3A" fill-rule="nonzero"></path>
                <path d="M93.6784116,55.2831942 C93.6473474,55.2831942 93.6171228,55.281515 93.5860586,55.2781568 C93.2334383,55.240376 92.939588,54.9910231 92.845556,54.6484776 C92.8363207,54.6165739 91.9404971,51.4278787 89.6064864,48.4390017 C89.3126362,48.0628733 89.379802,47.5205097 89.7550907,47.2266594 C90.1295399,46.9328092 90.6735827,46.9999749 90.967433,47.3752637 C92.3216629,49.1098199 93.2250426,50.879638 93.7808394,52.1826541 C96.7378126,45.2234402 96.8939731,36.5439429 94.0872832,29.5058092 C93.9109731,29.0633546 94.1267431,28.5604509 94.5700372,28.3841407 C95.0141709,28.206991 95.5153955,28.4244402 95.6917057,28.8668947 C98.9307752,36.987237 98.4404651,47.174606 94.4441014,54.8205899 C94.2929784,55.106884 93.9966094,55.2831942 93.6784116,55.2831942 Z" id="Path" fill="#3A3A3A" fill-rule="nonzero"></path>
                <path d="M78.450754,52.6092263 C79.3658877,51.1416541 77.4844064,49.1258412 74.5056043,48.9293814 C72.1992995,48.7765792 70.4336791,49.4012209 70.6385348,50.5858573 C70.7737059,51.3691781 73.8524171,51.5203011 75.5181283,52.3766648 C77.2107059,53.2473011 77.7463529,53.74013 78.450754,52.6092263 Z" id="Path-Copy-5" fill="#3A3A3A" fill-rule="nonzero"></path>
                <path d="M45.8333743,52.6092263 C44.9182406,51.1416541 46.7997219,49.1258412 49.7785241,48.9293814 C52.0848289,48.7765792 53.8504492,49.4012209 53.6455936,50.5858573 C53.5104225,51.3691781 50.4317112,51.5203011 48.766,52.3766648 C47.074262,53.2473011 46.538615,53.74013 45.8333743,52.6092263 Z" id="Path-Copy-6" fill="#3A3A3A" fill-rule="nonzero"></path>
                <path d="M77.7178075,51.4531354 C78.8377968,51.0854027 79.8276524,49.5456273 79.4842674,49.1510284 C79.0711979,48.6775097 77.858016,50.1979749 76.5046257,50.1517985 C75.1512353,50.105622 77.7178075,51.4531354 77.7178075,51.4531354 Z" id="Path-Copy-7" fill="#3A3A3A" fill-rule="nonzero"></path>
                <path d="M46.5663209,51.4531354 C45.4463316,51.0854027 44.4564759,49.5456273 44.799861,49.1510284 C45.2129305,48.6775097 46.4261123,50.1979749 47.7795027,50.1517985 C49.132893,50.105622 46.5663209,51.4531354 46.5663209,51.4531354 Z" id="Path-Copy-8" fill="#3A3A3A" fill-rule="nonzero"></path>
                <path d="M43.4850909,42.8408038 C42.5665989,41.5487022 45.6604225,39.6949268 48.573738,39.0669268 C49.9489572,38.7705578 53.4457754,38.2584188 53.2652674,40.3816969 C53.1141444,42.1590712 50.9178235,42.9910872 49.2084545,43.3638573 C47.6812727,43.698007 44.5009733,44.2697557 43.4850909,42.8408038 Z" id="Path-Copy" fill="#3A3A3A" fill-rule="nonzero"></path>
                <path d="M80.7990374,42.8408038 C81.7175294,41.5487022 78.6237059,39.6949268 75.7103904,39.0669268 C74.3351711,38.7705578 70.8383529,38.2584188 71.018861,40.3816969 C71.169984,42.1590712 73.3663048,42.9910872 75.0756738,43.3638573 C76.6028556,43.698007 79.7831551,44.2697557 80.7990374,42.8408038 Z" id="Path-Copy-2" fill="#3A3A3A" fill-rule="nonzero"></path>
                <path d="M62.3124973,55.4738466 C61.5157433,54.8114241 59.237984,60.3450445 59.7476043,61.3819161 C60.034738,61.9662584 62.5668877,63.1676862 63.2402246,62.5959375 C63.7112246,62.1954616 61.8104332,61.1493546 61.6114545,60.5196755 C61.2277701,59.3056541 62.9404973,55.9960605 62.3124973,55.4738466 Z" id="Path-Copy-3" fill="#3A3A3A" fill-rule="nonzero"></path>
                <path d="M67.7722353,66.9214134 C67.0502032,65.8845418 65.3441925,65.5881728 62.1420642,65.5881728 C58.9399358,65.5881728 57.2347647,65.8845418 56.511893,66.9214134 C55.789861,67.9582851 57.4631283,72.7035471 60.0741979,74.330638 C60.0809144,74.3348359 60.087631,74.3390338 60.0943476,74.3432316 C61.435984,75.1718894 62.8481444,75.1718894 64.1897807,74.3432316 C64.1964973,74.3390338 64.2032139,74.3348359 64.2099305,74.330638 C66.8218396,72.7035471 68.4942674,67.9582851 67.7722353,66.9214134 Z" id="Path-Copy-4" fill="#3A3A3A" fill-rule="nonzero"></path>
            </g>
        </g>
    </g>
</svg>