<?xml version="1.0" encoding="UTF-8"?>
<svg width="129px" height="158px" viewBox="0 0 129 158" version="1.1" xmlns="http://www.w3.org/2000/svg" xmlns:xlink="http://www.w3.org/1999/xlink">
    <title>subscription-charather01</title>
    <defs>
        <circle id="path-1" cx="64.5" cy="64.5" r="64.5"></circle>
    </defs>
    <g id="Page-1" stroke="none" stroke-width="1" fill="none" fill-rule="evenodd">
        <g id="025-subscribe" transform="translate(-172.000000, -134.000000)">
            <g id="subscription-charather01" transform="translate(172.000000, 134.000000)">
                <g id="Group-53" transform="translate(0.000000, 28.878215)">
                    <mask id="mask-2" fill="white">
                        <use xlink:href="#path-1"></use>
                    </mask>
                    <use id="Mask" fill="#E6EFFF" xlink:href="#path-1"></use>
                    <g mask="url(#mask-2)">
                        <g transform="translate(7.000000, -29.000000)">
                            <g id="Group" stroke-width="1" fill="none" fill-rule="evenodd">
                                <g transform="translate(19.433155, 0.000000)" fill-rule="nonzero">
                                    <path d="M4.31838503,43.8699251 C1.4177754,48.3150481 0.850834225,53.7031016 2.16806417,58.8435936 C2.76204278,61.1612086 4.04040642,63.2371765 5.35425668,65.2354118 C6.66895187,67.234492 8.05039572,69.2217433 8.89193583,71.4607807 C9.73432086,73.6998182 9.98864171,76.2675294 9.02374332,78.4567166 C8.05884492,80.6459037 5.66603209,82.285893 3.30870588,81.876107 C4.53890909,85.1332727 6.33351872,87.8327914 9.52478075,89.2260642 C12.7151979,90.6193369 16.4691765,90.6674973 19.6942353,89.3561818 C21.1272193,92.3767701 23.2902139,95.1835936 26.3792406,96.4628021 C29.4682674,97.7420107 33.032139,97.8324171 36.182,96.7095187 C39.5143636,99.002631 43.7938824,100.106096 47.8123209,99.645615 C51.8307594,99.1851337 54.6113904,99.4943743 57.3379465,96.505893 C61.2414759,97.9262032 66.6362888,97.1691551 70.9056684,93.7599037 C74.955369,90.5263957 76.3190695,85.9587594 76.3832834,81.8059786 C79.3252941,83.7966096 83.624246,84.5122567 86.8746524,83.0801176 C90.1250588,81.6488235 92.5440642,78.473615 93.0611551,74.9604385 C90.9277326,75.3068556 88.7503743,73.870492 87.8556043,71.9035187 C86.9608342,69.9357005 86.9616791,67.6941283 86.9794225,65.5328235 C87.0334973,58.765016 87.0884171,51.9963636 87.1433369,45.2285561 C87.1796684,40.7471016 87.2134652,36.2411444 86.5020428,31.8162995 C85.7897754,27.3914545 84.2883529,23.0113904 81.5322246,19.4770909 C78.7760963,15.9427914 74.660492,13.3319893 70.1900214,13.0159893 C67.0748021,7.03395722 61.0454545,2.92680214 54.436492,1.58506952 C47.8275294,0.243336898 39.2296257,1.27075936 32.8200642,3.36785027 C22.2197005,6.83709091 13.609123,12.4727059 9.28313369,22.7528449 C6.19241711,30.0977326 8.67141176,37.1984385 4.31838503,43.8699251 Z" id="Path" fill="#8B6002"></path>
                                    <path d="M92.9234332,75.5941283 C90.3396684,76.5252299 87.384984,76.4627059 84.8941604,75.2899572 C81.2711444,73.5840642 78.8343957,69.6247701 78.9425455,65.6215401 C81.0303422,63.9105775 82.570631,61.3648342 83.0539251,58.7092513 C83.5380642,56.0536684 83.3428877,53.7816791 81.9927059,51.444631 C84.4345241,45.8250695 82.4177005,35.9057112 77.3954973,30.0563316 C78.5310695,36.2774759 76.503262,41.8260642 72.5355187,46.7511016 C68.5677754,51.676139 62.8273904,55.0025882 56.7287594,56.6772193 C49.0813904,58.7776898 40.5265775,58.2851016 33.6970909,54.2531444 C25.2732406,49.2799465 20.2620214,39.457754 12.6737968,33.2839251 C8.60973262,39.8514866 7.75551872,48.9631016 10.3916684,56.8571872 C10.6121925,57.5179144 10.9560749,58.154984 10.9712834,58.8520428 C10.9831123,59.3860321 10.8276471,59.9073476 10.7592086,60.4362674 C10.5006631,62.4378824 11.4968235,64.3820428 12.6323957,66.0507594 C13.767123,67.7203209 15.0987166,69.3222888 15.6597433,71.2605348 C16.7463102,75.0145134 14.441369,79.2247487 10.9577647,80.9965455 C8.62240642,82.1845027 5.92035294,82.4008021 3.3264492,81.9158182 C4.55580749,85.1543957 6.34872727,87.8387059 9.52562567,89.2260642 C12.7160428,90.6193369 16.4700214,90.6674973 19.6950802,89.3561818 C21.1280642,92.3767701 23.2910588,95.1835936 26.3800856,96.4628021 C29.4691123,97.7420107 33.032984,97.8324171 36.1828449,96.7095187 C39.5152086,99.002631 43.7938824,100.106096 47.8131658,99.645615 C51.8316043,99.1851337 54.6122353,99.4943743 57.3387914,96.506738 C61.2423209,97.9270481 66.6371337,97.17 70.9065134,93.7607487 C74.9562139,90.5272406 76.3199144,85.9596043 76.3841283,81.8068235 C79.3252941,83.7974545 83.6250909,84.5131016 86.8754973,83.0809626 C89.9265027,81.7375401 92.2238396,78.8504492 92.9234332,75.5941283 Z" id="Path" fill="#593F02"></path>
                                    <path d="M45.967861,100.619807 C42.5003102,100.619807 38.9913583,99.5847807 36.0535722,97.6710374 C32.8133048,98.7111337 29.1911337,98.5683422 26.0463422,97.2663209 C23.3349947,96.1434225 21.0013262,93.7920107 19.2641711,90.4444385 C15.990107,91.5563529 12.3577968,91.4118717 9.17751872,90.0236684 C6.13749733,88.6962995 4.01505882,86.204631 2.49673797,82.1836578 C2.3868984,81.8913155 2.44181818,81.5634866 2.64037433,81.3226845 C2.83893048,81.0827273 3.15324064,80.9711979 3.4591016,81.0202032 C5.2739893,81.337893 7.36939037,80.0561497 8.22951872,78.1069198 C9.00684492,76.3435722 8.95361497,74.0927059 8.07996791,71.7683316 C7.35418182,69.8368449 6.16368984,68.0354759 5.01206417,66.2949412 L4.62931551,65.7144813 C3.3053262,63.7010374 1.9602139,61.5295936 1.32736898,59.060738 C-0.11997861,53.4132941 0.684385027,47.8503422 3.59175401,43.3959251 L3.59175401,43.3959251 C5.87979679,39.889508 6.18312299,36.234385 6.50503743,32.3654973 C6.77203209,29.1505775 7.04832086,25.8266631 8.48214973,22.4191016 C12.4760856,12.9264278 20.1234545,6.61065241 32.5496898,2.5448984 C39.7543209,0.187572193 48.4130588,-0.522160428 54.6088556,0.735925134 C61.5574759,2.14609626 67.5488021,6.4137861 70.7341497,12.1947273 C75.0483102,12.6484492 79.2095401,15.0885775 82.2174545,18.9447914 C84.803754,22.2611016 86.5333048,26.5456898 87.3604813,31.6802674 C88.0854225,36.1896043 88.048246,40.7893476 88.0119144,45.2378503 L87.8488449,65.5404278 C87.8327914,67.497262 87.8150481,69.7160214 88.6472941,71.5452727 C89.4330695,73.2722888 91.2707701,74.375754 92.9234332,74.1045348 C93.1963422,74.0614439 93.4751658,74.1493155 93.672877,74.3436471 C93.8705882,74.5379786 93.9626845,74.8151123 93.9221283,75.0897112 C93.3627914,78.8825561 90.7350909,82.3323636 87.226139,83.8777219 C84.3052513,85.1628449 80.3603209,84.8933155 77.1791979,83.2803636 C76.8733369,86.7918503 75.5518824,91.1643102 71.4489519,94.4409091 C67.3722139,97.696385 61.9959893,98.8699786 57.5846631,97.507123 C55.2028342,99.8568449 52.6900428,100.075679 49.8046417,100.327465 C49.2047487,100.379005 48.5761283,100.433925 47.9128663,100.509968 C47.2673476,100.583476 46.6184492,100.619807 45.967861,100.619807 Z M36.1811551,95.8417861 C36.3552086,95.8417861 36.5267273,95.8941711 36.6737433,95.9947166 C39.8835936,98.2033369 43.9054118,99.2180856 47.7126203,98.7837968 C48.3919358,98.7052193 49.0366096,98.6494545 49.6517112,98.5953797 C52.6630053,98.3334545 54.6527914,98.160246 56.6949626,95.9220535 C56.932385,95.6609733 57.3033048,95.5705668 57.6336684,95.6913904 C61.5836684,97.1269091 66.5779893,96.1037112 70.3615401,93.083123 C74.5269947,89.7575187 75.4614759,85.1079251 75.5121711,81.7949947 C75.5172406,81.475615 75.6963636,81.1849626 75.9794118,81.0379465 C76.2624599,80.8900856 76.6038075,80.9103636 76.8674225,81.0894866 C79.7409947,83.0328021 83.7112727,83.5262353 86.5223209,82.2884278 C89.1779037,81.1190588 91.2386631,78.662877 91.987262,75.861123 C89.9628342,75.6769305 87.9781176,74.2794332 87.0622246,72.2659893 C86.0711337,70.0877861 86.0905668,67.666246 86.1083102,65.5285989 L86.2713797,45.2251765 C86.3068663,40.848492 86.3431979,36.3231016 85.6410695,31.9574011 C84.8620535,27.1160107 83.2482567,23.0975722 80.8444599,20.0153048 C78.0688984,16.4548128 74.0622888,14.1642353 70.1266524,13.8871016 C69.825016,13.8659786 69.5563316,13.6893904 69.4169198,13.4207059 C66.5348984,7.88648128 60.8688663,3.78186096 54.2607487,2.44012834 C48.3395508,1.23780749 40.026385,1.92810695 33.0870588,4.1975615 C21.1753797,8.09517647 13.8651337,14.1000214 10.0815829,23.0933476 C8.7542139,26.2474332 8.48975401,29.4310909 8.23374332,32.5099786 C7.9084492,36.424492 7.57217112,40.4725027 5.04417112,44.3473048 L5.04417112,44.3473048 C2.40633155,48.3885561 1.68308021,53.4606096 3.00791444,58.6298289 C3.5740107,60.8392941 4.83547594,62.8696364 6.07919786,64.7597219 L6.45941176,65.3368021 C7.66342246,67.1584492 8.90883422,69.0426203 9.70474866,71.1574545 C10.7389305,73.9110481 10.7786417,76.6283102 9.81712299,78.809893 C8.84968984,81.0049947 6.76780749,82.5317647 4.61748663,82.7742567 C5.90514439,85.625861 7.59498396,87.4390588 9.87119786,88.4326845 C12.8284171,89.722877 16.3779251,89.7685027 19.3655615,88.553508 C19.7930909,88.3836791 20.2806096,88.5712513 20.4774759,88.9869519 C21.5800963,91.3113262 23.5563636,94.3564171 26.7096043,95.6626631 C29.5975401,96.8590695 32.9434225,96.9435615 35.8879679,95.8933262 C35.9842888,95.8578396 36.0831444,95.8417861 36.1811551,95.8417861 Z" id="Shape" fill="#3A3A3A"></path>
                                    <polygon id="Path" fill="#FFE4A3" points="43.6823529 137.209059 9.22905882 137.209059 6.0766631 157.618941 43.6823529 157.618941"></polygon>
                                    <path d="M11.3396684,157.618941 L18.7614439,157.618941 L19.6824064,137.209059 L9.63968984,136.50862 C9.52055615,137.199765 9.1766738,138.710481 9.06176471,139.390642 L13.9893369,140.709561 C12.8867166,147.31261 11.9801176,153.257465 11.3396684,157.618941 Z" id="Path" fill-opacity="0.137811407" fill="#001436"></path>
                                    <path d="M6.0766631,157.642599 C5.99639572,157.642599 5.91528342,157.631615 5.83501604,157.608802 C5.37368984,157.475305 5.10838503,156.992856 5.24188235,156.532374 C6.20171123,153.216064 6.43490909,150.097465 6.68247059,146.795519 C6.90806417,143.78338 7.14126203,140.667316 7.96928342,137.35861 C8.00730481,137.204834 8.08672727,137.065422 8.19741176,136.953893 C9.15301604,135.998289 10.1415722,135.009733 11.3464278,135.009733 C11.3903636,135.009733 11.4342995,135.013112 11.4782353,135.019872 C20.6853262,136.438492 29.3102674,136.054898 37.6513155,135.685668 C39.1763957,135.618075 40.690492,135.551326 42.196139,135.495561 C42.6929519,135.45754 43.0790802,135.852118 43.0968235,136.331187 C43.1145668,136.810257 42.7402674,137.214128 42.2603529,137.231027 C40.7589305,137.286791 39.2490588,137.354385 37.7282032,137.421134 C29.3280107,137.792898 20.6422353,138.178182 11.2974225,136.749422 C10.8529947,136.795893 10.1804385,137.432118 9.59744385,138.010888 C8.8522246,141.09231 8.6300107,144.056289 8.41540107,146.924791 C8.17206417,150.169283 7.92112299,153.52446 6.91144385,157.014824 C6.80160428,157.395882 6.45434225,157.642599 6.0766631,157.642599 Z" id="Path" fill="#3A3A3A"></path>
                                    <path d="M2.22636364,133.910492 L18.3558824,139.563005 L72.5912834,139.563005 L88.7208021,133.910492 L80.389893,110.455519 C79.2154545,107.143433 76.7736364,104.43969 73.6136364,102.901936 C72.2617647,102.242898 70.8845455,101.617658 69.498877,101.017765 C66.9387701,99.9109198 64.3871123,98.9139144 62.0466845,98.0520963 C56.4364171,95.9989412 52.1019786,94.7400107 52.1019786,94.7400107 L38.8536364,94.7400107 C38.8536364,94.7400107 34.5360963,95.990492 28.9511765,98.0351979 C26.6022995,98.897016 24.0252941,99.9024706 21.456738,101.017765 C20.0710695,101.617658 18.6938503,102.242898 17.3419786,102.901936 C14.1735294,104.43969 11.7401604,107.143433 10.5657219,110.455519 L2.22636364,133.910492 Z" id="Path" fill="#FADF4C"></path>
                                    <g transform="translate(1.689840, 104.770053)" id="Path">
                                        <path d="M16.6702674,34.7929519 L17.8869519,34.7929519 L19.4356898,0.482449198 C16.9110695,10.2970374 14.5765561,22.5534439 12.7261818,33.4106631 L16.6702674,34.7929519 Z" fill-opacity="0.137811407" fill="#001436"></path>
                                        <polygon fill="#FFFFFF" points="1.95345455 25.1515722 0.536524064 29.1395936 16.6660428 34.7929519 17.5109626 30.6055294"></polygon>
                                        <path d="M16.6660428,34.7929519 L17.5109626,30.6046845 L13.4587273,29.1843743 C13.2069412,30.6105989 12.9619144,32.0224599 12.7253369,33.411508 L16.6660428,34.7929519 Z" fill="#E3E3E3"></path>
                                    </g>
                                    <g transform="translate(69.283422, 104.770053)" id="Path">
                                        <path d="M3.30786096,34.7929519 L2.09117647,34.7929519 L0.542438503,0.482449198 C3.06705882,10.2970374 5.40157219,22.5534439 7.25194652,33.4106631 L3.30786096,34.7929519 Z" fill="#CCCCCC"></path>
                                        <polygon fill="#FFFFFF" points="18.0246738 25.1515722 19.4416043 29.1395936 3.31208556 34.7929519 2.46716578 30.6055294"></polygon>
                                        <path d="M3.31208556,34.7929519 L2.46716578,30.6046845 L6.51940107,29.1843743 C6.77118717,30.6105989 7.0162139,32.0224599 7.25279144,33.411508 L3.31208556,34.7929519 Z" fill="#E3E3E3"></path>
                                    </g>
                                    <polygon id="Path" fill="#FFFFFF" points="87.3064064 129.921626 88.7233369 133.909647 72.5938182 139.563005 71.7488984 135.375583"></polygon>
                                    <path d="M45.4744278,102.37893 C39.7974118,102.37893 35.5305668,99.4969091 32.9518717,97.0795936 C32.6012299,96.7517647 32.5834866,96.2017219 32.9121604,95.8519251 C33.2416791,95.5021283 33.790877,95.4835401 34.1406738,95.8122139 C36.4912406,98.0149198 40.3660428,100.641775 45.4752727,100.641775 C50.5481711,100.641775 54.404385,98.0478717 56.7456578,95.8713583 C57.0971444,95.5443743 57.6471872,95.5646524 57.9741711,95.916139 C58.3011551,96.2676257 58.280877,96.8168235 57.9293904,97.1438075 C55.3591444,99.5323957 51.1125775,102.37893 45.4744278,102.37893 Z" id="Path" fill="#FFFFFF"></path>
                                    <path d="M72.5929733,140.431583 L18.3558824,140.431583 C18.2578717,140.431583 18.1607059,140.414684 18.0686096,140.382578 L1.93909091,134.729219 C1.7211016,134.652332 1.54197861,134.492642 1.44312299,134.283947 C1.34342246,134.076096 1.33074866,133.836139 1.40848128,133.61815 L9.74192513,110.168246 C10.9983209,106.632257 13.5609626,103.773893 16.9566952,102.11954 C26.7096043,97.370246 38.4894759,93.9424064 38.6069198,93.9077647 C38.6854973,93.8857968 38.7666096,93.8739679 38.8485668,93.8739679 L52.1028235,93.8739679 C52.1847807,93.8739679 52.265893,93.8857968 52.3444706,93.9077647 C52.4627594,93.9424064 64.2417861,97.370246 73.9946952,102.11954 C77.3904278,103.773893 79.9522246,106.632257 81.2094652,110.168246 L89.5429091,133.61815 C89.6197968,133.836139 89.6079679,134.076096 89.5074225,134.283947 C89.4077219,134.492642 89.2294439,134.652332 89.0114545,134.729219 L72.8819358,140.382578 C72.7881497,140.415529 72.690984,140.431583 72.5929733,140.431583 Z M18.5037433,138.693583 L72.4451123,138.693583 L87.6114225,133.377348 L79.5703209,110.750396 C78.4668556,107.645316 76.2159893,105.135059 73.2325775,103.681797 C64.1327914,99.2510374 53.2223422,95.979508 51.9769305,95.611123 L38.9719251,95.611123 C37.7265134,95.979508 26.8152193,99.2510374 17.7162781,103.681797 C14.7320214,105.135904 12.4811551,107.645316 11.3785348,110.750396 L3.33743316,133.377348 L18.5037433,138.693583 Z" id="Shape" fill="#3A3A3A"></path>
                                    <path d="M72.2997861,157.618941 L18.6558289,157.618941 C18.6558289,157.618941 18.5966845,149.642898 18.8586096,139.563005 C19.1458824,128.426963 19.8387166,113.700011 21.4525134,101.017765 C24.0126203,99.9109198 26.5642781,98.9139144 28.9047059,98.0520963 C28.2541176,105.563433 28.1611765,114.266107 28.0597861,121.768995 L62.8873797,121.768995 C62.7944385,114.257658 62.6508021,105.546535 62.0002139,98.0351979 C64.3490909,98.897016 66.9260963,99.9024706 69.4946524,101.017765 C71.1168984,113.700011 71.8097326,128.426963 72.0970053,139.563005 C72.3589305,149.642898 72.2997861,157.618941 72.2997861,157.618941 Z" id="Path" fill="#12276A"></path>
                                    <path d="M72.2997861,157.642599 C72.2972513,157.642599 72.2955615,157.642599 72.2930267,157.642599 C71.8131123,157.638374 71.426984,157.246332 71.4312086,156.766417 C71.4312086,156.695444 71.4869733,149.532214 71.2284278,139.584973 C70.9648128,129.336941 70.31,114.488321 68.6945134,101.618503 C66.9151123,100.854695 64.9988342,100.085818 62.9777861,99.3245455 C63.526139,106.394834 63.663861,114.266952 63.7559572,121.758011 C63.758492,121.990364 63.6680856,122.214267 63.505861,122.379027 C63.3427914,122.543786 63.1197326,122.637572 62.8873797,122.637572 L28.0597861,122.637572 C27.8274332,122.637572 27.6043743,122.544631 27.4413048,122.379027 C27.2782353,122.213422 27.1878289,121.989519 27.1912086,121.757166 L27.2038824,120.820995 C27.2959786,113.960246 27.3990588,106.240214 27.9279786,99.3422888 C25.9390374,100.093422 24.037123,100.856385 22.2534973,101.618503 C20.645615,114.50015 19.992492,129.342856 19.728877,139.584128 C19.4703316,149.531369 19.5252513,156.694599 19.5260963,156.765572 C19.5303209,157.245487 19.1441925,157.637529 18.6642781,157.641754 C18.2063316,157.676396 17.7914759,157.25985 17.7880963,156.779936 C17.7872513,156.708118 17.7323316,149.51785 17.990877,139.539348 C18.2595615,129.127401 18.928738,113.97292 20.5915401,100.906235 C20.6304064,100.602064 20.8272727,100.340139 21.108631,100.218471 C23.426246,99.2163957 25.9483316,98.2134759 28.6056043,97.2359037 C28.8852727,97.1328235 29.197893,97.180984 29.4336257,97.360107 C29.6693583,97.5409198 29.7977861,97.8298824 29.7715936,98.1256043 C29.1505775,105.294749 29.039893,113.555529 28.9418824,120.843807 L28.9410374,120.898727 L62.0078182,120.898727 C61.9089626,113.218406 61.7475829,105.190824 61.1341711,98.107861 C61.1088235,97.8112941 61.2364064,97.5231765 61.472139,97.3423636 C61.7070267,97.1623957 62.0188021,97.1142353 62.2993155,97.2173155 C64.9996791,98.2092513 67.5369733,99.2189305 69.8402246,100.219316 C70.120738,100.341829 70.3167594,100.602064 70.3556257,100.90539 C72.0260321,113.959401 72.6960535,129.119797 72.964738,139.539348 C73.2241283,149.518695 73.1683636,156.708118 73.1675187,156.779936 C73.164984,157.25816 72.7763209,157.642599 72.2997861,157.642599 Z" id="Path" fill="#3A3A3A"></path>
                                    <path d="M29.7656791,128.293465 C29.7656791,130.186086 28.2313048,131.719615 26.3395294,131.719615 C24.4469091,131.719615 22.9133797,130.185241 22.9133797,128.293465 C22.9133797,126.40169 24.447754,124.867315 26.3395294,124.867315 C28.2313048,124.866471 29.7656791,126.400845 29.7656791,128.293465 Z" id="Path" fill="#FFFFFF"></path>
                                    <path d="M61.1840214,128.293465 C61.1840214,130.186086 62.7183957,131.719615 64.6101711,131.719615 C66.5027914,131.719615 68.0363209,130.185241 68.0363209,128.293465 C68.0363209,126.40169 66.5019465,124.867315 64.6101711,124.867315 C62.7183957,124.866471 61.1840214,126.400845 61.1840214,128.293465 Z" id="Path" fill="#FFFFFF"></path>
                                    <path d="M62.736984,157.642599 C62.3069198,157.642599 61.9326203,157.323219 61.8760107,156.885551 L61.040385,150.420225 C57.8119465,150.092396 55.1200321,147.72662 54.3807273,144.565775 L36.5681283,144.565775 C35.8296684,147.725775 33.1369091,150.092396 29.9084706,150.420225 L29.0728449,156.885551 C29.0111658,157.361241 28.5760321,157.689914 28.0994973,157.636684 C27.6229626,157.575005 27.2875294,157.139027 27.3492086,156.663337 L28.2777754,149.478984 C28.3335401,149.04554 28.7027701,148.721936 29.1395936,148.721936 C32.0917433,148.721936 34.6028449,146.51416 34.981369,143.586513 C35.0371337,143.15307 35.4063636,142.82862 35.8431872,142.82862 L55.1056684,142.82862 C55.542492,142.82862 55.9117219,143.15307 55.9674866,143.586513 C56.3460107,146.51416 58.8571123,148.721936 61.809262,148.721936 C62.2460856,148.721936 62.6153155,149.046385 62.6710802,149.478984 L63.5996471,156.663337 C63.6613262,157.139872 63.3250481,157.575005 62.8493583,157.636684 C62.8113369,157.640064 62.7741604,157.642599 62.736984,157.642599 Z" id="Path" fill="#001436"></path>
                                    <g transform="translate(5.914439, 46.470588)">
                                        <path d="M70.7848449,1.43805348 C70.7848449,1.43805348 77.2501711,0.757893048 77.5408235,8.03856684 C77.8314759,15.3200856 71.7919893,16.6728021 69.2014652,16.1768342 L70.7848449,1.43805348 Z" id="Path" fill="#FFE4A3"></path>
                                        <path d="M75.2755936,14.3695508 C73.3601604,16.1210695 70.7037326,16.4649519 69.2014652,16.1776791 L70.7848449,1.43805348 C70.7848449,1.43805348 72.385123,1.27075936 74.028492,1.99739037 C73.1007701,6.11045989 73.5536471,10.5217861 75.2755936,14.3695508 Z" id="Path" fill-opacity="0.1" fill="#001436"></path>
                                        <path d="M70.236492,17.137508 C69.8030481,17.137508 69.3983316,17.1003316 69.0383957,17.0310481 C68.5939679,16.9465561 68.2889519,16.5350802 68.3371123,16.0855829 L69.920492,1.34595722 C69.9644278,0.938705882 70.2863422,0.617636364 70.6935936,0.574545455 C70.8169519,0.560181818 73.7496684,0.27713369 75.9920856,2.21706952 C77.4943529,3.51571123 78.3080107,5.46325134 78.4094011,8.00477005 C78.5640214,11.8652086 77.0220428,14.030738 75.7022781,15.168 C74.069893,16.5731016 71.9347807,17.137508 70.236492,17.137508 Z M70.1596043,15.3978197 C71.4041711,15.3986631 73.1827273,15.0437968 74.5683957,13.8507701 C76.0664385,12.5605775 76.7744813,10.617262 76.6730909,8.07405348 C76.5919786,6.04033155 75.9853262,4.51525134 74.8683422,3.54274866 C73.7674118,2.58291979 72.3834332,2.35056684 71.5663957,2.30240642 L70.1596043,15.3978197 Z" id="Shape" fill="#3A3A3A"></path>
                                        <path d="M8.33597861,1.43805348 C8.33597861,1.43805348 1.87065241,0.757893048 1.58,8.03856684 C1.28934759,15.3200856 7.32883422,16.6728021 9.91935829,16.1768342 L8.33597861,1.43805348 Z" id="Path" fill="#FFE4A3"></path>
                                        <path d="M3.84522995,14.3695508 C5.7606631,16.1210695 8.41709091,16.4649519 9.91935829,16.1776791 L8.33597861,1.43805348 C8.33597861,1.43805348 6.73570053,1.27075936 5.09233155,1.99739037 C6.02005348,6.11045989 5.56717647,10.5217861 3.84522995,14.3695508 Z" id="Path" fill-opacity="0.1" fill="#001436"></path>
                                        <path d="M8.88348663,17.137508 C7.18604278,17.137508 5.05093048,16.5731016 3.41939037,15.168 C2.09878075,14.030738 0.556802139,11.8652086 0.71142246,8.00477005 C0.812812834,5.46325134 1.62647059,3.51655615 3.12873797,2.21706952 C5.372,0.27713369 8.30387166,0.559336898 8.42722995,0.574545455 C8.83448128,0.617636364 9.15639572,0.938705882 9.20033155,1.34595722 L10.7837112,16.0855829 C10.8318717,16.5350802 10.5277005,16.9474011 10.0824278,17.0310481 C9.72164706,17.1003316 9.31693048,17.137508 8.88348663,17.137508 Z M7.55442781,2.30240642 C6.73823529,2.34972193 5.35425668,2.58291979 4.2533262,3.54274866 C3.13718717,4.51525134 2.52968984,6.04033155 2.44857754,8.07405348 C2.34718717,10.617262 3.05522995,12.5614225 4.55411765,13.8507701 C5.93809626,15.0437968 7.70566845,15.3800749 8.96206417,15.3978182 L7.55442781,2.30240642 Z" id="Shape" fill="#3A3A3A"></path>
                                    </g>
                                    <path d="M37.8477219,90.8079037 L37.8477219,98.7417005 C37.8477219,98.7417005 40.3022139,100.641925 44.4744278,100.641925 C48.6474866,100.641925 51.1019786,98.7417005 51.1019786,98.7417005 L51.1019786,90.8079037 L37.8477219,90.8079037 Z" id="Path" fill-opacity="0.137811407" fill="#001436"></path>
                                    <path d="M50.9342995,87.6925348 C47.8511872,87.9400963 44.7477968,88.0288128 41.6503209,87.9586845 C41.1104171,88.2620107 40.0568021,88.2805989 39.4670481,88.5180214 C39.120631,88.6574332 38.9364385,88.9294973 38.8485668,89.2328235 L38.8485668,90.0887273 C39.0023422,90.7494545 39.3969198,91.4574973 39.9908984,91.9205134 C43.7854332,92.3210053 47.6196791,91.1127701 50.6842032,89.3046417 C51.0272406,89.101861 51.3804171,88.8728877 51.5122246,88.5509733 C51.6440321,88.2299037 51.360984,87.658738 50.9342995,87.6925348 Z" id="Path" fill="#FFE4A3"></path>
                                    <path d="M45.4744278,97.5113476 C41.0554973,97.5113476 38.425262,95.5148021 38.3154225,95.4294652 C38.1033476,95.2647059 37.9791444,95.0112299 37.9791444,94.7417005 L37.9791444,86.8070588 C37.9791444,86.3271444 38.3678075,85.9384813 38.8477219,85.9384813 L52.1019786,85.9384813 C52.581893,85.9384813 52.9705561,86.3271444 52.9705561,86.8070588 L52.9705561,94.7417005 C52.9705561,95.010385 52.8463529,95.263861 52.6342781,95.4294652 C52.5244385,95.5148021 49.8942032,97.5113476 45.4744278,97.5113476 Z M39.7162995,94.2761497 C40.4826417,94.7408556 42.5197433,95.7733476 45.4744278,95.7733476 C48.4274225,95.7733476 50.4645241,94.7408556 51.2325561,94.2761497 L51.2325561,87.6764813 L39.7162995,87.6764813 L39.7162995,94.2761497 Z" id="Shape" fill="#3A3A3A"></path>
                                    <path d="M77.6506631,47.0620321 C77.6506631,66.1952406 68.6632513,89.3240749 45.7312834,89.3240749 C22.7993155,89.3240749 13.8119037,66.1960856 13.8119037,47.0620321 C13.8119037,47.0620321 24.2179358,10.7279465 39.6960214,10.7279465 C55.173262,10.7271016 77.6506631,47.0620321 77.6506631,47.0620321 Z" id="Path" fill="#FFE4A3"></path>
                                    <path d="M49.317123,83.6538182 C47.673754,84.4843743 46.326107,85.8877861 45.5639893,87.5649519 C45.4220428,87.8775722 45.3020642,88.2527166 45.4710481,88.5518182 C45.6560856,88.8788021 46.0903743,88.9506203 46.4663636,88.9582246 C48.253369,88.9970909 50.0919144,88.3583316 51.3094439,87.0495508 C52.5269733,85.7407701 53.024631,83.7349305 52.3529198,82.0780428 C51.876385,80.9019144 50.0589626,79.1706738 48.6141497,79.6624171 C46.8322139,80.2690695 48.4941711,82.7413048 49.317123,83.6538182 Z" id="Path" fill="#CFCFCF"></path>
                                    <path d="M44.7004813,89.564877 C43.144139,89.564877 41.8362032,89.4770053 40.6144492,89.291123 C21.3223957,86.3592513 12.6864706,65.695893 12.6864706,46.5187487 C12.6864706,46.0388342 13.0751337,45.6501711 13.5550481,45.6501711 C14.0349626,45.6501711 14.4236257,46.0388342 14.4236257,46.5187487 C14.4236257,64.9523636 22.6024492,84.7961497 40.8746845,87.5734011 C42.1158717,87.7626631 43.4643636,87.8412406 45.1220963,87.8251872 L46.2821711,87.8125134 C48.3877112,87.7913904 50.212738,87.6046631 51.8603316,87.2413476 C68.898139,83.4983529 76.5252299,64.0922353 76.5252299,46.5187487 C76.5252299,46.0388342 76.913893,45.6501711 77.3938075,45.6501711 C77.8737219,45.6501711 78.262385,46.0388342 78.262385,46.5187487 C78.262385,64.7876043 70.2136791,84.9887914 52.2320963,88.9396364 C50.4662139,89.3274545 48.5245882,89.5268556 46.2982246,89.5505134 L45.1381497,89.5631872 C44.9911337,89.5640321 44.8449626,89.564877 44.7004813,89.564877 Z" id="Path" fill="#3A3A3A"></path>
                                    <path d="M26.6994652,44.7283636 C25.775123,43.4280321 28.8886524,41.5624492 31.8205241,40.9304492 C33.2045027,40.6321925 36.7235936,40.1167914 36.5419358,42.2535936 C36.3898503,44.0422888 34.1795401,44.8796043 32.4592834,45.2547487 C30.9215294,45.5901818 27.7218182,46.1664171 26.6994652,44.7283636 Z" id="Path" fill="#3A3A3A"></path>
                                    <path d="M64.2502353,44.7283636 C65.1745775,43.4280321 62.0610481,41.5624492 59.1291765,40.9304492 C57.7451979,40.6321925 54.226107,40.1167914 54.4077647,42.2535936 C54.5598503,44.0422888 56.7701604,44.8796043 58.4904171,45.2547487 C60.0281711,45.5901818 63.2278824,46.1664171 64.2502353,44.7283636 Z" id="Path" fill="#3A3A3A"></path>
                                    <path d="M45.6467914,54.9409091 C44.8449626,54.2742674 42.5526952,59.8431337 43.0655615,60.8866096 C43.3545241,61.4746738 45.9028021,62.683754 46.5804278,62.1083636 C47.0544278,61.7053369 45.1415294,60.6525668 44.9412834,60.018877 C44.5551551,58.797123 46.2779465,55.4664492 45.6467914,54.9409091 Z" id="Path" fill="#3A3A3A"></path>
                                    <path d="M38.2926096,70.8879251 C39.2144171,71.4185348 41.3900856,69.5360535 45.4744278,69.5360535 C49.5587701,69.5360535 51.7352834,71.4193797 52.656246,70.8879251 C53.5772086,70.3573155 51.4429412,67.9281711 48.1122674,67.0950802 C48.1038182,67.0925455 48.0945241,67.0908556 48.0860749,67.0883209 C46.3751123,66.6641711 44.5728984,66.6641711 42.8619358,67.0883209 C42.8534866,67.0908556 42.8441925,67.0925455 42.8357433,67.0950802 C39.5059144,67.9281711 37.3716471,70.3573155 38.2926096,70.8879251 Z" id="Path" fill="#3A3A3A" transform="translate(45.474426, 68.876321) scale(1, -1) translate(-45.474426, -68.876321) "></path>
                                    <path d="M13.1292086,31.4183422 C11.9353369,36.9770695 11.1360428,51.4285775 15.1916578,59.355615 C15.0784385,55.7892086 15.4637219,53.6625455 17.5625027,50.7771444 C18.6085134,49.3390909 20.1023316,48.2770267 21.1643957,46.8508021 C23.2690909,44.0237005 23.4701818,40.0660963 25.764139,37.3902353 C27.6660535,35.1723209 30.6815722,34.2420642 33.5847166,33.9226845 C36.4887059,33.6033048 39.4417005,33.7866524 42.3211872,33.2898396 C45.5386417,32.7355722 48.6031658,31.3220214 51.1134225,29.2350695 C52.9629519,27.6973155 54.5040856,25.8139893 56.3620642,24.2863743 C57.2914759,23.5225668 58.3374866,22.8432513 59.450246,22.3853048 C60.0070481,22.1563316 60.5799037,21.9822781 61.1637433,21.8800428 C61.7475829,21.7778075 62.3415615,21.7482353 62.9397647,21.8082246 C61.7754652,30.6080642 64.9599679,40.2435294 71.2427914,46.5136791 C71.2427914,46.5136791 75.060139,49.2275615 77.1546952,54.8859893 C77.1546952,54.8859893 84.0120642,38.7446417 77.0997754,25.880738 C70.1874866,13.0176791 54.5590053,-0.436823529 37.1874545,6.41294118 C19.8167487,13.261861 13.1292086,31.4183422 13.1292086,31.4183422 Z" id="Path" fill="#593F02"></path>
                                    <path d="M14.9102995,60.2943209 C14.5900749,60.2943209 14.2875936,60.1168877 14.1363529,59.8211658 C9.92358289,51.5848877 11.0971765,36.7430267 12.2792193,31.2358396 C12.3797647,30.7669091 12.840246,30.4644278 13.3108663,30.5683529 C13.7806417,30.6688984 14.0788984,31.1310695 13.977508,31.6008449 C12.8875615,36.6779679 12.1406524,47.7920428 14.3365989,55.5137647 C14.7311765,53.7005668 15.5270909,52.0969091 16.8586845,50.2659679 C17.4332299,49.475123 18.1193048,48.8051016 18.7817219,48.1562032 C19.4002032,47.5503957 19.9848877,46.9792299 20.466492,46.3328663 C21.3882995,45.0942139 21.9205989,43.6037754 22.4841604,42.0246203 C23.1279893,40.2190267 23.794631,38.351754 25.1042567,36.824984 C26.8904171,34.7414118 29.7116043,33.474877 33.4900856,33.0591765 C34.7566203,32.9197647 36.0366738,32.8732941 37.2753262,32.8285134 C38.9727701,32.7676791 40.5772727,32.7093797 42.1741711,32.4339358 C45.2547487,31.9033262 48.1536684,30.5658182 50.5583102,28.566738 C51.4387166,27.8350374 52.2743422,26.9943422 53.0829305,26.1806845 C53.9447487,25.3137968 54.8344492,24.4173369 55.8111765,23.6146631 C56.8960535,22.7232727 58.0096578,22.0388877 59.1198824,21.5817861 C59.7544171,21.319861 60.3923316,21.1331337 61.0150374,21.024139 C61.6951979,20.9050053 62.3719786,20.8788128 63.0276364,20.9438717 C63.2616791,20.9675294 63.4762888,21.0849733 63.6224599,21.2691658 C63.768631,21.4542032 63.8328449,21.6899358 63.8024278,21.9222888 C62.6710802,30.4737219 65.8327701,39.8861283 71.858738,45.8994225 C72.1983957,46.2373904 72.1992406,46.7882781 71.8595829,47.1279358 C71.521615,47.4667487 70.9707273,47.4692834 70.6310695,47.1287807 C64.4614652,40.9726952 61.1198075,31.4639679 61.9697968,22.6582139 C61.7534973,22.6717326 61.5346631,22.6979251 61.314984,22.7359465 C60.8156364,22.8229733 60.3002353,22.9750588 59.7831444,23.1888235 C58.8317647,23.5800214 57.8668663,24.1756898 56.9154866,24.9572406 C56.0071979,25.7049947 55.1859358,26.5304813 54.3165134,27.4049733 C53.4791979,28.2473583 52.614,29.1184706 51.6702246,29.9034011 C49.0315401,32.0968128 45.8504171,33.5644385 42.469893,34.1465882 C40.7572406,34.4414652 39.0192406,34.5048342 37.3386952,34.5648235 C36.1321497,34.6087594 34.8842032,34.6535401 33.6810374,34.7861925 C30.3562781,35.1520428 27.9144599,36.2174866 26.4248663,37.9554866 C25.3247807,39.2380749 24.7409412,40.8755294 24.1224599,42.6084599 C23.5411551,44.2383102 22.9395722,45.9230802 21.8622995,47.3704278 C21.3004278,48.1257861 20.6388556,48.7721497 19.9992513,49.3973904 C19.3596471,50.0234759 18.7546845,50.6149198 18.2663209,51.2874759 C16.2756898,54.0241711 15.6715722,55.9945241 15.7797219,59.397861 C15.7932406,59.8034225 15.5220214,60.1650481 15.1282888,60.2664385 C15.0547807,60.2858717 14.9821176,60.2943209 14.9102995,60.2943209 Z" id="Path" fill="#3A3A3A"></path>
                                    <path d="M19.3528877,40.4986952 C19.3030374,40.4986952 19.2514973,40.4944706 19.2008021,40.4851765 C18.728492,40.4015294 18.412492,39.9503422 18.496984,39.478877 C19.5446845,33.5526096 24.6344813,28.6740428 30.5979251,27.8772834 C31.9202246,27.6998503 33.2670267,27.7099893 34.5715829,27.7175936 C36.814,27.7328021 38.9322139,27.7463209 40.7876578,26.8625348 C42.9244599,25.8452513 44.3228021,23.8326524 45.8039465,21.7026096 C46.6378824,20.5028235 47.4997005,19.2624813 48.5203636,18.1818289 C52.4619144,14.0079251 58.9677968,12.5056578 64.3397968,14.5343102 C64.7892941,14.7032941 65.0157326,15.2051765 64.8467487,15.6538289 C64.6769198,16.1024813 64.1741925,16.3322995 63.7272299,16.1599358 C58.9914545,14.3754652 53.2586738,15.6960749 49.7852086,19.3757005 C48.853262,20.3625668 48.0286203,21.5479893 47.231861,22.6962353 C45.6865027,24.9183743 44.0887594,27.2165561 41.5362567,28.4323957 C39.320877,29.4868556 36.9018717,29.4691123 34.5614439,29.4555936 C33.316877,29.4462995 32.031754,29.4386952 30.8294332,29.6000749 C25.6796471,30.2886845 21.1145455,34.665369 20.2096364,39.7813583 C20.1335936,40.2021283 19.7668984,40.4986952 19.3528877,40.4986952 Z" id="Path" fill="#3A3A3A"></path>
                                    <path d="M73.3424171,19.7102888 C73.0720428,19.7102888 72.805893,19.5852406 72.6360642,19.3486631 C71.9508342,18.3964385 70.9115829,17.6689626 69.783615,17.3521176 C69.3214439,17.222 69.0519144,16.7420856 69.1820321,16.2799144 C69.3121497,15.8168984 69.7912193,15.547369 70.2542353,15.6783316 C71.7759358,16.1067059 73.122738,17.0487914 74.0470802,18.3339144 C74.3267487,18.7234225 74.238877,19.2667059 73.849369,19.5472193 C73.6955936,19.6579037 73.5181604,19.7102888 73.3424171,19.7102888 Z" id="Path" fill="#3A3A3A"></path>
                                    <path d="M64.8551979,12.9923316 C64.6439679,12.9923316 64.431893,12.9154439 64.263754,12.7599786 C61.7213904,10.4018075 58.270738,9.09809626 54.8099465,9.22567914 C54.3376364,9.23412834 53.9295401,8.8648984 53.9134866,8.38498396 C53.8974332,7.90591444 54.2742674,7.50373262 54.7541818,7.48852406 C58.6779893,7.36854545 62.5705348,8.81842781 65.4457968,11.4858396 C65.7972834,11.8119786 65.8175615,12.3620214 65.4914225,12.713508 C65.3207487,12.8993904 65.0883957,12.9923316 64.8551979,12.9923316 Z" id="Path" fill="#3A3A3A"></path>
                                    <path d="M77.156385,55.7545668 C77.125123,55.7545668 77.0947059,55.752877 77.0634439,55.7494973 C76.7085775,55.7114759 76.4128556,55.4596898 76.3182246,55.1158075 C76.3089305,55.0837005 75.4074011,51.8738503 73.0585241,48.8667807 C72.7628021,48.4891016 72.8303957,47.9424385 73.2080749,47.6475615 C73.5849091,47.3518396 74.1324171,47.4177433 74.428139,47.7979572 C75.7909947,49.5427166 76.7001283,51.3246524 77.2594652,52.635123 C80.2361176,45.6315829 80.3924278,36.8976471 77.567861,29.8138396 C77.3904278,29.3685668 77.6075722,28.8624599 78.0536898,28.6850267 C78.5006524,28.5075936 79.0050695,28.7255829 79.1825027,29.1700107 C82.4422032,37.3420749 81.9487701,47.5951765 77.9269519,55.289016 C77.7748663,55.5771337 77.4766096,55.7545668 77.156385,55.7545668 Z" id="Path" fill="#3A3A3A"></path>
                                    <g transform="translate(43.935829, 75.197861)" id="Path">
                                        <path d="M18.180984,2.65727273 C21.4964492,1.38989305 24.3032727,7.83916578 24.2289198,10.1838182 C24.1435829,12.8850267 16.2486524,16.9245882 16.2486524,16.9245882 C16.2486524,16.9245882 41.3883957,53.0423743 42.8560214,64.3651444 C44.7587807,79.0414011 28.260877,80.1955615 22.457123,70.4325134 C14.546139,57.122492 1.88417112,20.5788663 1.5200107,16.4979037 C1.15585027,12.4177861 7.47416043,9.77825668 7.47416043,9.77825668 L7.62371123,5.74207487 C-0.063368984,5.84346524 5.80206417,0.63284492 9.01529412,2.29564706 L16.6888556,1.86558289 L18.180984,2.65727273 Z" fill="#FFE4A3"></path>
                                        <g transform="translate(5.069519, 10.139037)" fill="#001436" fill-opacity="0.137811407">
                                            <path d="M37.4696578,60.0121176 C33.5813369,59.9115722 29.6186631,59.6859786 26.2558824,57.806877 C22.4621925,55.6869733 20.0524813,51.802877 17.8066845,48.0826952 C11.9285775,38.3433048 6.04962567,28.6039144 0.171518717,18.865369 C4.60312299,31.8923422 12.0679893,51.3423957 17.3884492,60.2934759 C22.3050374,68.5652406 34.8926524,68.9961497 37.4696578,60.0121176 Z"></path>
                                            <path d="M14.3281497,12.0654545 C13.7705027,11.4342995 13.2517219,10.6130374 13.2542567,9.81712299 C11.9615294,7.91013904 11.1799786,6.78639572 11.1799786,6.78639572 C11.1799786,6.78639572 17.0293583,3.78862032 18.7065241,1.23104813 L18.1742246,0.51455615 C12.6560535,2.73500535 6.91989305,4.41217112 1.07473797,5.51394652 C6.61065241,7.5071123 11.7063636,10.7144278 15.8980107,14.8443957 C15.9140642,13.7527594 15.0505561,12.882492 14.3281497,12.0654545 Z"></path>
                                        </g>
                                        <g fill="#3A3A3A">
                                            <path d="M19.3385241,8.60550802 C18.9067701,8.60550802 18.5324706,8.28359358 18.4775508,7.84508021 C18.2781497,6.2600107 17.5498289,3.47008556 16.442984,2.73078075 C15.1350481,1.85544385 13.819508,2.89807487 13.8059893,2.90905882 C13.4342246,3.21069519 12.8858717,3.15408556 12.5833904,2.78147594 C12.2809091,2.40886631 12.3383636,1.86135829 12.7118182,1.55972193 C13.5102674,0.911668449 15.5194866,0.0211229947 17.4087273,1.28681283 C19.5328556,2.70627807 20.139508,7.13027807 20.2020321,7.63047059 C20.2611765,8.10700535 19.9232086,8.5404492 19.4475187,8.59959358 C19.4111872,8.60297326 19.3748556,8.60550802 19.3385241,8.60550802 Z"></path>
                                            <path d="M15.7290267,8.97558289 C15.2634759,8.97558289 14.8781925,8.60719786 14.8612941,8.13826738 C14.8165134,6.94017112 14.2859037,3.63146524 12.3907487,2.72148663 C11.4824599,2.2888877 10.4229305,3.20816043 10.4127914,3.21745455 C10.0553904,3.53514439 9.50619251,3.50472727 9.18765775,3.14901604 C8.86912299,2.79245989 8.89531551,2.24748663 9.2493369,1.92726203 C9.32706952,1.85628877 11.1765989,0.214609626 13.1427273,1.15500535 C16.3753904,2.70712299 16.5908449,7.85944385 16.5976043,8.07658824 C16.6145027,8.55565775 16.2393583,8.95783957 15.7602888,8.97558289 C15.7501497,8.97473797 15.7391658,8.97558289 15.7290267,8.97558289 Z"></path>
                                            <path d="M32.6519251,77.443658 C28.5084385,77.4445027 24.142738,75.4657005 21.6899358,70.8389198 C15.7662032,59.6631658 1.05530481,21.0537112 0.654812834,16.5756364 C0.301636364,12.6163422 5.02220321,9.98610695 6.62586096,9.21047059 L6.72218182,6.59713369 C4.66818182,6.50419251 3.47431016,5.96766845 3.0831123,4.9664385 C2.76880214,4.16545455 3.08226738,3.26139037 3.94070588,2.48744385 C5.23934759,1.31722995 7.59836364,0.580459893 9.41494118,1.52254545 C12.3459679,3.03917647 12.7388556,8.02589305 12.7540642,8.23712299 C12.7887059,8.71534759 12.4287701,9.13104813 11.9505455,9.16653476 C11.4807701,9.20371123 11.0566203,8.84124064 11.0202888,8.36386096 C10.933262,7.1911123 10.3308342,3.95337968 8.61564706,3.0662139 C7.66426738,2.57362567 6.32929412,2.93947594 5.49028877,3.4844492 C4.87434225,3.8857861 4.69775401,4.2533262 4.70282353,4.3428877 L4.70282353,4.3428877 C4.70620321,4.3428877 5.09909091,4.89968984 7.61103743,4.87265241 C7.86620321,4.88448128 8.07827807,4.96390374 8.24388235,5.13373262 C8.41033155,5.30440642 8.49904813,5.53591444 8.49059893,5.7733369 L8.34104813,9.80951872 C8.32837433,10.1474866 8.12052406,10.4482781 7.80790374,10.5783957 C6.21438503,11.2475722 2.13257754,13.6015187 2.38351872,16.4193262 C2.71557219,20.1378182 17.031893,58.344246 23.2226203,70.0235722 C26.1984278,75.6389091 32.4482995,76.7178717 36.8173797,74.8869305 C40.4716578,73.354246 43.6426417,69.3974866 41.5793476,62.8899144 C38.3694973,52.7643957 26.5583636,34.7211337 20.213016,25.0282139 C14.9297326,16.9575401 14.9297326,16.9575401 15.6546738,16.2858289 C15.7129733,16.231754 15.778877,16.1852834 15.8490053,16.1489519 C19.4263957,14.3171658 23.3138717,11.5052727 23.3569626,10.1550909 C23.4000535,8.77618182 22.098877,5.14218182 20.2037219,3.79453476 C19.5987594,3.36447059 19.0368877,3.25632086 18.4876898,3.4675508 C18.0407273,3.63991444 17.5371551,3.41516578 17.3656364,2.96566845 C17.1941176,2.51786096 17.4188663,2.01513369 17.8675187,1.84361497 C18.9726738,1.42284492 20.1285241,1.60788235 21.2117112,2.3784492 C23.5538289,4.04547594 25.1566417,8.21346524 25.0941176,10.2091658 C25.0087807,12.9061497 19.5843957,16.1134652 17.347893,17.3233904 C18.0196043,18.5037433 19.7998503,21.224385 21.6662781,24.0751444 C28.5067487,34.5234225 39.9537219,52.0098824 43.2362353,62.3635294 C45.6552406,69.9948449 41.6528556,74.7416043 37.4890909,76.4880535 C36.0147059,77.1116043 34.3519037,77.443658 32.6519251,77.443658 Z"></path>
                                        </g>
                                    </g>
                                </g>
                                <g transform="translate(0.000000, 14.363636)" fill-rule="nonzero" id="Shape">
                                    <path d="M14.5824706,14.5748663 C15.1181497,13.1004813 15.1646203,11.2450374 14.0205989,10.1719893 C13.0641497,9.27552941 11.502738,9.23497326 10.3561818,9.86950802 C9.20962567,10.5040428 8.45004278,11.6945348 8.07151872,12.9492406 C7.69383957,14.2039465 7.45641711,15.1587059 7.44881283,16.4691765 C5.43874866,15.9825027 3.42783957,15.494984 1.4177754,15.0083102 C1.4177754,15.0083102 0.976727273,10.9510053 2.65558289,7.58991444 C4.266,4.36823529 7.15816043,1.64674866 10.8166631,1.32905882 C18.1666203,0.691144385 22.5179572,9.15639572 19.1982674,15.2026417 C18.4260107,16.6094332 17.3259251,17.8506203 16.8037647,19.3689412 C16.558738,20.0803636 16.5925348,20.9675294 16.8350267,21.7871016 C15.7112834,22.6303316 14.6475294,23.5580535 13.5364599,24.4215615 C12.5005882,23.5681925 11.7257968,22.0743743 12.7261818,18.8898717 C13.1968021,17.3943636 14.0467914,16.0484064 14.5824706,14.5748663 Z M18.4065775,25.122 C16.9136043,24.8009305 15.4434439,25.7506203 15.1223743,27.2435936 C14.8013048,28.7365668 15.7509947,30.2067273 17.2439679,30.5277968 C18.7369412,30.8488663 20.2071016,29.8991765 20.5281711,28.4062032 C20.8492406,26.9140749 19.8995508,25.4430695 18.4065775,25.122 Z" fill="#D4D4D4"></path>
                                    <path d="M17.832877,31.4597433 C17.5760214,31.4597433 17.3174759,31.4327059 17.0606203,31.3769412 C16.1117754,31.1724706 15.2989626,30.6114439 14.7725775,29.7960963 C14.2461925,28.9807487 14.0687594,28.0090909 14.2732299,27.060246 C14.6948449,25.1017219 16.6314011,23.8495508 18.5899251,24.2720107 C19.5387701,24.4764813 20.350738,25.037508 20.8779679,25.8528556 C21.4043529,26.6682032 21.582631,27.639016 21.3781604,28.587861 C21.1736898,29.5375508 20.6126631,30.3495187 19.7973155,30.8767487 C19.202492,31.2611872 18.5240214,31.4597433 17.832877,31.4597433 Z M17.821893,25.9297433 C17.4611123,25.9297433 17.1070909,26.0328235 16.7970053,26.2330695 C16.3720107,26.5076684 16.0788235,26.9318182 15.9723636,27.4260963 C15.8659037,27.9220642 15.958,28.429016 16.2334439,28.8531658 C16.5080428,29.2781604 16.9321925,29.5713476 17.4273155,29.6778075 C17.9224385,29.7842674 18.4285455,29.6921711 18.854385,29.4167273 C19.2793797,29.1421283 19.5725668,28.7179786 19.6798717,28.2228556 C19.7863316,27.7285775 19.6933904,27.2216257 19.4187914,26.796631 C19.1441925,26.3716364 18.7200428,26.0784492 18.2249198,25.9719893 C18.0905775,25.943262 17.9553904,25.9297433 17.821893,25.9297433 Z M13.5373048,25.290984 C13.3412834,25.290984 13.145262,25.2250802 12.9847273,25.0932727 C11.3177005,23.721123 10.9619893,21.6071337 11.8973155,18.6304813 C12.1727594,17.7551444 12.5631123,16.9414866 12.9399465,16.1540214 C13.2466524,15.5127273 13.5373048,14.9069198 13.7654332,14.2782995 L13.7654332,14.2782995 C14.1600107,13.1934225 14.3078717,11.6328556 13.4266203,10.8065241 C12.7988449,10.2184599 11.660738,10.1424171 10.7777968,10.6299358 C9.93963636,11.0946417 9.25694118,12.0308128 8.90460963,13.2001818 C8.51256684,14.4996684 8.32499465,15.3217754 8.31823529,16.4750909 C8.31739037,16.7412406 8.19403209,16.990492 7.98449198,17.1552513 C7.77495187,17.3183209 7.50204278,17.3740856 7.24434225,17.3149412 L1.21330481,15.8532299 C0.857593583,15.7670481 0.59397861,15.4662567 0.55426738,15.1020963 C0.534834225,14.9263529 0.105614973,10.7507594 1.8791016,7.20209626 C3.83255615,3.29518717 7.14548663,0.776481283 10.7423102,0.464705882 C14.2774545,0.158 17.443369,1.7337754 19.4348449,4.78900535 C21.5691123,8.06391444 21.7761176,12.3163957 19.960385,15.6217219 C19.6612834,16.1666952 19.3207807,16.6812513 18.991262,17.1789091 C18.4412193,18.0086203 17.9224385,18.7927059 17.6267166,19.6528342 C17.4526631,20.1580963 17.4687166,20.8644492 17.6698075,21.5412299 C17.7728877,21.8893369 17.6486845,22.2644813 17.3580321,22.4824706 C16.7344813,22.9514011 16.1295187,23.4456791 15.5245561,23.9408021 C15.0429519,24.3345348 14.5613476,24.7282674 14.0704492,25.1093262 C13.9132941,25.2301497 13.7257219,25.290984 13.5373048,25.290984 Z M15.399508,14.8722781 C15.1418075,15.5811658 14.8190481,16.2545668 14.5072727,16.9043102 C14.1405775,17.6698075 13.7933155,18.3930588 13.555893,19.1509519 C12.8453155,21.4136471 13.1376578,22.5796364 13.6158824,23.2513476 C13.8862567,23.0333583 14.1549412,22.8136791 14.4236257,22.5948449 C14.9001604,22.2061818 15.3758503,21.8175187 15.8591444,21.4406845 C15.7028342,20.6016791 15.7433904,19.7829519 15.9825027,19.086738 C16.3508877,18.0179144 16.9558503,17.1028663 17.5422246,16.2182353 C17.8658289,15.7290267 18.1725348,15.2668556 18.4369947,14.7852513 C19.9477112,12.0341925 19.7668984,8.48299465 17.9782032,5.73785027 C16.3491979,3.23773262 13.7721925,1.95345455 10.8927059,2.19594652 C7.90253476,2.4553369 5.11514439,4.61664171 3.43375401,7.97942246 C2.25762567,10.333369 2.2035508,13.1148449 2.24579679,14.3154759 L6.6402246,15.3809198 C6.74583957,14.4050374 6.97565775,13.5744813 7.23927273,12.6991444 C7.72848128,11.0760535 8.68493048,9.80106952 9.93456684,9.10992513 C11.4731658,8.25993583 13.4418289,8.43905882 14.6145775,9.5399893 C16.1117754,10.9417112 16.0010909,13.2137005 15.399508,14.8722781 L15.399508,14.8722781 Z" fill="#3A3A3A"></path>
                                </g>
                            </g>
                            <path d="M78.4229198,50.2414652 C78.4389733,50.3867914 78.4584064,50.5312727 78.4584064,50.6816684 C78.4584064,52.4796578 77.294107,53.9371444 75.8568984,53.9371444 C74.4196898,53.9371444 73.2553904,52.4796578 73.2553904,50.6816684 C73.2553904,48.8836791 74.4196898,47.4261925 75.8568984,47.4261925 C76.735615,47.4261925 77.5095615,47.9753904 77.9810267,48.811016 C78.7769412,48.3986952 79.4114759,47.8359786 79.6902995,48.1562032 C79.9860214,48.495016 79.3202246,49.6474866 78.4229198,50.2414652 Z M54.4694439,47.4270374 C53.5907273,47.4270374 52.8167807,47.9762353 52.3453155,48.811861 C51.5494011,48.3995401 50.9157112,47.8368235 50.6360428,48.1570481 C50.3403209,48.495861 51.0061176,49.6483316 51.9025775,50.2423102 C51.8865241,50.3876364 51.8670909,50.5321176 51.8670909,50.6825134 C51.8670909,52.4805027 53.0322353,53.9379893 54.4685989,53.9379893 C55.9049626,53.9379893 57.0701074,52.4805027 57.0701074,50.6825134 C57.0709519,48.8845241 55.9066524,47.4270374 54.4694439,47.4270374 Z" id="Shape" fill="#3A3A3A" fill-rule="nonzero"></path>
                        </g>
                    </g>
                </g>
                <g id="Group-63" transform="translate(7.000000, 0.000000)" fill-rule="nonzero">
                    <g id="Group-56">
                        <path d="M23.7515401,43.74814 C20.8509305,48.193263 20.2839893,53.5813164 21.6012193,58.7218084 C22.1951979,61.0394234 23.4735615,63.1153913 24.7874118,65.1136266 C26.102107,67.1127068 27.4835508,69.0999582 28.3250909,71.3389956 C29.1674759,73.578033 29.4217968,76.1457443 28.4568984,78.3349314 C27.492,80.5241186 25.0991872,82.1641079 22.741861,81.7543218 C23.9720642,85.0114876 25.7666738,87.7110063 28.9579358,89.104279 C32.1483529,90.4975517 35.9023316,90.5457122 39.1273904,89.2343967 C40.5603743,92.2549849 42.723369,95.0618084 45.8123957,96.341017 C48.9014225,97.6202255 52.4652941,97.710632 55.6151551,96.5877336 C58.9475187,98.8808459 63.2270374,99.9843111 67.2454759,99.5238298 C71.2639144,99.0633485 74.0445455,99.3725892 76.7711016,96.3841079 C80.674631,97.804418 86.0694439,97.0473699 90.3388235,93.6381186 C94.3885241,90.4046106 95.7522246,85.8369742 95.8164385,81.6841935 C98.7584492,83.6748245 103.057401,84.3904715 106.307807,82.9583325 C109.558214,81.5270384 111.977219,78.3518298 112.49431,74.8386533 C110.360888,75.1850705 108.183529,73.7487068 107.288759,71.7817336 C106.393989,69.8139154 106.394834,67.5723432 106.412578,65.4110384 C106.466652,58.6432309 106.521572,51.8745785 106.576492,45.106771 C106.612824,40.6253164 106.64662,36.1193592 105.935198,31.6945143 C105.22293,27.2696694 103.721508,22.8896052 100.96538,19.3553057 C98.2092513,15.8210063 94.0936471,13.2102041 89.6231765,12.8942041 C86.5079572,6.91217206 80.4786096,2.80501698 73.8696471,1.46328436 C67.2606845,0.121551739 58.6627807,1.1489742 52.2532193,3.24606511 C41.6528556,6.71530575 33.0422781,12.3509207 28.7162888,22.6310598 C25.6255722,29.9759475 28.1045668,37.0766533 23.7515401,43.74814 Z" id="Path" fill="#8B6002"></path>
                        <path d="M112.356588,75.4723432 C109.772824,76.4034448 106.818139,76.3409207 104.327316,75.1681721 C100.704299,73.462279 98.2675508,69.5029849 98.3757005,65.4997549 C100.463497,63.7887924 102.003786,61.2430491 102.48708,58.5874662 C102.971219,55.9318833 102.776043,53.659894 101.425861,51.3228459 C103.867679,45.7032844 101.850856,35.7839261 96.8286524,29.9345464 C97.9642246,36.1556908 95.9364171,41.704279 91.9686738,46.6293164 C88.0009305,51.5543539 82.2605455,54.8808031 76.1619144,56.5554341 C68.5145455,58.6559047 59.9597326,58.1633164 53.130246,54.1313592 C44.7063957,49.1581614 39.6951765,39.3359689 32.1069519,33.16214 C28.0428877,39.7297015 27.1886738,48.8413164 29.8248235,56.735402 C30.0453476,57.3961293 30.3892299,58.0331988 30.4044385,58.7302576 C30.4162674,59.2642469 30.2608021,59.7855624 30.1923636,60.3144822 C29.9338182,62.3160972 30.9299786,64.2602576 32.0655508,65.9289742 C33.2002781,67.5985357 34.5318717,69.2005036 35.0928984,71.1387496 C36.1794652,74.8927282 33.8745241,79.1029635 30.3909198,80.8747603 C28.0555615,82.0627175 25.353508,82.279017 22.7596043,81.794033 C23.9889626,85.0326106 25.7818824,87.7169207 28.9587807,89.104279 C32.1491979,90.4975517 35.9031765,90.5457122 39.1282353,89.2343967 C40.5612193,92.2549849 42.7242139,95.0618084 45.8132406,96.341017 C48.9022674,97.6202255 52.466139,97.710632 55.616,96.5877336 C58.9483636,98.8808459 63.2270374,99.9843111 67.2463209,99.5238298 C71.2647594,99.0633485 74.0453904,99.3725892 76.7719465,96.3849528 C80.6754759,97.805263 86.0702888,97.0482148 90.3396684,93.6389635 C94.389369,90.4054555 95.7530695,85.8378191 95.8172834,81.6850384 C98.7584492,83.6756694 103.058246,84.3913164 106.308652,82.9591774 C109.359658,81.6157549 111.656995,78.728664 112.356588,75.4723432 Z" id="Path" fill="#593F02"></path>
                        <path d="M65.401016,100.498022 C61.9334652,100.498022 58.4245134,99.4629956 55.4867273,97.5492523 C52.2464599,98.5893485 48.6242888,98.4465571 45.4794973,97.1445357 C42.7681497,96.0216373 40.4344813,93.6702255 38.6973262,90.3226533 C35.423262,91.4345678 31.7909519,91.2900865 28.6106738,89.9018833 C25.5706524,88.5745143 23.4482139,86.0828459 21.929893,82.0618726 C21.8200535,81.7695303 21.8749733,81.4417015 22.0735294,81.2008993 C22.2720856,80.9609421 22.5863957,80.8494127 22.8922567,80.898418 C24.7071444,81.2161079 26.8025455,79.9343646 27.6626738,77.9851346 C28.44,76.221787 28.3867701,73.9709207 27.513123,71.6465464 C26.7873369,69.7150598 25.5968449,67.9136908 24.4452193,66.173156 L24.0624706,65.5926961 C22.7384813,63.5792523 21.393369,61.4078084 20.7605241,58.9389528 C19.3131765,53.291509 20.1175401,47.7285571 23.0249091,43.27414 L23.0249091,43.27414 C25.3129519,39.7677229 25.6162781,36.1125999 25.9381925,32.2437122 C26.2051872,29.0287924 26.4814759,25.7048779 27.9153048,22.2973164 C31.9092406,12.8046426 39.5566096,6.48886725 51.9828449,2.42311324 C59.1874759,0.0657870331 67.8462139,-0.643945587 74.0420107,0.614139974 C80.990631,2.0243111 86.9819572,6.29200094 90.1673048,12.0729421 C94.4814652,12.526664 98.6426952,14.9667924 101.65061,18.8230063 C104.236909,22.1393164 105.96646,26.4239047 106.793636,31.5584822 C107.518578,36.0678191 107.481401,40.6675624 107.44507,45.1160651 L107.282,65.4186426 C107.265947,67.3754769 107.248203,69.5942362 108.080449,71.4234876 C108.866225,73.1505036 110.703925,74.2539689 112.356588,73.9827496 C112.629497,73.9396587 112.908321,74.0275303 113.106032,74.2218619 C113.303743,74.4161935 113.39584,74.6933271 113.355283,74.9679261 C112.795947,78.760771 110.168246,82.2105785 106.659294,83.7559368 C103.738406,85.0410598 99.7934759,84.7715303 96.6123529,83.1585785 C96.306492,86.6700651 94.9850374,91.042525 90.882107,94.3191239 C86.805369,97.5745999 81.4291444,98.7481935 77.0178182,97.3853378 C74.6359893,99.7350598 72.1231979,99.953894 69.2377968,100.20568 C68.6379037,100.25722 68.0092834,100.31214 67.3460214,100.388183 C66.7005027,100.461691 66.0516043,100.498022 65.401016,100.498022 Z M55.6143102,95.7200009 C55.7883636,95.7200009 55.9598824,95.772386 56.1068984,95.8729314 C59.3167487,98.0815517 63.3385668,99.0963004 67.1457754,98.6620116 C67.8250909,98.5834341 68.4697647,98.5276694 69.0848663,98.4735945 C72.0961604,98.2116694 74.0859465,98.0384608 76.1281176,95.8002683 C76.3655401,95.5391881 76.7364599,95.4487817 77.0668235,95.5696052 C81.0168235,97.0051239 86.0111444,95.9819261 89.7946952,92.9613378 C93.9601497,89.6357336 94.894631,84.98614 94.9453262,81.6732095 C94.9503957,81.3538298 95.1295187,81.0631774 95.4125668,80.9161614 C95.695615,80.7683004 96.0369626,80.7885785 96.3005775,80.9677015 C99.1741497,82.911017 103.144428,83.4044501 105.955476,82.1666426 C108.611059,80.9972737 110.671818,78.5410918 111.420417,75.7393378 C109.395989,75.5551453 107.411273,74.157648 106.49538,72.1442041 C105.504289,69.9660009 105.523722,67.5444608 105.541465,65.4068138 L105.704535,45.1033913 C105.740021,40.7267068 105.776353,36.2013164 105.074225,31.8356159 C104.295209,26.9942255 102.681412,22.975787 100.277615,19.8935197 C97.5020535,16.3330277 93.4954439,14.0424501 89.5598075,13.7653164 C89.2581711,13.7441935 88.9894866,13.5676052 88.8500749,13.2989207 C85.9680535,7.76469612 80.3020214,3.6600758 73.6939037,2.31834318 C67.7727059,1.11602233 59.4595401,1.80632179 52.5202139,4.07577634 C40.6085348,7.97339131 33.2982888,13.9782362 29.514738,22.9715624 C28.187369,26.125648 27.9229091,29.3093057 27.6668984,32.3881935 C27.3416043,36.3027068 27.0053262,40.3507175 24.4773262,44.2255197 L24.4773262,44.2255197 C21.8394866,48.266771 21.1162353,53.3388245 22.4410695,58.5080437 C23.0071658,60.717509 24.268631,62.7478512 25.5123529,64.6379368 L25.8925668,65.215017 C27.0965775,67.036664 28.3419893,68.9208352 29.1379037,71.0356694 C30.1720856,73.789263 30.2117968,76.506525 29.2502781,78.6881079 C28.2828449,80.8832095 26.2009626,82.4099795 24.0506417,82.6524715 C25.3382995,85.5040758 27.028139,87.3172737 29.3043529,88.3108993 C32.2615722,89.6010918 35.8110802,89.6467175 38.7987166,88.4317229 C39.226246,88.261894 39.7137647,88.4494662 39.910631,88.8651667 C41.0132513,91.189541 42.9895187,94.234632 46.1427594,95.5408779 C49.0306952,96.7372844 52.3765775,96.8217763 55.321123,95.771541 C55.4174439,95.7360544 55.5162995,95.7200009 55.6143102,95.7200009 Z" id="Shape" fill="#3A3A3A"></path>
                        <g id="Group" transform="translate(88.716578, 104.648268)">
                            <path d="M3.30786096,34.7929519 L2.09117647,34.7929519 L0.542438503,0.482449198 C3.06705882,10.2970374 5.40157219,22.5534439 7.25194652,33.4106631 L3.30786096,34.7929519 Z" id="Path" fill="#CCCCCC"></path>
                            <polygon id="Path" fill="#FFFFFF" points="18.0246738 25.1515722 19.4416043 29.1395936 3.31208556 34.7929519 2.46716578 30.6055294"></polygon>
                            <path d="M3.31208556,34.7929519 L2.46716578,30.6046845 L6.51940107,29.1843743 C6.77118717,30.6105989 7.0162139,32.0224599 7.25279144,33.411508 L3.31208556,34.7929519 Z" id="Path" fill="#E3E3E3"></path>
                        </g>
                        <polygon id="Path" fill="#FFFFFF" points="106.739561 129.799841 108.156492 133.787862 92.0269733 139.44122 91.1820535 135.253798"></polygon>
                        <path d="M64.9075829,102.257145 C59.2305668,102.257145 54.9637219,99.3751239 52.3850267,96.9578084 C52.034385,96.6299795 52.0166417,96.0799368 52.3453155,95.73014 C52.6748342,95.3803432 53.2240321,95.3617549 53.5738289,95.6904287 C55.9243957,97.8931346 59.7991979,100.51999 64.9084278,100.51999 C69.9813262,100.51999 73.8375401,97.9260865 76.1788128,95.7495731 C76.5302995,95.4225892 77.0803422,95.4428672 77.4073262,95.7943539 C77.7343102,96.1458405 77.7140321,96.6950384 77.3625455,97.0220223 C74.7922995,99.4106106 70.5457326,102.257145 64.9075829,102.257145 Z" id="Path" fill="#FFFFFF"></path>
                        <path d="M80.6171765,128.17168 C80.6171765,130.0643 82.1515508,131.59783 84.0433262,131.59783 C85.9359465,131.59783 87.4694759,130.063455 87.4694759,128.17168 C87.4694759,126.279905 85.9351016,124.74553 84.0433262,124.74553 C82.1515508,124.744685 80.6171765,126.27906 80.6171765,128.17168 Z" id="Path" fill="#FFFFFF"></path>
                        <g id="Group" transform="translate(25.347594, 46.348803)">
                            <path d="M70.7848449,1.43805348 C70.7848449,1.43805348 77.2501711,0.757893048 77.5408235,8.03856684 C77.8314759,15.3200856 71.7919893,16.6728021 69.2014652,16.1768342 L70.7848449,1.43805348 Z" id="Path" fill="#FFE4A3"></path>
                            <path d="M75.2755936,14.3695508 C73.3601604,16.1210695 70.7037326,16.4649519 69.2014652,16.1776791 L70.7848449,1.43805348 C70.7848449,1.43805348 72.385123,1.27075936 74.028492,1.99739037 C73.1007701,6.11045989 73.5536471,10.5217861 75.2755936,14.3695508 Z" id="Path" fill="#FFE4A3"></path>
                            <path d="M70.236492,17.137508 C69.8030481,17.137508 69.3983316,17.1003316 69.0383957,17.0310481 C68.5939679,16.9465561 68.2889519,16.5350802 68.3371123,16.0855829 L69.920492,1.34595722 C69.9644278,0.938705882 70.2863422,0.617636364 70.6935936,0.574545455 C70.8169519,0.560181818 73.7496684,0.27713369 75.9920856,2.21706952 C77.4943529,3.51571123 78.3080107,5.46325134 78.4094011,8.00477005 C78.5640214,11.8652086 77.0220428,14.030738 75.7022781,15.168 C74.069893,16.5731016 71.9347807,17.137508 70.236492,17.137508 Z M70.1596043,15.3978197 C71.4041711,15.3986631 73.1827273,15.0437968 74.5683957,13.8507701 C76.0664385,12.5605775 76.7744813,10.617262 76.6730909,8.07405348 C76.5919786,6.04033155 75.9853262,4.51525134 74.8683422,3.54274866 C73.7674118,2.58291979 72.3834332,2.35056684 71.5663957,2.30240642 L70.1596043,15.3978197 Z" id="Shape" fill="#3A3A3A"></path>
                            <path d="M8.33597861,1.43805348 C8.33597861,1.43805348 1.87065241,0.757893048 1.58,8.03856684 C1.28934759,15.3200856 7.32883422,16.6728021 9.91935829,16.1768342 L8.33597861,1.43805348 Z" id="Path" fill="#FFE4A3"></path>
                            <path d="M3.84522995,14.3695508 C5.7606631,16.1210695 8.41709091,16.4649519 9.91935829,16.1776791 L8.33597861,1.43805348 C8.33597861,1.43805348 6.73570053,1.27075936 5.09233155,1.99739037 C6.02005348,6.11045989 5.56717647,10.5217861 3.84522995,14.3695508 Z" id="Path" fill="#FFE4A3"></path>
                            <path d="M8.88348663,17.137508 C7.18604278,17.137508 5.05093048,16.5731016 3.41939037,15.168 C2.09878075,14.030738 0.556802139,11.8652086 0.71142246,8.00477005 C0.812812834,5.46325134 1.62647059,3.51655615 3.12873797,2.21706952 C5.372,0.27713369 8.30387166,0.559336898 8.42722995,0.574545455 C8.83448128,0.617636364 9.15639572,0.938705882 9.20033155,1.34595722 L10.7837112,16.0855829 C10.8318717,16.5350802 10.5277005,16.9474011 10.0824278,17.0310481 C9.72164706,17.1003316 9.31693048,17.137508 8.88348663,17.137508 Z M7.55442781,2.30240642 C6.73823529,2.34972193 5.35425668,2.58291979 4.2533262,3.54274866 C3.13718717,4.51525134 2.52968984,6.04033155 2.44857754,8.07405348 C2.34718717,10.617262 3.05522995,12.5614225 4.55411765,13.8507701 C5.93809626,15.0437968 7.70566845,15.3800749 8.96206417,15.3978182 L7.55442781,2.30240642 Z" id="Shape" fill="#3A3A3A"></path>
                        </g>
                        <path d="M58.280877,86.6861186 L58.280877,94.6199154 C58.280877,94.6199154 60.735369,96.52014 64.9075829,96.52014 C69.0806417,96.52014 71.5351337,94.6199154 71.5351337,94.6199154 L71.5351337,86.6861186 L58.280877,86.6861186 Z" id="Path" fill="#FFE4A3"></path>
                        <path d="M70.3674545,87.5707496 C67.2843422,87.8183111 64.1809519,87.9070277 61.0834759,87.8368993 C60.5435722,88.1402255 59.4899572,88.1588138 58.9002032,88.3962362 C58.5537861,88.535648 58.3695936,88.8077122 58.2817219,89.1110384 L58.2817219,89.9669421 C58.4354973,90.6276694 58.8300749,91.3357122 59.4240535,91.7987282 C63.2185882,92.1992202 67.0528342,90.9909849 70.1173583,89.1828566 C70.4603957,88.9800758 70.8135722,88.7511025 70.9453797,88.4291881 C71.0771872,88.1081186 70.794139,87.5369528 70.3674545,87.5707496 Z" id="Path" fill-opacity="0.1" fill="#001436"></path>
                        <path d="M64.9075829,97.3895624 C60.4886524,97.3895624 57.8584171,95.393017 57.7485775,95.3076801 C57.5365027,95.1429207 57.4122995,94.8894448 57.4122995,94.6199154 L57.4122995,86.6852737 C57.4122995,86.2053592 57.8009626,85.8166961 58.280877,85.8166961 L71.5351337,85.8166961 C72.0150481,85.8166961 72.4037112,86.2053592 72.4037112,86.6852737 L72.4037112,94.6199154 C72.4037112,94.8885999 72.279508,95.1420758 72.0674332,95.3076801 C71.9575936,95.393017 69.3273583,97.3895624 64.9075829,97.3895624 Z M59.1494545,94.1543646 C59.9157968,94.6190705 61.9528984,95.6515624 64.9075829,95.6515624 C67.8605775,95.6515624 69.8976791,94.6190705 70.6657112,94.1543646 L70.6657112,87.5546961 L59.1494545,87.5546961 L59.1494545,94.1543646 Z" id="Shape" fill="#3A3A3A"></path>
                        <path d="M97.0838182,46.9402469 C97.0838182,66.0734555 88.0964064,89.2022897 65.1644385,89.2022897 C42.2324706,89.2022897 33.2450588,66.0743004 33.2450588,46.9402469 C33.2450588,46.9402469 43.6510909,10.6061614 59.1291765,10.6061614 C74.6064171,10.6053164 97.0838182,46.9402469 97.0838182,46.9402469 Z" id="Path" fill="#FFE4A3"></path>
                        <path d="M68.7502781,83.532033 C67.1069091,84.3625892 65.759262,85.7660009 64.9971444,87.4431667 C64.8551979,87.755787 64.7352193,88.1309314 64.9042032,88.430033 C65.0892406,88.757017 65.5235294,88.8288352 65.8995187,88.8364394 C67.6865241,88.8753057 69.5250695,88.2365464 70.7425989,86.9277656 C71.9601283,85.6189849 72.4577861,83.6131453 71.7860749,81.9562576 C71.3095401,80.7801293 69.4921176,79.0488886 68.0473048,79.540632 C66.265369,80.1472844 67.9273262,82.6195197 68.7502781,83.532033 Z" id="Path" fill-opacity="0.1" fill="#001436"></path>
                        <path d="M64.1336364,89.4430918 C62.5772941,89.4430918 61.2693583,89.3552202 60.0476043,89.1693378 C40.7555508,86.2374662 32.1196257,65.5741079 32.1196257,46.3969635 C32.1196257,45.9170491 32.5082888,45.528386 32.9882032,45.528386 C33.4681176,45.528386 33.8567807,45.9170491 33.8567807,46.3969635 C33.8567807,64.8305785 42.0356043,84.6743646 60.3078396,87.4516159 C61.5490267,87.6408779 62.8975187,87.7194555 64.5552513,87.703402 L65.7153262,87.6907282 C67.8208663,87.6696052 69.645893,87.4828779 71.2934866,87.1195624 C88.3312941,83.3765678 95.958385,63.9704501 95.958385,46.3969635 C95.958385,45.9170491 96.3470481,45.528386 96.8269626,45.528386 C97.306877,45.528386 97.6955401,45.9170491 97.6955401,46.3969635 C97.6955401,64.6658191 89.6468342,84.8670063 71.6652513,88.8178512 C69.899369,89.2056694 67.9577433,89.4050705 65.7313797,89.4287282 L64.5713048,89.441402 C64.4242888,89.4422469 64.2781176,89.4430918 64.1336364,89.4430918 Z" id="Path" fill="#3A3A3A"></path>
                        <path d="M46.1326203,44.6065785 C45.2082781,43.3062469 48.3218075,41.440664 51.2536791,40.808664 C52.6376578,40.5104074 56.1567487,39.9950063 55.9750909,42.1318084 C55.8230053,43.9205036 53.6126952,44.7578191 51.8924385,45.1329635 C50.3546845,45.4683967 47.1549733,46.044632 46.1326203,44.6065785 Z" id="Path" fill="#3A3A3A"></path>
                        <path d="M83.6833904,44.6065785 C84.6077326,43.3062469 81.4942032,41.440664 78.5623316,40.808664 C77.1783529,40.5104074 73.659262,39.9950063 73.8409198,42.1318084 C73.9930053,43.9205036 76.2033155,44.7578191 77.9235722,45.1329635 C79.4613262,45.4683967 82.6610374,46.044632 83.6833904,44.6065785 Z" id="Path" fill="#3A3A3A"></path>
                        <path d="M65.0799465,54.8191239 C64.2781176,54.1524822 61.9858503,59.7213485 62.4987166,60.7648245 C62.7876791,61.3528886 65.3359572,62.5619689 66.0135829,61.9865785 C66.4875829,61.5835517 64.5746845,60.5307817 64.3744385,59.8970918 C63.9883102,58.6753378 65.7111016,55.344664 65.0799465,54.8191239 Z" id="Path" fill="#3A3A3A"></path>
                        <path d="M57.7257647,70.76614 C58.6475722,71.2967496 60.8232406,69.4142683 64.9075829,69.4142683 C68.9919251,69.4142683 71.1684385,71.2975945 72.0894011,70.76614 C73.0103636,70.2355303 70.8760963,67.806386 67.5454225,66.9732951 C67.5369733,66.9707603 67.5276791,66.9690705 67.5192299,66.9665357 C65.8082674,66.542386 64.0060535,66.542386 62.2950909,66.9665357 C62.2866417,66.9690705 62.2773476,66.9707603 62.2688984,66.9732951 C58.9390695,67.806386 56.8048021,70.2355303 57.7257647,70.76614 Z" id="Path" fill="#3A3A3A" transform="translate(64.907581, 68.754536) scale(1, -1) translate(-64.907581, -68.754536) "></path>
                        <path d="M32.5623636,31.2965571 C31.368492,36.8552844 30.5691979,51.3067924 34.6248128,59.2338298 C34.5115936,55.6674234 34.896877,53.5407603 36.9956578,50.6553592 C38.0416684,49.2173057 39.5354866,48.1552416 40.5975508,46.729017 C42.702246,43.9019154 42.9033369,39.9443111 45.1972941,37.2684501 C47.0992086,35.0505357 50.1147273,34.120279 53.0178717,33.8008993 C55.921861,33.4815197 58.8748556,33.6648672 61.7543422,33.1680544 C64.9717968,32.613787 68.0363209,31.2002362 70.5465775,29.1132844 C72.396107,27.5755303 73.9372406,25.6922041 75.7952193,24.1645892 C76.724631,23.4007817 77.7706417,22.7214662 78.8834011,22.2635197 C79.4402032,22.0345464 80.0130588,21.8604929 80.5968984,21.7582576 C81.180738,21.6560223 81.7747166,21.6264501 82.3729198,21.6864394 C81.2086203,30.486279 84.393123,40.1217443 90.6759465,46.391894 C90.6759465,46.391894 94.4932941,49.1057763 96.5878503,54.7642041 C96.5878503,54.7642041 103.445219,38.6228566 96.5329305,25.7589528 C89.6206417,12.895894 73.9921604,-0.558608689 56.6206096,6.29115602 C39.2499037,13.1400758 32.5623636,31.2965571 32.5623636,31.2965571 Z" id="Path" fill="#8B6002"></path>
                        <path d="M34.3434545,60.1725357 C34.0232299,60.1725357 33.7207487,59.9951025 33.569508,59.6993806 C29.356738,51.4631025 30.5303316,36.6212416 31.7123743,31.1140544 C31.8129198,30.6451239 32.2734011,30.3426426 32.7440214,30.4465678 C33.2137968,30.5471132 33.5120535,31.0092844 33.4106631,31.4790598 C32.3207166,36.5561828 31.5738075,47.6702576 33.769754,55.3919795 C34.1643316,53.5787817 34.960246,51.9751239 36.2918396,50.1441828 C36.866385,49.3533378 37.5524599,48.6833164 38.214877,48.034418 C38.8333583,47.4286106 39.4180428,46.8574448 39.8996471,46.2110812 C40.8214545,44.9724287 41.353754,43.4819902 41.9173155,41.9028352 C42.5611444,40.0972416 43.2277861,38.2299689 44.5374118,36.7031988 C46.3235722,34.6196266 49.1447594,33.3530918 52.9232406,32.9373913 C54.1897754,32.7979795 55.4698289,32.751509 56.7084813,32.7067282 C58.4059251,32.645894 60.0104278,32.5875945 61.6073262,32.3121507 C64.6879037,31.781541 67.5868235,30.444033 69.9914652,28.4449528 C70.8718717,27.7132523 71.7074973,26.8725571 72.5160856,26.0588993 C73.3779037,25.1920116 74.2676043,24.2955517 75.2443316,23.4928779 C76.3292086,22.6014876 77.4428128,21.9171025 78.5530374,21.4600009 C79.1875722,21.1980758 79.8254866,21.0113485 80.4481925,20.9023539 C81.1283529,20.7832202 81.8051337,20.7570277 82.4607914,20.8220865 C82.6948342,20.8457443 82.9094439,20.9631881 83.055615,21.1473806 C83.2017861,21.332418 83.266,21.5681507 83.2355829,21.8005036 C82.1042353,30.3519368 85.2659251,39.7643432 91.291893,45.7776373 C91.6315508,46.1156052 91.6323957,46.6664929 91.292738,47.0061507 C90.9547701,47.3449635 90.4038824,47.3474983 90.0642246,47.0069956 C83.8946203,40.85091 80.5529626,31.3421828 81.4029519,22.5364287 C81.1866524,22.5499475 80.9678182,22.57614 80.748139,22.6141614 C80.2487914,22.7011881 79.7333904,22.8532737 79.2162995,23.0670384 C78.2649198,23.4582362 77.3000214,24.0539047 76.3486417,24.8354555 C75.4403529,25.5832095 74.6190909,26.4086961 73.7496684,27.2831881 C72.9123529,28.1255731 72.0471551,28.9966854 71.1033797,29.7816159 C68.4646952,31.9750277 65.2835722,33.4426533 61.9030481,34.0248031 C60.1903957,34.3196801 58.4523957,34.3830491 56.7718503,34.4430384 C55.5653048,34.4869742 54.3173583,34.5317549 53.1141925,34.6644074 C49.7894332,35.0302576 47.347615,36.0957015 45.8580214,37.8337015 C44.7579358,39.1162897 44.1740963,40.7537443 43.555615,42.4866747 C42.9743102,44.116525 42.3727273,45.8012951 41.2954545,47.2486426 C40.7335829,48.0040009 40.0720107,48.6503646 39.4324064,49.2756052 C38.7928021,49.9016908 38.1878396,50.4931346 37.6994759,51.1656908 C35.7088449,53.902386 35.1047273,55.8727389 35.212877,59.2760758 C35.2263957,59.6816373 34.9551765,60.043263 34.5614439,60.1446533 C34.4879358,60.1640865 34.4152727,60.1725357 34.3434545,60.1725357 Z" id="Path" fill="#3A3A3A"></path>
                        <path d="M38.7860428,40.37691 C38.7361925,40.37691 38.6846524,40.3726854 38.6339572,40.3633913 C38.1616471,40.2797443 37.8456471,39.8285571 37.930139,39.3570918 C38.9778396,33.4308245 44.0676364,28.5522576 50.0310802,27.7554983 C51.3533797,27.5780651 52.7001818,27.5882041 54.004738,27.5958084 C56.2471551,27.611017 58.365369,27.6245357 60.2208128,26.7407496 C62.357615,25.7234662 63.7559572,23.7108672 65.2371016,21.5808245 C66.0710374,20.3810384 66.9328556,19.1406961 67.9535187,18.0600437 C71.8950695,13.88614 78.4009519,12.3838726 83.7729519,14.412525 C84.2224492,14.581509 84.4488877,15.0833913 84.2799037,15.5320437 C84.1100749,15.9806961 83.6073476,16.2105143 83.160385,16.0381507 C78.4246096,14.2536801 72.6918289,15.5742897 69.2183636,19.2539154 C68.2864171,20.2407817 67.4617754,21.4262041 66.665016,22.5744501 C65.1196578,24.7965892 63.5219144,27.094771 60.9694118,28.3106106 C58.7540321,29.3650705 56.3350267,29.3473271 53.9945989,29.3338084 C52.7500321,29.3245143 51.4649091,29.31691 50.2625882,29.4782897 C45.1128021,30.1668993 40.5477005,34.5435838 39.6427914,39.6595731 C39.5667487,40.0803432 39.2000535,40.37691 38.7860428,40.37691 Z" id="Path" fill="#3A3A3A"></path>
                        <path d="M92.7755722,19.5885036 C92.5051979,19.5885036 92.2390481,19.4634555 92.0692193,19.2268779 C91.3839893,18.2746533 90.344738,17.5471774 89.2167701,17.2303325 C88.7545989,17.1002148 88.4850695,16.6203004 88.6151872,16.1581293 C88.7453048,15.6951132 89.2243743,15.4255838 89.6873904,15.5565464 C91.2090909,15.9849207 92.555893,16.9270063 93.4802353,18.2121293 C93.7599037,18.6016373 93.6720321,19.1449207 93.2825241,19.4254341 C93.1287487,19.5361186 92.9513155,19.5885036 92.7755722,19.5885036 Z" id="Path" fill="#3A3A3A"></path>
                        <path d="M84.2883529,12.8705464 C84.077123,12.8705464 83.8650481,12.7936587 83.6969091,12.6381935 C81.1545455,10.2800223 77.703893,8.9763111 74.2431016,9.10389398 C73.7707914,9.11234318 73.3626952,8.74311324 73.3466417,8.2631988 C73.3305882,7.78412928 73.7074225,7.38194746 74.1873369,7.3667389 C78.1111444,7.2467603 82.0036898,8.69664265 84.8789519,11.3640544 C85.2304385,11.6901935 85.2507166,12.2402362 84.9245775,12.5917229 C84.7539037,12.7776052 84.5215508,12.8705464 84.2883529,12.8705464 Z" id="Path" fill="#3A3A3A"></path>
                        <path d="M96.5895401,55.6327817 C96.5582781,55.6327817 96.527861,55.6310918 96.4965989,55.6277122 C96.1417326,55.5896908 95.8460107,55.3379047 95.7513797,54.9940223 C95.7420856,54.9619154 94.8405561,51.7520651 92.4916791,48.7449956 C92.1959572,48.3673164 92.2635508,47.8206533 92.6412299,47.5257763 C93.0180642,47.2300544 93.5655722,47.2959582 93.8612941,47.6761721 C95.2241497,49.4209314 96.1332834,51.2028672 96.6926203,52.5133378 C99.6692727,45.5097977 99.8255829,36.7758619 97.001016,29.6920544 C96.8235829,29.2467817 97.0407273,28.7406747 97.4868449,28.5632416 C97.9338075,28.3858084 98.4382246,28.6037977 98.6156578,29.0482255 C101.875358,37.2202897 101.381925,47.4733913 97.360107,55.1672309 C97.2080214,55.4553485 96.9097647,55.6327817 96.5895401,55.6327817 Z" id="Path" fill="#3A3A3A"></path>
                        <g id="Group" transform="translate(63.368984, 75.076076)">
                            <path d="M18.180984,2.65727273 C21.4964492,1.38989305 24.3032727,7.83916578 24.2289198,10.1838182 C24.1435829,12.8850267 16.2486524,16.9245882 16.2486524,16.9245882 C16.2486524,16.9245882 41.3883957,53.0423743 42.8560214,64.3651444 C44.7587807,79.0414011 28.260877,80.1955615 22.457123,70.4325134 C14.546139,57.122492 1.88417112,20.5788663 1.5200107,16.4979037 C1.15585027,12.4177861 7.47416043,9.77825668 7.47416043,9.77825668 L7.62371123,5.74207487 C-0.063368984,5.84346524 5.80206417,0.63284492 9.01529412,2.29564706 L16.6888556,1.86558289 L18.180984,2.65727273 Z" id="Path" fill="#FFE4A3"></path>
                            <g transform="translate(5.069519, 10.139037)" fill="#FFE4A3" id="Path">
                                <path d="M37.4696578,60.0121176 C33.5813369,59.9115722 29.6186631,59.6859786 26.2558824,57.806877 C22.4621925,55.6869733 20.0524813,51.802877 17.8066845,48.0826952 C11.9285775,38.3433048 6.04962567,28.6039144 0.171518717,18.865369 C4.60312299,31.8923422 12.0679893,51.3423957 17.3884492,60.2934759 C22.3050374,68.5652406 34.8926524,68.9961497 37.4696578,60.0121176 Z"></path>
                                <path d="M14.3281497,12.0654545 C13.7705027,11.4342995 13.2517219,10.6130374 13.2542567,9.81712299 C11.9615294,7.91013904 11.1799786,6.78639572 11.1799786,6.78639572 C11.1799786,6.78639572 17.0293583,3.78862032 18.7065241,1.23104813 L18.1742246,0.51455615 C12.6560535,2.73500535 6.91989305,4.41217112 1.07473797,5.51394652 C6.61065241,7.5071123 11.7063636,10.7144278 15.8980107,14.8443957 C15.9140642,13.7527594 15.0505561,12.882492 14.3281497,12.0654545 Z"></path>
                            </g>
                            <g fill="#3A3A3A" id="Path">
                                <path d="M19.3385241,8.60550802 C18.9067701,8.60550802 18.5324706,8.28359358 18.4775508,7.84508021 C18.2781497,6.2600107 17.5498289,3.47008556 16.442984,2.73078075 C15.1350481,1.85544385 13.819508,2.89807487 13.8059893,2.90905882 C13.4342246,3.21069519 12.8858717,3.15408556 12.5833904,2.78147594 C12.2809091,2.40886631 12.3383636,1.86135829 12.7118182,1.55972193 C13.5102674,0.911668449 15.5194866,0.0211229947 17.4087273,1.28681283 C19.5328556,2.70627807 20.139508,7.13027807 20.2020321,7.63047059 C20.2611765,8.10700535 19.9232086,8.5404492 19.4475187,8.59959358 C19.4111872,8.60297326 19.3748556,8.60550802 19.3385241,8.60550802 Z"></path>
                                <path d="M15.7290267,8.97558289 C15.2634759,8.97558289 14.8781925,8.60719786 14.8612941,8.13826738 C14.8165134,6.94017112 14.2859037,3.63146524 12.3907487,2.72148663 C11.4824599,2.2888877 10.4229305,3.20816043 10.4127914,3.21745455 C10.0553904,3.53514439 9.50619251,3.50472727 9.18765775,3.14901604 C8.86912299,2.79245989 8.89531551,2.24748663 9.2493369,1.92726203 C9.32706952,1.85628877 11.1765989,0.214609626 13.1427273,1.15500535 C16.3753904,2.70712299 16.5908449,7.85944385 16.5976043,8.07658824 C16.6145027,8.55565775 16.2393583,8.95783957 15.7602888,8.97558289 C15.7501497,8.97473797 15.7391658,8.97558289 15.7290267,8.97558289 Z"></path>
                                <path d="M32.6519251,77.443658 C28.5084385,77.4445027 24.142738,75.4657005 21.6899358,70.8389198 C15.7662032,59.6631658 1.05530481,21.0537112 0.654812834,16.5756364 C0.301636364,12.6163422 5.02220321,9.98610695 6.62586096,9.21047059 L6.72218182,6.59713369 C4.66818182,6.50419251 3.47431016,5.96766845 3.0831123,4.9664385 C2.76880214,4.16545455 3.08226738,3.26139037 3.94070588,2.48744385 C5.23934759,1.31722995 7.59836364,0.580459893 9.41494118,1.52254545 C12.3459679,3.03917647 12.7388556,8.02589305 12.7540642,8.23712299 C12.7887059,8.71534759 12.4287701,9.13104813 11.9505455,9.16653476 C11.4807701,9.20371123 11.0566203,8.84124064 11.0202888,8.36386096 C10.933262,7.1911123 10.3308342,3.95337968 8.61564706,3.0662139 C7.66426738,2.57362567 6.32929412,2.93947594 5.49028877,3.4844492 C4.87434225,3.8857861 4.69775401,4.2533262 4.70282353,4.3428877 L4.70282353,4.3428877 C4.70620321,4.3428877 5.09909091,4.89968984 7.61103743,4.87265241 C7.86620321,4.88448128 8.07827807,4.96390374 8.24388235,5.13373262 C8.41033155,5.30440642 8.49904813,5.53591444 8.49059893,5.7733369 L8.34104813,9.80951872 C8.32837433,10.1474866 8.12052406,10.4482781 7.80790374,10.5783957 C6.21438503,11.2475722 2.13257754,13.6015187 2.38351872,16.4193262 C2.71557219,20.1378182 17.031893,58.344246 23.2226203,70.0235722 C26.1984278,75.6389091 32.4482995,76.7178717 36.8173797,74.8869305 C40.4716578,73.354246 43.6426417,69.3974866 41.5793476,62.8899144 C38.3694973,52.7643957 26.5583636,34.7211337 20.213016,25.0282139 C14.9297326,16.9575401 14.9297326,16.9575401 15.6546738,16.2858289 C15.7129733,16.231754 15.778877,16.1852834 15.8490053,16.1489519 C19.4263957,14.3171658 23.3138717,11.5052727 23.3569626,10.1550909 C23.4000535,8.77618182 22.098877,5.14218182 20.2037219,3.79453476 C19.5987594,3.36447059 19.0368877,3.25632086 18.4876898,3.4675508 C18.0407273,3.63991444 17.5371551,3.41516578 17.3656364,2.96566845 C17.1941176,2.51786096 17.4188663,2.01513369 17.8675187,1.84361497 C18.9726738,1.42284492 20.1285241,1.60788235 21.2117112,2.3784492 C23.5538289,4.04547594 25.1566417,8.21346524 25.0941176,10.2091658 C25.0087807,12.9061497 19.5843957,16.1134652 17.347893,17.3233904 C18.0196043,18.5037433 19.7998503,21.224385 21.6662781,24.0751444 C28.5067487,34.5234225 39.9537219,52.0098824 43.2362353,62.3635294 C45.6552406,69.9948449 41.6528556,74.7416043 37.4890909,76.4880535 C36.0147059,77.1116043 34.3519037,77.443658 32.6519251,77.443658 Z"></path>
                            </g>
                        </g>
                        <g id="Group" transform="translate(0.000000, 14.241851)">
                            <path d="M14.5824706,14.5748663 C15.1181497,13.1004813 15.1646203,11.2450374 14.0205989,10.1719893 C13.0641497,9.27552941 11.502738,9.23497326 10.3561818,9.86950802 C9.20962567,10.5040428 8.45004278,11.6945348 8.07151872,12.9492406 C7.69383957,14.2039465 7.45641711,15.1587059 7.44881283,16.4691765 C5.43874866,15.9825027 3.42783957,15.494984 1.4177754,15.0083102 C1.4177754,15.0083102 0.976727273,10.9510053 2.65558289,7.58991444 C4.266,4.36823529 7.15816043,1.64674866 10.8166631,1.32905882 C18.1666203,0.691144385 22.5179572,9.15639572 19.1982674,15.2026417 C18.4260107,16.6094332 17.3259251,17.8506203 16.8037647,19.3689412 C16.558738,20.0803636 16.5925348,20.9675294 16.8350267,21.7871016 C15.7112834,22.6303316 14.6475294,23.5580535 13.5364599,24.4215615 C12.5005882,23.5681925 11.7257968,22.0743743 12.7261818,18.8898717 C13.1968021,17.3943636 14.0467914,16.0484064 14.5824706,14.5748663 Z M18.4065775,25.122 C16.9136043,24.8009305 15.4434439,25.7506203 15.1223743,27.2435936 C14.8013048,28.7365668 15.7509947,30.2067273 17.2439679,30.5277968 C18.7369412,30.8488663 20.2071016,29.8991765 20.5281711,28.4062032 C20.8492406,26.9140749 19.8995508,25.4430695 18.4065775,25.122 Z" id="Shape" fill="#FFD001"></path>
                            <path d="M17.832877,31.4597433 C17.5760214,31.4597433 17.3174759,31.4327059 17.0606203,31.3769412 C16.1117754,31.1724706 15.2989626,30.6114439 14.7725775,29.7960963 C14.2461925,28.9807487 14.0687594,28.0090909 14.2732299,27.060246 C14.6948449,25.1017219 16.6314011,23.8495508 18.5899251,24.2720107 C19.5387701,24.4764813 20.350738,25.037508 20.8779679,25.8528556 C21.4043529,26.6682032 21.582631,27.639016 21.3781604,28.587861 C21.1736898,29.5375508 20.6126631,30.3495187 19.7973155,30.8767487 C19.202492,31.2611872 18.5240214,31.4597433 17.832877,31.4597433 Z M17.821893,25.9297433 C17.4611123,25.9297433 17.1070909,26.0328235 16.7970053,26.2330695 C16.3720107,26.5076684 16.0788235,26.9318182 15.9723636,27.4260963 C15.8659037,27.9220642 15.958,28.429016 16.2334439,28.8531658 C16.5080428,29.2781604 16.9321925,29.5713476 17.4273155,29.6778075 C17.9224385,29.7842674 18.4285455,29.6921711 18.854385,29.4167273 C19.2793797,29.1421283 19.5725668,28.7179786 19.6798717,28.2228556 C19.7863316,27.7285775 19.6933904,27.2216257 19.4187914,26.796631 C19.1441925,26.3716364 18.7200428,26.0784492 18.2249198,25.9719893 C18.0905775,25.943262 17.9553904,25.9297433 17.821893,25.9297433 Z M13.5373048,25.290984 C13.3412834,25.290984 13.145262,25.2250802 12.9847273,25.0932727 C11.3177005,23.721123 10.9619893,21.6071337 11.8973155,18.6304813 C12.1727594,17.7551444 12.5631123,16.9414866 12.9399465,16.1540214 C13.2466524,15.5127273 13.5373048,14.9069198 13.7654332,14.2782995 L13.7654332,14.2782995 C14.1600107,13.1934225 14.3078717,11.6328556 13.4266203,10.8065241 C12.7988449,10.2184599 11.660738,10.1424171 10.7777968,10.6299358 C9.93963636,11.0946417 9.25694118,12.0308128 8.90460963,13.2001818 C8.51256684,14.4996684 8.32499465,15.3217754 8.31823529,16.4750909 C8.31739037,16.7412406 8.19403209,16.990492 7.98449198,17.1552513 C7.77495187,17.3183209 7.50204278,17.3740856 7.24434225,17.3149412 L1.21330481,15.8532299 C0.857593583,15.7670481 0.59397861,15.4662567 0.55426738,15.1020963 C0.534834225,14.9263529 0.105614973,10.7507594 1.8791016,7.20209626 C3.83255615,3.29518717 7.14548663,0.776481283 10.7423102,0.464705882 C14.2774545,0.158 17.443369,1.7337754 19.4348449,4.78900535 C21.5691123,8.06391444 21.7761176,12.3163957 19.960385,15.6217219 C19.6612834,16.1666952 19.3207807,16.6812513 18.991262,17.1789091 C18.4412193,18.0086203 17.9224385,18.7927059 17.6267166,19.6528342 C17.4526631,20.1580963 17.4687166,20.8644492 17.6698075,21.5412299 C17.7728877,21.8893369 17.6486845,22.2644813 17.3580321,22.4824706 C16.7344813,22.9514011 16.1295187,23.4456791 15.5245561,23.9408021 C15.0429519,24.3345348 14.5613476,24.7282674 14.0704492,25.1093262 C13.9132941,25.2301497 13.7257219,25.290984 13.5373048,25.290984 Z M15.399508,14.8722781 C15.1418075,15.5811658 14.8190481,16.2545668 14.5072727,16.9043102 C14.1405775,17.6698075 13.7933155,18.3930588 13.555893,19.1509519 C12.8453155,21.4136471 13.1376578,22.5796364 13.6158824,23.2513476 C13.8862567,23.0333583 14.1549412,22.8136791 14.4236257,22.5948449 C14.9001604,22.2061818 15.3758503,21.8175187 15.8591444,21.4406845 C15.7028342,20.6016791 15.7433904,19.7829519 15.9825027,19.086738 C16.3508877,18.0179144 16.9558503,17.1028663 17.5422246,16.2182353 C17.8658289,15.7290267 18.1725348,15.2668556 18.4369947,14.7852513 C19.9477112,12.0341925 19.7668984,8.48299465 17.9782032,5.73785027 C16.3491979,3.23773262 13.7721925,1.95345455 10.8927059,2.19594652 C7.90253476,2.4553369 5.11514439,4.61664171 3.43375401,7.97942246 C2.25762567,10.333369 2.2035508,13.1148449 2.24579679,14.3154759 L6.6402246,15.3809198 C6.74583957,14.4050374 6.97565775,13.5744813 7.23927273,12.6991444 C7.72848128,11.0760535 8.68493048,9.80106952 9.93456684,9.10992513 C11.4731658,8.25993583 13.4418289,8.43905882 14.6145775,9.5399893 C16.1117754,10.9417112 16.0010909,13.2137005 15.399508,14.8722781 L15.399508,14.8722781 Z" id="Shape" fill="#3A3A3A"></path>
                        </g>
                        <path d="M78.4229198,50.1196801 C78.4389733,50.2650063 78.4584064,50.4094876 78.4584064,50.5598833 C78.4584064,52.3578726 77.294107,53.8153592 75.8568984,53.8153592 C74.4196898,53.8153592 73.2553904,52.3578726 73.2553904,50.5598833 C73.2553904,48.761894 74.4196898,47.3044074 75.8568984,47.3044074 C76.735615,47.3044074 77.5095615,47.8536052 77.9810267,48.6892309 C78.7769412,48.27691 79.4114759,47.7141935 79.6902995,48.034418 C79.9860214,48.3732309 79.3202246,49.5257015 78.4229198,50.1196801 Z" id="Path" fill="#3A3A3A"></path>
                        <path d="M54.4694439,47.3052523 C53.5907273,47.3052523 52.8167807,47.8544501 52.3453155,48.6900758 C51.5494011,48.2777549 50.9157112,47.7150384 50.6360428,48.035263 C50.3403209,48.3740758 51.0061176,49.5265464 51.9025775,50.120525 C51.8865241,50.2658512 51.8670909,50.4103325 51.8670909,50.5607282 C51.8670909,52.3587175 53.0322353,53.8162041 54.4685989,53.8162041 C55.9049626,53.8162041 57.0701074,52.3587175 57.0701074,50.5607282 C57.0709519,48.7627389 55.9066524,47.3052523 54.4694439,47.3052523 Z" id="Path" fill="#3A3A3A"></path>
                    </g>
                </g>
            </g>
        </g>
    </g>
</svg>