<?xml version="1.0" encoding="UTF-8"?>
<svg width="129px" height="158px" viewBox="0 0 129 158" version="1.1" xmlns="http://www.w3.org/2000/svg" xmlns:xlink="http://www.w3.org/1999/xlink">
    <title>subscription-charather02</title>
    <defs>
        <circle id="path-1" cx="64.2272727" cy="64.2272727" r="64.2272727"></circle>
    </defs>
    <g id="Page-1" stroke="none" stroke-width="1" fill="none" fill-rule="evenodd">
        <g id="025-subscribe" transform="translate(-414.000000, -134.000000)">
            <g id="subscription-charather02" transform="translate(414.000000, 134.000000)">
                <g id="Group-20" transform="translate(0.000000, 28.545455)">
                    <mask id="mask-2" fill="white">
                        <use xlink:href="#path-1"></use>
                    </mask>
                    <use id="Mask" fill="#E6EFFF" xlink:href="#path-1"></use>
                    <g mask="url(#mask-2)">
                        <g transform="translate(17.631016, -28.545455)">
                            <path d="M3.67039553,43.4746113 C0.788144198,47.8916006 0.224791257,53.2455525 1.53368431,58.3535097 C2.12390356,60.6564562 3.39417628,62.7192851 4.69971104,64.7048733 C6.00608537,66.6904616 7.37878591,68.6659749 8.21499981,70.8908412 C9.05205329,73.1157076 9.30476452,75.6671675 8.34597308,77.842499 C7.38718163,80.0178306 5.00951318,81.6474402 2.66710676,81.2402477 C3.88952388,84.4767985 5.67277521,87.1592316 8.84383939,88.5436862 C12.014064,89.9281407 15.7442832,89.9759963 18.9489303,88.6721407 C20.3728447,91.6736113 22.5221495,94.4626701 25.5916255,95.7337824 C28.6611014,97.0048947 32.2024169,97.0947289 35.3323421,95.9789375 C38.6436148,98.2575364 42.8960479,99.3540177 46.8890533,98.8964509 C50.8820586,98.438884 53.6450907,98.7461675 56.3543902,95.7774402 C60.2332137,97.188761 65.5938822,96.4365043 69.8362405,93.0488306 C73.86031,89.8357878 75.2153795,85.2970605 75.279187,81.1705632 C78.2025774,83.1485953 82.4743207,83.8597129 85.7041549,82.436638 C88.9339891,81.0144027 91.3376843,77.8592904 91.8515025,74.3683493 C89.7315827,74.7125739 87.5680052,73.2861407 86.6788982,71.3307771 C85.7897913,69.3754134 85.7906308,67.1480284 85.8082618,65.0004027 C85.8619945,58.2754295 85.9165667,51.5496166 85.9711389,44.8246434 C86.0072405,40.3715525 86.0408233,35.894114 85.3339036,31.4972744 C84.6261442,27.1004348 83.1342244,22.7480926 80.3955399,19.2361621 C77.6568554,15.7242316 73.5672993,13.1299535 69.1251228,12.8159535 C66.0296201,6.87178242 60.038433,2.790622 53.4712993,1.45738135 C46.9041656,0.124140713 38.360679,1.1450605 31.9916843,3.22887868 C21.4584116,6.6761621 12.9023314,12.2761086 8.60372174,22.4920231 C5.53256666,29.7895846 7.99587147,36.8445097 3.67039553,43.4746113 Z" id="Path" fill="#B0B0B0" fill-rule="nonzero"></path>
                            <path d="M91.7146522,74.9971888 C89.1472405,75.9223974 86.2112565,75.8602691 83.7361977,74.6949429 C80.1361121,72.9998466 77.7147859,69.0656113 77.8222511,65.0885578 C79.896834,63.3884241 81.4273741,60.8587931 81.9076094,58.2200177 C82.3886843,55.5812423 82.1947431,53.3236327 80.8531068,51.001376 C83.2794704,45.4173814 81.2754116,35.5608038 76.2849945,29.7484455 C77.4133795,35.9302156 75.3984062,41.4436862 71.4557752,46.3375525 C67.5131442,51.2314188 61.8090907,54.5368145 55.7490586,56.2008466 C48.1500907,58.2880231 39.6494223,57.7985525 32.8631602,53.792114 C24.4926255,48.850392 19.5131228,39.0903653 11.9729249,32.9556113 C7.9345827,39.481606 7.08577521,48.5355525 9.70524045,56.3796755 C9.9243688,57.0362209 10.2660747,57.6692584 10.281187,58.3619054 C10.292941,58.8916755 10.1384597,59.4105311 10.0704544,59.9361033 C9.81354527,61.9250498 10.8034009,63.8569054 11.9317859,65.5150605 C13.0593314,67.1732156 14.3824971,68.765884 14.9399731,70.6918626 C16.0196629,74.4220819 13.72931,78.6056701 10.2677538,80.366253 C7.94717628,81.5466915 5.26222441,81.761622 2.68473778,81.2797076 C3.90631532,84.4977878 5.68788751,87.1651086 8.84467896,88.5436862 C12.0149036,89.9281407 15.7451228,89.9759963 18.9497699,88.6729803 C20.3736843,91.6744509 22.5229891,94.4635097 25.5924651,95.734622 C28.661941,97.0057343 32.2032565,97.0955685 35.3331816,95.9797771 C38.6444544,98.258376 42.8960479,99.3548573 46.8898929,98.8972904 C50.8828982,98.4397236 53.6459303,98.747007 56.3552298,95.7782798 C60.2340533,97.1896006 65.5947217,96.4373439 69.83708,93.0496701 C73.8611495,89.8366273 75.2162191,85.2979001 75.2800266,81.1714027 C78.2025774,83.1494348 82.4751602,83.8605525 85.7049945,82.4374776 C88.7366897,81.1017183 91.0194864,78.2329001 91.7146522,74.9971888 Z" id="Path" fill="#888888" fill-rule="nonzero"></path>
                            <path d="M45.0571068,99.8644776 C41.6106629,99.8644776 38.12308,98.8360017 35.2047271,96.9335311 C31.9849677,97.9670445 28.3857217,97.8259963 25.260834,96.531376 C22.5666469,95.414745 20.2477485,93.0790552 18.521588,89.7526701 C15.2674062,90.8567076 11.6589249,90.7148199 8.49877521,89.3345632 C5.47799447,88.0155953 3.36898912,85.5396969 1.86027789,81.5441728 C1.7511335,81.2545204 1.8057057,80.9279268 2.00300516,80.6894883 C2.20030463,80.4502102 2.51010676,80.3360284 2.81655062,80.3889215 C4.6165934,80.7046006 6.70209072,79.4309696 7.55677521,77.493237 C8.32918163,75.7410498 8.27628858,73.5044295 7.40817094,71.1939268 C6.68613885,69.2738252 5.50234206,67.4838573 4.35800516,65.7518199 L3.9793581,65.178392 C2.66374848,63.1776915 1.32630997,61.0191514 0.698309973,58.566761 C-0.739877192,52.9559001 0.059395535,47.4281568 2.94836345,43.0010926 L3.67123511,43.4729322 L2.94836345,43.0010926 C5.22192495,39.516868 5.52333136,35.8848787 5.84320837,32.0404776 C6.10851318,28.8459054 6.38305329,25.5430284 7.8078073,22.1561942 C11.7764651,12.7236006 19.375433,6.44863804 31.7230212,2.40777708 C38.8803741,0.0653706594 47.4859891,-0.639869982 53.642572,0.610253012 C60.5480533,2.01233857 66.5006201,6.25301772 69.6658073,11.9965311 C73.9526629,12.4482209 78.0883955,14.8720658 81.076433,18.7047129 C83.6463634,21.9991942 85.3649677,26.2575043 86.1869089,31.358745 C86.9072618,35.8403814 86.8703207,40.4110124 86.8342191,44.8305204 L86.6721816,65.0062798 C86.6562298,66.9507289 86.6385987,69.154606 87.4655774,70.9722798 C88.2463795,72.6883653 90.0741282,73.7823279 91.7146522,73.5153439 C91.985834,73.4733653 92.2628929,73.5598412 92.4593528,73.7529429 C92.6549731,73.9460445 92.747326,74.2214241 92.7070266,74.4934455 C92.1512298,78.2631247 89.5401602,81.6910979 86.0534169,83.2266755 C83.1510159,84.5045043 79.2302137,84.2366808 76.070064,82.6330979 C75.7661389,86.1231995 74.4530479,90.4671461 70.3760854,93.723007 C66.3251495,96.9587183 60.9829517,98.124884 56.5995453,96.7689749 C54.2327913,99.1046648 51.735064,99.3229535 48.8687645,99.5723065 C48.2726683,99.6235204 47.6480266,99.6780926 46.989802,99.7536541 C46.3475292,99.828376 45.7027378,99.8644776 45.0571068,99.8644776 Z M35.3315025,95.1166969 C35.5044544,95.1166969 35.6748875,95.1687503 35.8209731,95.2686594 C39.0096683,97.4633011 43.0093902,98.4741461 46.7899838,98.0392477 C47.4649998,97.962007 48.1047538,97.9057557 48.7159624,97.8528626 C51.7081977,97.5917557 53.6853902,97.4196434 55.7154757,95.1956166 C55.9513955,94.9370284 56.3199677,94.845515 56.6482405,94.9664134 C60.5732405,96.3945257 65.5359517,95.3761247 69.295556,92.3746541 C73.4346469,89.0700979 74.3632137,84.4507717 74.413588,81.1579696 C74.4186255,80.8406113 74.5966148,80.5517985 74.8778715,80.4057129 C75.1591282,80.2596273 75.4983153,80.2789375 75.7602618,80.4560872 C78.6156469,82.3879429 82.5616362,82.8765739 85.3540533,81.6474402 C87.9928287,80.4854723 90.0405453,78.0448359 90.7844062,75.2608145 C88.7727913,75.0777878 86.8006362,73.6891354 85.8905399,71.6884348 C84.9057217,69.5240177 84.9250319,67.1169642 84.9426629,64.9936862 L85.1047003,44.8179268 C85.1399624,40.4697824 85.176064,35.9730338 84.4783795,31.6349642 C83.7042939,26.823376 82.100711,22.8312102 79.7121282,19.7676113 C76.9541335,16.2313332 72.9728822,13.9544134 69.0621549,13.6781942 C68.7624276,13.6572049 68.4954437,13.4817343 68.3569143,13.2155899 C65.4931335,7.71639205 59.8629624,3.63775034 53.2966683,2.30367012 C47.409588,1.10811932 39.151556,1.7940498 32.2569891,4.04998029 C20.4207003,7.92292681 13.1575613,13.8897664 9.39711746,22.8270124 C8.07814955,25.9611354 7.81536345,29.1246434 7.56097308,32.184884 C7.23773778,36.074622 6.90358805,40.0961728 4.39158805,43.9464509 C1.77044366,47.9629642 1.05176987,53.0029161 2.36821906,58.1394188 C2.93073243,60.3340605 4.18421372,62.352392 5.42006398,64.2313546 L5.79619233,64.8005846 C6.99342227,66.6115418 8.23179126,68.4846273 9.02266826,70.5877557 C10.0503046,73.3230819 10.0906041,76.0231461 9.13433136,78.191761 C8.1730212,80.37213 6.10431532,81.889237 3.96760409,82.1310338 C5.24711211,84.9645899 6.9262565,86.7654723 9.18806398,87.7536487 C12.1265667,89.0356755 15.6536094,89.0810124 18.6223367,87.8737076 C19.0471602,87.7007557 19.5315934,87.890499 19.7272137,88.3035685 C20.8228554,90.6132316 22.7866148,93.6390498 25.9198982,94.937868 C28.7903955,96.1267022 32.1134223,96.2098199 35.0401709,95.1670712 C35.1358822,95.1326487 35.2341121,95.1166969 35.3315025,95.1166969 Z" id="Shape" fill="#3A3A3A" fill-rule="nonzero"></path>
                            <polyline id="Path" fill="#FFE4A3" fill-rule="nonzero" points="83.7152084 156.502857 80.5827645 136.222151 8.54998912 136.222151 5.41754527 156.502857"></polyline>
                            <path d="M10.6472405,156.502857 L18.0220426,156.502857 L18.9371763,136.222151 L8.9580212,135.526146 C8.83964152,136.212916 8.49793564,137.714071 8.38375382,138.389927 L13.2801389,139.700499 C12.1844971,146.261756 11.2836362,152.168986 10.6472405,156.502857 Z" id="Path" fill-opacity="0.1" fill="#001436" fill-rule="nonzero"></path>
                            <path d="M78.4871923,156.502857 L71.1123902,156.502857 L70.1972565,136.222151 L80.1764116,135.526146 C80.2947913,136.212916 80.6364971,137.714071 80.750679,138.389927 L75.8542939,139.700499 C76.9499356,146.261756 77.8516362,152.168986 78.4871923,156.502857 Z" id="Path" fill-opacity="0.1" fill="#001436" fill-rule="nonzero"></path>
                            <path d="M83.7143688,156.527205 C83.2954223,156.527205 82.9285292,156.221601 82.862203,155.795098 L79.8431014,136.245659 L9.29049179,136.245659 L6.27139019,155.795098 C6.19918698,156.266098 5.76009072,156.591012 5.28573243,156.51629 C4.81473243,156.443248 4.49149714,156.002472 4.56453992,155.530633 L7.69698377,135.249927 C7.7624704,134.829301 8.12432602,134.518659 8.55082869,134.518659 L80.5836041,134.518659 C81.0092672,134.518659 81.3719624,134.829301 81.437449,135.249927 L84.5698929,155.530633 C84.6420961,156.002472 84.3197003,156.443248 83.8487003,156.51629 C83.8025239,156.523847 83.7580266,156.527205 83.7143688,156.527205 Z" id="Path" fill="#3A3A3A" fill-rule="nonzero"></path>
                            <path d="M1.59161479,132.944462 L17.6190479,138.5612 L71.511187,138.5612 L87.5386201,132.944462 L79.2604383,109.637938 C78.093433,106.346815 75.6670693,103.660183 72.5270693,102.132162 C71.1837538,101.477296 69.8152511,100.856012 68.4383528,100.259916 C65.894449,99.1600765 63.358941,98.1693814 61.033326,97.3130177 C55.4585667,95.2728573 51.1515613,94.0218947 51.1515613,94.0218947 L37.9870693,94.0218947 C37.9870693,94.0218947 33.6968554,95.2644616 28.1472832,97.2962263 C25.8132725,98.1525899 23.2525774,99.1516808 20.7002779,100.259916 C19.3233795,100.856012 17.9548768,101.477296 16.6115613,102.132162 C13.4631656,103.660183 11.0451977,106.346815 9.87819233,109.637938 L1.59161479,132.944462 Z" id="Path" fill="#FADF4C" fill-rule="nonzero"></path>
                            <g id="Group" stroke-width="1" fill="none" fill-rule="evenodd" transform="translate(1.058486, 104.197510)">
                                <path d="M16.5647594,34.3636898 L17.7737433,34.3636898 L19.3126791,0.270342246 C16.8040374,10.0228128 14.4842995,22.2016471 12.6456364,32.9901497 L16.5647594,34.3636898 Z" id="Path" fill-opacity="0.1" fill="#001436" fill-rule="nonzero"></path>
                                <polygon id="Path" fill="#FFFFFF" fill-rule="nonzero" points="1.94109091 24.7841711 0.533128342 28.7461123 16.5605615 34.3636898 17.4001337 30.2027701"></polygon>
                                <path d="M16.5605615,34.3636898 L17.4001337,30.2027701 L13.3735455,28.7914492 C13.1233529,30.2086471 12.879877,31.6115722 12.6447968,32.9918289 L16.5605615,34.3636898 Z" id="Path" fill="#E3E3E3" fill-rule="nonzero"></path>
                            </g>
                            <g id="Group" stroke-width="1" fill="none" fill-rule="evenodd" transform="translate(68.224262, 104.197510)">
                                <path d="M3.28692513,34.3636898 L2.07794118,34.3636898 L0.539005348,0.270342246 C3.04764706,10.0228128 5.36738503,22.2016471 7.20604813,32.9901497 L3.28692513,34.3636898 Z" id="Path" fill-opacity="0.1" fill="#001436" fill-rule="nonzero"></path>
                                <polygon id="Path" fill="#FFFFFF" fill-rule="nonzero" points="17.9105936 24.7841711 19.3185561 28.7461123 3.29112299 34.3636898 2.4515508 30.2027701"></polygon>
                                <path d="M3.29112299,34.3636898 L2.4515508,30.2027701 L6.47813904,28.7914492 C6.72833155,30.2086471 6.97180749,31.6115722 7.2068877,32.9918289 L3.29112299,34.3636898 Z" id="Path" fill="#E3E3E3" fill-rule="nonzero"></path>
                            </g>
                            <polygon id="Path" fill="#FFFFFF" fill-rule="nonzero" points="86.1331763 128.981681 87.5411389 132.943622 71.5137057 138.5612 70.6741335 134.40028"></polygon>
                            <path d="M44.565957,101.612467 C38.925711,101.612467 34.6858715,98.7486862 32.1226576,96.3466701 C31.7742351,96.0209161 31.7566041,95.4743546 32.0831977,95.1259322 C32.4106308,94.7775097 32.9563528,94.7598787 33.3039356,95.0864723 C35.6404651,97.2760765 39.4907431,99.8854669 44.5667966,99.8854669 C49.607588,99.8854669 53.4393955,97.3071407 55.7658501,95.1452423 C56.1151121,94.8203279 56.6616736,94.8404776 56.986588,95.1897396 C57.3115025,95.5390017 57.2913528,96.0855632 56.9420907,96.4104776 C54.3881121,98.7839482 50.1684223,101.612467 44.565957,101.612467 Z" id="Path" fill="#FFFFFF" fill-rule="nonzero"></path>
                            <path d="M71.5128661,139.42428 L17.6190479,139.42428 C17.5216576,139.42428 17.4251068,139.407488 17.3335934,139.375585 L1.30616024,133.758007 C1.08955062,133.682446 0.91156131,133.522927 0.813331364,133.315552 C0.714261845,133.108178 0.701668262,132.870579 0.778908904,132.65397 L9.05960944,109.352483 C10.3080533,105.838034 12.8544757,102.997761 16.2287164,101.353879 C25.9198982,96.6338038 37.6252137,93.228499 37.7419143,93.1940765 C37.8199945,93.1714081 37.9005934,93.1604937 37.9820319,93.1604937 L51.1524009,93.1604937 C51.2338394,93.1604937 51.3144383,93.1714081 51.3925185,93.1940765 C51.5100586,93.2276594 63.2145346,96.6338038 72.9057164,101.353879 C76.279957,102.996921 78.8255399,105.837194 80.0748233,109.352483 L88.3555239,132.65397 C88.4319249,132.870579 88.4201709,133.108178 88.3202618,133.315552 C88.2211923,133.522927 88.0440426,133.681606 87.827433,133.758007 L71.7999998,139.375585 C71.7068073,139.408328 71.6102565,139.42428 71.5128661,139.42428 Z M17.7659731,137.698119 L71.365941,137.698119 L86.4362618,132.415531 L78.4460533,109.930948 C77.349572,106.84552 75.1129517,104.351151 72.1484223,102.907087 C63.1070693,98.5035311 52.264834,95.2527076 51.0273046,94.8874937 L38.1046094,94.8874937 C36.86708,95.2527076 26.0248447,98.5035311 16.9834918,102.907087 C14.0189624,104.351151 11.7823421,106.84552 10.6858608,109.930948 L2.69565222,132.415531 L17.7659731,137.698119 Z" id="Shape" fill="#3A3A3A" fill-rule="nonzero"></path>
                            <path d="M71.2215346,156.502857 L17.9170961,156.502857 C17.9170961,156.502857 17.858326,148.577296 18.1185934,138.5612 C18.4040479,127.495638 19.0924971,112.861895 20.69608,100.259916 C23.2399838,99.1600765 25.7754918,98.1693814 28.1011068,97.3130177 C27.4546362,104.776815 27.3622832,113.424408 27.2615346,120.879809 L61.8687003,120.879809 C61.7763474,113.416012 61.6336201,104.760023 60.9871495,97.2962263 C63.3211602,98.1525899 65.8818554,99.1516808 68.4341549,100.259916 C70.0461335,112.861895 70.7345827,127.495638 71.0200372,138.5612 C71.2803046,148.577296 71.2215346,156.502857 71.2215346,156.502857 Z" id="Path" fill="#12276A" fill-rule="nonzero"></path>
                            <path d="M71.2215346,156.527205 C71.2190159,156.527205 71.2173367,156.527205 71.214818,156.527205 C70.737941,156.523847 70.3542565,156.133446 70.3584544,155.656569 C70.3584544,155.585205 70.4138661,148.468151 70.156957,138.583868 C69.8950105,128.400697 69.2443421,113.646055 67.63908,100.857692 C65.8659036,100.097039 63.9617538,99.3330284 61.9585346,98.5790926 C62.5034169,105.603793 62.6402672,113.426087 62.7317806,120.869734 C62.7342993,121.100617 62.6444651,121.323103 62.4832672,121.48682 C62.3212298,121.651376 62.0995827,121.743729 61.8687003,121.743729 L27.2615346,121.743729 C27.0306522,121.743729 26.8090052,121.651376 26.6469677,121.48682 C26.4849303,121.322264 26.3950961,121.099777 26.3984544,120.868895 L26.4110479,119.938649 C26.5025613,113.121323 26.6049891,105.451831 27.1305613,98.5975632 C25.1466522,99.3464616 23.2559356,100.104595 21.4919945,100.858531 C19.893449,113.659488 19.2452993,128.407413 18.9833528,138.583868 C18.7264437,148.468151 18.7810159,155.586044 18.7818554,155.657408 C18.7860533,156.134285 18.4023688,156.523847 17.9254918,156.528079 C17.4704437,156.532242 17.0582137,156.148558 17.0548554,155.671681 C17.0540159,155.601157 16.9994437,148.456397 17.2563528,138.54021 C17.5233367,128.195002 18.1882779,113.137274 19.840556,100.152451 C19.8791763,99.8502049 20.0747966,99.5899375 20.3543741,99.4690391 C22.6438875,98.4791835 25.1500105,97.4817717 27.8038982,96.5045097 C28.0817966,96.4029215 28.3924383,96.4490979 28.626679,96.6287664 C28.8617592,96.8075953 28.9885346,97.0955685 28.9633474,97.3894188 C28.3462618,104.513189 28.2362779,112.720847 28.1388875,119.962996 L28.1380479,120.018408 L60.9955453,120.018408 C60.8973153,112.386697 60.736957,104.409921 60.1274276,97.3726273 C60.1022405,97.0787771 60.2290159,96.7916434 60.4632565,96.6119749 C60.6966576,96.4323065 61.0081389,96.3852904 61.2851977,96.4868787 C63.9609143,97.4683386 66.48131,98.4716273 68.7792191,99.4690391 C69.057957,99.5907771 69.2527378,99.8493653 69.2913581,100.151611 C70.9511923,113.123841 71.6169731,128.187446 71.883957,138.54021 C72.1417057,148.456397 72.0862939,155.600317 72.0854544,155.671681 C72.0812565,156.1452 71.6950533,156.527205 71.2215346,156.527205 Z" id="Path" fill="#3A3A3A" fill-rule="nonzero"></path>
                            <path d="M28.9566308,127.362986 C28.9566308,129.243627 27.4319677,130.767451 25.5521656,130.767451 C23.6715239,130.767451 22.1477003,129.242788 22.1477003,127.362986 C22.1477003,125.482344 23.6723634,123.95852 25.5521656,123.95852 C27.4319677,123.95852 28.9566308,125.482344 28.9566308,127.362986 Z" id="Path" fill="#FFFFFF" fill-rule="nonzero"></path>
                            <path d="M60.1761228,127.362986 C60.1761228,129.243627 61.7007859,130.767451 63.580588,130.767451 C65.4612298,130.767451 66.9850533,129.242788 66.9850533,127.362986 C66.9850533,125.482344 65.4603902,123.95852 63.580588,123.95852 C61.7007859,123.95852 60.1761228,125.482344 60.1761228,127.362986 Z" id="Path" fill="#FFFFFF" fill-rule="nonzero"></path>
                            <path d="M61.7192565,156.527255 C61.2919143,156.527255 60.9199838,156.209847 60.8637324,155.774109 L60.0333955,149.349702 C56.8253902,149.023948 54.1505132,146.673146 53.4158875,143.532306 L35.7160266,143.532306 C34.9822405,146.673146 32.3065239,149.023948 29.0985185,149.349702 L28.2681816,155.774109 C28.2068929,156.247627 27.7745132,156.582617 27.3009945,156.519649 C26.8274757,156.45836 26.4941656,156.02598 26.5554544,155.552462 L27.4781442,148.413579 C27.533556,147.982879 27.900449,147.661323 28.3345078,147.661323 C31.2679731,147.661323 33.7631816,145.46752 34.13931,142.558403 C34.1947217,142.127702 34.5616148,141.806146 34.9956736,141.806146 L54.1362405,141.806146 C54.5702993,141.806146 54.9371923,142.128542 54.9926041,142.558403 C55.3687324,145.46752 57.863941,147.661323 60.7974062,147.661323 C61.2314651,147.661323 61.5983581,147.983718 61.6537699,148.413579 L62.5764597,155.552462 C62.6377485,156.025141 62.3035987,156.45836 61.8309196,156.519649 C61.7931389,156.524686 61.7561977,156.527255 61.7192565,156.527255 Z" id="Path" fill="#001436" fill-rule="nonzero"></path>
                            <g id="Group" stroke-width="1" fill="none" fill-rule="evenodd" transform="translate(5.256347, 46.267028)">
                                <path d="M70.3368396,1.2198984 C70.3368396,1.2198984 76.761246,0.544042781 77.0500588,7.77863636 C77.3388717,15.0140695 71.3376096,16.3582246 68.7634813,15.8653957 L70.3368396,1.2198984 Z" id="Path" fill="#FFE4A3" fill-rule="nonzero"></path>
                                <path d="M74.7991658,14.0695508 C72.8958556,15.809984 70.2562406,16.1516898 68.7634813,15.8662353 L70.3368396,1.2198984 C70.3368396,1.2198984 71.9269893,1.05282353 73.5599572,1.77569519 C72.638107,5.86273262 73.0881176,10.246139 74.7991658,14.0695508 Z" id="Path" fill-opacity="0.1" fill="#001436" fill-rule="nonzero"></path>
                                <path d="M69.7927968,16.8199893 C69.3620963,16.8199893 68.9591016,16.7830481 68.6006043,16.7150428 C68.1589893,16.630246 67.8567433,16.2213743 67.9045989,15.7747219 L69.4779572,1.12838503 C69.521615,0.72371123 69.841492,0.404673797 70.2461658,0.361855615 C70.3687433,0.34842246 73.2828984,0.0671657754 75.511123,1.99398396 C77.0038824,3.28524599 77.8123904,5.22045989 77.913139,7.74505348 C78.0667807,11.5810588 76.5345615,13.7328824 75.2223102,14.8629465 C73.6010963,16.2591551 71.4794973,16.8199893 69.7927968,16.8199893 Z M69.7155561,15.0913102 C70.9614813,15.1064225 72.720385,14.7395294 74.0956043,13.554893 C75.5841658,12.2728663 76.2885668,10.3410107 76.1869786,7.81473797 C76.1063797,5.79304813 75.5035668,4.27845989 74.3936524,3.3121123 C73.2996898,2.35919786 71.9244706,2.12663636 71.1126043,2.07962032 L69.7155561,15.0913102 Z" id="Shape" fill="#3A3A3A" fill-rule="nonzero"></path>
                                <path d="M8.28321925,1.2198984 C8.28321925,1.2198984 1.85881283,0.544042781 1.57,7.77863636 C1.28118717,15.0140695 7.2824492,16.3582246 9.85657754,15.8653957 L8.28321925,1.2198984 Z" id="Path" fill="#FFE4A3" fill-rule="nonzero"></path>
                                <path d="M3.82089305,14.0695508 C5.72420321,15.809984 8.36381818,16.1516898 9.85657754,15.8662353 L8.28321925,1.2198984 C8.28321925,1.2198984 6.69306952,1.05282353 5.0601016,1.77569519 C5.98195187,5.86273262 5.53194118,10.246139 3.82089305,14.0695508 Z" id="Path" fill-opacity="0.1" fill="#001436" fill-rule="nonzero"></path>
                                <path d="M8.82726203,16.8199893 C7.1405615,16.8199893 5.01980214,16.2591551 3.39858824,14.8637861 C2.0863369,13.7337219 0.554117647,11.5818984 0.706919786,7.74505348 C0.807668449,5.21962032 1.61617647,3.28524599 3.10893583,1.99398396 C5.338,0.0671657754 8.25131551,0.34842246 8.37389305,0.361855615 C8.77856684,0.404673797 9.09844385,0.72371123 9.1421016,1.12838503 L10.7154599,15.7747219 C10.7633155,16.2213743 10.4610695,16.6310856 10.0194545,16.7150428 C9.66011765,16.7830481 9.25712299,16.8199893 8.82726203,16.8199893 Z M7.50661497,2.07878075 C6.69558824,2.12579679 5.32036898,2.35751872 4.22640642,3.31127273 C3.11733155,4.27762032 2.51367914,5.79304813 2.43308021,7.8138984 C2.33149198,10.3410107 3.03589305,12.2720267 4.52529412,13.5540535 C5.90135294,14.7395294 7.68292513,15.0988663 8.90534225,15.0904706 L7.50661497,2.07878075 Z" id="Shape" fill="#3A3A3A" fill-rule="nonzero"></path>
                            </g>
                            <path d="M37.9811923,86.1408306 L37.9811923,94.0244134 C37.9811923,94.0244134 40.4201495,95.9126113 44.565957,95.9126113 C48.7126041,95.9126113 51.1515613,94.0244134 51.1515613,94.0244134 L51.1515613,86.1408306 L37.9811923,86.1408306 Z" id="Path" fill="#FFE4A3" fill-rule="nonzero"></path>
                            <path d="M49.9912725,87.0198626 C46.9276736,87.2658573 43.8439249,87.3540124 40.7660533,87.2834883 C40.2295667,87.5848947 39.1826201,87.6033653 38.5965987,87.8392851 C38.2523741,87.9778145 38.0693474,88.2481568 37.9820319,88.5495632 L37.9820319,89.4000498 C38.134834,90.0565953 38.5269143,90.7601568 39.1171335,91.2194027 C42.8876522,91.61736 46.6976308,90.4167717 49.7427592,88.6200872 C50.0836255,88.4185899 50.4345667,88.1910658 50.5655399,87.8720284 C50.6965132,87.552991 50.4152565,86.9854402 49.9912725,87.0198626 Z" id="Path" fill-opacity="0.1" fill="#001436" fill-rule="nonzero"></path>
                            <path d="M44.565957,96.7756915 C40.1749945,96.7756915 37.5614062,94.7917824 37.4522618,94.7078252 C37.2406897,94.5441086 37.1172725,94.292237 37.1172725,94.025253 L37.1172725,86.1408306 C37.1172725,85.6639535 37.5034757,85.2777503 37.9803528,85.2777503 L51.1507217,85.2777503 C51.6275987,85.2777503 52.013802,85.6639535 52.013802,86.1408306 L52.013802,94.025253 C52.013802,94.292237 51.8903848,94.5449482 51.6788126,94.7078252 C51.5713474,94.7917824 48.9577592,96.7756915 44.565957,96.7756915 Z M38.8442725,93.5609696 C39.6057645,94.0218947 41.6299731,95.0486915 44.565957,95.0486915 C47.5002618,95.0486915 49.5244704,94.0235739 50.2876415,93.5609696 L50.2876415,87.0030712 L38.8442725,87.0030712 L38.8442725,93.5609696 Z" id="Shape" fill="#3A3A3A" fill-rule="nonzero"></path>
                            <path d="M76.5385453,46.6456755 C76.5385453,65.6577878 67.6080159,88.640237 44.821187,88.640237 C22.0343581,88.640237 13.1038287,65.6586273 13.1038287,46.6456755 C13.1038287,46.6456755 23.4439998,10.5415525 38.8241228,10.5415525 C54.2034062,10.5415525 76.5385453,46.6456755 76.5385453,46.6456755 Z" id="Path" fill="#FFE4A3" fill-rule="nonzero"></path>
                            <path d="M43.7952298,88.879515 C42.2478982,88.879515 40.9482405,88.7921995 39.7358982,88.6083332 C20.5659463,85.6941781 11.984679,65.1616006 11.984679,46.1058306 C11.984679,45.6289535 12.3708822,45.2427503 12.8477592,45.2427503 C13.3246362,45.2427503 13.7108394,45.6289535 13.7108394,46.1058306 C13.7108394,64.4227771 21.8378982,84.1409696 39.9944864,86.9006434 C41.2252993,87.087868 42.5627378,87.1651086 44.2150159,87.1499963 L45.3677485,87.1382423 C47.460802,87.1164134 49.2734383,86.930868 50.9106041,86.5715311 C67.8405774,82.8522263 75.4193955,63.567253 75.4193955,46.1058306 C75.4193955,45.6289535 75.8055987,45.2427503 76.2824757,45.2427503 C76.7593528,45.2427503 77.145556,45.6289535 77.145556,46.1058306 C77.145556,64.2590605 69.1477913,84.3332316 51.2800159,88.2582316 C49.52531,88.6435953 47.5968126,88.8425739 45.3837003,88.8652423 L44.2309677,88.8769963 C44.0848822,88.8786755 43.9396362,88.879515 43.7952298,88.879515 Z" id="Path" fill="#3A3A3A" fill-rule="nonzero"></path>
                            <path d="M25.9098233,41.8416434 C24.9913314,40.5495418 28.0851549,38.6957664 30.9984704,38.0677664 C32.3736897,37.7713974 35.8705078,37.2592584 35.6899998,39.3825364 C35.5388768,41.1599108 33.342556,41.9919268 31.633187,42.3646969 C30.1051656,42.6988466 26.9257057,43.2705953 25.9098233,41.8416434 Z" id="Path" fill="#3A3A3A" fill-rule="nonzero"></path>
                            <path d="M63.2229303,41.8416434 C64.1414223,40.5495418 61.0475987,38.6957664 58.1342832,38.0677664 C56.759064,37.7713974 53.2622458,37.2592584 53.4427538,39.3825364 C53.5938768,41.1599108 55.7901977,41.9919268 57.4995667,42.3646969 C59.027588,42.6988466 62.2070479,43.2705953 63.2229303,41.8416434 Z" id="Path" fill="#3A3A3A" fill-rule="nonzero"></path>
                            <path d="M44.7372298,54.4746862 C43.9404757,53.8122637 41.6627164,59.345884 42.1723367,60.3827557 C42.4594704,60.9670979 44.9916201,62.1685257 45.664957,61.5967771 C46.135957,61.1963011 44.2351656,60.1501942 44.036187,59.520515 C43.6525025,58.3064937 45.3643902,54.9969001 44.7372298,54.4746862 Z" id="Path" fill="#3A3A3A" fill-rule="nonzero"></path>
                            <path d="M51.7031602,66.3235685 C50.787187,65.7963172 48.6252886,67.666884 44.5667966,67.666884 C40.5083046,67.666884 38.3464062,65.7954776 37.430433,66.3235685 C36.5152993,66.8508199 38.6360586,69.2645899 41.9456522,70.0924081 C41.9540479,70.0949268 41.9632832,70.096606 41.971679,70.0991247 C43.6718126,70.5205899 45.4626201,70.5205899 47.1627538,70.0991247 C47.1711495,70.096606 47.1803848,70.0949268 47.1887806,70.0924081 C50.4975346,69.2645899 52.6182939,66.8508199 51.7031602,66.3235685 Z" id="Path" fill="#3A3A3A" fill-rule="nonzero"></path>
                            <path d="M12.4254544,31.1018359 C11.2391389,36.6253814 10.4449036,50.9854241 14.4748501,58.8622904 C14.3623474,55.3184562 14.7451923,53.205253 16.8306897,50.338114 C17.87008,48.9091621 19.3544437,47.8538199 20.4097859,46.436622 C22.5011602,43.6274134 22.7009784,39.6948573 24.9804169,37.0359322 C26.8702939,34.8320552 29.8667271,33.9076862 32.7514971,33.5903279 C35.6371068,33.2729696 38.5714116,33.4551568 41.4326736,32.9614883 C44.6297645,32.4107289 47.6748929,31.0061247 50.1692618,28.9323814 C52.0070854,27.40436 53.5384651,25.5329535 55.3846843,24.015007 C56.3082137,23.2560338 57.3476041,22.5810177 58.4533207,22.1259696 C59.0065987,21.8984455 59.5758287,21.7254937 60.1559731,21.6239054 C60.7361175,21.5231568 61.3263367,21.4929322 61.9207538,21.5525418 C60.7638233,30.2966862 63.9281709,39.8711675 70.1712298,46.1016327 C70.1712298,46.1016327 73.9644169,48.7983386 76.0457164,54.420114 C76.0457164,54.420114 82.8596843,38.3809268 75.9911442,25.5984402 C69.1226041,12.8167931 53.5930372,-0.552554474 36.331433,6.25385729 C19.0706683,13.0602691 12.4254544,31.1018359 12.4254544,31.1018359 Z" id="Path" fill="#B0B0B0" fill-rule="nonzero"></path>
                            <path d="M14.1952725,59.7950552 C13.8770747,59.7950552 13.5765078,59.618745 13.4262244,59.3240552 C9.24011746,51.1399054 10.4062832,36.3911407 11.5808447,30.9196487 C11.6807538,30.4528466 12.1383207,30.1547985 12.6059624,30.2563867 C13.0727645,30.3562958 13.3691335,30.8155418 13.2683848,31.2815043 C12.1853367,36.3264937 11.4431549,47.3702263 13.625203,55.0430765 C14.0172832,53.2413546 14.8081602,51.6478466 16.131326,49.8293332 C16.7022351,49.0434937 17.3831282,48.3777129 18.0413528,47.7329215 C18.6559196,47.1309482 19.2369036,46.5625578 19.7154597,45.9202851 C20.631433,44.6894723 21.1603634,43.2084669 21.7203581,41.6393065 C22.3601121,39.8451407 23.0225346,37.9896862 24.3238715,36.4725792 C26.0987271,34.4021942 28.9020586,33.1436755 32.6566255,32.730606 C33.9143046,32.5920765 35.1862565,32.5467396 36.4162298,32.5022423 C38.1037699,32.4409535 39.6972779,32.3838626 41.2849089,32.1101621 C44.3459891,31.5829108 47.2274009,30.253868 49.6159838,28.2674402 C50.490818,27.5403707 51.3211549,26.7041568 52.1246255,25.8956487 C52.9809891,25.0342477 53.8650586,24.1443011 54.8356041,23.3467076 C55.9136148,22.4609589 57.0201709,21.7809054 58.1233688,21.3258573 C58.7522084,21.0664295 59.3852458,20.8800445 60.0065292,20.7717396 C60.6823848,20.65336 61.3548822,20.6273332 62.0063902,20.6919803 C62.2389517,20.7154883 62.452203,20.8313493 62.597449,21.0152156 C62.742695,21.1982423 62.8073421,21.4333225 62.7762779,21.6650445 C61.6520907,30.1623546 64.7937699,39.5143493 70.7815987,45.4895846 C71.1191068,45.826253 71.1199463,46.3728145 70.7824383,46.7111621 C70.4466094,47.0478306 69.8992084,47.0495097 69.5617003,46.7128412 C63.4311442,40.5948787 60.1106362,31.1471728 60.9552458,22.3971514 C60.7403153,22.4105846 60.5220266,22.4366113 60.3037378,22.474392 C59.806711,22.5617076 59.294572,22.7128306 58.782433,22.9235632 C57.8370747,23.3131247 56.8782832,23.9050231 55.9329249,24.6816273 C55.0303848,25.4238092 54.2143207,26.2449108 53.3504009,27.113868 C52.5183848,27.9509215 51.6586629,28.8165204 50.7208608,29.596483 C48.0997164,31.7760124 44.9378875,33.2335097 41.5787592,33.8128145 C39.8761068,34.1066648 38.1491068,34.1687931 36.4783581,34.2292423 C35.279449,34.2729001 34.0402405,34.3173974 32.8446897,34.4492102 C29.5401335,34.812745 27.1146094,35.8722851 25.6344437,37.5984455 C24.5413207,38.8737557 23.9611763,40.500007 23.3466094,42.22113 C22.7689838,43.8406648 22.1712084,45.5147717 21.1007538,46.9529589 C20.5415987,47.7035364 19.8850533,48.3466487 19.2494971,48.9679322 C18.613941,49.5900552 18.0136469,50.1777557 17.5275346,50.8460552 C15.5495025,53.5654295 14.9492084,55.5233118 15.0566736,58.9042691 C15.0701068,59.3081033 14.8006041,59.6674402 14.4093634,59.7681888 C14.3388394,59.7858199 14.2666362,59.7950552 14.1952725,59.7950552 Z" id="Path" fill="#3A3A3A" fill-rule="nonzero"></path>
                            <path d="M18.6097431,40.1238787 C18.5602084,40.1238787 18.5089945,40.1196808 18.4586201,40.1104455 C17.9892993,40.0273279 17.6752993,39.5798359 17.7592565,39.1096755 C18.800326,33.2217557 23.8579089,28.3732263 29.7836094,27.5815097 C31.0975399,27.4060391 32.4366576,27.4152744 33.7312779,27.4236701 C35.9620212,27.4387824 38.0651495,27.4530552 39.9088501,26.5740231 C42.0321282,25.5631781 43.4216201,23.5641568 44.8933902,21.4475953 C45.7220479,20.2562423 46.5792511,19.0229108 47.5934544,17.9490979 C51.5100586,13.8007717 57.9730854,12.3088519 63.3127645,14.3238252 C63.7585774,14.4925792 63.9835827,14.9904455 63.8156683,15.4370979 C63.6460747,15.8829108 63.1482084,16.1079161 62.7023955,15.9400017 C57.997433,14.1634669 52.3000961,15.4790765 48.8486148,19.1345739 C47.9225667,20.1151942 47.1031442,21.2939535 46.310588,22.433253 C44.7750105,24.6413279 43.1882191,26.9249642 40.6510319,28.1331086 C38.448834,29.1817343 36.0451389,29.1657824 33.7186843,29.1498306 C32.4836736,29.143114 31.2058447,29.1330391 30.0111335,29.2925578 C24.893941,29.9759696 20.3577324,34.3257931 19.4585506,39.4094027 C19.3855078,39.8291888 19.0211335,40.1238787 18.6097431,40.1238787 Z" id="Path" fill="#3A3A3A" fill-rule="nonzero"></path>
                            <path d="M72.2575667,19.467884 C71.9889036,19.467884 71.7244383,19.3427878 71.5556843,19.1085471 C70.865556,18.1489161 69.8589089,17.444515 68.7212886,17.124638 C68.2620426,16.9953439 67.9942191,16.5184669 68.1235132,16.0592209 C68.2528073,15.5999749 68.7288447,15.3346701 69.1889303,15.4614455 C70.7018394,15.8871086 72.0401175,16.8240712 72.9577699,18.1002209 C73.2356683,18.4872637 73.1483528,19.0271086 72.76131,19.3058466 C72.6085078,19.414991 72.4321977,19.467884 72.2575667,19.467884 Z" id="Path" fill="#3A3A3A" fill-rule="nonzero"></path>
                            <path d="M63.824064,12.791606 C63.6141709,12.791606 63.4034383,12.7152049 63.237203,12.5615632 C60.7109303,10.2191568 57.2896736,8.93377173 53.8432298,9.04963269 C53.3739089,9.08237601 52.967556,8.69113537 52.9524437,8.21425836 C52.9364918,7.73738135 53.310941,7.33858456 53.787818,7.32347226 C57.6901495,7.18326371 61.5547003,8.64579847 64.4117645,11.2954883 C64.7618661,11.6195632 64.7820159,12.1661247 64.457941,12.5153867 C64.2866683,12.699253 64.0557859,12.791606 63.824064,12.791606 Z" id="Path" fill="#3A3A3A" fill-rule="nonzero"></path>
                            <path d="M76.0473955,55.2831942 C76.0163314,55.2831942 75.9861068,55.281515 75.9550426,55.2781568 C75.6024223,55.240376 75.308572,54.9910231 75.2145399,54.6484776 C75.2053046,54.6165739 74.3094811,51.4278787 71.9754704,48.4390017 C71.6816201,48.0628733 71.7487859,47.5205097 72.1240747,47.2266594 C72.4985239,46.9328092 73.0425667,46.9999749 73.3364169,47.3752637 C74.6906469,49.1098199 75.5940266,50.879638 76.1498233,52.1826541 C79.1067966,45.2234402 79.262957,36.5439429 76.4562672,29.5058092 C76.279957,29.0633546 76.4957271,28.5604509 76.9390212,28.3841407 C77.3831549,28.206991 77.8843795,28.4244402 78.0606897,28.8668947 C81.2997592,36.987237 80.809449,47.174606 76.8130854,54.8205899 C76.6619624,55.106884 76.3655934,55.2831942 76.0473955,55.2831942 Z" id="Path" fill="#3A3A3A" fill-rule="nonzero"></path>
                            <path d="M57.9957538,49.8058252 C58.0117057,49.9502316 58.0310159,50.0937985 58.0310159,50.2432423 C58.0310159,52.0298519 56.8740854,53.478114 55.4459731,53.478114 C54.0178608,53.478114 52.8609303,52.0298519 52.8609303,50.2432423 C52.8609303,48.4566327 54.0178608,47.0083707 55.4459731,47.0083707 C56.3191282,47.0083707 57.0881763,47.5540926 57.5566576,48.3844295 C58.3475346,47.9747183 58.9780533,47.4155632 59.2551121,47.733761 C59.5489624,48.0695899 58.8873795,49.215606 57.9957538,49.8058252 Z M34.1938822,47.0083707 C33.3207271,47.0083707 32.551679,47.5540926 32.0831977,48.3844295 C31.2923207,47.9747183 30.6626415,47.4155632 30.3847431,47.733761 C30.0908929,48.0704295 30.7524757,49.215606 31.6432618,49.8058252 C31.62731,49.9502316 31.6079998,50.0937985 31.6079998,50.2432423 C31.6079998,52.0298519 32.7657699,53.478114 34.1930426,53.478114 C35.6203153,53.478114 36.7780858,52.0298519 36.7780858,50.2432423 C36.7789249,48.4566327 35.6219945,47.0083707 34.1938822,47.0083707 Z" id="Shape" fill="#3A3A3A" fill-rule="nonzero"></path>
                        </g>
                    </g>
                </g>
                <g id="Group-34" transform="translate(17.631016, 0.000000)" fill-rule="nonzero">
                    <path d="M3.67039553,43.4746113 C0.788144198,47.8916006 0.224791257,53.2455525 1.53368431,58.3535097 C2.12390356,60.6564562 3.39417628,62.7192851 4.69971104,64.7048733 C6.00608537,66.6904616 7.37878591,68.6659749 8.21499981,70.8908412 C9.05205329,73.1157076 9.30476452,75.6671675 8.34597308,77.842499 C7.38718163,80.0178306 5.00951318,81.6474402 2.66710676,81.2402477 C3.88952388,84.4767985 5.67277521,87.1592316 8.84383939,88.5436862 C12.014064,89.9281407 15.7442832,89.9759963 18.9489303,88.6721407 C20.3728447,91.6736113 22.5221495,94.4626701 25.5916255,95.7337824 C28.6611014,97.0048947 32.2024169,97.0947289 35.3323421,95.9789375 C38.6436148,98.2575364 42.8960479,99.3540177 46.8890533,98.8964509 C50.8820586,98.438884 53.6450907,98.7461675 56.3543902,95.7774402 C60.2332137,97.188761 65.5938822,96.4365043 69.8362405,93.0488306 C73.86031,89.8357878 75.2153795,85.2970605 75.279187,81.1705632 C78.2025774,83.1485953 82.4743207,83.8597129 85.7041549,82.436638 C88.9339891,81.0144027 91.3376843,77.8592904 91.8515025,74.3683493 C89.7315827,74.7125739 87.5680052,73.2861407 86.6788982,71.3307771 C85.7897913,69.3754134 85.7906308,67.1480284 85.8082618,65.0004027 C85.8619945,58.2754295 85.9165667,51.5496166 85.9711389,44.8246434 C86.0072405,40.3715525 86.0408233,35.894114 85.3339036,31.4972744 C84.6261442,27.1004348 83.1342244,22.7480926 80.3955399,19.2361621 C77.6568554,15.7242316 73.5672993,13.1299535 69.1251228,12.8159535 C66.0296201,6.87178242 60.038433,2.790622 53.4712993,1.45738135 C46.9041656,0.124140713 38.360679,1.1450605 31.9916843,3.22887868 C21.4584116,6.6761621 12.9023314,12.2761086 8.60372174,22.4920231 C5.53256666,29.7895846 7.99587147,36.8445097 3.67039553,43.4746113 Z" id="Path" fill="#8B6002"></path>
                    <path d="M91.7146522,74.9971888 C89.1472405,75.9223974 86.2112565,75.8602691 83.7361977,74.6949429 C80.1361121,72.9998466 77.7147859,69.0656113 77.8222511,65.0885578 C79.896834,63.3884241 81.4273741,60.8587931 81.9076094,58.2200177 C82.3886843,55.5812423 82.1947431,53.3236327 80.8531068,51.001376 C83.2794704,45.4173814 81.2754116,35.5608038 76.2849945,29.7484455 C77.4133795,35.9302156 75.3984062,41.4436862 71.4557752,46.3375525 C67.5131442,51.2314188 61.8090907,54.5368145 55.7490586,56.2008466 C48.1500907,58.2880231 39.6494223,57.7985525 32.8631602,53.792114 C24.4926255,48.850392 19.5131228,39.0903653 11.9729249,32.9556113 C7.9345827,39.481606 7.08577521,48.5355525 9.70524045,56.3796755 C9.9243688,57.0362209 10.2660747,57.6692584 10.281187,58.3619054 C10.292941,58.8916755 10.1384597,59.4105311 10.0704544,59.9361033 C9.81354527,61.9250498 10.8034009,63.8569054 11.9317859,65.5150605 C13.0593314,67.1732156 14.3824971,68.765884 14.9399731,70.6918626 C16.0196629,74.4220819 13.72931,78.6056701 10.2677538,80.366253 C7.94717628,81.5466915 5.26222441,81.761622 2.68473778,81.2797076 C3.90631532,84.4977878 5.68788751,87.1651086 8.84467896,88.5436862 C12.0149036,89.9281407 15.7451228,89.9759963 18.9497699,88.6729803 C20.3736843,91.6744509 22.5229891,94.4635097 25.5924651,95.734622 C28.661941,97.0057343 32.2032565,97.0955685 35.3331816,95.9797771 C38.6444544,98.258376 42.8960479,99.3548573 46.8898929,98.8972904 C50.8828982,98.4397236 53.6459303,98.747007 56.3552298,95.7782798 C60.2340533,97.1896006 65.5947217,96.4373439 69.83708,93.0496701 C73.8611495,89.8366273 75.2162191,85.2979001 75.2800266,81.1714027 C78.2025774,83.1494348 82.4751602,83.8605525 85.7049945,82.4374776 C88.7366897,81.1017183 91.0194864,78.2329001 91.7146522,74.9971888 Z" id="Path" fill="#593F02"></path>
                    <path d="M45.0571068,99.8644776 C41.6106629,99.8644776 38.12308,98.8360017 35.2047271,96.9335311 C31.9849677,97.9670445 28.3857217,97.8259963 25.260834,96.531376 C22.5666469,95.414745 20.2477485,93.0790552 18.521588,89.7526701 C15.2674062,90.8567076 11.6589249,90.7148199 8.49877521,89.3345632 C5.47799447,88.0155953 3.36898912,85.5396969 1.86027789,81.5441728 C1.7511335,81.2545204 1.8057057,80.9279268 2.00300516,80.6894883 C2.20030463,80.4502102 2.51010676,80.3360284 2.81655062,80.3889215 C4.6165934,80.7046006 6.70209072,79.4309696 7.55677521,77.493237 C8.32918163,75.7410498 8.27628858,73.5044295 7.40817094,71.1939268 C6.68613885,69.2738252 5.50234206,67.4838573 4.35800516,65.7518199 L3.9793581,65.178392 C2.66374848,63.1776915 1.32630997,61.0191514 0.698309973,58.566761 C-0.739877192,52.9559001 0.059395535,47.4281568 2.94836345,43.0010926 L3.67123511,43.4729322 L2.94836345,43.0010926 C5.22192495,39.516868 5.52333136,35.8848787 5.84320837,32.0404776 C6.10851318,28.8459054 6.38305329,25.5430284 7.8078073,22.1561942 C11.7764651,12.7236006 19.375433,6.44863804 31.7230212,2.40777708 C38.8803741,0.0653706594 47.4859891,-0.639869982 53.642572,0.610253012 C60.5480533,2.01233857 66.5006201,6.25301772 69.6658073,11.9965311 C73.9526629,12.4482209 78.0883955,14.8720658 81.076433,18.7047129 C83.6463634,21.9991942 85.3649677,26.2575043 86.1869089,31.358745 C86.9072618,35.8403814 86.8703207,40.4110124 86.8342191,44.8305204 L86.6721816,65.0062798 C86.6562298,66.9507289 86.6385987,69.154606 87.4655774,70.9722798 C88.2463795,72.6883653 90.0741282,73.7823279 91.7146522,73.5153439 C91.985834,73.4733653 92.2628929,73.5598412 92.4593528,73.7529429 C92.6549731,73.9460445 92.747326,74.2214241 92.7070266,74.4934455 C92.1512298,78.2631247 89.5401602,81.6910979 86.0534169,83.2266755 C83.1510159,84.5045043 79.2302137,84.2366808 76.070064,82.6330979 C75.7661389,86.1231995 74.4530479,90.4671461 70.3760854,93.723007 C66.3251495,96.9587183 60.9829517,98.124884 56.5995453,96.7689749 C54.2327913,99.1046648 51.735064,99.3229535 48.8687645,99.5723065 C48.2726683,99.6235204 47.6480266,99.6780926 46.989802,99.7536541 C46.3475292,99.828376 45.7027378,99.8644776 45.0571068,99.8644776 Z M35.3315025,95.1166969 C35.5044544,95.1166969 35.6748875,95.1687503 35.8209731,95.2686594 C39.0096683,97.4633011 43.0093902,98.4741461 46.7899838,98.0392477 C47.4649998,97.962007 48.1047538,97.9057557 48.7159624,97.8528626 C51.7081977,97.5917557 53.6853902,97.4196434 55.7154757,95.1956166 C55.9513955,94.9370284 56.3199677,94.845515 56.6482405,94.9664134 C60.5732405,96.3945257 65.5359517,95.3761247 69.295556,92.3746541 C73.4346469,89.0700979 74.3632137,84.4507717 74.413588,81.1579696 C74.4186255,80.8406113 74.5966148,80.5517985 74.8778715,80.4057129 C75.1591282,80.2596273 75.4983153,80.2789375 75.7602618,80.4560872 C78.6156469,82.3879429 82.5616362,82.8765739 85.3540533,81.6474402 C87.9928287,80.4854723 90.0405453,78.0448359 90.7844062,75.2608145 C88.7727913,75.0777878 86.8006362,73.6891354 85.8905399,71.6884348 C84.9057217,69.5240177 84.9250319,67.1169642 84.9426629,64.9936862 L85.1047003,44.8179268 C85.1399624,40.4697824 85.176064,35.9730338 84.4783795,31.6349642 C83.7042939,26.823376 82.100711,22.8312102 79.7121282,19.7676113 C76.9541335,16.2313332 72.9728822,13.9544134 69.0621549,13.6781942 C68.7624276,13.6572049 68.4954437,13.4817343 68.3569143,13.2155899 C65.4931335,7.71639205 59.8629624,3.63775034 53.2966683,2.30367012 C47.409588,1.10811932 39.151556,1.7940498 32.2569891,4.04998029 C20.4207003,7.92292681 13.1575613,13.8897664 9.39711746,22.8270124 C8.07814955,25.9611354 7.81536345,29.1246434 7.56097308,32.184884 C7.23773778,36.074622 6.90358805,40.0961728 4.39158805,43.9464509 C1.77044366,47.9629642 1.05176987,53.0029161 2.36821906,58.1394188 C2.93073243,60.3340605 4.18421372,62.352392 5.42006398,64.2313546 L5.79619233,64.8005846 C6.99342227,66.6115418 8.23179126,68.4846273 9.02266826,70.5877557 C10.0503046,73.3230819 10.0906041,76.0231461 9.13433136,78.191761 C8.1730212,80.37213 6.10431532,81.889237 3.96760409,82.1310338 C5.24711211,84.9645899 6.9262565,86.7654723 9.18806398,87.7536487 C12.1265667,89.0356755 15.6536094,89.0810124 18.6223367,87.8737076 C19.0471602,87.7007557 19.5315934,87.890499 19.7272137,88.3035685 C20.8228554,90.6132316 22.7866148,93.6390498 25.9198982,94.937868 C28.7903955,96.1267022 32.1134223,96.2098199 35.0401709,95.1670712 C35.1358822,95.1326487 35.2341121,95.1166969 35.3315025,95.1166969 Z" id="Shape" fill="#3A3A3A"></path>
                    <path d="M44.565957,101.612467 C38.925711,101.612467 34.6858715,98.7486862 32.1226576,96.3466701 C31.7742351,96.0209161 31.7566041,95.4743546 32.0831977,95.1259322 C32.4106308,94.7775097 32.9563528,94.7598787 33.3039356,95.0864723 C35.6404651,97.2760765 39.4907431,99.8854669 44.5667966,99.8854669 C49.607588,99.8854669 53.4393955,97.3071407 55.7658501,95.1452423 C56.1151121,94.8203279 56.6616736,94.8404776 56.986588,95.1897396 C57.3115025,95.5390017 57.2913528,96.0855632 56.9420907,96.4104776 C54.3881121,98.7839482 50.1684223,101.612467 44.565957,101.612467 Z" id="Path" fill="#FFFFFF"></path>
                    <g id="Group" transform="translate(5.256347, 46.267028)">
                        <path d="M70.3368396,1.2198984 C70.3368396,1.2198984 76.761246,0.544042781 77.0500588,7.77863636 C77.3388717,15.0140695 71.3376096,16.3582246 68.7634813,15.8653957 L70.3368396,1.2198984 Z" id="Path" fill="#FFE4A3"></path>
                        <path d="M74.7991658,14.0695508 C72.8958556,15.809984 70.2562406,16.1516898 68.7634813,15.8662353 L70.3368396,1.2198984 C70.3368396,1.2198984 71.9269893,1.05282353 73.5599572,1.77569519 C72.638107,5.86273262 73.0881176,10.246139 74.7991658,14.0695508 Z" id="Path" fill-opacity="0.1" fill="#001436"></path>
                        <path d="M69.7927968,16.8199893 C69.3620963,16.8199893 68.9591016,16.7830481 68.6006043,16.7150428 C68.1589893,16.630246 67.8567433,16.2213743 67.9045989,15.7747219 L69.4779572,1.12838503 C69.521615,0.72371123 69.841492,0.404673797 70.2461658,0.361855615 C70.3687433,0.34842246 73.2828984,0.0671657754 75.511123,1.99398396 C77.0038824,3.28524599 77.8123904,5.22045989 77.913139,7.74505348 C78.0667807,11.5810588 76.5345615,13.7328824 75.2223102,14.8629465 C73.6010963,16.2591551 71.4794973,16.8199893 69.7927968,16.8199893 Z M69.7155561,15.0913102 C70.9614813,15.1064225 72.720385,14.7395294 74.0956043,13.554893 C75.5841658,12.2728663 76.2885668,10.3410107 76.1869786,7.81473797 C76.1063797,5.79304813 75.5035668,4.27845989 74.3936524,3.3121123 C73.2996898,2.35919786 71.9244706,2.12663636 71.1126043,2.07962032 L69.7155561,15.0913102 Z" id="Shape" fill="#3A3A3A"></path>
                        <path d="M8.28321925,1.2198984 C8.28321925,1.2198984 1.85881283,0.544042781 1.57,7.77863636 C1.28118717,15.0140695 7.2824492,16.3582246 9.85657754,15.8653957 L8.28321925,1.2198984 Z" id="Path" fill="#FFE4A3"></path>
                        <path d="M3.82089305,14.0695508 C5.72420321,15.809984 8.36381818,16.1516898 9.85657754,15.8662353 L8.28321925,1.2198984 C8.28321925,1.2198984 6.69306952,1.05282353 5.0601016,1.77569519 C5.98195187,5.86273262 5.53194118,10.246139 3.82089305,14.0695508 Z" id="Path" fill-opacity="0.1" fill="#001436"></path>
                        <path d="M8.82726203,16.8199893 C7.1405615,16.8199893 5.01980214,16.2591551 3.39858824,14.8637861 C2.0863369,13.7337219 0.554117647,11.5818984 0.706919786,7.74505348 C0.807668449,5.21962032 1.61617647,3.28524599 3.10893583,1.99398396 C5.338,0.0671657754 8.25131551,0.34842246 8.37389305,0.361855615 C8.77856684,0.404673797 9.09844385,0.72371123 9.1421016,1.12838503 L10.7154599,15.7747219 C10.7633155,16.2213743 10.4610695,16.6310856 10.0194545,16.7150428 C9.66011765,16.7830481 9.25712299,16.8199893 8.82726203,16.8199893 Z M7.50661497,2.07878075 C6.69558824,2.12579679 5.32036898,2.35751872 4.22640642,3.31127273 C3.11733155,4.27762032 2.51367914,5.79304813 2.43308021,7.8138984 C2.33149198,10.3410107 3.03589305,12.2720267 4.52529412,13.5540535 C5.90135294,14.7395294 7.68292513,15.0988663 8.90534225,15.0904706 L7.50661497,2.07878075 Z" id="Shape" fill="#3A3A3A"></path>
                    </g>
                    <path d="M37.9811923,86.1408306 L37.9811923,94.0244134 C37.9811923,94.0244134 40.4201495,95.9126113 44.565957,95.9126113 C48.7126041,95.9126113 51.1515613,94.0244134 51.1515613,94.0244134 L51.1515613,86.1408306 L37.9811923,86.1408306 Z" id="Path" fill="#FFE4A3"></path>
                    <path d="M49.9912725,87.0198626 C46.9276736,87.2658573 43.8439249,87.3540124 40.7660533,87.2834883 C40.2295667,87.5848947 39.1826201,87.6033653 38.5965987,87.8392851 C38.2523741,87.9778145 38.0693474,88.2481568 37.9820319,88.5495632 L37.9820319,89.4000498 C38.134834,90.0565953 38.5269143,90.7601568 39.1171335,91.2194027 C42.8876522,91.61736 46.6976308,90.4167717 49.7427592,88.6200872 C50.0836255,88.4185899 50.4345667,88.1910658 50.5655399,87.8720284 C50.6965132,87.552991 50.4152565,86.9854402 49.9912725,87.0198626 Z" id="Path" fill-opacity="0.1" fill="#001436"></path>
                    <path d="M44.565957,96.7756915 C40.1749945,96.7756915 37.5614062,94.7917824 37.4522618,94.7078252 C37.2406897,94.5441086 37.1172725,94.292237 37.1172725,94.025253 L37.1172725,86.1408306 C37.1172725,85.6639535 37.5034757,85.2777503 37.9803528,85.2777503 L51.1507217,85.2777503 C51.6275987,85.2777503 52.013802,85.6639535 52.013802,86.1408306 L52.013802,94.025253 C52.013802,94.292237 51.8903848,94.5449482 51.6788126,94.7078252 C51.5713474,94.7917824 48.9577592,96.7756915 44.565957,96.7756915 Z M38.8442725,93.5609696 C39.6057645,94.0218947 41.6299731,95.0486915 44.565957,95.0486915 C47.5002618,95.0486915 49.5244704,94.0235739 50.2876415,93.5609696 L50.2876415,87.0030712 L38.8442725,87.0030712 L38.8442725,93.5609696 Z" id="Shape" fill="#3A3A3A"></path>
                    <path d="M76.5385453,46.6456755 C76.5385453,65.6577878 67.6080159,88.640237 44.821187,88.640237 C22.0343581,88.640237 13.1038287,65.6586273 13.1038287,46.6456755 C13.1038287,46.6456755 23.4439998,10.5415525 38.8241228,10.5415525 C54.2034062,10.5415525 76.5385453,46.6456755 76.5385453,46.6456755 Z" id="Path" fill="#FFE4A3"></path>
                    <path d="M43.7952298,88.879515 C42.2478982,88.879515 40.9482405,88.7921995 39.7358982,88.6083332 C20.5659463,85.6941781 11.984679,65.1616006 11.984679,46.1058306 C11.984679,45.6289535 12.3708822,45.2427503 12.8477592,45.2427503 C13.3246362,45.2427503 13.7108394,45.6289535 13.7108394,46.1058306 C13.7108394,64.4227771 21.8378982,84.1409696 39.9944864,86.9006434 C41.2252993,87.087868 42.5627378,87.1651086 44.2150159,87.1499963 L45.3677485,87.1382423 C47.460802,87.1164134 49.2734383,86.930868 50.9106041,86.5715311 C67.8405774,82.8522263 75.4193955,63.567253 75.4193955,46.1058306 C75.4193955,45.6289535 75.8055987,45.2427503 76.2824757,45.2427503 C76.7593528,45.2427503 77.145556,45.6289535 77.145556,46.1058306 C77.145556,64.2590605 69.1477913,84.3332316 51.2800159,88.2582316 C49.52531,88.6435953 47.5968126,88.8425739 45.3837003,88.8652423 L44.2309677,88.8769963 C44.0848822,88.8786755 43.9396362,88.879515 43.7952298,88.879515 Z" id="Path" fill="#3A3A3A"></path>
                    <path d="M25.9098233,41.8416434 C24.9913314,40.5495418 28.0851549,38.6957664 30.9984704,38.0677664 C32.3736897,37.7713974 35.8705078,37.2592584 35.6899998,39.3825364 C35.5388768,41.1599108 33.342556,41.9919268 31.633187,42.3646969 C30.1051656,42.6988466 26.9257057,43.2705953 25.9098233,41.8416434 Z" id="Path" fill="#3A3A3A"></path>
                    <path d="M63.2229303,41.8416434 C64.1414223,40.5495418 61.0475987,38.6957664 58.1342832,38.0677664 C56.759064,37.7713974 53.2622458,37.2592584 53.4427538,39.3825364 C53.5938768,41.1599108 55.7901977,41.9919268 57.4995667,42.3646969 C59.027588,42.6988466 62.2070479,43.2705953 63.2229303,41.8416434 Z" id="Path" fill="#3A3A3A"></path>
                    <path d="M44.7372298,54.4746862 C43.9404757,53.8122637 41.6627164,59.345884 42.1723367,60.3827557 C42.4594704,60.9670979 44.9916201,62.1685257 45.664957,61.5967771 C46.135957,61.1963011 44.2351656,60.1501942 44.036187,59.520515 C43.6525025,58.3064937 45.3643902,54.9969001 44.7372298,54.4746862 Z" id="Path" fill="#3A3A3A"></path>
                    <path d="M51.7031602,66.3235685 C50.787187,65.7963172 48.6252886,67.666884 44.5667966,67.666884 C40.5083046,67.666884 38.3464062,65.7954776 37.430433,66.3235685 C36.5152993,66.8508199 38.6360586,69.2645899 41.9456522,70.0924081 C41.9540479,70.0949268 41.9632832,70.096606 41.971679,70.0991247 C43.6718126,70.5205899 45.4626201,70.5205899 47.1627538,70.0991247 C47.1711495,70.096606 47.1803848,70.0949268 47.1887806,70.0924081 C50.4975346,69.2645899 52.6182939,66.8508199 51.7031602,66.3235685 Z" id="Path" fill="#3A3A3A"></path>
                    <path d="M12.4254544,31.1018359 C11.2391389,36.6253814 10.4449036,50.9854241 14.4748501,58.8622904 C14.3623474,55.3184562 14.7451923,53.205253 16.8306897,50.338114 C17.87008,48.9091621 19.3544437,47.8538199 20.4097859,46.436622 C22.5011602,43.6274134 22.7009784,39.6948573 24.9804169,37.0359322 C26.8702939,34.8320552 29.8667271,33.9076862 32.7514971,33.5903279 C35.6371068,33.2729696 38.5714116,33.4551568 41.4326736,32.9614883 C44.6297645,32.4107289 47.6748929,31.0061247 50.1692618,28.9323814 C52.0070854,27.40436 53.5384651,25.5329535 55.3846843,24.015007 C56.3082137,23.2560338 57.3476041,22.5810177 58.4533207,22.1259696 C59.0065987,21.8984455 59.5758287,21.7254937 60.1559731,21.6239054 C60.7361175,21.5231568 61.3263367,21.4929322 61.9207538,21.5525418 C60.7638233,30.2966862 63.9281709,39.8711675 70.1712298,46.1016327 C70.1712298,46.1016327 73.9644169,48.7983386 76.0457164,54.420114 C76.0457164,54.420114 82.8596843,38.3809268 75.9911442,25.5984402 C69.1226041,12.8167931 53.5930372,-0.552554474 36.331433,6.25385729 C19.0706683,13.0602691 12.4254544,31.1018359 12.4254544,31.1018359 Z" id="Path" fill="#8B6002"></path>
                    <path d="M14.1952725,59.7950552 C13.8770747,59.7950552 13.5765078,59.618745 13.4262244,59.3240552 C9.24011746,51.1399054 10.4062832,36.3911407 11.5808447,30.9196487 C11.6807538,30.4528466 12.1383207,30.1547985 12.6059624,30.2563867 C13.0727645,30.3562958 13.3691335,30.8155418 13.2683848,31.2815043 C12.1853367,36.3264937 11.4431549,47.3702263 13.625203,55.0430765 C14.0172832,53.2413546 14.8081602,51.6478466 16.131326,49.8293332 C16.7022351,49.0434937 17.3831282,48.3777129 18.0413528,47.7329215 C18.6559196,47.1309482 19.2369036,46.5625578 19.7154597,45.9202851 C20.631433,44.6894723 21.1603634,43.2084669 21.7203581,41.6393065 C22.3601121,39.8451407 23.0225346,37.9896862 24.3238715,36.4725792 C26.0987271,34.4021942 28.9020586,33.1436755 32.6566255,32.730606 C33.9143046,32.5920765 35.1862565,32.5467396 36.4162298,32.5022423 C38.1037699,32.4409535 39.6972779,32.3838626 41.2849089,32.1101621 C44.3459891,31.5829108 47.2274009,30.253868 49.6159838,28.2674402 C50.490818,27.5403707 51.3211549,26.7041568 52.1246255,25.8956487 C52.9809891,25.0342477 53.8650586,24.1443011 54.8356041,23.3467076 C55.9136148,22.4609589 57.0201709,21.7809054 58.1233688,21.3258573 C58.7522084,21.0664295 59.3852458,20.8800445 60.0065292,20.7717396 C60.6823848,20.65336 61.3548822,20.6273332 62.0063902,20.6919803 C62.2389517,20.7154883 62.452203,20.8313493 62.597449,21.0152156 C62.742695,21.1982423 62.8073421,21.4333225 62.7762779,21.6650445 C61.6520907,30.1623546 64.7937699,39.5143493 70.7815987,45.4895846 C71.1191068,45.826253 71.1199463,46.3728145 70.7824383,46.7111621 C70.4466094,47.0478306 69.8992084,47.0495097 69.5617003,46.7128412 C63.4311442,40.5948787 60.1106362,31.1471728 60.9552458,22.3971514 C60.7403153,22.4105846 60.5220266,22.4366113 60.3037378,22.474392 C59.806711,22.5617076 59.294572,22.7128306 58.782433,22.9235632 C57.8370747,23.3131247 56.8782832,23.9050231 55.9329249,24.6816273 C55.0303848,25.4238092 54.2143207,26.2449108 53.3504009,27.113868 C52.5183848,27.9509215 51.6586629,28.8165204 50.7208608,29.596483 C48.0997164,31.7760124 44.9378875,33.2335097 41.5787592,33.8128145 C39.8761068,34.1066648 38.1491068,34.1687931 36.4783581,34.2292423 C35.279449,34.2729001 34.0402405,34.3173974 32.8446897,34.4492102 C29.5401335,34.812745 27.1146094,35.8722851 25.6344437,37.5984455 C24.5413207,38.8737557 23.9611763,40.500007 23.3466094,42.22113 C22.7689838,43.8406648 22.1712084,45.5147717 21.1007538,46.9529589 C20.5415987,47.7035364 19.8850533,48.3466487 19.2494971,48.9679322 C18.613941,49.5900552 18.0136469,50.1777557 17.5275346,50.8460552 C15.5495025,53.5654295 14.9492084,55.5233118 15.0566736,58.9042691 C15.0701068,59.3081033 14.8006041,59.6674402 14.4093634,59.7681888 C14.3388394,59.7858199 14.2666362,59.7950552 14.1952725,59.7950552 Z" id="Path" fill="#3A3A3A"></path>
                    <path d="M18.6097431,40.1238787 C18.5602084,40.1238787 18.5089945,40.1196808 18.4586201,40.1104455 C17.9892993,40.0273279 17.6752993,39.5798359 17.7592565,39.1096755 C18.800326,33.2217557 23.8579089,28.3732263 29.7836094,27.5815097 C31.0975399,27.4060391 32.4366576,27.4152744 33.7312779,27.4236701 C35.9620212,27.4387824 38.0651495,27.4530552 39.9088501,26.5740231 C42.0321282,25.5631781 43.4216201,23.5641568 44.8933902,21.4475953 C45.7220479,20.2562423 46.5792511,19.0229108 47.5934544,17.9490979 C51.5100586,13.8007717 57.9730854,12.3088519 63.3127645,14.3238252 C63.7585774,14.4925792 63.9835827,14.9904455 63.8156683,15.4370979 C63.6460747,15.8829108 63.1482084,16.1079161 62.7023955,15.9400017 C57.997433,14.1634669 52.3000961,15.4790765 48.8486148,19.1345739 C47.9225667,20.1151942 47.1031442,21.2939535 46.310588,22.433253 C44.7750105,24.6413279 43.1882191,26.9249642 40.6510319,28.1331086 C38.448834,29.1817343 36.0451389,29.1657824 33.7186843,29.1498306 C32.4836736,29.143114 31.2058447,29.1330391 30.0111335,29.2925578 C24.893941,29.9759696 20.3577324,34.3257931 19.4585506,39.4094027 C19.3855078,39.8291888 19.0211335,40.1238787 18.6097431,40.1238787 Z" id="Path" fill="#3A3A3A"></path>
                    <path d="M72.2575667,19.467884 C71.9889036,19.467884 71.7244383,19.3427878 71.5556843,19.1085471 C70.865556,18.1489161 69.8589089,17.444515 68.7212886,17.124638 C68.2620426,16.9953439 67.9942191,16.5184669 68.1235132,16.0592209 C68.2528073,15.5999749 68.7288447,15.3346701 69.1889303,15.4614455 C70.7018394,15.8871086 72.0401175,16.8240712 72.9577699,18.1002209 C73.2356683,18.4872637 73.1483528,19.0271086 72.76131,19.3058466 C72.6085078,19.414991 72.4321977,19.467884 72.2575667,19.467884 Z" id="Path" fill="#3A3A3A"></path>
                    <path d="M63.824064,12.791606 C63.6141709,12.791606 63.4034383,12.7152049 63.237203,12.5615632 C60.7109303,10.2191568 57.2896736,8.93377173 53.8432298,9.04963269 C53.3739089,9.08237601 52.967556,8.69113537 52.9524437,8.21425836 C52.9364918,7.73738135 53.310941,7.33858456 53.787818,7.32347226 C57.6901495,7.18326371 61.5547003,8.64579847 64.4117645,11.2954883 C64.7618661,11.6195632 64.7820159,12.1661247 64.457941,12.5153867 C64.2866683,12.699253 64.0557859,12.791606 63.824064,12.791606 Z" id="Path" fill="#3A3A3A"></path>
                    <path d="M76.0473955,55.2831942 C76.0163314,55.2831942 75.9861068,55.281515 75.9550426,55.2781568 C75.6024223,55.240376 75.308572,54.9910231 75.2145399,54.6484776 C75.2053046,54.6165739 74.3094811,51.4278787 71.9754704,48.4390017 C71.6816201,48.0628733 71.7487859,47.5205097 72.1240747,47.2266594 C72.4985239,46.9328092 73.0425667,46.9999749 73.3364169,47.3752637 C74.6906469,49.1098199 75.5940266,50.879638 76.1498233,52.1826541 C79.1067966,45.2234402 79.262957,36.5439429 76.4562672,29.5058092 C76.279957,29.0633546 76.4957271,28.5604509 76.9390212,28.3841407 C77.3831549,28.206991 77.8843795,28.4244402 78.0606897,28.8668947 C81.2997592,36.987237 80.809449,47.174606 76.8130854,54.8205899 C76.6619624,55.106884 76.3655934,55.2831942 76.0473955,55.2831942 Z" id="Path" fill="#3A3A3A"></path>
                    <path d="M57.9957538,49.8058252 C58.0117057,49.9502316 58.0310159,50.0937985 58.0310159,50.2432423 C58.0310159,52.0298519 56.8740854,53.478114 55.4459731,53.478114 C54.0178608,53.478114 52.8609303,52.0298519 52.8609303,50.2432423 C52.8609303,48.4566327 54.0178608,47.0083707 55.4459731,47.0083707 C56.3191282,47.0083707 57.0881763,47.5540926 57.5566576,48.3844295 C58.3475346,47.9747183 58.9780533,47.4155632 59.2551121,47.733761 C59.5489624,48.0695899 58.8873795,49.215606 57.9957538,49.8058252 Z M34.1938822,47.0083707 C33.3207271,47.0083707 32.551679,47.5540926 32.0831977,48.3844295 C31.2923207,47.9747183 30.6626415,47.4155632 30.3847431,47.733761 C30.0908929,48.0704295 30.7524757,49.215606 31.6432618,49.8058252 C31.62731,49.9502316 31.6079998,50.0937985 31.6079998,50.2432423 C31.6079998,52.0298519 32.7657699,53.478114 34.1930426,53.478114 C35.6203153,53.478114 36.7780858,52.0298519 36.7780858,50.2432423 C36.7789249,48.4566327 35.6219945,47.0083707 34.1938822,47.0083707 Z" id="Shape" fill="#3A3A3A"></path>
                </g>
                <path d="M53,96 C51,96 52.2040695,97.1109741 56.6122084,99.3329223 C56.6122084,99.3329223 59.0511656,99.9126113 63.1969731,99.9126113 C67.3436201,99.9126113 69.7825774,99.3329223 69.7825774,99.3329223 L75,96 C62.3333333,96 55,96 53,96 Z" id="Path-Copy-9" fill="#FADF4C" fill-rule="nonzero"></path>
            </g>
        </g>
    </g>
</svg>