<?xml version="1.0" encoding="UTF-8"?>
<svg width="129px" height="163px" viewBox="0 0 129 163" version="1.1" xmlns="http://www.w3.org/2000/svg" xmlns:xlink="http://www.w3.org/1999/xlink">
    <title>subscription-charather04</title>
    <defs>
        <circle id="path-1" cx="64.5" cy="64.5" r="64.5"></circle>
        <rect id="path-3" x="0" y="0" width="100" height="53"></rect>
    </defs>
    <g id="Page-1" stroke="none" stroke-width="1" fill="none" fill-rule="evenodd">
        <g id="025-subscribe" transform="translate(-898.000000, -129.000000)">
            <g id="subscription-charather04" transform="translate(898.000000, 129.000000)">
                <g id="03" transform="translate(0.000000, 34.000000)">
                    <mask id="mask-2" fill="white">
                        <use xlink:href="#path-1"></use>
                    </mask>
                    <use id="Mask" fill="#E6EFFF" xlink:href="#path-1"></use>
                    <g mask="url(#mask-2)" fill-rule="nonzero">
                        <g transform="translate(17.000000, -29.000000)">
                            <path d="M4.53721925,43.7499465 C1.73912836,48.213417 0.959533043,53.6521686 2.39112299,58.7219251 C3.09039242,61.0160194 4.16690631,63.1776136 5.57647059,65.1179679 C6.9793119,67.0588448 8.16639503,69.1468646 9.11668449,71.3450267 C10.0563491,73.5740783 10.1017342,76.0793389 9.24342246,78.3409626 C8.2802139,80.5293048 5.86374332,82.1684492 3.53176471,81.7206417 C4.7568984,84.9820321 6.55657754,87.6857754 9.75037433,89.0714439 C12.9784028,90.4592571 16.6255291,90.5078854 19.8894118,89.206631 C21.3257754,92.2229947 23.4887701,95.0281283 26.5727273,96.3124064 C29.6995862,97.5911947 33.1869446,97.6783787 36.3737968,96.5574332 C39.7823306,98.8823562 43.9044929,99.9241227 48.0083422,99.497754 C52.0301604,99.0330481 54.8099465,99.3456684 57.5305882,96.3546524 C61.4341176,97.7741176 66.8247059,97.022139 71.1,93.6086631 C75.1471658,90.3726203 76.5159358,85.8100535 76.5750802,81.6530481 C79.5154011,83.6470588 83.8160428,84.3652406 87.068984,82.928877 C90.3682621,81.4388789 92.6938442,78.3857582 93.2537968,74.8091979 C91.0390457,75.0268489 88.9366558,73.7913536 88.0490909,71.7505882 C87.1534759,69.7819251 87.1534759,67.5259893 87.2041711,65.379893 C87.2661319,58.6205348 87.3224599,51.8611765 87.3731551,45.1018182 C87.5318105,40.6221159 87.3170215,36.1369823 86.731016,31.6929412 C86.1230465,27.2270068 84.403122,22.9853012 81.7290909,19.3571123 C78.9746524,15.8253476 74.8514439,13.2145455 70.3818182,12.9019251 C67.2725134,6.91989305 61.2397861,2.81358289 54.6325134,1.47016043 C48.0252406,0.126737968 39.4239572,1.15754011 33.011016,3.25294118 C22.4157219,6.7171123 13.8059893,12.3527273 9.48,22.6354011 C6.41294118,29.977754 8.89700535,37.0835294 4.53721925,43.7499465 Z" id="Path" fill="#8B6002"></path>
                            <path d="M93.1439572,75.4766845 C89.9227116,76.6816474 86.3130775,76.2049909 83.515027,74.2051729 C80.7169765,72.2053548 79.0972607,68.944499 79.1943316,65.506631 C81.3235382,63.7476649 82.7775816,61.3053497 83.3090909,58.5951872 C83.8882468,56.1257069 83.5077151,53.5284273 82.244492,51.328877 C84.6863102,45.7101604 82.6754011,35.7908021 77.6481283,29.935508 C78.7887701,36.1625668 76.7609626,41.7052406 72.7898396,46.631123 C68.6825078,51.5055713 63.1559826,54.9762645 56.9813904,56.5589305 C49.3348663,58.6627807 40.7842781,58.1642781 33.948877,54.1340107 C25.4996791,49.1574332 20.5146524,39.3394652 12.9272727,33.1631016 C8.86320856,39.7365775 8.00983957,48.8448128 10.6459893,56.7363636 C10.9361621,57.369181 11.1325577,58.0409107 11.228984,58.7303743 C11.1965782,59.2642204 11.1259877,59.7950609 11.017754,60.3188235 C10.7558289,62.3212834 11.7528342,64.2645989 12.8850267,65.9290909 C14.0172193,67.5935829 15.3521925,69.2073797 15.9098396,71.142246 C16.9997861,74.8936898 14.6931551,79.1098396 11.2120856,80.8757219 C8.8481793,82.0126652 6.17478102,82.3364434 3.60780749,81.7966845 C4.83294118,85.0411765 6.62417112,87.711123 9.80951872,89.1052406 C13.0375472,90.4930539 16.6846735,90.5416822 19.9485561,89.2404278 C21.3849198,92.2567914 23.5479144,95.0619251 26.6318717,96.3462032 C29.7587305,97.6249915 33.2460889,97.7121755 36.4329412,96.5912299 C39.841475,98.916153 43.9636373,99.9579195 48.0674866,99.5315508 C52.0893048,99.0668449 54.8690909,99.3794652 57.5897326,96.3884492 C61.493262,97.8079144 66.8838503,97.0559358 71.1591444,93.6424599 C75.2063102,90.4064171 76.5750802,85.8438503 76.6342246,81.6868449 C79.5745455,83.6808556 83.8751872,84.3905882 87.1281283,82.9626738 C90.1971063,81.5497267 92.4246289,78.7778376 93.1439572,75.4766845 Z" id="Path" fill="#593F02"></path>
                            <path d="M46.1917647,100.503209 C42.6711818,100.490281 39.2283332,99.4668108 36.2724064,97.5544385 C32.9930446,98.5938554 29.4530174,98.4503408 26.2685561,97.148877 C23.5563636,96.0251337 21.1990374,93.6762567 19.5091979,90.3219251 C16.2112734,91.438641 12.6161876,91.291104 9.42085561,89.9079144 C6.38759358,88.5813904 4.25839572,86.088877 2.7459893,82.0670588 C2.6176093,81.7758388 2.66376566,81.4371847 2.86539819,81.1909432 C3.06703072,80.9447017 3.38992742,80.8326538 3.70074866,80.9010695 C5.75682921,81.0718989 7.68725623,79.8931425 8.47454545,77.9860963 C9.24813571,75.9341012 9.19359855,73.6617195 8.32245989,71.6491979 C7.50545975,69.7164947 6.47683115,67.8802651 5.25540107,66.1741176 L4.87518717,65.5995722 C3.41437499,63.5776022 2.29809509,61.3279128 1.5715508,58.9416043 C0.0673581916,53.638433 0.880970141,47.9462196 3.81058824,43.2767914 C6.10032086,39.7703743 6.40449198,36.1118717 6.7255615,32.242139 C6.99593583,29.0314439 7.26631016,25.7109091 8.7026738,22.2974332 C12.6991444,12.808984 20.3456684,6.48898396 32.7659893,2.42491979 C39.9731551,0.0675935829 48.6335829,-0.642139037 54.8268449,0.616791444 C61.6120002,1.91237637 67.4987023,6.09381586 70.9563636,12.0739037 C75.5386855,12.686606 79.6793119,15.1240608 82.4388235,18.833262 C85.1998361,22.5751804 86.9672508,26.9559271 87.5759358,31.5662032 C88.1731065,36.0602629 88.3935532,40.596378 88.2349733,45.1271658 L88.0659893,65.4052406 C88.0659893,67.3654545 88.0659893,69.5791444 88.8686631,71.4126203 C89.5934194,73.0951525 91.3200071,74.1188211 93.1439572,73.9473797 C93.4155533,73.9002274 93.693075,73.9885297 93.8874866,74.1839572 C94.08906,74.3750679 94.1838251,74.6530455 94.1409626,74.9274866 C93.5271347,78.7942664 91.0136092,82.0948555 87.4491979,83.7146524 C84.1666831,84.9602878 80.5084891,84.7451 77.3946524,83.1232086 C77.1343534,87.4798906 75.0557138,91.5267995 71.6660963,94.2761497 C67.5935829,97.5375401 62.2114439,98.7119786 57.8009626,97.3432086 C55.4182888,99.6920856 52.908877,99.8779679 50.0277005,100.165241 C49.4193583,100.215936 48.7941176,100.27508 48.1350802,100.351123 C47.4903885,100.435526 46.8417378,100.48629 46.1917647,100.503209 L46.1917647,100.503209 Z M36.3991444,95.7209626 C36.5771866,95.7178607 36.7516573,95.7710891 36.8976471,95.8730481 C40.1250843,98.0899183 44.0391727,99.07893 47.9322995,98.6612834 C48.6166845,98.5852406 49.2588235,98.5260963 49.875615,98.4754011 C52.8835294,98.2134759 54.8775401,98.044492 56.9137968,95.8054545 C57.1458933,95.5377571 57.5203564,95.443298 57.8516578,95.568877 C61.8058824,97.0052406 66.7993583,95.9828877 70.5845989,92.9665241 C73.9231712,90.1783066 75.8184198,86.0274016 75.7386096,81.6783957 C75.7363742,81.3571937 75.916462,81.0625046 76.2033155,80.9179679 C76.4847627,80.7654379 76.8282414,80.7850653 77.0904813,80.9686631 C79.9632086,82.9119786 83.9343316,83.4020321 86.7479144,82.1684492 C89.4339956,80.9448701 91.4349323,78.5877295 92.2060963,75.7386096 C90.0523485,75.4824841 88.1882714,74.1212594 87.2886631,72.1477005 C86.2916578,69.9678075 86.3170053,67.5428877 86.3339037,65.3883422 L86.4944385,45.1102674 C86.6506911,40.6786031 86.4387332,36.241616 85.8607487,31.8450267 C85.2969785,27.5249272 83.6489004,23.417812 81.0700535,19.9063102 C78.5035016,16.4607547 74.6190461,14.2384421 70.3480214,13.7721925 C70.0451889,13.75589 69.7743222,13.5785368 69.6382888,13.3074866 C66.4819528,7.56410302 60.921114,3.53450969 54.4804278,2.32352941 C48.5659893,1.11529412 40.2519786,1.80812834 33.306738,4.08096257 C21.4018182,7.97604278 14.0848128,13.9834225 10.3080214,22.973369 C8.98149733,26.1249198 8.71112299,29.3102674 8.45764706,32.3942246 C8.12812834,36.3062032 7.79860963,40.353369 5.26385027,44.2231016 L5.26385027,44.2231016 C2.59385141,48.4797755 1.85386075,53.6689216 3.22759358,58.502246 C3.91157457,60.6983016 4.95048497,62.76756 6.3031016,64.6279144 L6.68331551,65.2109091 C7.98071787,67.0229531 9.06912529,68.9758508 9.92780749,71.0324064 C10.9496758,73.456903 10.9890626,76.1836849 10.0376471,78.6366845 C9.12871641,80.7927643 7.15718476,82.315492 4.84139037,82.6500535 C6.12566845,85.5058824 7.81550802,87.3224599 10.0967914,88.311016 C13.1194879,89.6037938 16.5312555,89.646327 19.5852406,88.4293048 C19.791315,88.3389221 20.0249299,88.3344763 20.2342938,88.416953 C20.4436578,88.4994297 20.6114727,88.6620145 20.7005348,88.8686631 C21.8073797,91.1921925 23.784492,94.2339037 26.9360428,95.5435294 C29.8644291,96.7362941 33.1278311,96.8174284 36.1118717,95.7716578 C36.2039658,95.7382318 36.3011719,95.7210778 36.3991444,95.7209626 Z" id="Shape" fill="#3A3A3A"></path>
                            <path d="M2.45026738,133.793048 L18.5797861,139.445561 L72.8151872,139.445561 L88.9447059,133.793048 L80.6137968,110.338075 C79.4373905,107.031842 77.0102165,104.319475 73.8544385,102.784492 C72.5025668,102.125455 71.1253476,101.500214 69.7396791,100.900321 C67.2049198,99.7934759 64.6279144,98.7964706 62.2874866,97.9346524 C56.6772193,95.8814973 52.3427807,94.6225668 52.3427807,94.6225668 L39.0775401,94.6225668 C39.0775401,94.6225668 34.76,95.8730481 29.1750802,97.917754 C26.8262032,98.7626738 24.2491979,99.7850267 21.6806417,100.900321 C20.2949733,101.500214 18.917754,102.125455 17.5658824,102.784492 C14.4078749,104.316521 11.9797478,107.029953 10.8065241,110.338075 L2.45026738,133.793048 Z" id="Path" fill="#FADF4C"></path>
                            <path d="M18.5797861,139.445561 L19.7964706,139.445561 L21.3426738,105.133369 C18.8079144,114.951337 16.484385,127.202674 14.6340107,138.085241 L18.5797861,139.445561 Z" id="Path" fill="#CCCCCC"></path>
                            <polygon id="Path" fill="#FFFFFF" points="3.86128342 129.805027 2.45026738 133.784599 18.5797861 139.445561 19.4247059 135.254759"></polygon>
                            <path d="M18.5797861,139.445561 L19.4247059,135.220963 L15.3690909,133.801497 C15.115615,135.229412 14.8705882,136.640428 14.6340107,138.026096 L18.5797861,139.445561 Z" id="Path" fill="#E3E3E3"></path>
                            <path d="M72.8151872,139.445561 L71.5900535,139.445561 L70.0354011,105.133369 C72.5701604,114.951337 74.8936898,127.202674 76.7525134,138.085241 L72.8151872,139.445561 Z" id="Path" fill="#CCCCCC"></path>
                            <polygon id="Path" fill="#FFFFFF" points="87.5252406 129.805027 88.9447059 133.784599 72.8151872 139.445561 71.9702674 135.254759"></polygon>
                            <path d="M72.8151872,139.445561 L71.9702674,135.220963 L76.0258824,133.801497 C76.2793583,135.229412 76.524385,136.640428 76.7609626,138.026096 L72.8151872,139.445561 Z" id="Path" fill="#E3E3E3"></path>
                            <polygon id="Path" fill="#FFFFFF" points="87.5252406 129.805027 88.9447059 133.784599 72.8151872 139.445561 71.9702674 135.254759"></polygon>
                            <path d="M45.693262,102.260642 C40.9961295,102.157947 36.5161553,100.262573 33.1715508,96.9629947 C32.9451552,96.7501828 32.8494908,96.432756 32.9205935,96.1302857 C32.9916962,95.8278155 33.2187637,95.5862542 33.516262,95.4965959 C33.8137602,95.4069375 34.1364921,95.4828031 34.3628877,95.695615 C37.3160241,98.7675104 41.3899897,100.50853 45.6511435,100.519681 C49.9122973,100.530832 53.9953189,98.8111572 56.964492,95.7547594 C57.3144692,95.4281139 57.8629802,95.4470281 58.1896257,95.7970053 C58.5162711,96.1469826 58.4973569,96.6954936 58.1473797,97.022139 C54.8122834,100.28711 50.3593951,102.160103 45.693262,102.260642 L45.693262,102.260642 Z" id="Path" fill="#FFFFFF"></path>
                            <path d="M72.8151872,140.315829 L18.5797861,140.315829 C18.4818136,140.315829 18.3846075,140.29856 18.2925134,140.265134 L2.16299465,134.61262 C1.93951682,134.542204 1.75531462,134.38215 1.65439077,134.17069 C1.55346692,133.959231 1.54488504,133.715357 1.63069519,133.497326 L9.96160428,110.025455 C11.2119949,106.495586 13.8050781,103.6019 17.1772193,101.973369 C24.1835395,98.7131124 31.4183526,95.9682886 38.8240642,93.7607487 C38.9055345,93.7525606 38.9876205,93.7525606 39.0690909,93.7607487 L52.3258824,93.7607487 C52.4045284,93.7525486 52.4838139,93.7525486 52.5624599,93.7607487 C59.970652,95.9690653 67.2082184,98.7138622 74.217754,101.973369 C77.5898951,103.6019 80.1829783,106.495586 81.433369,110.025455 L89.7642781,133.471979 C89.8485739,133.68649 89.8485739,133.924954 89.7642781,134.139465 C89.6669359,134.351064 89.4865626,134.513094 89.2657754,134.587273 L73.1362567,140.239786 C73.0352709,140.285987 72.9261677,140.311828 72.8151872,140.315829 Z M18.7403209,138.575294 L72.68,138.575294 L87.8885561,133.260749 L79.853369,110.633797 C78.755491,107.533538 76.4781396,104.992014 73.5164706,103.561818 C66.6350456,100.361184 59.5303054,97.6644328 52.2582888,95.4928342 L39.1958289,95.4928342 C31.9242312,97.66567 24.8195795,100.362388 17.9376471,103.561818 C14.9742903,104.989769 12.6962115,107.532105 11.6007487,110.633797 L3.5571123,133.260749 L18.7403209,138.575294 Z" id="Shape" fill="#3A3A3A"></path>
                            <path d="M72.5194652,157.501497 L18.875508,157.501497 C18.875508,157.501497 18.8163636,149.525455 19.0782888,139.445561 C19.3655615,128.309519 20.0583957,113.582567 21.6721925,100.900321 C24.2069519,99.7934759 26.7839572,98.7964706 29.124385,97.9346524 C28.4737968,105.445989 28.3808556,114.148663 28.2794652,121.651551 L63.1408556,121.651551 C63.0479144,114.140214 62.9042781,105.429091 62.2959358,97.917754 C64.6448128,98.7626738 67.2218182,99.7850267 69.7903743,100.900321 C71.4126203,113.574118 72.1054545,128.309519 72.3927273,139.445561 C72.5786096,149.525455 72.5194652,157.501497 72.5194652,157.501497 Z" id="Path" fill="#12276A"></path>
                            <path d="M72.5194652,157.526845 L72.5194652,157.526845 C72.0528289,157.526845 71.6745455,157.148561 71.6745455,156.681925 C71.6745455,156.614332 71.7336898,149.449412 71.4717647,139.504706 C71.2098396,129.24738 70.5592513,114.39369 68.9370053,101.534011 C67.1542246,100.773583 65.2362567,100.004706 63.2168984,99.2442781 C63.7660963,106.299358 63.9012834,114.174011 63.9942246,121.676898 C63.9942246,122.143535 63.6159411,122.521818 63.1493048,122.521818 L28.2794652,122.521818 C28.0465545,122.523256 27.8233808,122.428483 27.6626738,122.259893 C27.4971911,122.097744 27.4055521,121.874756 27.4091979,121.643102 L27.4091979,120.688342 C27.502139,113.836043 27.6035294,106.121925 28.1358289,99.2273797 C26.1418182,99.9709091 24.2407487,100.739786 22.4579679,101.500214 C20.8441711,114.385241 20.1935829,129.230481 19.9232086,139.470909 C19.6612834,149.415615 19.7204278,156.580535 19.7204278,156.648128 C19.7204278,157.114765 19.3421443,157.493048 18.875508,157.493048 L18.875508,157.493048 C18.4088717,157.493048 18.0305882,157.114765 18.0305882,156.648128 C18.0305882,156.572086 17.979893,149.381818 18.233369,139.403316 C18.5037433,128.993904 19.1712299,113.844492 20.8357219,100.773583 C20.8774946,100.469597 21.0719813,100.208155 21.351123,100.080749 C23.6746524,99.0837433 26.2009626,98.0782888 28.8540107,97.0981818 C29.1342637,96.9795857 29.4566411,97.0208591 29.6979774,97.2062333 C29.9393136,97.3916075 30.0623194,97.6924401 30.02,97.9937968 C29.3947594,105.158717 29.2849198,113.413583 29.1750802,120.696791 L29.1750802,120.764385 L62.2452406,120.764385 C62.1438503,113.075615 61.9833155,105.048877 61.4003209,97.9515508 C61.3685979,97.6534503 61.4972086,97.3608608 61.7382888,97.1826738 C61.9762478,96.9906545 62.2993839,96.9421841 62.5832086,97.0559358 C65.2869519,98.0529412 67.8217112,99.0583957 70.119893,100.06385 C70.4031923,100.181503 70.600469,100.44346 70.6352941,100.748235 C72.3251337,113.785348 72.9757219,128.951658 73.2460963,139.377968 C73.5080214,149.356471 73.448877,156.546738 73.448877,156.622781 C73.4677268,156.872393 73.3749236,157.117514 73.1954887,157.292055 C73.0160538,157.466596 72.7684609,157.552588 72.5194652,157.526845 Z" id="Path" fill="#3A3A3A"></path>
                            <path d="M29.9862137,128.174332 C29.9896202,129.56332 29.1550913,130.817283 27.8724839,131.350406 C26.5898765,131.883529 25.1123646,131.590578 24.1301983,130.608411 C23.148032,129.626245 22.8550811,128.148733 23.3882037,126.866126 C23.9213263,125.583518 25.1752893,124.748989 26.5642781,124.752396 C28.4541551,124.752396 29.9862137,126.284454 29.9862137,128.174332 Z" id="Path" fill="#FFFFFF"></path>
                            <path d="M61.4510056,128.174332 C61.4475991,129.56332 62.282128,130.817283 63.5647353,131.350406 C64.8473427,131.883529 66.3248546,131.590578 67.3070209,130.608411 C68.2891873,129.626245 68.5821381,128.148733 68.0490155,126.866126 C67.5158929,125.583518 66.2619299,124.748989 64.8729412,124.752396 C62.9830641,124.752396 61.4510056,126.284454 61.4510056,128.174332 Z" id="Path" fill="#FFFFFF"></path>
                            <path d="M62.9549733,157.526856 C62.5194356,157.529028 62.1536023,157.199778 62.1100535,156.766417 L61.2651337,150.302781 C58.0241827,149.966698 55.3501166,147.617993 54.5987166,144.447487 L36.7878075,144.447487 C36.0397441,147.616681 33.3686378,149.965764 30.1298396,150.302781 L29.2849198,156.766417 C29.2456779,157.068278 29.0483761,157.326273 28.767336,157.443219 C28.486296,157.560165 28.1642144,157.518295 27.9224162,157.33338 C27.6806181,157.148465 27.5558383,156.848599 27.5950802,156.546738 L28.524492,149.356471 C28.5720737,148.926461 28.936786,148.601867 29.3694118,148.604492 C32.3259949,148.592122 34.8192505,146.398345 35.2078075,143.46738 C35.2513563,143.034019 35.6171897,142.704769 36.0527273,142.706941 L55.3168984,142.706941 C55.752436,142.704769 56.1182693,143.034019 56.1618182,143.46738 C56.5508108,146.401519 59.0488624,148.596339 62.0086631,148.604492 C62.4412889,148.601867 62.8060011,148.926461 62.8535829,149.356471 L63.7829947,156.546738 C63.8189862,156.776427 63.7587425,157.010797 63.6164496,157.194658 C63.4741567,157.37852 63.2623898,157.495624 63.031016,157.518396 L62.9549733,157.526856 Z" id="Path" fill="#001436"></path>
                            <path d="M76.9214973,47.7886631 C76.9214973,47.7886631 83.3851337,47.1127273 83.6808556,54.3874866 C83.9765775,61.662246 77.9354011,63.0225668 75.3414973,62.5325134 L76.9214973,47.7886631 Z" id="Path" fill="#FFE4A3"></path>
                            <path d="M81.4080214,60.724385 C79.7460768,62.1886391 77.5251985,62.8496516 75.3330481,62.5325134 L76.9214973,47.7886631 C78.0318038,47.7167294 79.1434174,47.907788 80.1659893,48.3463102 C79.2470045,52.4990706 79.682278,56.8370001 81.4080214,60.724385 Z" id="Path" fill-opacity="0.1" fill="#001436"></path>
                            <path d="M76.3722995,63.4874266 C75.9701203,63.4900154 75.5685288,63.4560781 75.1725134,63.3858824 C74.7211794,63.3122066 74.4103791,62.8928135 74.4712299,62.4395722 L76.0596791,47.6957219 C76.0951023,47.2866524 76.4194866,46.9622681 76.8285561,46.9268449 C78.738485,46.7809581 80.632406,47.366956 82.1262032,48.5659893 C83.715907,50.0653145 84.5942721,52.169091 84.5426738,54.3536898 C84.7032086,58.2149733 83.1570053,60.3864171 81.8389305,61.5186096 C80.3016589,62.7915551 78.3681937,63.4878417 76.3722995,63.4874266 L76.3722995,63.4874266 Z M76.2962567,61.7467479 C77.8997348,61.7494358 79.4559484,61.2038667 80.706738,60.2005348 C82.202246,58.9162567 82.9119786,56.9729412 82.8105882,54.4297326 C82.867092,52.7313346 82.2116209,51.086531 81.0024599,49.8925134 C80.0635409,49.1338794 78.9049774,48.6983069 77.6988235,48.6504813 L76.2962567,61.7467479 Z" id="Shape" fill="#3A3A3A"></path>
                            <path d="M14.4734759,47.7886631 C14.4734759,47.7886631 8.00983957,47.1127273 7.71411765,54.3874866 C7.41839572,61.662246 13.4680214,63.0225668 16.0534759,62.5325134 L14.4734759,47.7886631 Z" id="Path" fill="#FFE4A3"></path>
                            <path d="M9.97850267,60.724385 C11.6438241,62.1825306 13.8618386,62.8426907 16.0534759,62.5325134 L14.4734759,47.7886631 C13.3631357,47.716088 12.2513735,47.9071721 11.228984,48.3463102 C12.1489338,52.4997562 11.7105809,56.8388571 9.97850267,60.724385 L9.97850267,60.724385 Z" id="Path" fill-opacity="0.1" fill="#001436"></path>
                            <path d="M15.0226738,63.4872727 C13.0267796,63.4878417 11.0933143,62.7915551 9.55604278,61.5186096 C8.23796791,60.3864171 6.69176471,58.2149733 6.84385027,54.3536898 C6.79550455,52.1679998 7.67684861,50.0644434 9.26877005,48.5659893 C10.7599743,47.3682567 12.6507824,46.7822874 14.5579679,46.9268449 C14.9703295,46.9583586 15.2992758,47.2837294 15.3352941,47.6957219 L16.9152941,62.4395722 C16.9761449,62.8928135 16.6653447,63.3122066 16.2140107,63.3858824 C15.8208903,63.4564626 15.4220676,63.4904049 15.0226738,63.4872727 L15.0226738,63.4872727 Z M13.6877005,48.6504813 C12.4844702,48.7001032 11.3291394,49.1355741 10.3925134,49.8925134 C9.17981818,51.0841847 8.52370202,52.730607 8.58438503,54.4297326 C8.48299465,56.964492 9.19272727,58.9162567 10.6882353,60.2005348 C11.9338917,61.2130815 13.4934941,61.7598387 15.0987166,61.746738 L13.6877005,48.6504813 Z" id="Shape" fill="#3A3A3A"></path>
                            <path d="M52.3258824,86.6887701 L52.3258824,94.6225668 C48.2705291,97.1576191 43.1244442,97.1576191 39.0690909,94.6225668 L39.0690909,86.6887701 L52.3258824,86.6887701 Z" id="Path" fill="#FFE4A3"></path>
                            <path d="M51.1514439,87.5759358 C48.0600458,87.8244093 44.9578115,87.9118359 41.8573262,87.837861 C41.3165775,88.1420321 40.2604278,88.1589305 39.668984,88.4039572 C39.3594828,88.5251354 39.1290291,88.790315 39.0521925,89.1136898 L39.0521925,89.9586096 C39.2181268,90.679529 39.6194634,91.3246405 40.1928342,91.7920856 C43.9445557,92.0722689 47.68875,91.1584016 50.8895187,89.1812834 C51.2415278,89.0190081 51.5361085,88.7538855 51.7344385,88.4208556 C51.8611765,88.1082353 51.5823529,87.542139 51.1514439,87.5759358 Z" id="Path" fill-opacity="0.1" fill="#001436"></path>
                            <path d="M45.693262,97.3939037 C43.1501777,97.4581972 40.6497736,96.7319878 38.5367914,95.3154011 C38.3244436,95.1480241 38.2000156,94.8929466 38.1988235,94.6225668 L38.1988235,86.6887701 C38.1988235,86.2221337 38.577107,85.8438503 39.0437433,85.8438503 L52.3258824,85.8438503 C52.7925187,85.8438503 53.1708021,86.2221337 53.1708021,86.6887701 L53.1708021,94.6225668 C53.1781893,94.892942 53.0556867,95.1505116 52.8412834,95.3154011 C50.7294908,96.7277725 48.2331222,97.4536669 45.693262,97.3939037 L45.693262,97.3939037 Z M39.9393583,94.157861 C43.5189622,96.1526604 47.8760111,96.1526604 51.455615,94.157861 L51.455615,87.5590374 L39.9393583,87.5590374 L39.9393583,94.157861 Z" id="Shape" fill="#3A3A3A"></path>
                            <path d="M58.3670588,85.8438503 C55.7816043,88.6151872 57.4122995,93.5664171 59.5921925,110.346524 C61.7720856,127.126631 64.9236364,153.344492 77.335508,153.876791 C96.253262,154.721711 80.8250267,117.908556 77.335508,110.346524 C73.8459893,102.784492 68.2779679,90.1106952 68.2779679,90.1106952 C68.2779679,90.1106952 76.0005348,76.2624599 75.3499465,74.1079144 C74.6993583,71.953369 71.9702674,72.2237433 71.9702674,72.2237433" id="Path" fill="#FFE4A3"></path>
                            <path d="M61.2651337,89.1981818 C64.5518717,84.0188235 67.2387166,79 70.9986096,74.1501604 L70.5423529,73.6516578 L58.3670588,85.8438503 C55.7816043,88.6151872 57.4122995,93.5664171 59.5921925,110.346524 C61.7720856,127.126631 64.9236364,153.344492 77.335508,153.876791 C83.1316578,154.121818 85.7002139,150.843529 86.3845989,145.951444 C84.858652,146.367031 83.2852337,146.582879 81.7037433,146.593583 C77.1795676,146.650642 72.8605986,144.709115 69.9002139,141.287487 C66.8838503,137.645882 66.0220321,132.728449 65.2700535,128.056043 L61.2651337,89.1981818 Z" id="Path" fill-opacity="0.1" fill="#001436"></path>
                            <path d="M77.9269519,154.747059 L77.2848128,154.747059 C64.3828877,154.189412 61.0539037,128.427807 58.8486631,111.385775 L58.7303743,110.464813 C58.2234225,106.561283 57.733369,103.22385 57.3447059,100.545455 C55.9759358,91.1921925 55.468984,87.6857754 57.7249198,85.2608556 C57.9362223,85.0329507 58.2530597,84.9350864 58.5560825,85.0041273 C58.8591052,85.0731682 59.1022768,85.2986254 59.193997,85.5955712 C59.2857171,85.8925171 59.2120513,86.2158384 59.0007487,86.4437433 C57.3109091,88.2603209 57.7840642,91.513262 59.059893,100.291979 C59.4570053,102.978824 59.9048128,106.316257 60.4540107,110.236684 L60.5722995,111.157647 C62.7014973,127.625134 65.9206417,152.516471 77.3608556,153.006524 C80.4786096,153.141711 82.6500535,152.220749 84.0103743,150.192941 C89.0291979,142.706952 81.6699465,121.854332 76.5328342,110.718289 C73.0855615,103.232299 67.5175401,90.5922995 67.4668449,90.4402139 C67.3405789,90.1964878 67.3405789,89.9066138 67.4668449,89.6628877 C71.0324064,83.2752941 74.7247059,75.5949733 74.4712299,74.3191444 C74.0403209,72.8996791 72.1054545,73.0602139 72.0209626,73.0686631 C71.7898634,73.0970593 71.557289,73.0288301 71.3781566,72.8800862 C71.1990241,72.7313422 71.089213,72.5152692 71.0746524,72.2828877 C71.0462668,72.0531574 71.1133759,71.8218414 71.2603036,71.6429729 C71.4072314,71.4641043 71.6211097,71.3533487 71.8519786,71.3365775 C73.0433155,71.226738 75.4597861,71.5816043 76.1357219,73.8713369 C76.8116578,76.1610695 71.6660963,85.7002139 69.1904813,90.1782888 C70.162139,92.3835294 74.9781818,103.282995 78.0790374,110.000107 C79.5322995,113.160107 92.1300535,141.177647 85.4213904,151.181497 C83.8582888,153.538824 81.3235294,154.747059 77.9269519,154.747059 Z" id="Path" fill="#3A3A3A"></path>
                            <path d="M33.0279144,85.8438503 C35.6049198,88.6151872 33.9742246,93.5664171 31.8027807,110.346524 C29.6313369,127.126631 26.4713369,153.344492 14.0594652,153.876791 C-4.84983957,154.721711 10.5783957,117.908556 14.0594652,110.346524 C17.5405348,102.784492 23.1254545,90.1106952 23.1254545,90.1106952 C23.1254545,90.1106952 15.4028877,76.2624599 16.0450267,74.1079144 C16.6871658,71.953369 19.4247059,72.2237433 19.4247059,72.2237433" id="Path" fill="#FFE4A3"></path>
                            <path d="M30.1213904,89.1981818 C26.8431016,84.0188235 24.1562567,79 20.3963636,74.1501604 L20.8948663,73.6939037 L33.0701604,85.8860963 C35.6471658,88.6574332 34.0164706,93.6086631 31.8450267,110.38877 C29.6735829,127.168877 26.5135829,153.386738 14.1017112,153.919037 C8.3055615,154.164064 5.73700535,150.885775 5.06106952,145.99369 C6.58690175,146.409839 8.16039371,146.625697 9.74192513,146.635829 C14.2464201,146.659891 18.5341992,144.704441 21.4694118,141.287487 C24.4773262,137.645882 25.3391444,132.728449 26.0995722,128.056043 L30.1213904,89.1981818 Z" id="Path" fill-opacity="0.1" fill="#001436"></path>
                            <path d="M13.4595722,154.747059 C10.079893,154.747059 7.54513369,153.538824 5.9397861,151.15615 C-0.777326203,141.14385 11.8542246,113.134759 13.282139,109.974759 C16.3829947,103.257647 21.1905882,92.3581818 22.162246,90.1529412 C19.6950802,85.6917647 14.5579679,76.0512299 15.2254545,73.8459893 C15.8929412,71.6407487 18.3263102,71.2351872 19.5091979,71.3112299 C19.9875,71.3602268 20.3355208,71.7876871 20.286524,72.2659893 C20.2375272,72.7442915 19.8100669,73.0923123 19.3317647,73.0433155 C19.2557219,73.0433155 17.3208556,72.8743316 16.8899465,74.3106952 C16.6364706,75.5696257 20.3287701,83.2499465 23.8943316,89.6375401 C24.0205976,89.8812662 24.0205976,90.1711402 23.8943316,90.4148663 C23.8436364,90.5416043 18.275615,103.181604 14.8283422,110.692941 C9.68278075,121.828984 2.32352941,142.681604 7.34235294,150.167594 C8.7026738,152.195401 10.891016,153.116364 14.0003209,152.981176 C25.4405348,152.491123 28.6596791,127.633583 30.788877,111.132299 L30.9071658,110.211337 C31.4141176,106.290909 31.9041711,102.953476 32.2928342,100.266631 C33.5771123,91.513262 34.0502674,88.2349733 32.3604278,86.4183957 C32.1491253,86.1920001 32.0746543,85.8700734 32.1650673,85.5738823 C32.2554804,85.2776911 32.4970416,85.052234 32.7987572,84.9824384 C33.1004728,84.9126429 33.416505,85.0091124 33.6278075,85.235508 C35.8921925,87.6604278 35.3767914,91.1499465 34.0164706,100.520107 C33.6278075,103.198503 33.1715508,106.527487 32.6308021,110.439465 L32.5125134,111.360428 C30.3072727,128.40246 26.9782888,154.164064 14.0763636,154.721711 L13.4595722,154.747059 Z" id="Path" fill="#3A3A3A"></path>
                            <path d="M14.0341176,46.9437433 C14.0341176,66.0811765 23.015615,89.1897326 45.9551872,89.1897326 C68.8947594,89.1897326 77.8678075,66.0642781 77.8678075,46.9437433 C77.8678075,46.9437433 67.4668449,10.6121925 51.9879144,10.6121925 C36.508984,10.6121925 14.0341176,46.9437433 14.0341176,46.9437433 Z" id="Path" fill="#FFE4A3"></path>
                            <path d="M44.924385,89.4432086 C43.556355,89.4572303 42.1892492,89.3668431 40.8349733,89.1728342 C21.5454545,86.2409626 12.9103743,65.5742246 12.9103743,46.4029947 C12.9103743,45.9246924 13.2981149,45.5369519 13.7764171,45.5369519 C14.2547193,45.5369519 14.6424599,45.9246924 14.6424599,46.4029947 C14.6424599,64.8306952 22.8212834,84.677861 41.0968984,87.4576471 C42.4959463,87.6555348 43.9089527,87.7374892 45.3214973,87.7026738 L46.4790374,87.7026738 C48.3526367,87.7027299 50.2212798,87.5102031 52.055508,87.1281283 C69.0975401,83.3851337 76.7187166,63.9773262 76.7187166,46.4114439 C76.7187166,45.9308084 77.1083486,45.5411765 77.588984,45.5411765 C78.0696194,45.5411765 78.4592513,45.9308084 78.4592513,46.4114439 C78.4592513,64.6786096 70.4071658,84.8806417 52.4272727,88.8264171 C50.4821203,89.2340316 48.5002348,89.4407139 46.5128342,89.4432086 L44.9159358,89.4432086 L44.924385,89.4432086 Z" id="Path" fill="#3A3A3A"></path>
                            <path d="M26.9191444,42.1108021 C25.9981818,40.8096257 29.1074866,38.9423529 32.0393583,38.3086631 C33.4250267,38.0129412 36.9483422,37.4637433 36.7624599,39.6351872 C36.6103743,41.4264171 34.3966845,42.2628877 32.6814973,42.6346524 C31.1437433,42.9726203 27.9414973,43.5471658 26.9191444,42.1108021 Z" id="Path" fill="#3A3A3A"></path>
                            <path d="M64.4758289,42.1108021 C65.3967914,40.8096257 62.2790374,38.9423529 59.3471658,38.3086631 C57.9699465,38.0129412 54.446631,37.4637433 54.6325134,39.6351872 C54.7845989,41.4264171 56.9898396,42.2628877 58.7134759,42.6346524 C60.2512299,42.9726203 63.4534759,43.5471658 64.4758289,42.1108021 Z" id="Path" fill="#3A3A3A"></path>
                            <path d="M45.8706952,54.8268449 C45.0680214,54.1593583 42.7698396,59.7273797 43.2852406,60.7412834 C43.5725134,61.3327273 46.1241711,62.5409626 46.800107,61.9664171 C47.273262,61.5608556 45.3637433,60.5047059 45.1609626,59.8794652 C44.7722995,58.6796791 46.4959358,55.3506952 45.8706952,54.8268449 Z" id="Path" fill="#3A3A3A"></path>
                            <path d="M49.1574332,67.6358289 C48.4432457,66.4003883 47.1245035,65.6394951 45.6974866,65.6394951 C44.2704697,65.6394951 42.9517275,66.4003883 42.2375401,67.6358289 C41.7981818,68.5905882 42.8205348,72.9841711 44.4258824,74.4796791 L44.4258824,74.4796791 C44.7466697,74.8434179 45.2082771,75.0517949 45.693262,75.0517949 C46.178247,75.0517949 46.6398543,74.8434179 46.9606417,74.4796791 L46.9606417,74.4796791 C48.5659893,72.9841711 49.622139,68.624385 49.1574332,67.6358289 Z" id="Path" fill="#3A3A3A"></path>
                            <path d="M13.3497326,31.3042781 C12.1583957,36.8554011 11.3557219,51.3119786 15.4113369,59.2373262 C15.3014973,55.6717647 15.6817112,53.5425668 17.7855615,50.6613904 C18.833262,49.2250267 20.3203209,48.126631 21.3849198,46.7325134 C23.4887701,43.9020321 23.6915508,39.9731551 25.9812834,37.2694118 C27.8908021,35.0557219 30.8987166,34.1263102 33.8052406,33.8052406 C36.7117647,33.4841711 39.6605348,33.6700535 42.5417112,33.1715508 C45.7765425,32.608086 48.808316,31.2101501 51.3373262,29.1159358 C53.1877005,27.5781818 54.7170053,25.6940107 56.5842781,24.1647059 C57.516534,23.3874526 58.5550006,22.7473019 59.6682353,22.2636364 C60.2121836,22.0378448 60.7786694,21.8707315 61.3580749,21.7651337 C61.9433558,21.6596396 62.5402458,21.6340586 63.1324064,21.6890909 C62.0363743,30.7550831 65.087826,39.8318328 71.4379679,46.3945455 C74.1450991,48.5856329 76.1922889,51.4838687 77.3524064,54.7677005 C77.3524064,54.7677005 84.2047059,38.6297326 77.293262,25.7616043 C70.3818182,12.8934759 54.7592513,-0.557647059 37.3877005,6.3284492 C20.0161497,13.2145455 13.3497326,31.3042781 13.3497326,31.3042781 Z" id="Path" fill="#8B6002"></path>
                            <path d="M15.1325134,60.1753907 C14.8033477,60.1823927 14.4999759,59.9977316 14.3551872,59.7020321 C10.1305882,51.4725134 11.3219251,36.6272727 12.4963636,31.1183957 C12.5612637,30.816535 12.7822746,30.5722279 13.0761438,30.4775026 C13.3700129,30.3827773 13.6920945,30.4520249 13.9210635,30.6591604 C14.1500326,30.8662958 14.2511033,31.1798505 14.1862032,31.4817112 C13.0962567,36.5512299 12.3442781,47.6788235 14.5410695,55.3929412 C14.9990896,53.4821171 15.8636467,51.6924838 17.0758289,50.1459893 C17.6574133,49.3915459 18.298809,48.685163 18.9937968,48.0336898 C19.6052152,47.4747979 20.1703441,46.8672844 20.6836364,46.2171123 C21.5641353,44.8885389 22.2418717,43.4362466 22.6945455,41.9080214 C23.2396664,40.0292132 24.1276959,38.2674773 25.3137968,36.7117647 C27.1050267,34.6248128 29.9270588,33.3320856 33.7038503,32.9434225 C34.9712299,32.7997861 36.2386096,32.7575401 37.4890909,32.7068449 C39.1294273,32.6863981 40.7665731,32.5565555 42.3896257,32.3181818 C45.473853,31.7835175 48.3638884,30.4492068 50.7712299,28.4484492 C51.6161497,27.713369 52.4610695,26.8768984 53.3059893,26.0657754 C54.171278,25.1742682 55.0821971,24.3282133 56.0350802,23.531016 C57.0283128,22.6909381 58.1419076,22.0045536 59.3387166,21.4947594 C59.9503124,21.2404966 60.5877512,21.0535145 61.2397861,20.9371123 C61.9033993,20.8193789 62.5800856,20.7937899 63.2506952,20.8610695 C63.4818147,20.8879938 63.6936544,21.0029925 63.842139,21.182139 C63.9913251,21.367094 64.0557323,21.6063206 64.0195722,21.8411765 C62.9747955,30.6358859 65.9336897,39.4350292 72.080107,45.8115508 C72.4207515,46.1521953 72.4207515,46.7044892 72.080107,47.0451337 C71.7394624,47.3857782 71.1871686,47.3857782 70.8465241,47.0451337 C64.5534244,40.5135132 61.3951552,31.5779223 62.1860963,22.5424599 C61.9676435,22.5515842 61.7501766,22.5770024 61.535508,22.6185027 C61.0096554,22.7102769 60.496381,22.8634085 60.0062032,23.0747594 C58.9653183,23.5156609 57.9968579,24.1109792 57.1334759,24.8406417 C56.2294118,25.5841711 55.4436364,26.4121925 54.5395722,27.2824599 C53.635508,28.1527273 52.8497326,28.9722995 51.8865241,29.8172193 C49.2445155,32.0051982 46.0747914,33.4618729 42.6937968,34.0418182 C40.9922808,34.2916483 39.276249,34.4299469 37.5566845,34.4558289 C36.3484492,34.4558289 35.1064171,34.5487701 33.8981818,34.675508 C30.5776471,35.0388235 28.1358289,36.1118717 26.6403209,37.8439572 C25.5978295,39.2433111 24.8190493,40.8209135 24.342139,42.4994652 C23.6883786,45.1199966 22.2497971,47.4783269 20.2189305,49.2588235 C19.5926352,49.8431058 19.0134721,50.4759475 18.4868449,51.1514439 C16.6349373,53.4289628 15.743829,56.3387042 16.0027807,59.2626738 C16.0134801,59.6628798 15.7418421,60.0156563 15.3521925,60.1075936 L15.1325134,60.1753907 Z" id="Path" fill="#3A3A3A"></path>
                            <path d="M19.5767914,40.3787166 L19.4247059,40.3787166 C19.1921725,40.3463648 18.9835842,40.2187205 18.8489506,40.026387 C18.7143171,39.8340534 18.6657789,39.594374 18.7149733,39.3648128 C19.8869942,33.3272368 24.7327061,28.6811736 30.8142246,27.7640642 C32.1357343,27.6225432 33.4651818,27.5689137 34.7937968,27.6035294 C37.024385,27.6035294 39.1535829,27.6035294 41.0124064,26.7586096 C43.1416043,25.7447059 44.5441711,23.7337968 46.0227807,21.6045989 C46.8415947,20.3647186 47.7509536,19.1870705 48.7434225,18.0812834 C52.8436335,13.8679447 59.0284434,12.4406808 64.5603209,14.4312299 C65.0106249,14.6015522 65.237595,15.1046692 65.0672727,15.5549733 C64.8969505,16.0052773 64.3938335,16.2322474 63.9435294,16.0619251 C59.0688791,14.3066496 53.618182,15.5619617 50.0023529,19.2726203 C49.0774809,20.3160826 48.2302939,21.4258976 47.4675936,22.5931551 C45.9213904,24.8152941 44.324492,27.1134759 41.7728342,28.3301604 C39.5591444,29.3863102 37.1426738,29.3694118 34.7937968,29.3525134 C33.5499415,29.3151468 32.3049879,29.3631382 31.0677005,29.4961497 C25.7520348,30.3457041 21.5203002,34.4023789 20.4470588,39.6774332 C20.375098,40.097075 20.0021389,40.3976149 19.5767914,40.3787166 Z" id="Path" fill="#3A3A3A"></path>
                            <path d="M73.5671658,19.6190374 C73.2847291,19.6241899 73.0184019,19.4878558 72.8574332,19.2557219 C72.158395,18.2872034 71.1516622,17.5842776 70.0016043,17.2617112 C69.7759614,17.2049686 69.5837036,17.0576892 69.4701673,16.8546031 C69.356631,16.651517 69.3318656,16.4106001 69.4017112,16.1886631 C69.4584539,15.9630202 69.6057333,15.7707624 69.8088193,15.6572261 C70.0119054,15.5436898 70.2528223,15.5189245 70.4747594,15.5887701 C72.0037539,16.0169794 73.3416008,16.9525783 74.2684492,18.2418182 C74.4084735,18.4258642 74.4669408,18.6592601 74.4302176,18.8875826 C74.3934944,19.1159051 74.2647907,19.3191965 74.0741176,19.4500535 C73.9278653,19.5597428 73.7499812,19.6190374 73.5671658,19.6190374 Z" id="Path" fill="#3A3A3A"></path>
                            <path d="M65.0757219,12.8596791 C64.855259,12.8610035 64.6430103,12.776104 64.4842781,12.6231016 C61.9221612,10.244492 58.52372,8.97501174 55.0296257,9.0913369 C54.7187091,9.10039275 54.426579,8.94288866 54.2632781,8.6781549 C54.0999773,8.41342113 54.0903148,8.08167706 54.2379305,7.80788747 C54.3855463,7.53409788 54.6680139,7.35985793 54.9789305,7.35080214 C58.9314739,7.24223389 62.7699869,8.68243426 65.675615,11.3641711 C65.8518495,11.5179986 65.9564228,11.7380059 65.9644293,11.9717951 C65.9724357,12.2055842 65.8831588,12.4322302 65.717861,12.597754 C65.5511589,12.7729309 65.3173879,12.8682848 65.0757219,12.8596791 Z" id="Path" fill="#3A3A3A"></path>
                            <path d="M61.9241711,24.7814973 C61.559409,24.400865 60.9674336,24.3536523 60.5469519,24.6716578 C60.3695187,24.8152941 60.2005348,24.9504813 60.0653476,25.0772193 C59.5414973,25.5757219 59.3640642,25.9897326 59.9808556,26.6403209 C60.5976471,27.2909091 61.020107,27.1219251 61.535508,26.6403209 C61.6902344,26.4934559 61.8369015,26.3383273 61.9748663,26.175615 C62.3097481,25.7670066 62.2880158,25.1729917 61.9241711,24.7899465 L61.9241711,24.7814973 Z" id="Path" fill="#FFFFFF"></path>
                            <path d="M77.377754,55.6379679 L77.2848128,55.6379679 C76.9275956,55.6059521 76.6295138,55.3519051 76.5412834,55.0042781 C75.828707,52.7478154 74.724755,50.6342907 73.279893,48.7603209 C73.1299369,48.580704 73.0611799,48.3469447 73.0900051,48.1147419 C73.1188302,47.8825391 73.2426563,47.6726866 73.4319786,47.5351872 C73.6111595,47.3880376 73.8429374,47.3209871 74.0730064,47.3497457 C74.3030754,47.3785043 74.5112169,47.5005448 74.6486631,47.6872727 C75.7957372,49.1730998 76.7470285,50.8002339 77.4791444,52.5286631 C80.4795431,45.2406109 80.5913276,37.083362 77.7917647,29.7158289 C77.6982023,29.5025207 77.6968483,29.2600499 77.7880227,29.0457101 C77.8791971,28.8313703 78.0548112,28.664177 78.273369,28.5836364 C78.4866771,28.490074 78.729148,28.48872 78.9434878,28.5798943 C79.1578275,28.6710687 79.3250209,28.8466829 79.4055615,29.0652406 C82.6449447,37.5684713 82.1886278,47.0378113 78.146631,55.1901604 C77.9960601,55.4732193 77.6982509,55.6466686 77.377754,55.6379679 Z" id="Path" fill="#3A3A3A"></path>
                            <path d="M36.7878075,47.2479144 C35.6010301,47.2399746 34.5077158,47.8907569 33.948877,48.937754 C33.2624436,47.6402558 31.7817277,46.9756094 30.3560389,47.3250429 C28.9303501,47.6744765 27.9247989,48.9485021 27.9161497,50.4163636 C27.9161497,51.1683422 27.9161497,53.1623529 32.2167914,55.942139 L33.948877,57.0658824 L35.6894118,55.942139 C39.9900535,53.1623529 39.9900535,51.1683422 39.9900535,50.4163636 C39.9715264,48.6610246 38.5432443,47.2478167 36.7878075,47.2479144 L36.7878075,47.2479144 Z" id="Path" fill="#3A3A3A"></path>
                            <path d="M55.1141176,47.2479144 C56.3008951,47.2399746 57.3942093,47.8907569 57.9530481,48.937754 C58.6350929,47.6307834 60.1213114,46.9583391 61.5532753,47.3088197 C62.9852392,47.6593004 63.9928934,48.9421332 63.9942246,50.4163636 C63.9942246,51.1683422 63.9942246,53.1623529 59.6935829,55.942139 L57.9530481,57.0658824 L56.2125134,55.9505882 C51.9118717,53.1708021 51.9118717,51.1767914 51.9118717,50.4248128 C51.9257928,48.6661681 53.3554178,47.2478593 55.1141176,47.2479144 Z" id="Path" fill="#3A3A3A"></path>
                        </g>
                    </g>
                </g>
                <g id="Group-46" transform="translate(15.000000, 0.000000)">
                    <mask id="mask-4" fill="white">
                        <use xlink:href="#path-3"></use>
                    </mask>
                    <g id="Mask"></g>
                    <g mask="url(#mask-4)" fill-rule="nonzero">
                        <g transform="translate(2.832371, 5.002062)">
                            <path d="M3.70484869,43.7478841 C0.906757803,48.2113546 0.127162481,53.6501062 1.55875243,58.7198627 C2.25802186,61.013957 3.33453575,63.1755512 4.74410003,65.1159055 C6.14694133,67.0567824 7.33402447,69.1448022 8.28431393,71.3429643 C9.22397849,73.572016 9.26936365,76.0772765 8.4110519,78.3389002 C7.44784334,80.5272424 5.03137275,82.1663868 2.69939414,81.7185793 C3.92452783,84.9799697 5.72420698,87.683713 8.91800377,89.0693815 C12.1460322,90.4571947 15.7931585,90.505823 19.0570412,89.2045686 C20.4934048,92.2209323 22.6563995,95.026066 25.7403567,96.310344 C28.8672156,97.5891323 32.354574,97.6763163 35.5414262,96.5553708 C38.94996,98.8802938 43.0721223,99.9220603 47.1759717,99.4956916 C51.1977899,99.0309857 53.977576,99.3436061 56.6982177,96.35259 C60.6017471,97.7720553 65.9923353,97.0200766 70.2676294,93.6066007 C74.3147952,90.3705579 75.6835653,85.8079911 75.7427097,81.6509857 C78.6830305,83.6449964 82.9836722,84.3631783 86.2366134,82.9268146 C89.5358916,81.4368166 91.8614737,78.3836958 92.4214262,74.8071355 C90.2066751,75.0247866 88.1042852,73.7892912 87.2167203,71.7485258 C86.3211054,69.7798627 86.3211054,67.5239269 86.3718006,65.3778307 C86.4337613,58.6184724 86.4900893,51.8591141 86.5407845,45.0997558 C86.6994399,40.6200536 86.4846509,36.1349199 85.8986455,31.6908788 C85.2906759,27.2249444 83.5707515,22.9832388 80.8967203,19.3550499 C78.1422818,15.8232852 74.0190733,13.2124831 69.5494476,12.8998627 C66.4401428,6.91783066 60.4074155,2.8115205 53.8001428,1.46809804 C47.1928701,0.124675579 38.5915867,1.15547772 32.1786455,3.25087879 C21.5833514,6.71504991 12.9736187,12.3506649 8.64762944,22.6333387 C5.58057061,29.9756916 8.06463479,37.081467 3.70484869,43.7478841 Z" id="Path" fill="#8B6002"></path>
                            <path d="M92.3115867,75.4746221 C89.0903411,76.679585 85.4807069,76.2029286 82.6826564,74.2031105 C79.8846059,72.2032925 78.2648902,68.9424366 78.361961,65.5045686 C80.4911677,63.7456025 81.945211,61.3032873 82.4767203,58.5931248 C83.0558762,56.1236446 82.6753446,53.5263649 81.4121214,51.3268146 C83.8539396,45.708098 81.8430305,35.7887398 76.8157578,29.9334456 C77.9563995,36.1605045 75.928592,41.7031783 71.957469,46.6290606 C67.8501372,51.5035089 62.3236121,54.9742021 56.1490198,56.5568681 C48.5024957,58.6607184 39.9519075,58.1622157 33.1165064,54.1319483 C24.6673086,49.1553708 19.6822818,39.3374029 12.0949022,33.1610392 C8.03083799,39.7345152 7.17746901,48.8427504 9.81361874,56.7343012 C10.1037916,57.3671186 10.3001871,58.0388483 10.3966134,58.7283119 C10.3642076,59.262158 10.2936171,59.7929985 10.1853834,60.3167611 C9.92345832,62.319221 10.9204637,64.2625365 12.0526562,65.9270285 C13.1848487,67.5915205 14.519822,69.2053173 15.077469,71.1401836 C16.1674155,74.8916275 13.8607845,79.1077772 10.379715,80.8736595 C8.01580873,82.0106028 5.34241046,82.334381 2.77543692,81.7946221 C4.00057061,85.0391141 5.79180056,87.7090606 8.97714815,89.1031783 C12.2051766,90.4909915 15.8523029,90.5396198 19.1161856,89.2383654 C20.5525492,92.2547291 22.7155439,95.0598627 25.7995011,96.3441408 C28.92636,97.6229291 32.4137184,97.7101131 35.6005706,96.5891676 C39.0091044,98.9140906 43.1312667,99.9558571 47.2351161,99.5294884 C51.2569343,99.0647825 54.0367203,99.3774029 56.7573621,96.3863868 C60.6608915,97.805852 66.0514797,97.0538734 70.3267738,93.6403975 C74.3739396,90.4043547 75.7427097,85.8417879 75.801854,81.6847825 C78.7421749,83.6787932 83.0428166,84.3885258 86.2957578,82.9606114 C89.3647357,81.5476643 91.5922583,78.7757752 92.3115867,75.4746221 Z" id="Path" fill="#593F02"></path>
                            <path d="M45.3593941,100.501146 C41.8388112,100.488219 38.3959626,99.4647484 35.4400359,97.5523761 C32.1606741,98.591793 28.6206468,98.4482784 25.4361856,97.1468146 C22.7239931,96.0230713 20.3666669,93.6741943 18.6768273,90.3198627 C15.3789028,91.4365786 11.7838171,91.2890416 8.58848505,89.905852 C5.55522302,88.579328 3.42602516,86.0868146 1.91361874,82.0649964 C1.78523874,81.7737764 1.8313951,81.4351223 2.03302763,81.1888808 C2.23466016,80.9426393 2.55755686,80.8305914 2.8683781,80.8990071 C4.92445865,81.0698365 6.85488567,79.8910802 7.64217489,77.9840339 C8.41576515,75.9320388 8.36122799,73.6596571 7.49008933,71.6471355 C6.67308918,69.7144323 5.64446059,67.8782028 4.42303051,66.1720553 L4.0428166,65.5975098 C2.58200443,63.5755398 1.46572453,61.3258504 0.73918024,58.9395419 C-0.76501237,53.6363706 0.0485995791,47.9441572 2.97821767,43.2747291 C5.26795029,39.7683119 5.57212142,36.1098093 5.89319094,32.2400766 C6.16356527,29.0293815 6.4339396,25.7088467 7.87030323,22.2953708 C11.8667738,12.8069216 19.5132979,6.48692157 31.9336187,2.4228574 C39.1407845,0.0655311944 47.8012123,-0.644201426 53.9944744,0.614729055 C60.7796297,1.91031398 66.6663317,6.09175347 70.1239931,12.0718414 C74.706315,12.6845436 78.8469414,15.1219984 81.606453,18.8311996 C84.3674655,22.573118 86.1348802,26.9538647 86.7435653,31.5641408 C87.3407359,36.0582005 87.5611827,40.5943156 87.4026027,45.1251034 L87.2336187,65.4031783 C87.2336187,67.3633922 87.2336187,69.577082 88.0362925,71.4105579 C88.7610489,73.0930901 90.4876365,74.1167587 92.3115867,73.9453173 C92.5831828,73.898165 92.8607044,73.9864674 93.0551161,74.1818948 C93.2566895,74.3730055 93.3514546,74.6509831 93.308592,74.9254242 C92.6947642,78.792204 90.1812387,82.0927931 86.6168273,83.71259 C83.3343125,84.9582254 79.6761186,84.7430376 76.5622818,83.1211462 C76.3019829,87.4778282 74.2233433,91.5247371 70.8337257,94.2740873 C66.7612123,97.5354777 61.3790733,98.7099162 56.968592,97.3411462 C54.5859182,99.6900232 52.0765064,99.8759055 49.19533,100.163178 C48.5869877,100.213873 47.9617471,100.273018 47.3027097,100.349061 C46.6580179,100.433463 46.0093673,100.484227 45.3593941,100.501146 L45.3593941,100.501146 Z M35.5667738,95.7189002 C35.744816,95.7157984 35.9192868,95.7690267 36.0652765,95.8709857 C39.2927137,98.0878559 43.2068022,99.0768676 47.0999289,98.659221 C47.7843139,98.5831783 48.426453,98.5240339 49.0432444,98.4733387 C52.0511588,98.2114135 54.0451695,98.0424296 56.0814262,95.8033922 C56.3135227,95.5356947 56.6879858,95.4412356 57.0192872,95.5668146 C60.9735118,97.0031783 65.9669877,95.9808253 69.7522284,92.9644617 C73.0908006,90.1762442 74.9860492,86.0253392 74.9062391,81.6763333 C74.9040037,81.3551313 75.0840915,81.0604422 75.3709449,80.9159055 C75.6523921,80.7633755 75.9958709,80.7830029 76.2581107,80.9666007 C79.130838,82.9099162 83.101961,83.3999697 85.9155439,82.1663868 C88.601625,80.9428077 90.6025618,78.5856671 91.3737257,75.7365472 C89.2199779,75.4804217 87.3559008,74.1191971 86.4562925,72.1456381 C85.4592872,69.9657451 85.4846348,67.5408253 85.5015332,65.3862799 L85.6620679,45.108205 C85.8183206,40.6765407 85.6063626,36.2395537 85.0283781,31.8429643 C84.4646079,27.5228648 82.8165298,23.4157496 80.2376829,19.9042478 C77.6711311,16.4586923 73.7866756,14.2363797 69.5156508,13.7701301 C69.2128183,13.7538276 68.9419517,13.5764744 68.8059182,13.3054242 C65.6495822,7.56204063 60.0887434,3.5324473 53.6480572,2.32146702 C47.7336187,1.11323173 39.419608,1.80606595 32.4743674,4.07890018 C20.5694476,7.97398039 13.2524423,13.9813601 9.47565083,22.9713066 C8.14912676,26.1228574 7.87875243,29.308205 7.6252765,32.3921622 C7.29575778,36.3041408 6.96623906,40.3513066 4.43147971,44.2210392 L4.43147971,44.2210392 C1.76148085,48.4777131 1.02149019,53.6668592 2.39522302,58.5001836 C3.07920401,60.6962393 4.11811441,62.7654976 5.47073104,64.625852 L5.85094495,65.2088467 C7.14834731,67.0208907 8.23675473,68.9737884 9.09543692,71.030344 C10.1173052,73.4548406 10.156692,76.1816226 9.2052765,78.6346221 C8.29634585,80.7907019 6.3248142,82.3134296 4.00901981,82.6479911 C5.29329789,85.50382 6.98313746,87.3203975 9.26442088,88.3089537 C12.2871173,89.6017315 15.6988849,89.6442646 18.7528701,88.4272424 C18.9589444,88.3368597 19.1925593,88.3324139 19.4019233,88.4148906 C19.6112872,88.4973673 19.7791022,88.6599521 19.8681642,88.8666007 C20.9750091,91.1901301 22.9521214,94.2318414 26.1036722,95.541467 C29.0320585,96.7342317 32.2954606,96.815366 35.2795011,95.7695954 C35.3715953,95.7361694 35.4688013,95.7190154 35.5667738,95.7189002 Z" id="Shape" fill="#3A3A3A"></path>
                            <path d="M44.8608915,102.258579 C40.163759,102.155885 35.6837848,100.260511 32.3391802,96.9609323 C32.1127846,96.7481204 32.0171203,96.4306936 32.0882229,96.1282233 C32.1593256,95.8257531 32.3863931,95.5841919 32.6838914,95.4945335 C32.9813897,95.4048751 33.3041216,95.4807407 33.5305171,95.6935526 C36.4836535,98.765448 40.5576191,100.506468 44.8187729,100.517619 C49.0799268,100.528769 53.1629484,98.8090948 56.1321214,95.752697 C56.4820987,95.4260516 57.0306097,95.4449657 57.3572551,95.794943 C57.6839005,96.1449202 57.6649864,96.6934312 57.3150091,97.0200766 C53.9799128,100.285048 49.5270245,102.15804 44.8608915,102.258579 L44.8608915,102.258579 Z" id="Path" fill="#FFFFFF"></path>
                            <path d="M76.0891268,47.7866007 C76.0891268,47.7866007 82.5527631,47.1106649 82.8484851,54.3854242 C83.144207,61.6601836 77.1030305,63.0205045 74.5091268,62.530451 L76.0891268,47.7866007 Z" id="Path" fill="#EAEAEA"></path>
                            <path d="M80.5756508,60.7223226 C78.9137062,62.1865767 76.6928279,62.8475892 74.5006776,62.530451 L76.0891268,47.7866007 C77.1994333,47.714667 78.3110468,47.9057256 79.3336187,48.3442478 C78.4146339,52.4970082 78.8499074,56.8349377 80.5756508,60.7223226 Z" id="Path" fill="#CFCFCF"></path>
                            <path d="M75.5399289,63.4853642 C75.1377497,63.487953 74.7361582,63.4540157 74.3401428,63.38382 C73.8888088,63.3101442 73.5780086,62.8907511 73.6388594,62.4375098 L75.2273086,47.6936595 C75.2627318,47.28459 75.5871161,46.9602057 75.9961856,46.9247825 C77.9061144,46.7788957 79.8000354,47.3648936 81.2938326,48.5639269 C82.8835365,50.0632522 83.7619015,52.1670286 83.7103032,54.3516275 C83.870838,58.2129109 82.3246348,60.3843547 81.0065599,61.5165472 C79.4692884,62.7894927 77.5358231,63.4857793 75.5399289,63.4853642 L75.5399289,63.4853642 Z M75.4638861,61.7446855 C77.0673643,61.7473734 78.6235779,61.2018043 79.8743674,60.1984724 C81.3698754,58.9141943 82.079608,56.9708788 81.9782177,54.4276702 C82.0347214,52.7292722 81.3792503,51.0844686 80.1700893,49.890451 C79.2311703,49.131817 78.0726068,48.6962445 76.866453,48.6484189 L75.4638861,61.7446855 Z" id="Shape" fill="#3A3A3A"></path>
                            <path d="M13.6411054,47.7866007 C13.6411054,47.7866007 7.17746901,47.1106649 6.88174709,54.3854242 C6.58602516,61.6601836 12.6356508,63.0205045 15.2211054,62.530451 L13.6411054,47.7866007 Z" id="Path" fill="#EAEAEA"></path>
                            <path d="M9.14613211,60.7223226 C10.8114536,62.1804682 13.0294681,62.8406283 15.2211054,62.530451 L13.6411054,47.7866007 C12.5307651,47.7140256 11.419003,47.9051097 10.3966134,48.3442478 C11.3165632,52.4976939 10.8782104,56.8367947 9.14613211,60.7223226 L9.14613211,60.7223226 Z" id="Path" fill="#CFCFCF"></path>
                            <path d="M14.1903032,63.4852103 C12.194409,63.4857793 10.2609438,62.7894927 8.72367222,61.5165472 C7.40559735,60.3843547 5.85939414,58.2129109 6.01147971,54.3516275 C5.96313398,52.1659374 6.84447805,50.062381 8.43639949,48.5639269 C9.92760374,47.3661943 11.8184118,46.7802251 13.7255974,46.9247825 C14.1379589,46.9562962 14.4669052,47.281667 14.5029236,47.6936595 L16.0829236,62.4375098 C16.1437744,62.8907511 15.8329741,63.3101442 15.3816401,63.38382 C14.9885197,63.4544002 14.5896971,63.4883425 14.1903032,63.4852103 L14.1903032,63.4852103 Z M12.85533,48.6484189 C11.6520997,48.6980409 10.4967689,49.1335117 9.56014281,49.890451 C8.34744762,51.0821223 7.69133146,52.7285446 7.75201446,54.4276702 C7.65062409,56.9624296 8.36035671,58.9141943 9.85586473,60.1984724 C11.1015211,61.2110192 12.6611235,61.7577763 14.266346,61.7446756 L12.85533,48.6484189 Z" id="Shape" fill="#3A3A3A"></path>
                            <path d="M51.4935118,86.6867077 L51.4935118,94.6205045 C47.4381585,97.1555567 42.2920736,97.1555567 38.2367203,94.6205045 L38.2367203,86.6867077 L51.4935118,86.6867077 Z" id="Path" fill="#EAEAEA"></path>
                            <path d="M50.3190733,87.5738734 C47.2276752,87.8223469 44.1254409,87.9097735 41.0249556,87.8357986 C40.484207,88.1399697 39.4280572,88.1568681 38.8366134,88.4018948 C38.5271122,88.523073 38.2966585,88.7882526 38.219822,89.1116275 L38.219822,89.9565472 C38.3857562,90.6774666 38.7870929,91.3225781 39.3604637,91.7900232 C43.1121851,92.0702065 46.8563794,91.1563392 50.0571482,89.179221 C50.4091572,89.0169457 50.7037379,88.7518231 50.9020679,88.4187932 C51.0288059,88.1061729 50.7499824,87.5400766 50.3190733,87.5738734 Z" id="Path" fill="#CFCFCF"></path>
                            <path d="M44.8608915,97.3918414 C42.3178071,97.4561348 39.8174031,96.7299254 37.7044209,95.3133387 C37.4920731,95.1459617 37.367645,94.8908842 37.366453,94.6205045 L37.366453,86.6867077 C37.366453,86.2200714 37.7447364,85.8417879 38.2113728,85.8417879 L51.4935118,85.8417879 C51.9601481,85.8417879 52.3384316,86.2200714 52.3384316,86.6867077 L52.3384316,94.6205045 C52.3458187,94.8908796 52.2233161,95.1484492 52.0089129,95.3133387 C49.8971202,96.7257101 47.4007516,97.4516045 44.8608915,97.3918414 L44.8608915,97.3918414 Z M39.1069877,94.1557986 C42.6865916,96.150598 47.0436405,96.150598 50.6232444,94.1557986 L50.6232444,87.556975 L39.1069877,87.556975 L39.1069877,94.1557986 Z" id="Shape" fill="#3A3A3A"></path>
                            <path d="M13.2017471,46.9416809 C13.2017471,66.0791141 22.1832444,89.1876702 45.1228166,89.1876702 C68.0623888,89.1876702 77.0354369,66.0622157 77.0354369,46.9416809 C77.0354369,46.9416809 66.6344744,10.6101301 51.1555439,10.6101301 C35.6766134,10.6101301 13.2017471,46.9416809 13.2017471,46.9416809 Z" id="Path" fill="#FFE4A3"></path>
                            <path d="M44.0920145,89.4411462 C42.7239844,89.4551679 41.3568787,89.3647807 40.0026027,89.1707718 C20.713084,86.2389002 12.0780038,65.5721622 12.0780038,46.4009323 C12.0780038,45.92263 12.4657443,45.5348895 12.9440466,45.5348895 C13.4223488,45.5348895 13.8100893,45.92263 13.8100893,46.4009323 C13.8100893,64.8286328 21.9889129,84.6757986 40.2645278,87.4555847 C41.6635757,87.6534724 43.0765821,87.7354268 44.4891268,87.7006114 L45.6466669,87.7006114 C47.5202661,87.7006676 49.3889093,87.5081407 51.2231375,87.126066 C68.2651695,83.3830713 75.886346,63.9752638 75.886346,46.4093815 C75.886346,45.9287461 76.275978,45.5391141 76.7566134,45.5391141 C77.2372488,45.5391141 77.6268808,45.9287461 77.6268808,46.4093815 C77.6268808,64.6765472 69.5747952,84.8785793 51.5949022,88.8243547 C49.6497498,89.2319692 47.6678643,89.4386515 45.6804637,89.4411462 L44.0835653,89.4411462 L44.0920145,89.4411462 Z" id="Path" fill="#3A3A3A"></path>
                            <path d="M26.0867738,42.1087398 C25.1658113,40.8075633 28.2751161,38.9402906 31.2069877,38.3066007 C32.5926562,38.0108788 36.1159717,37.4616809 35.9300893,39.6331248 C35.7780038,41.4243547 33.5643139,42.2608253 31.8491268,42.63259 C30.3113728,42.9705579 27.1091268,43.5451034 26.0867738,42.1087398 Z" id="Path" fill="#3A3A3A"></path>
                            <path d="M63.6434583,42.1087398 C64.5644209,40.8075633 61.4466669,38.9402906 58.5147952,38.3066007 C57.137576,38.0108788 53.6142605,37.4616809 53.8001428,39.6331248 C53.9522284,41.4243547 56.157469,42.2608253 57.8811054,42.63259 C59.4188594,42.9705579 62.6211054,43.5451034 63.6434583,42.1087398 Z" id="Path" fill="#3A3A3A"></path>
                            <path d="M45.0383246,54.8247825 C44.2356508,54.1572959 41.937469,59.7253173 42.4528701,60.739221 C42.7401428,61.3306649 45.2918006,62.5389002 45.9677364,61.9643547 C46.4408915,61.5587932 44.5313728,60.5026435 44.328592,59.8774029 C43.9399289,58.6776168 45.6635653,55.3486328 45.0383246,54.8247825 Z" id="Path" fill="#3A3A3A"></path>
                            <path d="M48.3250626,67.6337665 C47.6108752,66.3983259 46.292133,65.6374327 44.8651161,65.6374327 C43.4380992,65.6374327 42.119357,66.3983259 41.4051695,67.6337665 C40.9658113,68.5885258 41.9881642,72.9821087 43.5935118,74.4776168 L43.5935118,74.4776168 C43.9142992,74.8413555 44.3759065,75.0497325 44.8608915,75.0497325 C45.3458764,75.0497325 45.8074838,74.8413555 46.1282711,74.4776168 L46.1282711,74.4776168 C47.7336187,72.9821087 48.7897685,68.6223226 48.3250626,67.6337665 Z" id="Path" fill="#01286A"></path>
                            <path d="M12.5173621,31.3022157 C11.3260252,36.8533387 10.5233514,51.3099162 14.5789663,59.2352638 C14.4691268,55.6697023 14.8493407,53.5405045 16.9531909,50.659328 C18.0008915,49.2229643 19.4879503,48.1245686 20.5525492,46.730451 C22.6563995,43.8999697 22.8591802,39.9710927 25.1489129,37.2673494 C27.0584316,35.0536595 30.066346,34.1242478 32.9728701,33.8031783 C35.8793941,33.4821087 38.8281642,33.6679911 41.7093407,33.1694884 C44.944172,32.6060236 47.9759454,31.2080878 50.5049556,29.1138734 C52.35533,27.5761194 53.8846348,25.6919483 55.7519075,24.1626435 C56.6841634,23.3853902 57.7226301,22.7452395 58.8358647,22.261574 C59.3798131,22.0357824 59.9462988,21.8686691 60.5257043,21.7630713 C61.1109852,21.6575772 61.7078752,21.6319962 62.3000359,21.6870285 C61.2040037,30.7530207 64.2554555,39.8297704 70.6055974,46.3924831 C73.3127286,48.5835705 75.3599184,51.4818064 76.5200359,54.7656381 C76.5200359,54.7656381 83.3723353,38.6276702 76.4608915,25.7595419 C69.5494476,12.8914135 53.9268808,-0.559709447 36.55533,6.32638681 C19.1837792,13.2124831 12.5173621,31.3022157 12.5173621,31.3022157 Z" id="Path" fill="#8B6002"></path>
                            <path d="M14.3001428,60.1733283 C13.9709771,60.1803303 13.6676054,59.9956692 13.5228166,59.6999697 C9.29821767,51.470451 10.4895546,36.6252103 11.6639931,31.1163333 C11.7288931,30.8144726 11.9499041,30.5701655 12.2437732,30.4754402 C12.5376423,30.3807149 12.8597239,30.4499625 13.088693,30.657098 C13.317662,30.8642335 13.4187327,31.1777881 13.3538326,31.4796488 C12.2638861,36.5491676 11.5119075,47.6767611 13.708699,55.3908788 C14.166719,53.4800547 15.0312761,51.6904214 16.2434583,50.1439269 C16.8250427,49.3894835 17.4664384,48.6831006 18.1614262,48.0316275 C18.7728447,47.4727355 19.3379735,46.865222 19.8512658,46.2150499 C20.7317648,44.8864765 21.4095012,43.4341842 21.8621749,41.905959 C22.4072958,40.0271508 23.2953253,38.2654149 24.4814262,36.7097023 C26.2726562,34.6227504 29.0946883,33.3300232 32.8714797,32.9413601 C34.1388594,32.7977237 35.4062391,32.7554777 36.6567203,32.7047825 C38.2970568,32.6843358 39.9342026,32.5544932 41.5572551,32.3161194 C44.6414825,31.7814551 47.5315179,30.4471444 49.9388594,28.4463868 C50.7837792,27.7113066 51.628699,26.874836 52.4736187,26.063713 C53.3389074,25.1722058 54.2498266,24.3261509 55.2027097,23.5289537 C56.1959422,22.6888757 57.309537,22.0024912 58.506346,21.492697 C59.1179418,21.2384342 59.7553806,21.0514521 60.4074155,20.9350499 C61.0710288,20.8173165 61.7477151,20.7917275 62.4183246,20.8590071 C62.6494442,20.8859314 62.8612839,21.0009301 63.0097685,21.1800766 C63.1589546,21.3650317 63.2233617,21.6042582 63.1872016,21.8391141 C62.142425,30.6338235 65.1013191,39.4329668 71.2477364,45.8094884 C71.5883809,46.1501329 71.5883809,46.7024268 71.2477364,47.0430713 C70.9070919,47.3837158 70.354798,47.3837158 70.0141535,47.0430713 C63.7210539,40.5114508 60.5627847,31.5758599 61.3537257,22.5403975 C61.1352729,22.5495218 60.917806,22.57494 60.7031375,22.6164403 C60.1772849,22.7082145 59.6640104,22.8613461 59.1738326,23.072697 C58.1329477,23.5135986 57.1644873,24.1089169 56.3011054,24.8385793 C55.3970412,25.5821087 54.6112658,26.4101301 53.7072016,27.2803975 C52.8031375,28.1506649 52.0173621,28.9702371 51.0541535,29.8151569 C48.412145,32.0031358 45.2424208,33.4598105 41.8614262,34.0397558 C40.1599102,34.2895859 38.4438784,34.4278845 36.7243139,34.4537665 C35.5160786,34.4537665 34.2740466,34.5467077 33.0658113,34.6734456 C29.7452765,35.0367611 27.3034583,36.1098093 25.8079503,37.8418948 C24.7654589,39.2412487 23.9866788,40.8188511 23.5097685,42.4974029 C22.856008,45.1179342 21.4174265,47.4762645 19.3865599,49.2567611 C18.7602647,49.8410434 18.1811015,50.4738851 17.6544744,51.1493815 C15.8025667,53.4269004 14.9114584,56.3366418 15.1704102,59.2606114 C15.1811095,59.6608174 14.9094716,60.0135939 14.519822,60.1055312 L14.3001428,60.1733283 Z" id="Path" fill="#3A3A3A"></path>
                            <path d="M18.7444209,40.3766542 L18.5923353,40.3766542 C18.359802,40.3443024 18.1512136,40.2166582 18.0165801,40.0243246 C17.8819466,39.831991 17.8334084,39.5923116 17.8826027,39.3627504 C19.0546236,33.3251744 23.9003355,28.6791112 29.981854,27.7620018 C31.3033637,27.6204808 32.6328112,27.5668513 33.9614262,27.601467 C36.1920145,27.601467 38.3212123,27.601467 40.1800359,26.7565472 C42.3092337,25.7426435 43.7118006,23.7317344 45.1904102,21.6025365 C46.0092241,20.3626562 46.9185831,19.1850081 47.9110519,18.079221 C52.0112629,13.8658823 58.1960728,12.4386185 63.7279503,14.4291676 C64.1782543,14.5994898 64.4052244,15.1026068 64.2349022,15.5529109 C64.0645799,16.0032149 63.5614629,16.230185 63.1111588,16.0598627 C58.2365086,14.3045872 52.7858114,15.5598993 49.1699824,19.2705579 C48.2451104,20.3140202 47.3979233,21.4238352 46.635223,22.5910927 C45.0890198,24.8132317 43.4921214,27.1114135 40.9404637,28.328098 C38.7267738,29.3842478 36.3103032,29.3673494 33.9614262,29.350451 C32.717571,29.3130844 31.4726174,29.3610759 30.23533,29.4940873 C24.9196643,30.3436418 20.6879297,34.4003165 19.6146883,39.6753708 C19.5427275,40.0950126 19.1697684,40.3955525 18.7444209,40.3766542 Z" id="Path" fill="#3A3A3A"></path>
                            <path d="M72.7347952,19.616975 C72.4523585,19.6221275 72.1860313,19.4857934 72.0250626,19.2536595 C71.3260245,18.285141 70.3192917,17.5822152 69.1692337,17.2596488 C68.9435908,17.2029062 68.751333,17.0556268 68.6377967,16.8525407 C68.5242604,16.6494546 68.4994951,16.4085377 68.5693407,16.1866007 C68.6260833,15.9609578 68.7733627,15.7687 68.9764488,15.6551637 C69.1795349,15.5416274 69.4204518,15.5168621 69.6423888,15.5867077 C71.1713833,16.014917 72.5092302,16.9505159 73.4360786,18.2397558 C73.5761029,18.4238018 73.6345702,18.6571977 73.597847,18.8855202 C73.5611238,19.1138427 73.4324201,19.3171341 73.2417471,19.4479911 C73.0954947,19.5576804 72.9176107,19.616975 72.7347952,19.616975 Z" id="Path" fill="#3A3A3A"></path>
                            <path d="M64.2433514,12.8576168 C64.0228885,12.8589411 63.8106397,12.7740416 63.6519075,12.6210392 C61.0897906,10.2424296 57.6913495,8.97294935 54.1972551,9.08927451 C53.8863385,9.09833036 53.5942085,8.94082627 53.4309076,8.67609251 C53.2676067,8.41135874 53.2579442,8.07961467 53.40556,7.80582508 C53.5531757,7.53203549 53.8356433,7.35779554 54.1465599,7.34873975 C58.0991034,7.2401715 61.9376164,8.68037187 64.8432444,11.3621087 C65.0194789,11.5159362 65.1240522,11.7359435 65.1320587,11.9697327 C65.1400652,12.2035218 65.0507882,12.4301679 64.8854904,12.5956916 C64.7187884,12.7708685 64.4850173,12.8662225 64.2433514,12.8576168 Z" id="Path" fill="#3A3A3A"></path>
                            <path d="M61.0918006,24.7794349 C60.7270384,24.3988026 60.1350631,24.3515899 59.7145813,24.6695954 C59.5371482,24.8132317 59.3681642,24.9484189 59.232977,25.0751569 C58.7091268,25.5736595 58.5316936,25.9876702 59.1484851,26.6382585 C59.7652765,27.2888467 60.1877364,27.1198627 60.7031375,26.6382585 C60.8578639,26.4913935 61.004531,26.3362649 61.1424957,26.1735526 C61.4773775,25.7649442 61.4556453,25.1709293 61.0918006,24.7878841 L61.0918006,24.7794349 Z" id="Path" fill="#FFFFFF"></path>
                            <path d="M76.5453834,55.6359055 L76.4524423,55.6359055 C76.0952251,55.6038897 75.7971433,55.3498427 75.7089129,55.0022157 C74.9963364,52.745753 73.8923844,50.6322283 72.4475225,48.7582585 C72.2975663,48.5786417 72.2288093,48.3448823 72.2576345,48.1126795 C72.2864597,47.8804767 72.4102857,47.6706243 72.599608,47.5331248 C72.7787889,47.3859752 73.0105669,47.3189247 73.2406358,47.3476833 C73.4707048,47.3764419 73.6788464,47.4984824 73.8162925,47.6852103 C74.9633666,49.1710374 75.914658,50.7981716 76.6467738,52.5266007 C79.6471726,45.2385486 79.7589571,37.0812996 76.9593941,29.7137665 C76.8658317,29.5004583 76.8644778,29.2579875 76.9556521,29.0436477 C77.0468265,28.829308 77.2224406,28.6621146 77.4409984,28.581574 C77.6543066,28.4880116 77.8967774,28.4866576 78.1111172,28.577832 C78.325457,28.6690063 78.4926503,28.8446205 78.5731909,29.0631783 C81.8125741,37.5664089 81.3562573,47.0357489 77.3142605,55.188098 C77.1636895,55.4711569 76.8658803,55.6446062 76.5453834,55.6359055 Z" id="Path" fill="#3A3A3A"></path>
                            <path d="M35.9554369,47.245852 C34.7686595,47.2379123 33.6753452,47.8886946 33.1165064,48.9356916 C32.4300731,47.6381934 30.9493571,46.973547 29.5236683,47.3229805 C28.0979795,47.6724141 27.0924283,48.9464397 27.0837792,50.4143012 C27.0837792,51.1662799 27.0837792,53.1602906 31.3844209,55.9400766 L33.1165064,57.06382 L34.8570412,55.9400766 C39.1576829,53.1602906 39.1576829,51.1662799 39.1576829,50.4143012 C39.1391559,48.6589622 37.7108737,47.2457543 35.9554369,47.245852 L35.9554369,47.245852 Z" id="Path" fill="#3A3A3A"></path>
                            <path d="M54.2817471,47.245852 C55.4685245,47.2379123 56.5618388,47.8886946 57.1206776,48.9356916 C57.8027223,47.628721 59.2889409,46.9562767 60.7209047,47.3067573 C62.1528686,47.657238 63.1605228,48.9400708 63.161854,50.4143012 C63.161854,51.1662799 63.161854,53.1602906 58.8612123,55.9400766 L57.1206776,57.06382 L55.3801428,55.9485258 C51.0795011,53.1687398 51.0795011,51.1747291 51.0795011,50.4227504 C51.0934222,48.6641057 52.5230472,47.245797 54.2817471,47.245852 Z" id="Path" fill="#3A3A3A"></path>
                        </g>
                    </g>
                </g>
            </g>
        </g>
    </g>
</svg>